<svg width="998.62103353099" height="1001.3789664690099" xmlns="http://www.w3.org/2000/svg">
<line x1="181.70036924747603" y1="754.1739762156453" x2="181.69523143915973" y2="754.0504281088366" stroke-width="5" stroke="red" />
<line x1="181.70036924747603" y1="754.1739762156453" x2="181.74365523747167" y2="755.2146145339688" stroke-width="5" stroke="red" />
<line x1="181.69523143915973" y1="754.0504281088366" x2="181.72076552290102" y2="753.8674086531378" stroke-width="5" stroke="red" />
<line x1="182.69224722470943" y1="746.9049669309264" x2="182.78125502083694" y2="746.266967657972" stroke-width="5" stroke="red" />
<line x1="182.69224722470943" y1="746.9049669309264" x2="181.72076552290102" y2="753.8674086531378" stroke-width="5" stroke="red" />
<line x1="182.78125502083694" y1="746.266967657972" x2="183.0757771113711" y2="745.4293907250545" stroke-width="5" stroke="red" />
<line x1="185.24301880730826" y1="773.6408749054751" x2="184.3645522592768" y2="771.3597548286747" stroke-width="5" stroke="red" />
<line x1="185.24301880730826" y1="773.6408749054751" x2="187.03517185205286" y2="778.2944528781554" stroke-width="5" stroke="red" />
<line x1="185.0230476558701" y1="739.8918380316173" x2="185.2959182515861" y2="739.1159337241176" stroke-width="5" stroke="red" />
<line x1="185.0230476558701" y1="739.8918380316173" x2="183.0757771113711" y2="745.4293907250545" stroke-width="5" stroke="red" />
<line x1="183.39146859193073" y1="767.2522257224635" x2="182.24903238943213" y2="762.4292782998191" stroke-width="5" stroke="red" />
<line x1="183.39146859193073" y1="767.2522257224635" x2="184.3645522592768" y2="771.3597548286747" stroke-width="5" stroke="red" />
<line x1="185.84133060844013" y1="738.2164418708636" x2="188.88824006323557" y2="733.1913306154764" stroke-width="5" stroke="red" />
<line x1="185.84133060844013" y1="738.2164418708636" x2="185.2959182515861" y2="739.1159337241176" stroke-width="5" stroke="red" />
<line x1="182.1361580633139" y1="760.8173847882061" x2="181.74365523747167" y2="755.2146145339688" stroke-width="5" stroke="red" />
<line x1="182.1361580633139" y1="760.8173847882061" x2="182.24903238943213" y2="762.4292782998191" stroke-width="5" stroke="red" />
<line x1="189.22626336819235" y1="732.6338437902524" x2="188.88824006323557" y2="733.1913306154764" stroke-width="5" stroke="red" />
<line x1="189.74977427095664" y1="732.0657650788436" x2="194.53280148490538" y2="726.8753258458773" stroke-width="5" stroke="red" />
<line x1="189.74977427095664" y1="732.0657650788436" x2="189.22626336819235" y2="732.6338437902524" stroke-width="5" stroke="red" />
<line x1="194.80759930157242" y1="792.0751241780257" x2="193.83432991036744" y2="790.6981494219813" stroke-width="5" stroke="red" />
<line x1="194.80759930157242" y1="792.0751241780257" x2="196.14429772724975" y2="793.9663705005004" stroke-width="5" stroke="red" />
<line x1="194.55240185888397" y1="726.8540546279477" x2="194.53280148490538" y2="726.8753258458773" stroke-width="5" stroke="red" />
<line x1="191.13177040001295" y1="786.0127108517133" x2="188.1236493524283" y2="780.7972032542747" stroke-width="5" stroke="red" />
<line x1="191.13177040001295" y1="786.0127108517133" x2="193.83432991036744" y2="790.6981494219813" stroke-width="5" stroke="red" />
<line x1="194.57749692467712" y1="726.8351312405629" x2="194.7224896386442" y2="726.7257986471813" stroke-width="5" stroke="red" />
<line x1="194.57749692467712" y1="726.8351312405629" x2="194.55240185888397" y2="726.8540546279477" stroke-width="5" stroke="red" />
<line x1="187.74838637540626" y1="779.9343419588495" x2="187.03517185205286" y2="778.2944528781554" stroke-width="5" stroke="red" />
<line x1="187.74838637540626" y1="779.9343419588495" x2="188.1236493524283" y2="780.7972032542747" stroke-width="5" stroke="red" />
<line x1="204.04517351466214" y1="803.6598850333338" x2="201.64135139286282" y2="801.0140713872714" stroke-width="5" stroke="red" />
<line x1="204.04517351466214" y1="803.6598850333338" x2="206.77713049355665" y2="806.6666801875872" stroke-width="5" stroke="red" />
<line x1="199.22623192310664" y1="797.9177232668499" x2="196.14429772724975" y2="793.9663705005004" stroke-width="5" stroke="red" />
<line x1="199.22623192310664" y1="797.9177232668499" x2="201.64135139286282" y2="801.0140713872714" stroke-width="5" stroke="red" />
<line x1="201.49221489522" y1="721.8094092602704" x2="194.7224896386442" y2="726.7257986471813" stroke-width="5" stroke="red" />
<line x1="201.49221489522" y1="721.8094092602704" x2="206.59090231328636" y2="719.2009654546627" stroke-width="5" stroke="red" />
<line x1="209.86868742974025" y1="717.5240506914915" x2="206.59090231328636" y2="719.2009654546627" stroke-width="5" stroke="red" />
<line x1="209.86868742974025" y1="717.5240506914915" x2="213.23716525813063" y2="716.3150492949143" stroke-width="5" stroke="red" />
<line x1="215.1526241403482" y1="814.6542666002349" x2="211.8101494235165" y2="811.6964894110487" stroke-width="5" stroke="red" />
<line x1="215.1526241403482" y1="814.6542666002349" x2="218.32709718674653" y2="817.4634206061847" stroke-width="5" stroke="red" />
<line x1="209.3563583489083" y1="809.2442112513168" x2="206.77713049355665" y2="806.6666801875872" stroke-width="5" stroke="red" />
<line x1="209.3563583489083" y1="809.2442112513168" x2="211.8101494235165" y2="811.6964894110487" stroke-width="5" stroke="red" />
<line x1="219.96938834799832" y1="714.024065686031" x2="213.23716525813063" y2="716.3150492949143" stroke-width="5" stroke="red" />
<line x1="219.96938834799832" y1="714.024065686031" x2="228.14614912789406" y2="712.1422435736765" stroke-width="5" stroke="red" />
<line x1="227.9991074528854" y1="824.9827325687471" x2="224.85017317282833" y2="822.6986577266487" stroke-width="5" stroke="red" />
<line x1="227.9991074528854" y1="824.9827325687471" x2="230.51338913851765" y2="826.8064439925552" stroke-width="5" stroke="red" />
<line x1="221.36868210121514" y1="819.904537863849" x2="218.32709718674653" y2="817.4634206061847" stroke-width="5" stroke="red" />
<line x1="221.36868210121514" y1="819.904537863849" x2="224.85017317282833" y2="822.6986577266487" stroke-width="5" stroke="red" />
<line x1="231.90585466447618" y1="711.3299708243194" x2="228.14614912789406" y2="712.1422435736765" stroke-width="5" stroke="red" />
<line x1="242.46724273980854" y1="834.5875253277775" x2="241.44665833782864" y2="833.9740929548215" stroke-width="5" stroke="red" />
<line x1="242.46724273980854" y1="834.5875253277775" x2="243.15425821258344" y2="835.0004716695131" stroke-width="5" stroke="red" />
<line x1="235.12595649179184" y1="829.8303455884662" x2="230.51338913851765" y2="826.8064439925552" stroke-width="5" stroke="red" />
<line x1="235.12595649179184" y1="829.8303455884662" x2="241.44665833782864" y2="833.9740929548215" stroke-width="5" stroke="red" />
<line x1="241.617276726863" y1="710.0256150290146" x2="246.1353511340189" y2="709.4625642673308" stroke-width="5" stroke="red" />
<line x1="241.617276726863" y1="710.0256150290146" x2="231.90585466447618" y2="711.3299708243194" stroke-width="5" stroke="red" />
<line x1="250.50639979385528" y1="838.9721433710006" x2="243.15425821258344" y2="835.0004716695131" stroke-width="5" stroke="red" />
<line x1="250.50639979385528" y1="838.9721433710006" x2="256.1835318598195" y2="842.0390995774911" stroke-width="5" stroke="red" />
<line x1="267.4049680114147" y1="847.296922968885" x2="263.35870393143506" y2="845.4912615513961" stroke-width="5" stroke="red" />
<line x1="267.4049680114147" y1="847.296922968885" x2="269.47120273440504" y2="848.2189649810913" stroke-width="5" stroke="red" />
<line x1="254.2271578219608" y1="708.955676292846" x2="263.2578914259123" y2="708.4406514652846" stroke-width="5" stroke="red" />
<line x1="254.2271578219608" y1="708.955676292846" x2="246.1353511340189" y2="709.4625642673308" stroke-width="5" stroke="red" />
<line x1="258.7291240041958" y1="843.2638728344774" x2="256.1835318598195" y2="842.0390995774911" stroke-width="5" stroke="red" />
<line x1="258.7291240041958" y1="843.2638728344774" x2="263.35870393143506" y2="845.4912615513961" stroke-width="5" stroke="red" />
<line x1="266.27159267460615" y1="708.412803645208" x2="270.209771639884" y2="708.383842292369" stroke-width="5" stroke="red" />
<line x1="266.27159267460615" y1="708.412803645208" x2="263.2578914259123" y2="708.4406514652846" stroke-width="5" stroke="red" />
<line x1="276.5943487182452" y1="851.020273398722" x2="269.47120273440504" y2="848.2189649810913" stroke-width="5" stroke="red" />
<line x1="276.5943487182452" y1="851.020273398722" x2="282.98019657188144" y2="853.5317632714549" stroke-width="5" stroke="red" />
<line x1="277.8554940250859" y1="708.3276062039198" x2="284.69905682299355" y2="708.2904396160172" stroke-width="5" stroke="red" />
<line x1="277.8554940250859" y1="708.3276062039198" x2="270.209771639884" y2="708.383842292369" stroke-width="5" stroke="red" />
<line x1="287.12256852628786" y1="344.8113983770687" x2="286.89356177935747" y2="346.86351518245544" stroke-width="5" stroke="red" />
<line x1="287.12256852628786" y1="344.8113983770687" x2="287.4970188127998" y2="342.4666991406517" stroke-width="5" stroke="red" />
<line x1="295.889240153523" y1="857.8937624917977" x2="293.83418766522266" y2="857.2374206287964" stroke-width="5" stroke="red" />
<line x1="295.889240153523" y1="857.8937624917977" x2="296.6463906538937" y2="858.1355838571444" stroke-width="5" stroke="red" />
<line x1="286.049475201647" y1="854.5796142150235" x2="282.98019657188144" y2="853.5317632714549" stroke-width="5" stroke="red" />
<line x1="286.049475201647" y1="854.5796142150235" x2="293.83418766522266" y2="857.2374206287964" stroke-width="5" stroke="red" />
<line x1="285.8033852605351" y1="360.32426631543035" x2="285.46437615567885" y2="370.9861283081472" stroke-width="5" stroke="red" />
<line x1="285.8033852605351" y1="360.32426631543035" x2="286.89356177935747" y2="346.86351518245544" stroke-width="5" stroke="red" />
<line x1="285.49818164101384" y1="376.0848151259733" x2="286.3466225965817" y2="390.9163433795657" stroke-width="5" stroke="red" />
<line x1="285.49818164101384" y1="376.0848151259733" x2="285.46437615567885" y2="370.9861283081472" stroke-width="5" stroke="red" />
<line x1="286.47304394407" y1="392.1086996594" x2="288.92329849395884" y2="407.5764861552415" stroke-width="5" stroke="red" />
<line x1="286.47304394407" y1="392.1086996594" x2="286.3466225965817" y2="390.9163433795657" stroke-width="5" stroke="red" />
<line x1="289.54688399179014" y1="329.6309172509999" x2="287.4970188127998" y2="342.4666991406517" stroke-width="5" stroke="red" />
<line x1="289.54688399179014" y1="329.6309172509999" x2="292.49612622218297" y2="315.54411453673396" stroke-width="5" stroke="red" />
<line x1="292.6936601297416" y1="314.690670265154" x2="292.49612622218297" y2="315.54411453673396" stroke-width="5" stroke="red" />
<line x1="292.6936601297416" y1="314.690670265154" x2="292.84313742310513" y2="314.1574035720718" stroke-width="5" stroke="red" />
<line x1="288.92329849395884" y1="407.5764861552415" x2="289.10705646630447" y2="408.40595499481896" stroke-width="5" stroke="red" />
<line x1="289.12308764694274" y1="708.4166236892416" x2="292.27827459795907" y2="708.5018937049923" stroke-width="5" stroke="red" />
<line x1="289.12308764694274" y1="708.4166236892416" x2="284.69905682299355" y2="708.2904396160172" stroke-width="5" stroke="red" />
<line x1="292.75234141599765" y1="421.59903101333134" x2="289.10705646630447" y2="408.40595499481896" stroke-width="5" stroke="red" />
<line x1="292.75234141599765" y1="421.59903101333134" x2="293.96877175416324" y2="424.97816958688037" stroke-width="5" stroke="red" />
<line x1="296.7805641069465" y1="300.1104565763286" x2="292.84313742310513" y2="314.1574035720718" stroke-width="5" stroke="red" />
<line x1="296.7805641069465" y1="300.1104565763286" x2="299.2799382319904" y2="292.5592658329329" stroke-width="5" stroke="red" />
<line x1="297.50280181746984" y1="433.4330766863111" x2="293.96877175416324" y2="424.97816958688037" stroke-width="5" stroke="red" />
<line x1="297.50280181746984" y1="433.4330766863111" x2="301.9685856192333" y2="441.81563684455824" stroke-width="5" stroke="red" />
<line x1="296.6463906538937" y1="858.1355838571444" x2="298.35094302753146" y2="858.6023231611866" stroke-width="5" stroke="red" />
<line x1="301.5159384595203" y1="285.8037527975747" x2="299.2799382319904" y2="292.5592658329329" stroke-width="5" stroke="red" />
<line x1="301.5159384595203" y1="285.8037527975747" x2="306.14234240110994" y2="273.7475552603275" stroke-width="5" stroke="red" />
<line x1="300.1139288179187" y1="708.7136635050279" x2="309.49608611079293" y2="708.9532220181073" stroke-width="5" stroke="red" />
<line x1="300.1139288179187" y1="708.7136635050279" x2="292.27827459795907" y2="708.5018937049923" stroke-width="5" stroke="red" />
<line x1="302.9169392638158" y1="443.4088192409249" x2="301.9685856192333" y2="441.81563684455824" stroke-width="5" stroke="red" />
<line x1="302.9169392638158" y1="443.4088192409249" x2="303.9934533023307" y2="444.82466471649894" stroke-width="5" stroke="red" />
<line x1="306.89393941254616" y1="271.78893318681463" x2="306.14234240110994" y2="273.7475552603275" stroke-width="5" stroke="red" />
<line x1="306.89393941254616" y1="271.78893318681463" x2="310.82477934562917" y2="262.83110900367467" stroke-width="5" stroke="red" />
<line x1="309.0034312612678" y1="451.4137596792238" x2="303.9934533023307" y2="444.82466471649894" stroke-width="5" stroke="red" />
<line x1="309.0034312612678" y1="451.4137596792238" x2="314.6984141781456" y2="457.080453964614" stroke-width="5" stroke="red" />
<line x1="312.9431912657319" y1="258.1025941825218" x2="310.82477934562917" y2="262.83110900367467" stroke-width="5" stroke="red" />
<line x1="312.9431912657319" y1="258.1025941825218" x2="313.34162064598627" y2="257.3097441418826" stroke-width="5" stroke="red" />
<line x1="310.46543152016557" y1="861.8902930821763" x2="298.35094302753146" y2="858.6023231611866" stroke-width="5" stroke="red" />
<line x1="310.46543152016557" y1="861.8902930821763" x2="319.1749189807786" y2="863.8507555434842" stroke-width="5" stroke="red" />
<line x1="310.91916694226757" y1="708.9895539259344" x2="313.97145692659296" y2="709.0628614809776" stroke-width="5" stroke="red" />
<line x1="310.91916694226757" y1="708.9895539259344" x2="309.49608611079293" y2="708.9532220181073" stroke-width="5" stroke="red" />
<line x1="315.46849639034366" y1="457.8467107977053" x2="314.6984141781456" y2="457.080453964614" stroke-width="5" stroke="red" />
<line x1="315.46849639034366" y1="457.8467107977053" x2="317.4611061900656" y2="459.25928591424116" stroke-width="5" stroke="red" />
<line x1="319.64757130529875" y1="244.7614410509386" x2="313.34162064598627" y2="257.3097441418826" stroke-width="5" stroke="red" />
<line x1="319.64757130529875" y1="244.7614410509386" x2="320.78320010321545" y2="242.73250698411633" stroke-width="5" stroke="red" />
<line x1="322.36835512337706" y1="462.52546925733674" x2="317.4611061900656" y2="459.25928591424116" stroke-width="5" stroke="red" />
<line x1="322.36835512337706" y1="462.52546925733674" x2="323.86922477149943" y2="463.16743619364263" stroke-width="5" stroke="red" />
<line x1="328.8529923800761" y1="709.673061853439" x2="321.53936966431354" y2="709.3986924354717" stroke-width="5" stroke="red" />
<line x1="321.53936966431354" y1="709.3986924354717" x2="313.97145692659296" y2="709.0628614809776" stroke-width="5" stroke="red" />
<line x1="328.8529923800761" y1="709.673061853439" x2="332.0298467542781" y2="709.8108024521256" stroke-width="5" stroke="red" />
<line x1="326.9324144365792" y1="231.7462088587891" x2="320.78320010321545" y2="242.73250698411633" stroke-width="5" stroke="red" />
<line x1="328.40519094577974" y1="865.7696647160636" x2="325.1505486794997" y2="865.1958106777059" stroke-width="5" stroke="red" />
<line x1="325.1505486794997" y1="865.1958106777059" x2="319.1749189807786" y2="863.8507555434842" stroke-width="5" stroke="red" />
<line x1="328.40519094577974" y1="865.7696647160636" x2="339.92025984519415" y2="867.8000850116944" stroke-width="5" stroke="red" />
<line x1="329.56202741141584" y1="465.6025049233851" x2="323.86922477149943" y2="463.16743619364263" stroke-width="5" stroke="red" />
<line x1="329.56202741141584" y1="465.6025049233851" x2="332.0862851564416" y2="466.12062767942524" stroke-width="5" stroke="red" />
<line x1="328.3752648701751" y1="229.41864378327085" x2="334.78991765726454" y2="219.07071391700853" stroke-width="5" stroke="red" />
<line x1="328.3752648701751" y1="229.41864378327085" x2="326.9324144365792" y2="231.7462088587891" stroke-width="5" stroke="red" />
<line x1="337.6842175200599" y1="710.015466024623" x2="343.02908765945057" y2="710.2089212374202" stroke-width="5" stroke="red" />
<line x1="337.6842175200599" y1="710.015466024623" x2="332.0298467542781" y2="709.8108024521256" stroke-width="5" stroke="red" />
<line x1="336.9757042110129" y1="467.1242038579593" x2="332.0862851564416" y2="466.12062767942524" stroke-width="5" stroke="red" />
<line x1="336.08561850950787" y1="217.17493530978845" x2="343.21168163871425" y2="206.74843901271947" stroke-width="5" stroke="red" />
<line x1="336.08561850950787" y1="217.17493530978845" x2="334.78991765726454" y2="219.07071391700853" stroke-width="5" stroke="red" />
<line x1="353.6386549250294" y1="869.5000195423042" x2="345.5700280137068" y2="868.5234379090555" stroke-width="5" stroke="red" />
<line x1="353.6386549250294" y1="869.5000195423042" x2="354.7595113894088" y2="869.6357017793224" stroke-width="5" stroke="red" />
<line x1="340.64853811684947" y1="867.8933406445489" x2="339.92025984519415" y2="867.8000850116944" stroke-width="5" stroke="red" />
<line x1="340.64853811684947" y1="867.8933406445489" x2="345.5700280137068" y2="868.5234379090555" stroke-width="5" stroke="red" />
<line x1="343.02908765945057" y1="710.2089212374202" x2="350.08276467491754" y2="710.4301849949221" stroke-width="5" stroke="red" />
<line x1="339.595727251464" y1="467.10987200052915" x2="344.5714671347069" y2="467.08260264409813" stroke-width="5" stroke="red" />
<line x1="339.595727251464" y1="467.10987200052915" x2="336.9757042110129" y2="467.1242038579593" stroke-width="5" stroke="red" />
<line x1="343.88959639198924" y1="205.8455894105053" x2="348.76919334478043" y2="199.34695984127816" stroke-width="5" stroke="red" />
<line x1="343.88959639198924" y1="205.8455894105053" x2="343.21168163871425" y2="206.74843901271947" stroke-width="5" stroke="red" />
<line x1="346.5312581039252" y1="466.67629960882647" x2="352.3104510676532" y2="465.47803704180046" stroke-width="5" stroke="red" />
<line x1="346.5312581039252" y1="466.67629960882647" x2="344.5714671347069" y2="467.08260264409813" stroke-width="5" stroke="red" />
<line x1="351.7761269910725" y1="195.3993066627867" x2="352.22113635406083" y2="194.81507193696396" stroke-width="5" stroke="red" />
<line x1="351.7761269910725" y1="195.3993066627867" x2="348.76919334478043" y2="199.34695984127816" stroke-width="5" stroke="red" />
<line x1="353.94340469511815" y1="710.5512935059022" x2="362.44682668231286" y2="710.7772278140426" stroke-width="5" stroke="red" />
<line x1="353.94340469511815" y1="710.5512935059022" x2="350.08276467491754" y2="710.4301849949221" stroke-width="5" stroke="red" />
<line x1="367.3519665800495" y1="870.594058994727" x2="354.7595113894088" y2="869.6357017793224" stroke-width="5" stroke="red" />
<line x1="367.3519665800495" y1="870.594058994727" x2="369.6417996381499" y2="870.7682532730302" stroke-width="5" stroke="red" />
<line x1="352.99378088775416" y1="465.2027407603699" x2="355.21739106656867" y2="464.30698092080513" stroke-width="5" stroke="red" />
<line x1="352.99378088775416" y1="465.2027407603699" x2="352.3104510676532" y2="465.47803704180046" stroke-width="5" stroke="red" />
<line x1="359.0237396785926" y1="462.6864831943722" x2="360.2435670147203" y2="462.1671823745802" stroke-width="5" stroke="red" />
<line x1="359.0237396785926" y1="462.6864831943722" x2="355.21739106656867" y2="464.30698092080513" stroke-width="5" stroke="red" />
<line x1="359.7369380362572" y1="185.85813612533528" x2="361.86137906432725" y2="183.32631479602952" stroke-width="5" stroke="red" />
<line x1="359.7369380362572" y1="185.85813612533528" x2="352.22113635406083" y2="194.81507193696396" stroke-width="5" stroke="red" />
<line x1="364.79554254674036" y1="710.8396152063043" x2="374.08960492776333" y2="711.0414442043702" stroke-width="5" stroke="red" />
<line x1="364.79554254674036" y1="710.8396152063043" x2="362.44682668231286" y2="710.7772278140426" stroke-width="5" stroke="red" />
<line x1="364.69562651355585" y1="459.40477533739937" x2="368.34639852991734" y2="457.13965311058" stroke-width="5" stroke="red" />
<line x1="364.69562651355585" y1="459.40477533739937" x2="360.2435670147203" y2="462.1671823745802" stroke-width="5" stroke="red" />
<line x1="381.8106745002504" y1="871.1493300259958" x2="369.6417996381499" y2="870.7682532730302" stroke-width="5" stroke="red" />
<line x1="381.8106745002504" y1="871.1493300259958" x2="384.54784287401776" y2="871.2350996865916" stroke-width="5" stroke="red" />
<line x1="368.1124726152332" y1="176.54870875358503" x2="372.06665621751335" y2="172.2614714570693" stroke-width="5" stroke="red" />
<line x1="368.1124726152332" y1="176.54870875358503" x2="361.86137906432725" y2="183.32631479602952" stroke-width="5" stroke="red" />
<line x1="370.09078834479203" y1="455.72569275424564" x2="372.9676884131944" y2="453.3937099376068" stroke-width="5" stroke="red" />
<line x1="370.09078834479203" y1="455.72569275424564" x2="368.34639852991734" y2="457.13965311058" stroke-width="5" stroke="red" />
<line x1="375.6078147376967" y1="711.0744180212973" x2="385.13530617964676" y2="711.2353672186679" stroke-width="5" stroke="red" />
<line x1="375.6078147376967" y1="711.0744180212973" x2="374.08960492776333" y2="711.0414442043702" stroke-width="5" stroke="red" />
<line x1="375.2212557837806" y1="451.5000969216834" x2="376.6508652554387" y2="450.29882540291294" stroke-width="5" stroke="red" />
<line x1="375.2212557837806" y1="451.5000969216834" x2="372.9676884131944" y2="453.3937099376068" stroke-width="5" stroke="red" />
<line x1="375.7640150003156" y1="168.5784586553704" x2="372.06665621751335" y2="172.2614714570693" stroke-width="5" stroke="red" />
<line x1="375.7640150003156" y1="168.5784586553704" x2="381.947238231535" y2="162.47941610709387" stroke-width="5" stroke="red" />
<line x1="380.11631009970046" y1="446.7441905768104" x2="384.3838517409854" y2="442.36664103831737" stroke-width="5" stroke="red" />
<line x1="380.11631009970046" y1="446.7441905768104" x2="376.6508652554387" y2="450.29882540291294" stroke-width="5" stroke="red" />
<line x1="384.54784287401776" y1="871.2350996865916" x2="397.1368135925362" y2="871.0674602929755" stroke-width="5" stroke="red" />
<line x1="384.8512122515016" y1="441.87340497761335" x2="385.25024523029424" y2="441.45226486779944" stroke-width="5" stroke="red" />
<line x1="384.8512122515016" y1="441.87340497761335" x2="384.3838517409854" y2="442.36664103831737" stroke-width="5" stroke="red" />
<line x1="386.4020784223931" y1="711.2567667465407" x2="385.13530617964676" y2="711.2353672186679" stroke-width="5" stroke="red" />
<line x1="383.69556559240505" y1="160.88709459478486" x2="388.58129127295445" y2="156.4372838898582" stroke-width="5" stroke="red" />
<line x1="383.69556559240505" y1="160.88709459478486" x2="381.947238231535" y2="162.47941610709387" stroke-width="5" stroke="red" />
<line x1="391.3075065798462" y1="154.05274890783147" x2="392.3531838028688" y2="153.13814207896107" stroke-width="5" stroke="red" />
<line x1="391.3075065798462" y1="154.05274890783147" x2="388.58129127295445" y2="156.4372838898582" stroke-width="5" stroke="red" />
<line x1="389.3923900850336" y1="436.3467869256881" x2="393.33209615255936" y2="431.4909237081056" stroke-width="5" stroke="red" />
<line x1="389.3923900850336" y1="436.3467869256881" x2="385.25024523029424" y2="441.45226486779944" stroke-width="5" stroke="red" />
<line x1="393.8344807005507" y1="430.858816011318" x2="394.39313275270206" y2="430.155908136512" stroke-width="5" stroke="red" />
<line x1="393.8344807005507" y1="430.858816011318" x2="393.33209615255936" y2="431.4909237081056" stroke-width="5" stroke="red" />
<line x1="395.6842528956548" y1="711.3685581799712" x2="386.4020784223931" y2="711.2567667465407" stroke-width="5" stroke="red" />
<line x1="395.6842528956548" y1="711.3685581799712" x2="397.2001376946144" y2="711.3868134892809" stroke-width="5" stroke="red" />
<line x1="399.4617323581867" y1="871.0364501118302" x2="413.48187304607393" y2="870.2232711754307" stroke-width="5" stroke="red" />
<line x1="399.4617323581867" y1="871.0364501118302" x2="397.1368135925362" y2="871.0674602929755" stroke-width="5" stroke="red" />
<line x1="398.1443902007946" y1="424.8154651138657" x2="400.9602501540331" y2="420.8066398959104" stroke-width="5" stroke="red" />
<line x1="398.1443902007946" y1="424.8154651138657" x2="394.39313275270206" y2="430.155908136512" stroke-width="5" stroke="red" />
<line x1="398.95498812528797" y1="147.8554196282923" x2="403.35738228482126" y2="144.3326074573852" stroke-width="5" stroke="red" />
<line x1="398.95498812528797" y1="147.8554196282923" x2="392.3531838028688" y2="153.13814207896107" stroke-width="5" stroke="red" />
<line x1="402.3910007927979" y1="418.74401526994694" x2="404.4213250692765" y2="415.8171679765123" stroke-width="5" stroke="red" />
<line x1="402.3910007927979" y1="418.74401526994694" x2="400.9602501540331" y2="420.8066398959104" stroke-width="5" stroke="red" />
<line x1="405.8185485435404" y1="711.4489797091841" x2="397.2001376946144" y2="711.3868134892809" stroke-width="5" stroke="red" />
<line x1="405.8185485435404" y1="711.4489797091841" x2="408.0237395190737" y2="711.4648628095015" stroke-width="5" stroke="red" />
<line x1="406.5722556520149" y1="412.39248687480415" x2="407.8639946763887" y2="410.33571199488375" stroke-width="5" stroke="red" />
<line x1="406.5722556520149" y1="412.39248687480415" x2="404.4213250692765" y2="415.8171679765123" stroke-width="5" stroke="red" />
<line x1="406.6122396804876" y1="141.95092227747304" x2="413.2111668013988" y2="137.12240187842457" stroke-width="5" stroke="red" />
<line x1="406.6122396804876" y1="141.95092227747304" x2="403.35738228482126" y2="144.3326074573852" stroke-width="5" stroke="red" />
<line x1="410.71522432250487" y1="405.775838381312" x2="414.28764246834356" y2="400.06279469055966" stroke-width="5" stroke="red" />
<line x1="410.71522432250487" y1="405.775838381312" x2="407.8639946763887" y2="410.33571199488375" stroke-width="5" stroke="red" />
<line x1="414.3677102128133" y1="870.1719095145422" x2="419.52144292270987" y2="869.6422947229795" stroke-width="5" stroke="red" />
<line x1="414.3677102128133" y1="870.1719095145422" x2="413.48187304607393" y2="870.2232711754307" stroke-width="5" stroke="red" />
<line x1="414.27825839774056" y1="136.38806425884962" x2="414.84616673242766" y2="135.99723757346564" stroke-width="5" stroke="red" />
<line x1="414.27825839774056" y1="136.38806425884962" x2="413.2111668013988" y2="137.12240187842457" stroke-width="5" stroke="red" />
<line x1="414.8494402197094" y1="399.16032235156916" x2="415.9809362639635" y2="397.3427064425151" stroke-width="5" stroke="red" />
<line x1="414.8494402197094" y1="399.16032235156916" x2="414.28764246834356" y2="400.06279469055966" stroke-width="5" stroke="red" />
<line x1="415.6065686361516" y1="711.4828562962151" x2="408.0237395190737" y2="711.4648628095015" stroke-width="5" stroke="red" />
<line x1="415.6065686361516" y1="711.4828562962151" x2="418.894950319914" y2="711.4906998467602" stroke-width="5" stroke="red" />
<line x1="418.9795524087091" y1="392.1651959118286" x2="420.2722819104691" y2="389.9331145392976" stroke-width="5" stroke="red" />
<line x1="418.9795524087091" y1="392.1651959118286" x2="415.9809362639635" y2="397.3427064425151" stroke-width="5" stroke="red" />
<line x1="421.95283663554125" y1="131.56427081553474" x2="427.04568394412945" y2="128.38757204793527" stroke-width="5" stroke="red" />
<line x1="427.04568394412945" y1="128.38757204793527" x2="431.29667466575705" y2="125.98974539205084" stroke-width="5" stroke="red" />
<line x1="421.95283663554125" y1="131.56427081553474" x2="414.84616673242766" y2="135.99723757346564" stroke-width="5" stroke="red" />
<line x1="423.1372984599934" y1="385.0039216628196" x2="426.062091276447" y2="379.97195595387274" stroke-width="5" stroke="red" />
<line x1="423.1372984599934" y1="385.0039216628196" x2="420.2722819104691" y2="389.9331145392976" stroke-width="5" stroke="red" />
<line x1="427.33977257675366" y1="377.78170766666545" x2="431.11838256801707" y2="371.30422758686854" stroke-width="5" stroke="red" />
<line x1="427.33977257675366" y1="377.78170766666545" x2="426.062091276447" y2="379.97195595387274" stroke-width="5" stroke="red" />
<line x1="429.2449721511635" y1="868.5675283659831" x2="431.31723297011115" y2="868.2391106324997" stroke-width="5" stroke="red" />
<line x1="429.2449721511635" y1="868.5675283659831" x2="419.52144292270987" y2="869.6422947229795" stroke-width="5" stroke="red" />
<line x1="425.10532783282605" y1="711.4755136587614" x2="418.894950319914" y2="711.4906998467602" stroke-width="5" stroke="red" />
<line x1="425.10532783282605" y1="711.4755136587614" x2="429.8361304610408" y2="711.4639960519723" stroke-width="5" stroke="red" />
<line x1="431.6024697194484" y1="370.4322954153569" x2="431.7467239055705" y2="370.17246619718463" stroke-width="5" stroke="red" />
<line x1="431.6024697194484" y1="370.4322954153569" x2="431.11838256801707" y2="371.30422758686854" stroke-width="5" stroke="red" />
<line x1="431.29667466575705" y1="125.98974539205084" x2="433.58061264191105" y2="124.7014544501771" stroke-width="5" stroke="red" />
<line x1="435.9566163496215" y1="362.67387312852344" x2="437.20601682197855" y2="360.4484942269346" stroke-width="5" stroke="red" />
<line x1="435.9566163496215" y1="362.67387312852344" x2="431.7467239055705" y2="370.17246619718463" stroke-width="5" stroke="red" />
<line x1="433.58061264191105" y1="124.7014544501771" x2="439.86528450363323" y2="121.4767446135021" stroke-width="5" stroke="red" />
<line x1="434.36321698093116" y1="711.4312817260046" x2="429.8361304610408" y2="711.4639960519723" stroke-width="5" stroke="red" />
<line x1="434.36321698093116" y1="711.4312817260046" x2="440.8702475391126" y2="711.384158251264" stroke-width="5" stroke="red" />
<line x1="440.4187162612496" y1="354.7897964392993" x2="442.6539493822382" y2="350.8527602720143" stroke-width="5" stroke="red" />
<line x1="440.4187162612496" y1="354.7897964392993" x2="437.20601682197855" y2="360.4484942269346" stroke-width="5" stroke="red" />
<line x1="444.07117290807946" y1="866.217618440292" x2="451.0397596391777" y2="864.7761719254288" stroke-width="5" stroke="red" />
<line x1="444.07117290807946" y1="866.217618440292" x2="431.31723297011115" y2="868.2391106324997" stroke-width="5" stroke="red" />
<line x1="445.0093205003072" y1="346.75004956804355" x2="448.10140332731635" y2="341.3640233148073" stroke-width="5" stroke="red" />
<line x1="445.0093205003072" y1="346.75004956804355" x2="442.6539493822382" y2="350.8527602720143" stroke-width="5" stroke="red" />
<line x1="449.75235800340636" y1="338.52020325746213" x2="453.5594839851355" y2="331.96224085477576" stroke-width="5" stroke="red" />
<line x1="449.75235800340636" y1="338.52020325746213" x2="448.10140332731635" y2="341.3640233148073" stroke-width="5" stroke="red" />
<line x1="443.4221368011494" y1="711.3534659377399" x2="440.8702475391126" y2="711.384158251264" stroke-width="5" stroke="red" />
<line x1="443.4221368011494" y1="711.3534659377399" x2="452.0210540229144" y2="711.2501272521414" stroke-width="5" stroke="red" />
<line x1="447.87842617174056" y1="117.76411408413456" x2="445.35268611163195" y2="118.93434440028545" stroke-width="5" stroke="red" />
<line x1="447.87842617174056" y1="117.76411408413456" x2="453.6213453566052" y2="115.40966844644221" stroke-width="5" stroke="red" />
<line x1="445.35268611163195" y1="118.93434440028545" x2="439.86528450363323" y2="121.4767446135021" stroke-width="5" stroke="red" />
<line x1="454.6757829292169" y1="330.06051467733784" x2="459.0388360368463" y2="322.62781380798344" stroke-width="5" stroke="red" />
<line x1="454.6757829292169" y1="330.06051467733784" x2="453.5594839851355" y2="331.96224085477576" stroke-width="5" stroke="red" />
<line x1="458.8288595836555" y1="863.1650566526836" x2="472.96277928402105" y2="859.5515809952108" stroke-width="5" stroke="red" />
<line x1="458.8288595836555" y1="863.1650566526836" x2="451.0397596391777" y2="864.7761719254288" stroke-width="5" stroke="red" />
<line x1="459.8125899087494" y1="321.3241472347977" x2="464.5505594404209" y2="313.34145429129086" stroke-width="5" stroke="red" />
<line x1="459.8125899087494" y1="321.3241472347977" x2="459.0388360368463" y2="322.62781380798344" stroke-width="5" stroke="red" />
<line x1="452.31807627839396" y1="711.2451438105156" x2="452.0210540229144" y2="711.2501272521414" stroke-width="5" stroke="red" />
<line x1="452.31807627839396" y1="711.2451438105156" x2="453.3148201097102" y2="711.2284102068011" stroke-width="5" stroke="red" />
<line x1="457.52298273006454" y1="113.99541083889025" x2="461.86267406012195" y2="112.42237878168625" stroke-width="5" stroke="red" />
<line x1="457.52298273006454" y1="113.99541083889025" x2="453.6213453566052" y2="115.40966844644221" stroke-width="5" stroke="red" />
<line x1="460.81421311142054" y1="711.2619811103249" x2="453.3148201097102" y2="711.2284102068011" stroke-width="5" stroke="red" />
<line x1="460.81421311142054" y1="711.2619811103249" x2="463.3499922538864" y2="711.273356830492" stroke-width="5" stroke="red" />
<line x1="464.5505594404209" y1="313.34145429129086" x2="465.2024741062712" y2="312.25509294774054" stroke-width="5" stroke="red" />
<line x1="465.07110103592584" y1="111.46590293195084" x2="468.2528671519411" y2="110.51726522299653" stroke-width="5" stroke="red" />
<line x1="465.07110103592584" y1="111.46590293195084" x2="461.86267406012195" y2="112.42237878168625" stroke-width="5" stroke="red" />
<line x1="470.10545610522695" y1="304.08442279026474" x2="465.2024741062712" y2="312.25509294774054" stroke-width="5" stroke="red" />
<line x1="470.10545610522695" y1="304.08442279026474" x2="470.8931143260336" y2="302.78610229413636" stroke-width="5" stroke="red" />
<line x1="473.499004406845" y1="859.4144896177162" x2="474.33635805392265" y2="859.1589976673985" stroke-width="5" stroke="red" />
<line x1="473.499004406845" y1="859.4144896177162" x2="472.96277928402105" y2="859.5515809952108" stroke-width="5" stroke="red" />
<line x1="469.17007615930305" y1="711.2903270539656" x2="463.3499922538864" y2="711.273356830492" stroke-width="5" stroke="red" />
<line x1="469.17007615930305" y1="711.2903270539656" x2="474.87147890664085" y2="711.3069458197399" stroke-width="5" stroke="red" />
<line x1="472.5389536974687" y1="109.46266750993102" x2="476.53201239887613" y2="108.48025851743732" stroke-width="5" stroke="red" />
<line x1="472.5389536974687" y1="109.46266750993102" x2="468.2528671519411" y2="110.51726522299653" stroke-width="5" stroke="red" />
<line x1="475.71501742610855" y1="294.8380909409182" x2="470.8931143260336" y2="302.78610229413636" stroke-width="5" stroke="red" />
<line x1="475.71501742610855" y1="294.8380909409182" x2="476.94339876707386" y2="292.8352380003927" stroke-width="5" stroke="red" />
<line x1="479.91540530537765" y1="107.9019028984063" x2="483.97636063732307" y2="107.20762291393166" stroke-width="5" stroke="red" />
<line x1="479.91540530537765" y1="107.9019028984063" x2="476.53201239887613" y2="108.48025851743732" stroke-width="5" stroke="red" />
<line x1="481.3906744547345" y1="285.58398461537195" x2="476.94339876707386" y2="292.8352380003927" stroke-width="5" stroke="red" />
<line x1="481.3906744547345" y1="285.58398461537195" x2="483.4260066634657" y2="282.3009447102819" stroke-width="5" stroke="red" />
<line x1="477.45075026982954" y1="711.310414499685" x2="474.87147890664085" y2="711.3069458197399" stroke-width="5" stroke="red" />
<line x1="477.45075026982954" y1="711.310414499685" x2="483.4336271088679" y2="711.31851076585" stroke-width="5" stroke="red" />
<line x1="485.5737808713531" y1="711.3895998980487" x2="483.4336271088679" y2="711.31851076585" stroke-width="5" stroke="red" />
<line x1="485.5737808713531" y1="711.3895998980487" x2="486.6363852233525" y2="711.424893150727" stroke-width="5" stroke="red" />
<line x1="488.01105925923804" y1="854.6694228663139" x2="500.15249638761895" y2="850.0266945768033" stroke-width="5" stroke="red" />
<line x1="488.01105925923804" y1="854.6694228663139" x2="474.33635805392265" y2="859.1589976673985" stroke-width="5" stroke="red" />
<line x1="487.1444546616779" y1="276.30304793286666" x2="483.4260066634657" y2="282.3009447102819" stroke-width="5" stroke="red" />
<line x1="487.1444546616779" y1="276.30304793286666" x2="490.7665115883744" y2="270.5229913387074" stroke-width="5" stroke="red" />
<line x1="487.1819187437108" y1="106.8157143833107" x2="489.66082957482985" y2="106.51274094059161" stroke-width="5" stroke="red" />
<line x1="487.1819187437108" y1="106.8157143833107" x2="483.97636063732307" y2="107.20762291393166" stroke-width="5" stroke="red" />
<line x1="492.9888261622716" y1="266.9765770847667" x2="498.07830721554194" y2="258.9778456719983" stroke-width="5" stroke="red" />
<line x1="492.9888261622716" y1="266.9765770847667" x2="490.7665115883744" y2="270.5229913387074" stroke-width="5" stroke="red" />
<line x1="494.30034879636355" y1="106.35864210980948" x2="501.1284655006919" y2="106.1316944235839" stroke-width="5" stroke="red" />
<line x1="494.30034879636355" y1="106.35864210980948" x2="489.66082957482985" y2="106.51274094059161" stroke-width="5" stroke="red" />
<line x1="493.37011187559824" y1="711.6621414123268" x2="486.6363852233525" y2="711.424893150727" stroke-width="5" stroke="red" />
<line x1="493.37011187559824" y1="711.6621414123268" x2="498.7447883625921" y2="711.8514819973008" stroke-width="5" stroke="red" />
<line x1="498.5202771961244" y1="258.27743767400517" x2="498.07830721554194" y2="258.9778456719983" stroke-width="5" stroke="red" />
<line x1="498.5202771961244" y1="258.27743767400517" x2="499.73537387694336" y2="256.3804318962942" stroke-width="5" stroke="red" />
<line x1="502.3698249405596" y1="849.1787846041991" x2="504.2611203805132" y2="848.3512334643485" stroke-width="5" stroke="red" />
<line x1="502.3698249405596" y1="849.1787846041991" x2="500.15249638761895" y2="850.0266945768033" stroke-width="5" stroke="red" />
<line x1="504.016965655677" y1="249.39623019005936" x2="499.73537387694336" y2="256.3804318962942" stroke-width="5" stroke="red" />
<line x1="504.016965655677" y1="249.39623019005936" x2="505.8866365173243" y2="246.35597756579992" stroke-width="5" stroke="red" />
<line x1="501.3016799931684" y1="106.13380597981232" x2="501.4113518011094" y2="106.13514584188277" stroke-width="5" stroke="red" />
<line x1="501.3016799931684" y1="106.13380597981232" x2="501.1284655006919" y2="106.1316944235839" stroke-width="5" stroke="red" />
<line x1="501.17172201737185" y1="711.9417792107159" x2="498.7447883625921" y2="711.8514819973008" stroke-width="5" stroke="red" />
<line x1="501.17172201737185" y1="711.9417792107159" x2="505.2127911307052" y2="712.0922499925053" stroke-width="5" stroke="red" />
<line x1="508.76290279683246" y1="712.3871893835242" x2="505.2127911307052" y2="712.0922499925053" stroke-width="5" stroke="red" />
<line x1="508.76290279683246" y1="712.3871893835242" x2="511.2646994934034" y2="712.5949487737178" stroke-width="5" stroke="red" />
<line x1="508.05053141439873" y1="106.93133885617804" x2="511.7115837584466" y2="107.37032119728323" stroke-width="5" stroke="red" />
<line x1="508.05053141439873" y1="106.93133885617804" x2="501.4113518011094" y2="106.13514584188277" stroke-width="5" stroke="red" />
<line x1="509.56743816355254" y1="240.37064647650539" x2="505.8866365173243" y2="246.35597756579992" stroke-width="5" stroke="red" />
<line x1="509.56743816355254" y1="240.37064647650539" x2="514.5765737675711" y2="232.2509714867733" stroke-width="5" stroke="red" />
<line x1="514.611408682136" y1="108.11117502669342" x2="520.8095842393572" y2="109.69464837122999" stroke-width="5" stroke="red" />
<line x1="514.611408682136" y1="108.11117502669342" x2="511.7115837584466" y2="107.37032119728323" stroke-width="5" stroke="red" />
<line x1="516.4640000297286" y1="842.5647340973453" x2="525.8665710473509" y2="837.527619051053" stroke-width="5" stroke="red" />
<line x1="516.4640000297286" y1="842.5647340973453" x2="504.2611203805132" y2="848.3512334643485" stroke-width="5" stroke="red" />
<line x1="515.2188633972338" y1="231.2098218283949" x2="514.5765737675711" y2="232.2509714867733" stroke-width="5" stroke="red" />
<line x1="515.2188633972338" y1="231.2098218283949" x2="516.2014785891024" y2="229.62195334187135" stroke-width="5" stroke="red" />
<line x1="516.1442515465824" y1="713.029051305538" x2="511.2646994934034" y2="712.5949487737178" stroke-width="5" stroke="red" />
<line x1="516.1442515465824" y1="713.029051305538" x2="522.6446344737976" y2="713.6075826185732" stroke-width="5" stroke="red" />
<line x1="520.9514974229804" y1="109.75614626496092" x2="521.3966078521152" y2="109.94903760137775" stroke-width="5" stroke="red" />
<line x1="520.9514974229804" y1="109.75614626496092" x2="520.8095842393572" y2="109.69464837122999" stroke-width="5" stroke="red" />
<line x1="520.7672272276945" y1="221.6772668130889" x2="516.2014785891024" y2="229.62195334187135" stroke-width="5" stroke="red" />
<line x1="523.5328819354118" y1="713.7399717264502" x2="522.6446344737976" y2="713.6075826185732" stroke-width="5" stroke="red" />
<line x1="523.5328819354118" y1="713.7399717264502" x2="524.3316764833968" y2="713.8589939593917" stroke-width="5" stroke="red" />
<line x1="523.7041173814199" y1="216.54572128816588" x2="520.7672272276945" y2="221.6772668130889" stroke-width="5" stroke="red" />
<line x1="523.7041173814199" y1="216.54572128816588" x2="526.3767284158224" y2="211.87586963398124" stroke-width="5" stroke="red" />
<line x1="530.2655942011162" y1="834.9488057938763" x2="542.6852875270355" y2="826.7983683474839" stroke-width="5" stroke="red" />
<line x1="530.2655942011162" y1="834.9488057938763" x2="525.8665710473509" y2="837.527619051053" stroke-width="5" stroke="red" />
<line x1="530.4043743062539" y1="204.3708478559491" x2="528.5959796698709" y2="207.8280943704456" stroke-width="5" stroke="red" />
<line x1="531.1292820237733" y1="202.98495106711442" x2="531.7997916099389" y2="201.58388092929138" stroke-width="5" stroke="red" />
<line x1="531.7997916099389" y1="201.58388092929138" x2="535.2845721511948" y2="194.35950698797305" stroke-width="5" stroke="red" />
<line x1="531.1292820237733" y1="202.98495106711442" x2="530.4043743062539" y2="204.3708478559491" stroke-width="5" stroke="red" />
<line x1="528.1192775535375" y1="113.10992277875536" x2="528.5365869218991" y2="113.30613943715318" stroke-width="5" stroke="red" />
<line x1="528.1192775535375" y1="113.10992277875536" x2="521.3966078521152" y2="109.94903760137775" stroke-width="5" stroke="red" />
<line x1="530.5067808301625" y1="714.8427749182451" x2="524.3316764833968" y2="713.8589939593917" stroke-width="5" stroke="red" />
<line x1="530.5067808301625" y1="714.8427749182451" x2="536.9991528478274" y2="715.87724261524" stroke-width="5" stroke="red" />
<line x1="526.8387196030511" y1="211.08213290080084" x2="528.5959796698709" y2="207.8280943704456" stroke-width="5" stroke="red" />
<line x1="526.8387196030511" y1="211.08213290080084" x2="526.3767284158224" y2="211.87586963398124" stroke-width="5" stroke="red" />
<line x1="528.5365869218991" y1="113.30613943715318" x2="530.2400082415626" y2="114.51600692932287" stroke-width="5" stroke="red" />
<line x1="537.5635358864681" y1="716.0122907799289" x2="536.9991528478274" y2="715.87724261524" stroke-width="5" stroke="red" />
<line x1="537.5635358864681" y1="716.0122907799289" x2="538.2245524308069" y2="716.1704653757931" stroke-width="5" stroke="red" />
<line x1="534.4095813525477" y1="117.4773765111591" x2="535.0153343441899" y2="117.90762727528029" stroke-width="5" stroke="red" />
<line x1="534.4095813525477" y1="117.4773765111591" x2="530.2400082415626" y2="114.51600692932287" stroke-width="5" stroke="red" />
<line x1="537.0867637797662" y1="190.62334831935377" x2="535.2845721511948" y2="194.35950698797305" stroke-width="5" stroke="red" />
<line x1="537.0867637797662" y1="190.62334831935377" x2="537.6888862514919" y2="189.35697972555786" stroke-width="5" stroke="red" />
<line x1="535.0153343441899" y1="117.90762727528029" x2="537.1067751739482" y2="120.13720098646426" stroke-width="5" stroke="red" />
<line x1="539.6400524924792" y1="122.83789863042342" x2="540.2223472890232" y2="123.45872166388703" stroke-width="5" stroke="red" />
<line x1="539.6400524924792" y1="122.83789863042342" x2="537.1067751739482" y2="120.13720098646426" stroke-width="5" stroke="red" />
<line x1="543.6552634976641" y1="826.0922694364439" x2="555.8252839256439" y2="816.2367119294208" stroke-width="5" stroke="red" />
<line x1="543.6552634976641" y1="826.0922694364439" x2="542.6852875270355" y2="826.7983683474839" stroke-width="5" stroke="red" />
<line x1="541.9711146362455" y1="178.54148565482413" x2="537.6888862514919" y2="189.35697972555786" stroke-width="5" stroke="red" />
<line x1="546.1081305395796" y1="164.94762488297692" x2="546.1462859763127" y2="164.7340892036042" stroke-width="5" stroke="red" />
<line x1="546.1081305395796" y1="164.94762488297692" x2="545.8575895995883" y2="165.8128874842532" stroke-width="5" stroke="red" />
<line x1="541.8899409382683" y1="126.21981432277524" x2="543.715082471939" y2="129.24196497773744" stroke-width="5" stroke="red" />
<line x1="541.8899409382683" y1="126.21981432277524" x2="540.2223472890232" y2="123.45872166388703" stroke-width="5" stroke="red" />
<line x1="544.1490538458485" y1="717.6775113220651" x2="538.2245524308069" y2="716.1704653757931" stroke-width="5" stroke="red" />
<line x1="544.1490538458485" y1="717.6775113220651" x2="548.9601145252503" y2="718.9012297488848" stroke-width="5" stroke="red" />
<line x1="544.131037412333" y1="129.93087761536498" x2="543.715082471939" y2="129.24196497773744" stroke-width="5" stroke="red" />
<line x1="542.7813346812653" y1="176.43694557146733" x2="545.8575895995883" y2="165.8128874842532" stroke-width="5" stroke="red" />
<line x1="542.7813346812653" y1="176.43694557146733" x2="541.9711146362455" y2="178.54148565482413" stroke-width="5" stroke="red" />
<line x1="547.7507995707747" y1="154.77847566585683" x2="547.9706184519695" y2="146.61894123449488" stroke-width="5" stroke="red" />
<line x1="547.7507995707747" y1="154.77847566585683" x2="546.1462859763127" y2="164.7340892036042" stroke-width="5" stroke="red" />
<line x1="545.0692471515846" y1="132.5962966455989" x2="546.5292788511481" y2="136.74454859108792" stroke-width="5" stroke="red" />
<line x1="545.0692471515846" y1="132.5962966455989" x2="544.131037412333" y2="129.93087761536498" stroke-width="5" stroke="red" />
<line x1="550.7153891676473" y1="719.5387591790956" x2="548.9601145252503" y2="718.9012297488848" stroke-width="5" stroke="red" />
<line x1="550.7153891676473" y1="719.5387591790956" x2="553.482384460932" y2="720.5437100687652" stroke-width="5" stroke="red" />
<line x1="546.7215183337171" y1="137.29089048641137" x2="546.5292788511481" y2="136.74454859108792" stroke-width="5" stroke="red" />
<line x1="547.0061519853924" y1="139.14711715832453" x2="547.9658769438198" y2="145.4062908010603" stroke-width="5" stroke="red" />
<line x1="547.0061519853924" y1="139.14711715832453" x2="546.7215183337171" y2="137.29089048641137" stroke-width="5" stroke="red" />
<line x1="555.8252839256439" y1="816.2367119294208" x2="556.4520048755206" y2="815.662609058729" stroke-width="5" stroke="red" />
<line x1="547.9804273090707" y1="145.50122738040056" x2="547.9658769438198" y2="145.4062908010603" stroke-width="5" stroke="red" />
<line x1="547.977921826781" y1="145.78645646172055" x2="547.9706184519695" y2="146.61894123449488" stroke-width="5" stroke="red" />
<line x1="547.977921826781" y1="145.78645646172055" x2="547.9804273090707" y2="145.50122738040056" stroke-width="5" stroke="red" />
<line x1="556.9400979227905" y1="721.8691398611388" x2="553.482384460932" y2="720.5437100687652" stroke-width="5" stroke="red" />
<line x1="556.9400979227905" y1="721.8691398611388" x2="559.0366386187858" y2="722.6727504377138" stroke-width="5" stroke="red" />
<line x1="562.8238787468066" y1="724.7020365291925" x2="559.0366386187858" y2="722.6727504377138" stroke-width="5" stroke="red" />
<line x1="562.8238787468066" y1="724.7020365291925" x2="567.4418706851652" y2="727.176442024187" stroke-width="5" stroke="red" />
<line x1="566.0546871992279" y1="805.9095723090851" x2="556.4520048755206" y2="815.662609058729" stroke-width="5" stroke="red" />
<line x1="566.0546871992279" y1="805.9095723090851" x2="568.3731123136583" y2="803.1662662454073" stroke-width="5" stroke="red" />
<line x1="568.5017168143878" y1="727.9732639087481" x2="567.4418706851652" y2="727.176442024187" stroke-width="5" stroke="red" />
<line x1="568.5017168143878" y1="727.9732639087481" x2="571.8089016879381" y2="730.4599185638721" stroke-width="5" stroke="red" />
<line x1="573.9280865463876" y1="795.8785027490187" x2="568.3731123136583" y2="803.1662662454073" stroke-width="5" stroke="red" />
<line x1="573.9280865463876" y1="795.8785027490187" x2="578.9547101148548" y2="787.8192221327497" stroke-width="5" stroke="red" />
<line x1="573.6958694538044" y1="731.9372346750288" x2="571.8089016879381" y2="730.4599185638721" stroke-width="5" stroke="red" />
<line x1="573.6958694538044" y1="731.9372346750288" x2="574.2757577811554" y2="732.3912213013941" stroke-width="5" stroke="red" />
<line x1="578.2033298565217" y1="736.7970097638857" x2="574.2757577811554" y2="732.3912213013941" stroke-width="5" stroke="red" />
<line x1="578.2033298565217" y1="736.7970097638857" x2="579.5350750161509" y2="738.290999443719" stroke-width="5" stroke="red" />
<line x1="586.0880808455205" y1="768.1127315407126" x2="585.8094486120546" y2="769.1630325867891" stroke-width="5" stroke="red" />
<line x1="586.0880808455205" y1="768.1127315407126" x2="586.3150887411643" y2="765.6801091409715" stroke-width="5" stroke="red" />
<line x1="582.0465403718047" y1="742.5866461912426" x2="579.5350750161509" y2="738.290999443719" stroke-width="5" stroke="red" />
<line x1="582.0465403718047" y1="742.5866461912426" x2="583.3687988726502" y2="744.8483574514311" stroke-width="5" stroke="red" />
<line x1="583.749389007861" y1="776.9283797652544" x2="580.5476115759863" y2="784.5622298298077" stroke-width="5" stroke="red" />
<line x1="583.749389007861" y1="776.9283797652544" x2="585.8094486120546" y2="769.1630325867891" stroke-width="5" stroke="red" />
<line x1="583.3687988726502" y1="744.8483574514311" x2="584.9444505815314" y2="749.5848950798336" stroke-width="5" stroke="red" />
<line x1="579.8599204020439" y1="786.2018551698378" x2="578.9547101148548" y2="787.8192221327497" stroke-width="5" stroke="red" />
<line x1="579.8599204020439" y1="786.2018551698378" x2="580.5476115759863" y2="784.5622298298077" stroke-width="5" stroke="red" />
<line x1="585.7578240877071" y1="752.0297576039396" x2="586.4954251135381" y2="758.1775959659044" stroke-width="5" stroke="red" />
<line x1="585.7578240877071" y1="752.0297576039396" x2="584.9444505815314" y2="749.5848950798336" stroke-width="5" stroke="red" />
<line x1="586.6898070687353" y1="759.7980662233398" x2="586.3150887411643" y2="765.6801091409715" stroke-width="5" stroke="red" />
<line x1="586.6898070687353" y1="759.7980662233398" x2="586.4954251135381" y2="758.1775959659044" stroke-width="5" stroke="red" />
<line x1="693.9815448971351" y1="408.08150411478687" x2="693.9862669433556" y2="408.03855013536986" stroke-width="5" stroke="red" />
<line x1="693.9815448971351" y1="408.08150411478687" x2="693.9672830088255" y2="408.21120227178494" stroke-width="5" stroke="red" />
<line x1="693.9471089345659" y1="427.6123407332647" x2="693.7477349686559" y2="426.50809206991073" stroke-width="5" stroke="red" />
<line x1="693.9471089345659" y1="427.6123407332647" x2="694.2616218270696" y2="429.354224208333" stroke-width="5" stroke="red" />
<line x1="695.815652132549" y1="401.75227555090584" x2="696.2184365938112" y2="400.36822813889313" stroke-width="5" stroke="red" />
<line x1="695.815652132549" y1="401.75227555090584" x2="693.9862669433556" y2="408.03855013536986" stroke-width="5" stroke="red" />
<line x1="693.4390315758634" y1="421.13486968781694" x2="693.1909759740465" y2="416.820048003226" stroke-width="5" stroke="red" />
<line x1="693.4390315758634" y1="421.13486968781694" x2="693.7477349686559" y2="426.50809206991073" stroke-width="5" stroke="red" />
<line x1="696.8628683939883" y1="440.77317409736156" x2="695.8587607829738" y2="437.42112677679097" stroke-width="5" stroke="red" />
<line x1="696.8628683939883" y1="440.77317409736156" x2="698.0546447792444" y2="444.75165386684097" stroke-width="5" stroke="red" />
<line x1="698.7354744041357" y1="395.5168604676025" x2="699.7336518954845" y2="393.59297178611854" stroke-width="5" stroke="red" />
<line x1="698.7354744041357" y1="395.5168604676025" x2="696.2184365938112" y2="400.36822813889313" stroke-width="5" stroke="red" />
<line x1="693.390152170106" y1="414.610940306072" x2="693.9672830088255" y2="408.21120227178494" stroke-width="5" stroke="red" />
<line x1="693.390152170106" y1="414.610940306072" x2="693.1909759740465" y2="416.820048003226" stroke-width="5" stroke="red" />
<line x1="695.2221105791245" y1="434.2054968987005" x2="694.2616218270696" y2="429.354224208333" stroke-width="5" stroke="red" />
<line x1="695.2221105791245" y1="434.2054968987005" x2="695.8587607829738" y2="437.42112677679097" stroke-width="5" stroke="red" />
<line x1="699.7336518954845" y1="393.59297178611854" x2="703.1039196547507" y2="389.4718563862306" stroke-width="5" stroke="red" />
<line x1="701.3158479624257" y1="453.98061393254864" x2="699.5908372794186" y2="449.6425998739982" stroke-width="5" stroke="red" />
<line x1="701.3158479624257" y1="453.98061393254864" x2="702.9057510657293" y2="457.9790085988701" stroke-width="5" stroke="red" />
<line x1="698.869468708554" y1="447.3459249635962" x2="698.0546447792444" y2="444.75165386684097" stroke-width="5" stroke="red" />
<line x1="698.869468708554" y1="447.3459249635962" x2="699.5908372794186" y2="449.6425998739982" stroke-width="5" stroke="red" />
<line x1="704.5140691609342" y1="387.74755558672905" x2="703.1039196547507" y2="389.4718563862306" stroke-width="5" stroke="red" />
<line x1="704.5140691609342" y1="387.74755558672905" x2="709.4279427313919" y2="383.760484843315" stroke-width="5" stroke="red" />
<line x1="704.7827075492708" y1="462.5760811623649" x2="705.2086023900152" y2="463.6192300092721" stroke-width="5" stroke="red" />
<line x1="704.7827075492708" y1="462.5760811623649" x2="702.9057510657293" y2="457.9790085988701" stroke-width="5" stroke="red" />
<line x1="710.5353035532921" y1="382.8619989908316" x2="709.4279427313919" y2="383.760484843315" stroke-width="5" stroke="red" />
<line x1="710.5353035532921" y1="382.8619989908316" x2="715.5213385827553" y2="380.172283006805" stroke-width="5" stroke="red" />
<line x1="711.909142603884" y1="477.68248846796337" x2="711.4046229142868" y2="476.6228948693118" stroke-width="5" stroke="red" />
<line x1="708.2376685877707" y1="469.97181715250167" x2="711.4046229142868" y2="476.6228948693118" stroke-width="5" stroke="red" />
<line x1="708.2376685877707" y1="469.97181715250167" x2="705.2086023900152" y2="463.6192300092721" stroke-width="5" stroke="red" />
<line x1="713.7894561424112" y1="481.19320994839995" x2="711.909142603884" y2="477.68248846796337" stroke-width="5" stroke="red" />
<line x1="716.5267175055143" y1="486.3466309531096" x2="719.4536997185378" y2="491.8571960870634" stroke-width="5" stroke="red" />
<line x1="716.5267175055143" y1="486.3466309531096" x2="713.7894561424112" y2="481.19320994839995" stroke-width="5" stroke="red" />
<line x1="724.110741149021" y1="500.2455754419076" x2="725.1787951947899" y2="502.10080409160497" stroke-width="5" stroke="red" />
<line x1="724.110741149021" y1="500.2455754419076" x2="721.6410097985961" y2="495.9555165004447" stroke-width="5" stroke="red" />
<line x1="717.8004323307606" y1="379.02204147509934" x2="715.5213385827553" y2="380.172283006805" stroke-width="5" stroke="red" />
<line x1="717.8004323307606" y1="379.02204147509934" x2="718.772081887533" y2="378.72592775010406" stroke-width="5" stroke="red" />
<line x1="720.1808580668941" y1="493.2196514566996" x2="721.6410097985961" y2="495.9555165004447" stroke-width="5" stroke="red" />
<line x1="720.1808580668941" y1="493.2196514566996" x2="719.4536997185378" y2="491.8571960870634" stroke-width="5" stroke="red" />
<line x1="726.363926008094" y1="376.412092942336" x2="718.772081887533" y2="378.72592775010406" stroke-width="5" stroke="red" />
<line x1="726.363926008094" y1="376.412092942336" x2="733.7684163532056" y2="375.2709383262996" stroke-width="5" stroke="red" />
<line x1="728.2198882216102" y1="507.4022301970226" x2="730.8912269711398" y2="512.0590913836612" stroke-width="5" stroke="red" />
<line x1="728.2198882216102" y1="507.4022301970226" x2="725.1787951947899" y2="502.10080409160497" stroke-width="5" stroke="red" />
<line x1="736.1068436883551" y1="374.91056424841406" x2="733.7684163532056" y2="375.2709383262996" stroke-width="5" stroke="red" />
<line x1="736.1068436883551" y1="374.91056424841406" x2="738.7332877583732" y2="374.81738027008953" stroke-width="5" stroke="red" />
<line x1="732.3582578809707" y1="514.625731574772" x2="736.4946887395082" y2="521.862644049734" stroke-width="5" stroke="red" />
<line x1="732.3582578809707" y1="514.625731574772" x2="730.8912269711398" y2="512.0590913836612" stroke-width="5" stroke="red" />
<line x1="741.0497033034671" y1="529.5435907803934" x2="742.162864462288" y2="531.4172194066526" stroke-width="5" stroke="red" />
<line x1="741.0497033034671" y1="529.5435907803934" x2="736.6893300021482" y2="522.2044246838921" stroke-width="5" stroke="red" />
<line x1="736.5383468198526" y1="521.9393068928858" x2="736.6893300021482" y2="522.2044246838921" stroke-width="5" stroke="red" />
<line x1="736.5383468198526" y1="521.9393068928858" x2="736.4946887395082" y2="521.862644049734" stroke-width="5" stroke="red" />
<line x1="745.6231895719766" y1="537.3047482143272" x2="747.7317262437334" y2="540.8922862398126" stroke-width="5" stroke="red" />
<line x1="745.6231895719766" y1="537.3047482143272" x2="742.162864462288" y2="531.4172194066526" stroke-width="5" stroke="red" />
<line x1="747.1965716294346" y1="374.9147643037725" x2="738.7332877583732" y2="374.81738027008953" stroke-width="5" stroke="red" />
<line x1="747.1965716294346" y1="374.9147643037725" x2="757.4088796655499" y2="376.0311690270658" stroke-width="5" stroke="red" />
<line x1="750.2641898714261" y1="545.2484804021019" x2="753.2079277615562" y2="550.3121393643555" stroke-width="5" stroke="red" />
<line x1="750.2641898714261" y1="545.2484804021019" x2="747.7317262437334" y2="540.8922862398126" stroke-width="5" stroke="red" />
<line x1="754.9898019177947" y1="553.4110469072277" x2="758.6034477670955" y2="559.695678820338" stroke-width="5" stroke="red" />
<line x1="754.9898019177947" y1="553.4110469072277" x2="753.2079277615562" y2="550.3121393643555" stroke-width="5" stroke="red" />
<line x1="759.8195980084581" y1="561.8343689703896" x2="763.9295004737468" y2="569.0619423090664" stroke-width="5" stroke="red" />
<line x1="759.8195980084581" y1="561.8343689703896" x2="758.6034477670955" y2="559.695678820338" stroke-width="5" stroke="red" />
<line x1="759.5481876086919" y1="376.37452064423263" x2="757.4088796655499" y2="376.0311690270658" stroke-width="5" stroke="red" />
<line x1="759.5481876086919" y1="376.37452064423263" x2="769.2075569912557" y2="378.7197178841725" stroke-width="5" stroke="red" />
<line x1="764.7765017522242" y1="570.568169613721" x2="769.1970351029893" y2="578.4293459882728" stroke-width="5" stroke="red" />
<line x1="764.7765017522242" y1="570.568169613721" x2="763.9295004737468" y2="569.0619423090664" stroke-width="5" stroke="red" />
<line x1="773.3447191314673" y1="379.72416288210627" x2="769.2075569912557" y2="378.7197178841725" stroke-width="5" stroke="red" />
<line x1="773.3447191314673" y1="379.72416288210627" x2="774.1710814951919" y2="379.9828308527893" stroke-width="5" stroke="red" />
<line x1="769.1970351029893" y1="578.4293459882728" x2="769.8876288022169" y2="579.6713307820834" stroke-width="5" stroke="red" />
<line x1="774.4166761745125" y1="587.8164941363336" x2="769.8876288022169" y2="579.6713307820834" stroke-width="5" stroke="red" />
<line x1="774.4166761745125" y1="587.8164941363336" x2="775.1852971284225" y2="589.214562272968" stroke-width="5" stroke="red" />
<line x1="779.5985459874028" y1="597.2418500616949" x2="775.1852971284225" y2="589.214562272968" stroke-width="5" stroke="red" />
<line x1="779.5985459874028" y1="597.2418500616949" x2="780.7085021718863" y2="599.2838921343254" stroke-width="5" stroke="red" />
<line x1="788.7438173530958" y1="385.35546707936373" x2="789.5947928977097" y2="385.72120949111974" stroke-width="5" stroke="red" />
<line x1="782.2312238210776" y1="382.9543821332398" x2="774.1710814951919" y2="379.9828308527893" stroke-width="5" stroke="red" />
<line x1="782.2312238210776" y1="382.9543821332398" x2="788.7438173530958" y2="385.35546707936373" stroke-width="5" stroke="red" />
<line x1="784.7528440267919" y1="606.7243013862243" x2="780.7085021718863" y2="599.2838921343254" stroke-width="5" stroke="red" />
<line x1="784.7528440267919" y1="606.7243013862243" x2="786.5054708157907" y2="609.9856647797814" stroke-width="5" stroke="red" />
<line x1="789.889617488627" y1="616.2831189887614" x2="786.5054708157907" y2="609.9856647797814" stroke-width="5" stroke="red" />
<line x1="789.889617488627" y1="616.2831189887614" x2="792.6361785739286" y2="621.4529851797286" stroke-width="5" stroke="red" />
<line x1="792.0403370283362" y1="386.90483201756973" x2="789.5947928977097" y2="385.72120949111974" stroke-width="5" stroke="red" />
<line x1="795.0189674569928" y1="625.9381008489273" x2="792.6361785739286" y2="621.4529851797286" stroke-width="5" stroke="red" />
<line x1="795.0189674569928" y1="625.9381008489273" x2="799.1765553963168" y2="633.8544691843675" stroke-width="5" stroke="red" />
<line x1="797.879455275671" y1="389.73098282989315" x2="803.9149101950891" y2="392.7828485242636" stroke-width="5" stroke="red" />
<line x1="797.879455275671" y1="389.73098282989315" x2="792.0403370283362" y2="386.90483201756973" stroke-width="5" stroke="red" />
<line x1="800.150798262148" y1="635.7095122030903" x2="799.1765553963168" y2="633.8544691843675" stroke-width="5" stroke="red" />
<line x1="800.150798262148" y1="635.7095122030903" x2="802.8584931812683" y2="640.9248203576258" stroke-width="5" stroke="red" />
<line x1="805.3953023368157" y1="645.5839245650732" x2="802.8584931812683" y2="640.9248203576258" stroke-width="5" stroke="red" />
<line x1="805.3953023368157" y1="645.5839245650732" x2="806.6231970054033" y2="647.8474932010065" stroke-width="5" stroke="red" />
<line x1="803.9149101950891" y1="392.7828485242636" x2="809.6914594768917" y2="396.0435055758918" stroke-width="5" stroke="red" />
<line x1="810.8155576192552" y1="655.575913156522" x2="806.6231970054033" y2="647.8474932010065" stroke-width="5" stroke="red" />
<line x1="810.8155576192552" y1="655.575913156522" x2="815.4939523200642" y2="664.2322649326717" stroke-width="5" stroke="red" />
<line x1="816.3159208135457" y1="665.7531534389316" x2="815.4939523200642" y2="664.2322649326717" stroke-width="5" stroke="red" />
<line x1="816.3159208135457" y1="665.7531534389316" x2="817.3865523026423" y2="667.7414536275539" stroke-width="5" stroke="red" />
<line x1="822.2327474191866" y1="676.059653523521" x2="817.3865523026423" y2="667.7414536275539" stroke-width="5" stroke="red" />
<line x1="822.2327474191866" y1="676.059653523521" x2="828.2741199672716" y2="686.3823125475616" stroke-width="5" stroke="red" />
<line x1="817.3988993154445" y1="400.79513953939124" x2="809.6914594768917" y2="396.0435055758918" stroke-width="5" stroke="red" />
<line x1="817.3988993154445" y1="400.79513953939124" x2="829.8679621921276" y2="409.3430179564118" stroke-width="5" stroke="red" />
<line x1="828.3991609336198" y1="686.595965053102" x2="828.2741199672716" y2="686.3823125475616" stroke-width="5" stroke="red" />
<line x1="828.3991609336198" y1="686.595965053102" x2="828.4848158944003" y2="686.741667033254" stroke-width="5" stroke="red" />
<line x1="835.3828677742036" y1="697.2940457692014" x2="828.4848158944003" y2="686.741667033254" stroke-width="5" stroke="red" />
<line x1="835.3828677742036" y1="697.2940457692014" x2="838.0149380983651" y2="701.2701288552023" stroke-width="5" stroke="red" />
<line x1="830.1674268165827" y1="409.56203457036327" x2="829.8679621921276" y2="409.3430179564118" stroke-width="5" stroke="red" />
<line x1="830.1674268165827" y1="409.56203457036327" x2="830.5012900406565" y2="409.83101515057535" stroke-width="5" stroke="red" />
<line x1="843.2667475303299" y1="708.2371263620599" x2="838.0149380983651" y2="701.2701288552023" stroke-width="5" stroke="red" />
<line x1="842.0671696112424" y1="419.1492221779658" x2="830.5012900406565" y2="409.83101515057535" stroke-width="5" stroke="red" />
<line x1="842.0671696112424" y1="419.1492221779658" x2="852.7640528313397" y2="428.639236291357" stroke-width="5" stroke="red" />
<line x1="845.6051915678278" y1="711.2767204869658" x2="843.2667475303299" y2="708.2371263620599" stroke-width="5" stroke="red" />
<line x1="845.6051915678278" y1="711.2767204869658" x2="846.826894505441" y2="712.8646609932155" stroke-width="5" stroke="red" />
<line x1="846.826894505441" y1="712.8646609932155" x2="849.6526289951386" y2="715.9927878507359" stroke-width="5" stroke="red" />
<line x1="851.4571025107151" y1="717.9903536720889" x2="849.6526289951386" y2="715.9927878507359" stroke-width="5" stroke="red" />
<line x1="851.4571025107151" y1="717.9903536720889" x2="852.7559390628086" y2="719.4281953351692" stroke-width="5" stroke="red" />
<line x1="854.4285055850679" y1="721.2711221062601" x2="856.8440044405583" y2="723.6033671860374" stroke-width="5" stroke="red" />
<line x1="854.4285055850679" y1="721.2711221062601" x2="852.7559390628086" y2="719.4281953351692" stroke-width="5" stroke="red" />
<line x1="853.4228799839724" y1="429.22373615241537" x2="852.7640528313397" y2="428.639236291357" stroke-width="5" stroke="red" />
<line x1="853.4228799839724" y1="429.22373615241537" x2="854.33534834763" y2="430.11545773082236" stroke-width="5" stroke="red" />
<line x1="859.1212145472284" y1="725.7137522201677" x2="856.8440044405583" y2="723.6033671860374" stroke-width="5" stroke="red" />
<line x1="860.2665701274643" y1="726.6837503443784" x2="863.8033953597906" y2="729.4100057575666" stroke-width="5" stroke="red" />
<line x1="860.2665701274643" y1="726.6837503443784" x2="859.4087378772889" y2="725.9802261180658" stroke-width="5" stroke="red" />
<line x1="859.4087378772889" y1="725.9802261180658" x2="859.1212145472284" y2="725.7137522201677" stroke-width="5" stroke="red" />
<line x1="864.0101471086392" y1="439.9261337878037" x2="854.33534834763" y2="430.11545773082236" stroke-width="5" stroke="red" />
<line x1="864.0101471086392" y1="439.9261337878037" x2="868.6227767358071" y2="445.0538905895371" stroke-width="5" stroke="red" />
<line x1="867.1354086624232" y1="731.9446185865421" x2="870.6122138850629" y2="733.8945812374852" stroke-width="5" stroke="red" />
<line x1="867.1354086624232" y1="731.9446185865421" x2="863.8033953597906" y2="729.4100057575666" stroke-width="5" stroke="red" />
<line x1="874.9939854769494" y1="736.3520834299472" x2="882.6029664612945" y2="739.0803453250352" stroke-width="5" stroke="red" />
<line x1="874.9939854769494" y1="736.3520834299472" x2="870.6122138850629" y2="733.8945812374852" stroke-width="5" stroke="red" />
<line x1="874.028054093936" y1="451.06276945046824" x2="868.6227767358071" y2="445.0538905895371" stroke-width="5" stroke="red" />
<line x1="874.028054093936" y1="451.06276945046824" x2="881.6635473535438" y2="460.3845666166624" stroke-width="5" stroke="red" />
<line x1="882.7849331084865" y1="739.1455905456414" x2="883.5996383176729" y2="739.2691432913481" stroke-width="5" stroke="red" />
<line x1="882.7849331084865" y1="739.1455905456414" x2="882.6029664612945" y2="739.0803453250352" stroke-width="5" stroke="red" />
<line x1="883.4824132096554" y1="462.60516280053065" x2="881.6635473535438" y2="460.3845666166624" stroke-width="5" stroke="red" />
<line x1="883.4824132096554" y1="462.60516280053065" x2="891.0995788979391" y2="472.84339638426485" stroke-width="5" stroke="red" />
<line x1="890.4206118298582" y1="740.22974427877" x2="891.3810375708763" y2="740.1685444872454" stroke-width="5" stroke="red" />
<line x1="890.4206118298582" y1="740.22974427877" x2="883.5996383176729" y2="739.2691432913481" stroke-width="5" stroke="red" />
<line x1="892.346639842699" y1="474.5480281732132" x2="891.0995788979391" y2="472.84339638426485" stroke-width="5" stroke="red" />
<line x1="892.346639842699" y1="474.5480281732132" x2="892.5570556479587" y2="474.86394474896287" stroke-width="5" stroke="red" />
<line x1="897.9506937488234" y1="739.7501903061534" x2="891.3810375708763" y2="740.1685444872454" stroke-width="5" stroke="red" />
<line x1="900.5719215619939" y1="486.89718983586476" x2="892.5570556479587" y2="474.86394474896287" stroke-width="5" stroke="red" />
<line x1="900.5719215619939" y1="486.89718983586476" x2="901.5883910330564" y2="488.57985797368326" stroke-width="5" stroke="red" />
<line x1="898.8893952100086" y1="739.4921498966653" x2="897.9506937488234" y2="739.7501903061534" stroke-width="5" stroke="red" />
<line x1="898.8893952100086" y1="739.4921498966653" x2="905.3424287297315" y2="737.7179537214224" stroke-width="5" stroke="red" />
<line x1="908.2348085956692" y1="499.58254563613986" x2="901.5883910330564" y2="488.57985797368326" stroke-width="5" stroke="red" />
<line x1="911.3346954817665" y1="734.6203693255353" x2="906.489373368991" y2="737.1499333224648" stroke-width="5" stroke="red" />
<line x1="911.3346954817665" y1="734.6203693255353" x2="912.4844623096425" y2="734.020115634384" stroke-width="5" stroke="red" />
<line x1="905.5507565683403" y1="737.6147755911273" x2="905.3424287297315" y2="737.7179537214224" stroke-width="5" stroke="red" />
<line x1="905.5507565683403" y1="737.6147755911273" x2="906.489373368991" y2="737.1499333224648" stroke-width="5" stroke="red" />
<line x1="909.4424822494291" y1="501.79750247026726" x2="915.3275152563907" y2="512.5911041523887" stroke-width="5" stroke="red" />
<line x1="909.4424822494291" y1="501.79750247026726" x2="908.2348085956692" y2="499.58254563613986" stroke-width="5" stroke="red" />
<line x1="916.5472479975294" y1="730.8712436557694" x2="912.4844623096425" y2="734.020115634384" stroke-width="5" stroke="red" />
<line x1="916.5472479975294" y1="730.8712436557694" x2="919.3531964632273" y2="728.6965437510012" stroke-width="5" stroke="red" />
<line x1="916.3026501615656" y1="514.5844090214457" x2="921.8426616407195" y2="525.9088391714731" stroke-width="5" stroke="red" />
<line x1="916.3026501615656" y1="514.5844090214457" x2="915.3275152563907" y2="512.5911041523887" stroke-width="5" stroke="red" />
<line x1="925.8994405269093" y1="721.8206677286449" x2="925.9227879249352" y2="721.7896322011907" stroke-width="5" stroke="red" />
<line x1="925.8994405269093" y1="721.8206677286449" x2="925.7936030000812" y2="721.9385653011099" stroke-width="5" stroke="red" />
<line x1="925.9227879249352" y1="721.7896322011907" x2="925.9674211347302" y2="721.7302961427815" stroke-width="5" stroke="red" />
<line x1="921.3714448319429" y1="726.5788434476161" x2="919.3531964632273" y2="728.6965437510012" stroke-width="5" stroke="red" />
<line x1="921.3714448319429" y1="726.5788434476161" x2="925.7936030000812" y2="721.9385653011099" stroke-width="5" stroke="red" />
<line x1="927.5405835178835" y1="539.049825478815" x2="927.7478641777365" y2="539.5340500621431" stroke-width="5" stroke="red" />
<line x1="927.5405835178835" y1="539.049825478815" x2="926.0194489123905" y2="535.4963177574632" stroke-width="5" stroke="red" />
<line x1="922.3163344783461" y1="526.9961261044679" x2="926.0194489123905" y2="535.4963177574632" stroke-width="5" stroke="red" />
<line x1="922.3163344783461" y1="526.9961261044679" x2="921.8426616407195" y2="525.9088391714731" stroke-width="5" stroke="red" />
<line x1="930.5935350422324" y1="715.0296631838528" x2="931.8922701789104" y2="712.8162382822252" stroke-width="5" stroke="red" />
<line x1="930.5935350422324" y1="715.0296631838528" x2="925.9674211347302" y2="721.7302961427815" stroke-width="5" stroke="red" />
<line x1="931.8922701789104" y1="712.8162382822252" x2="934.7326178888094" y2="707.97545168405" stroke-width="5" stroke="red" />
<line x1="931.9254273943546" y1="550.7118217576416" x2="932.9613705684604" y2="553.483602795437" stroke-width="5" stroke="red" />
<line x1="931.9254273943546" y1="550.7118217576416" x2="927.7478641777365" y2="539.5340500621431" stroke-width="5" stroke="red" />
<line x1="936.7360108763833" y1="703.3792167919156" x2="935.1203137683308" y2="707.2143467701395" stroke-width="5" stroke="red" />
<line x1="936.7360108763833" y1="703.3792167919156" x2="938.6204786435038" y2="698.9058921423294" stroke-width="5" stroke="red" />
<line x1="934.9518417237495" y1="707.57448803325" x2="935.1203137683308" y2="707.2143467701395" stroke-width="5" stroke="red" />
<line x1="934.9518417237495" y1="707.57448803325" x2="934.7326178888094" y2="707.97545168405" stroke-width="5" stroke="red" />
<line x1="935.73091175635" y1="562.09449451985" x2="937.5368135719476" y2="567.709319915628" stroke-width="5" stroke="red" />
<line x1="935.73091175635" y1="562.09449451985" x2="932.9613705684604" y2="553.483602795437" stroke-width="5" stroke="red" />
<line x1="939.9046311139685" y1="695.8575720555349" x2="938.6204786435038" y2="698.9058921423294" stroke-width="5" stroke="red" />
<line x1="940.3781340513266" y1="694.4392655205879" x2="939.9046311139685" y2="695.8575720555349" stroke-width="5" stroke="red" />
<line x1="940.3781340513266" y1="694.4392655205879" x2="941.5778788297907" y2="690.84572730751" stroke-width="5" stroke="red" />
<line x1="939.0355532605615" y1="573.2306673946308" x2="941.4684181517722" y2="582.1933648129087" stroke-width="5" stroke="red" />
<line x1="939.0355532605615" y1="573.2306673946308" x2="937.5368135719476" y2="567.709319915628" stroke-width="5" stroke="red" />
<line x1="942.9083588709111" y1="686.0782533137519" x2="941.5778788297907" y2="690.84572730751" stroke-width="5" stroke="red" />
<line x1="942.9083588709111" y1="686.0782533137519" x2="944.0910218231256" y2="681.8404732183101" stroke-width="5" stroke="red" />
<line x1="944.1549362203832" y1="594.7449845744266" x2="944.6050613349108" y2="596.9687363933124" stroke-width="5" stroke="red" />
<line x1="944.1549362203832" y1="594.7449845744266" x2="943.0501701682786" y2="589.2869337099471" stroke-width="5" stroke="red" />
<line x1="946.3605932842719" y1="670.1031994891725" x2="945.6266628931079" y2="674.6464950016405" stroke-width="5" stroke="red" />
<line x1="946.3605932842719" y1="670.1031994891725" x2="947.148390830346" y2="665.2261834632437" stroke-width="5" stroke="red" />
<line x1="948.1551611336401" y1="625.0108388111613" x2="948.3295597941069" y2="627.3098934885502" stroke-width="5" stroke="red" />
<line x1="948.1551611336401" y1="625.0108388111613" x2="947.8533425256044" y2="621.0314892727285" stroke-width="5" stroke="red" />
<line x1="941.904318211502" y1="584.1482284205914" x2="943.0501701682786" y2="589.2869337099471" stroke-width="5" stroke="red" />
<line x1="941.904318211502" y1="584.1482284205914" x2="941.4684181517722" y2="582.1933648129087" stroke-width="5" stroke="red" />
<line x1="945.8389308495848" y1="605.0346346659777" x2="946.9067346340767" y2="612.0151423350404" stroke-width="5" stroke="red" />
<line x1="945.8389308495848" y1="605.0346346659777" x2="944.6050613349108" y2="596.9687363933124" stroke-width="5" stroke="red" />
<line x1="948.2318346762538" y1="652.8753346980958" x2="947.8786955947154" y2="658.6441092120596" stroke-width="5" stroke="red" />
<line x1="948.2318346762538" y1="652.8753346980958" x2="948.6876334580816" y2="645.429699085074" stroke-width="5" stroke="red" />
<line x1="944.852940658142" y1="678.2712056023577" x2="944.0910218231256" y2="681.8404732183101" stroke-width="5" stroke="red" />
<line x1="944.852940658142" y1="678.2712056023577" x2="945.6266628931079" y2="674.6464950016405" stroke-width="5" stroke="red" />
<line x1="948.5215725997285" y1="634.5253661101164" x2="948.7429751819628" y2="642.8486719514959" stroke-width="5" stroke="red" />
<line x1="948.5215725997285" y1="634.5253661101164" x2="948.3295597941069" y2="627.3098934885502" stroke-width="5" stroke="red" />
<line x1="947.2371189290889" y1="615.1618422923715" x2="947.8533425256044" y2="621.0314892727285" stroke-width="5" stroke="red" />
<line x1="947.2371189290889" y1="615.1618422923715" x2="946.9067346340767" y2="612.0151423350404" stroke-width="5" stroke="red" />
<line x1="947.5430182224638" y1="661.6695490124888" x2="947.148390830346" y2="665.2261834632437" stroke-width="5" stroke="red" />
<line x1="947.5430182224638" y1="661.6695490124888" x2="947.8786955947154" y2="658.6441092120596" stroke-width="5" stroke="red" />
<line x1="948.7199181115882" y1="643.9239222824644" x2="948.6876334580816" y2="645.429699085074" stroke-width="5" stroke="red" />
<line x1="948.7199181115882" y1="643.9239222824644" x2="948.7429751819628" y2="642.8486719514959" stroke-width="5" stroke="red" />
</svg>
