<svg width="998.62103353099" height="1001.3789664690099" xmlns="http://www.w3.org/2000/svg">
<line x1="286.8067284067165" y1="796.9400195430579" x2="285.455439830792" y2="795.1853587184672" stroke-width="5" stroke="red" />
<line x1="286.8067284067165" y1="796.9400195430579" x2="288.9678498362321" y2="799.7460705846387" stroke-width="5" stroke="red" />
<line x1="283.6296390446628" y1="791.0739366684868" x2="281.7145521110287" y2="786.762274541153" stroke-width="5" stroke="red" />
<line x1="283.6296390446628" y1="791.0739366684868" x2="285.455439830792" y2="795.1853587184672" stroke-width="5" stroke="red" />
<line x1="281.58545686573905" y1="784.8739129194995" x2="281.1811759041612" y2="778.9564647265104" stroke-width="5" stroke="red" />
<line x1="281.58545686573905" y1="784.8739129194995" x2="281.7145521110287" y2="786.762274541153" stroke-width="5" stroke="red" />
<line x1="281.1811759041612" y1="778.9564647265104" x2="281.52296428189396" y2="778.0434083463629" stroke-width="5" stroke="red" />
<line x1="283.85751457827206" y1="771.8076670500485" x2="281.52296428189396" y2="778.0434083463629" stroke-width="5" stroke="red" />
<line x1="283.85751457827206" y1="771.8076670500485" x2="285.67384246310564" y2="769.8112768234357" stroke-width="5" stroke="red" />
<line x1="289.73012617231336" y1="765.3526121153993" x2="285.67384246310564" y2="769.8112768234357" stroke-width="5" stroke="red" />
<line x1="289.73012617231336" y1="765.3526121153993" x2="296.4376013430625" y2="761.1015947605058" stroke-width="5" stroke="red" />
<line x1="296.8626665645881" y1="807.2967036803533" x2="293.01349562408683" y2="804.1910739938979" stroke-width="5" stroke="red" />
<line x1="296.8626665645881" y1="807.2967036803533" x2="300.84546103023" y2="810.5099901669428" stroke-width="5" stroke="red" />
<line x1="291.31195790411493" y1="802.3214769132147" x2="288.9678498362321" y2="799.7460705846387" stroke-width="5" stroke="red" />
<line x1="291.31195790411493" y1="802.3214769132147" x2="293.01349562408683" y2="804.1910739938979" stroke-width="5" stroke="red" />
<line x1="299.06964723500494" y1="759.628423860985" x2="296.4376013430625" y2="761.1015947605058" stroke-width="5" stroke="red" />
<line x1="305.2328569991414" y1="813.5029315246438" x2="305.69513066868484" y2="813.7575145533651" stroke-width="5" stroke="red" />
<line x1="300.84546103023" y1="810.5099901669428" x2="305.2328569991414" y2="813.5029315246438" stroke-width="5" stroke="red" />
<line x1="313.38021761263525" y1="754.6920156651867" x2="313.7178242741771" y2="754.5934921828715" stroke-width="5" stroke="red" />
<line x1="311.57806046986764" y1="755.2176967414479" x2="310.01802676443333" y2="755.7033881318392" stroke-width="5" stroke="red" />
<line x1="310.01802676443333" y1="755.7033881318392" x2="299.06964723500494" y2="759.628423860985" stroke-width="5" stroke="red" />
<line x1="311.57806046986764" y1="755.2176967414479" x2="313.38021761263525" y2="754.6920156651867" stroke-width="5" stroke="red" />
<line x1="319.57217908993573" y1="753.3759763207715" x2="313.7178242741771" y2="754.5934921828715" stroke-width="5" stroke="red" />
<line x1="319.57217908993573" y1="753.3759763207715" x2="322.79727990725127" y2="752.7518107043128" stroke-width="5" stroke="red" />
<line x1="325.04081740153845" y1="823.2466638762485" x2="324.7096037095263" y2="823.1190739929302" stroke-width="5" stroke="red" />
<line x1="313.53489763806954" y1="818.0734181676092" x2="305.69513066868484" y2="813.7575145533651" stroke-width="5" stroke="red" />
<line x1="313.53489763806954" y1="818.0734181676092" x2="324.7096037095263" y2="823.1190739929302" stroke-width="5" stroke="red" />
<line x1="327.638513490612" y1="751.9751100332958" x2="335.876259668839" y2="750.6530547391443" stroke-width="5" stroke="red" />
<line x1="327.638513490612" y1="751.9751100332958" x2="322.79727990725127" y2="752.7518107043128" stroke-width="5" stroke="red" />
<line x1="336.54695033658146" y1="826.8824692222529" x2="327.3974395658762" y2="824.1546700049594" stroke-width="5" stroke="red" />
<line x1="327.3974395658762" y1="824.1546700049594" x2="325.04081740153845" y2="823.2466638762485" stroke-width="5" stroke="red" />
<line x1="336.54695033658146" y1="826.8824692222529" x2="341.59717426740053" y2="828.3880925544215" stroke-width="5" stroke="red" />
<line x1="336.5820973332384" y1="320.7921155590545" x2="336.44688173354757" y2="326.8721011798112" stroke-width="5" stroke="red" />
<line x1="336.5820973332384" y1="320.7921155590545" x2="338.02211851558314" y2="307.2521791881535" stroke-width="5" stroke="red" />
<line x1="337.199533890814" y1="336.68169874906886" x2="336.44688173354757" y2="326.8721011798112" stroke-width="5" stroke="red" />
<line x1="338.1222346563688" y1="342.2573848040535" x2="337.199533890814" y2="336.68169874906886" stroke-width="5" stroke="red" />
<line x1="338.1222346563688" y1="342.2573848040535" x2="341.5110994729165" y2="352.33623359722384" stroke-width="5" stroke="red" />
<line x1="335.876259668839" y1="750.6530547391443" x2="338.4132094845845" y2="750.3459804355801" stroke-width="5" stroke="red" />
<line x1="338.1953207183714" y1="305.62360728706636" x2="338.02211851558314" y2="307.2521791881535" stroke-width="5" stroke="red" />
<line x1="338.1953207183714" y1="305.62360728706636" x2="338.4031979623685" y2="304.5652539548356" stroke-width="5" stroke="red" />
<line x1="341.71322843449576" y1="291.18158690215756" x2="338.4031979623685" y2="304.5652539548356" stroke-width="5" stroke="red" />
<line x1="341.71322843449576" y1="291.18158690215756" x2="344.4104979850881" y2="283.09801959994576" stroke-width="5" stroke="red" />
<line x1="347.25650925620806" y1="829.5918515105235" x2="341.59717426740053" y2="828.3880925544215" stroke-width="5" stroke="red" />
<line x1="347.25650925620806" y1="829.5918515105235" x2="355.97999446737845" y2="831.4475910705248" stroke-width="5" stroke="red" />
<line x1="341.8340924680137" y1="353.296850079043" x2="341.5110994729165" y2="352.33623359722384" stroke-width="5" stroke="red" />
<line x1="341.8340924680137" y1="353.296850079043" x2="342.2547626542814" y2="353.94502246528606" stroke-width="5" stroke="red" />
<line x1="347.22288798519924" y1="360.50356826388025" x2="342.2547626542814" y2="353.94502246528606" stroke-width="5" stroke="red" />
<line x1="347.22288798519924" y1="360.50356826388025" x2="349.5999883223331" y2="362.06043726425906" stroke-width="5" stroke="red" />
<line x1="346.376179078909" y1="277.2069895455031" x2="344.4104979850881" y2="283.09801959994576" stroke-width="5" stroke="red" />
<line x1="346.376179078909" y1="277.2069895455031" x2="351.4402485408585" y2="265.34212140988274" stroke-width="5" stroke="red" />
<line x1="348.62842107846336" y1="749.5431135238841" x2="352.88846690717656" y2="749.325965562794" stroke-width="5" stroke="red" />
<line x1="348.62842107846336" y1="749.5431135238841" x2="338.4132094845845" y2="750.3459804355801" stroke-width="5" stroke="red" />
<line x1="353.7144498864014" y1="364.7553466269104" x2="349.5999883223331" y2="362.06043726425906" stroke-width="5" stroke="red" />
<line x1="352.1254438706033" y1="263.7367516329574" x2="351.4402485408585" y2="265.34212140988274" stroke-width="5" stroke="red" />
<line x1="352.1254438706033" y1="263.7367516329574" x2="358.7915724145102" y2="251.11410649754455" stroke-width="5" stroke="red" />
<line x1="358.78468838951017" y1="831.8082283040138" x2="355.97999446737845" y2="831.4475910705248" stroke-width="5" stroke="red" />
<line x1="358.78468838951017" y1="831.8082283040138" x2="370.48939165368887" y2="833.3131582170149" stroke-width="5" stroke="red" />
<line x1="356.81388257844236" y1="365.30157755097906" x2="361.2444329985877" y2="366.08235776739656" stroke-width="5" stroke="red" />
<line x1="356.81388257844236" y1="365.30157755097906" x2="353.7144498864014" y2="364.7553466269104" stroke-width="5" stroke="red" />
<line x1="358.9428978669811" y1="250.82756525970757" x2="358.7915724145102" y2="251.11410649754455" stroke-width="5" stroke="red" />
<line x1="361.1968976057588" y1="748.9024167157485" x2="368.2238525068879" y2="748.7403068129622" stroke-width="5" stroke="red" />
<line x1="361.1968976057588" y1="748.9024167157485" x2="352.88846690717656" y2="749.325965562794" stroke-width="5" stroke="red" />
<line x1="363.5415986655959" y1="365.6502768686313" x2="369.77439056265155" y2="364.47785901663775" stroke-width="5" stroke="red" />
<line x1="363.5415986655959" y1="365.6502768686313" x2="361.2444329985877" y2="366.08235776739656" stroke-width="5" stroke="red" />
<line x1="366.32511005282794" y1="239.28036231700415" x2="366.8032467428588" y2="238.53245934150567" stroke-width="5" stroke="red" />
<line x1="366.32511005282794" y1="239.28036231700415" x2="358.9428978669811" y2="250.82756525970757" stroke-width="5" stroke="red" />
<line x1="371.37579169960327" y1="833.3532571661611" x2="370.48939165368887" y2="833.3131582170149" stroke-width="5" stroke="red" />
<line x1="371.37579169960327" y1="833.3532571661611" x2="385.0675280047337" y2="833.9725280318094" stroke-width="5" stroke="red" />
<line x1="369.9395710153659" y1="364.3990111572889" x2="370.2292430252541" y2="364.26075035456074" stroke-width="5" stroke="red" />
<line x1="369.9395710153659" y1="364.3990111572889" x2="369.77439056265155" y2="364.47785901663775" stroke-width="5" stroke="red" />
<line x1="373.653643127556" y1="748.6150026338877" x2="381.63813709628994" y2="748.654232018721" stroke-width="5" stroke="red" />
<line x1="373.653643127556" y1="748.6150026338877" x2="368.2238525068879" y2="748.7403068129622" stroke-width="5" stroke="red" />
<line x1="373.95884962003134" y1="229.14821134120038" x2="375.67347221008066" y2="226.89956758160807" stroke-width="5" stroke="red" />
<line x1="373.95884962003134" y1="229.14821134120038" x2="366.8032467428588" y2="238.53245934150567" stroke-width="5" stroke="red" />
<line x1="376.06100645965597" y1="361.0758512005096" x2="379.81220689289484" y2="359.0271460532943" stroke-width="5" stroke="red" />
<line x1="376.06100645965597" y1="361.0758512005096" x2="370.2292430252541" y2="364.26075035456074" stroke-width="5" stroke="red" />
<line x1="381.64223600507137" y1="220.27284396730187" x2="385.5146558157628" y2="215.9734880810955" stroke-width="5" stroke="red" />
<line x1="381.64223600507137" y1="220.27284396730187" x2="375.67347221008066" y2="226.89956758160807" stroke-width="5" stroke="red" />
<line x1="382.0156256313348" y1="357.29922379657756" x2="384.32809922573824" y2="355.48588924284496" stroke-width="5" stroke="red" />
<line x1="382.0156256313348" y1="357.29922379657756" x2="379.81220689289484" y2="359.0271460532943" stroke-width="5" stroke="red" />
<line x1="385.0675280047337" y1="833.9725280318094" x2="385.39134297203924" y2="833.9603070653754" stroke-width="5" stroke="red" />
<line x1="386.0561786782073" y1="748.6760072524849" x2="381.63813709628994" y2="748.654232018721" stroke-width="5" stroke="red" />
<line x1="387.83319500608906" y1="352.4548888162045" x2="391.6859500087688" y2="349.12314544666606" stroke-width="5" stroke="red" />
<line x1="387.83319500608906" y1="352.4548888162045" x2="384.32809922573824" y2="355.48588924284496" stroke-width="5" stroke="red" />
<line x1="389.34345262446044" y1="212.35290771912614" x2="396.280725191812" y2="205.7928554722161" stroke-width="5" stroke="red" />
<line x1="389.34345262446044" y1="212.35290771912614" x2="385.5146558157628" y2="215.9734880810955" stroke-width="5" stroke="red" />
<line x1="393.559338967775" y1="347.15359411957945" x2="394.8284905525667" y2="345.8193606331616" stroke-width="5" stroke="red" />
<line x1="393.559338967775" y1="347.15359411957945" x2="391.6859500087688" y2="349.12314544666606" stroke-width="5" stroke="red" />
<line x1="393.71886334437505" y1="748.9292369826119" x2="386.0561786782073" y2="748.6760072524849" stroke-width="5" stroke="red" />
<line x1="393.71886334437505" y1="748.9292369826119" x2="398.4612175675363" y2="749.0858744579181" stroke-width="5" stroke="red" />
<line x1="399.65592379014515" y1="833.4220939750423" x2="401.38880580000523" y2="833.2127993073946" stroke-width="5" stroke="red" />
<line x1="399.65592379014515" y1="833.4220939750423" x2="385.39134297203924" y2="833.9603070653754" stroke-width="5" stroke="red" />
<line x1="399.23981630433946" y1="340.82388906271206" x2="403.67422245058555" y2="335.80222278922344" stroke-width="5" stroke="red" />
<line x1="399.23981630433946" y1="340.82388906271206" x2="394.8284905525667" y2="345.8193606331616" stroke-width="5" stroke="red" />
<line x1="397.08176339587936" y1="205.14583380616304" x2="398.52087085865554" y2="203.98345171666023" stroke-width="5" stroke="red" />
<line x1="397.08176339587936" y1="205.14583380616304" x2="396.280725191812" y2="205.7928554722161" stroke-width="5" stroke="red" />
<line x1="404.8986747206296" y1="334.3035671520378" x2="407.6664048181554" y2="330.9159836995614" stroke-width="5" stroke="red" />
<line x1="404.8986747206296" y1="334.3035671520378" x2="403.67422245058555" y2="335.80222278922344" stroke-width="5" stroke="red" />
<line x1="398.52087085865554" y1="203.98345171666023" x2="398.85805955251084" y2="203.73638080340166" stroke-width="5" stroke="red" />
<line x1="408.3856830084538" y1="196.755405562677" x2="398.85805955251084" y2="203.73638080340166" stroke-width="5" stroke="red" />
<line x1="404.84754861642017" y1="749.4759486218181" x2="398.4612175675363" y2="749.0858744579181" stroke-width="5" stroke="red" />
<line x1="404.84754861642017" y1="749.4759486218181" x2="410.92550423227044" y2="749.8474570011563" stroke-width="5" stroke="red" />
<line x1="410.58622670919465" y1="326.9925634421415" x2="411.6078204669625" y2="325.6198200414287" stroke-width="5" stroke="red" />
<line x1="410.58622670919465" y1="326.9925634421415" x2="407.6664048181554" y2="330.9159836995614" stroke-width="5" stroke="red" />
<line x1="414.1960293150746" y1="831.6658954397154" x2="420.280667287458" y2="830.4227764494152" stroke-width="5" stroke="red" />
<line x1="414.1960293150746" y1="831.6658954397154" x2="401.38880580000523" y2="833.2127993073946" stroke-width="5" stroke="red" />
<line x1="410.54679021590727" y1="195.4140315168374" x2="408.3856830084538" y2="196.755405562677" stroke-width="5" stroke="red" />
<line x1="410.54679021590727" y1="195.4140315168374" x2="416.635570078415" y2="191.9036108001861" stroke-width="5" stroke="red" />
<line x1="416.354038474719" y1="318.8632694428587" x2="418.86843796068723" y2="315.28394516464755" stroke-width="5" stroke="red" />
<line x1="416.354038474719" y1="318.8632694428587" x2="411.6078204669625" y2="325.6198200414287" stroke-width="5" stroke="red" />
<line x1="419.7948854754823" y1="190.24108808176828" x2="418.5987179711439" y2="190.8206847511904" stroke-width="5" stroke="red" />
<line x1="419.7948854754823" y1="190.24108808176828" x2="420.91771534293383" y2="189.7224105098383" stroke-width="5" stroke="red" />
<line x1="418.3779707126442" y1="190.92764565122246" x2="416.635570078415" y2="191.9036108001861" stroke-width="5" stroke="red" />
<line x1="418.5987179711439" y1="190.8206847511904" x2="418.3779707126442" y2="190.92764565122246" stroke-width="5" stroke="red" />
<line x1="422.2289660055464" y1="310.20592349620136" x2="425.7599551114287" y2="304.8702995424654" stroke-width="5" stroke="red" />
<line x1="422.2289660055464" y1="310.20592349620136" x2="418.86843796068723" y2="315.28394516464755" stroke-width="5" stroke="red" />
<line x1="415.2823127797975" y1="750.2353913617986" x2="410.92550423227044" y2="749.8474570011563" stroke-width="5" stroke="red" />
<line x1="415.2823127797975" y1="750.2353913617986" x2="423.5068933474332" y2="750.9675346429127" stroke-width="5" stroke="red" />
<line x1="428.26677645350543" y1="300.84161239259555" x2="432.3174244483096" y2="294.33212247928816" stroke-width="5" stroke="red" />
<line x1="428.26677645350543" y1="300.84161239259555" x2="425.7599551114287" y2="304.8702995424654" stroke-width="5" stroke="red" />
<line x1="426.91955279957256" y1="187.4948121944536" x2="432.6971839174474" y2="185.35048536742795" stroke-width="5" stroke="red" />
<line x1="426.91955279957256" y1="187.4948121944536" x2="420.91771534293383" y2="189.7224105098383" stroke-width="5" stroke="red" />
<line x1="428.6299120481553" y1="828.7169674077464" x2="441.8746423016055" y2="824.8916350534729" stroke-width="5" stroke="red" />
<line x1="428.6299120481553" y1="828.7169674077464" x2="420.280667287458" y2="830.4227764494152" stroke-width="5" stroke="red" />
<line x1="433.90935395643146" y1="185.11543343367504" x2="435.61672882402075" y2="184.78434077803695" stroke-width="5" stroke="red" />
<line x1="433.90935395643146" y1="185.11543343367504" x2="432.6971839174474" y2="185.35048536742795" stroke-width="5" stroke="red" />
<line x1="432.3174244483096" y1="294.33212247928816" x2="434.54535878560256" y2="290.51689795539755" stroke-width="5" stroke="red" />
<line x1="425.2062743638704" y1="751.1658793707645" x2="423.5068933474332" y2="750.9675346429127" stroke-width="5" stroke="red" />
<line x1="425.2062743638704" y1="751.1658793707645" x2="430.0632124130723" y2="751.7327375015346" stroke-width="5" stroke="red" />
<line x1="434.3814950482263" y1="752.4359752692734" x2="430.0632124130723" y2="751.7327375015346" stroke-width="5" stroke="red" />
<line x1="434.3814950482263" y1="752.4359752692734" x2="436.2918873194993" y2="752.7470700621391" stroke-width="5" stroke="red" />
<line x1="438.57171053909275" y1="283.62181275832165" x2="434.54535878560256" y2="290.51689795539755" stroke-width="5" stroke="red" />
<line x1="438.57171053909275" y1="283.62181275832165" x2="441.1780969623117" y2="278.8566732832094" stroke-width="5" stroke="red" />
<line x1="440.71758968437683" y1="184.20915921554172" x2="443.85074491823207" y2="183.85591411599776" stroke-width="5" stroke="red" />
<line x1="440.71758968437683" y1="184.20915921554172" x2="435.61672882402075" y2="184.78434077803695" stroke-width="5" stroke="red" />
<line x1="442.8960140034636" y1="824.5421595253307" x2="444.3942279907263" y2="823.8773425415792" stroke-width="5" stroke="red" />
<line x1="442.8960140034636" y1="824.5421595253307" x2="441.8746423016055" y2="824.8916350534729" stroke-width="5" stroke="red" />
<line x1="444.55101039537743" y1="272.6901517951713" x2="441.1780969623117" y2="278.8566732832094" stroke-width="5" stroke="red" />
<line x1="444.55101039537743" y1="272.6901517951713" x2="448.33854337804024" y2="265.28306064391563" stroke-width="5" stroke="red" />
<line x1="447.32062327455213" y1="184.35368204333358" x2="452.7336821112524" y2="185.12996710310546" stroke-width="5" stroke="red" />
<line x1="447.32062327455213" y1="184.35368204333358" x2="443.85074491823207" y2="183.85591411599776" stroke-width="5" stroke="red" />
<line x1="442.857754097392" y1="754.0764312980405" x2="436.2918873194993" y2="752.7470700621391" stroke-width="5" stroke="red" />
<line x1="442.857754097392" y1="754.0764312980405" x2="449.38994689169357" y2="755.3989174231706" stroke-width="5" stroke="red" />
<line x1="453.6647794793017" y1="185.6541003623678" x2="459.4527424947425" y2="188.9125173199916" stroke-width="5" stroke="red" />
<line x1="453.6647794793017" y1="185.6541003623678" x2="452.7336821112524" y2="185.12996710310546" stroke-width="5" stroke="red" />
<line x1="450.2805153595347" y1="261.48516907856236" x2="448.33854337804024" y2="265.28306064391563" stroke-width="5" stroke="red" />
<line x1="450.2805153595347" y1="261.48516907856236" x2="454.6923434295887" y2="252.23782280885453" stroke-width="5" stroke="red" />
<line x1="455.69519316868247" y1="249.88642024177105" x2="454.6923434295887" y2="252.23782280885453" stroke-width="5" stroke="red" />
<line x1="455.69519316868247" y1="249.88642024177105" x2="456.6410848540379" y2="247.40732043067752" stroke-width="5" stroke="red" />
<line x1="456.83886712403825" y1="818.3552234396869" x2="462.17169113662686" y2="815.4323438727529" stroke-width="5" stroke="red" />
<line x1="456.83886712403825" y1="818.3552234396869" x2="444.3942279907263" y2="823.8773425415792" stroke-width="5" stroke="red" />
<line x1="459.4527424947425" y1="188.9125173199916" x2="459.57891544200095" y2="189.0875416685165" stroke-width="5" stroke="red" />
<line x1="451.179735471307" y1="755.830805132839" x2="449.38994689169357" y2="755.3989174231706" stroke-width="5" stroke="red" />
<line x1="451.179735471307" y1="755.830805132839" x2="453.8216924595856" y2="756.4683558317296" stroke-width="5" stroke="red" />
<line x1="458.63374669940265" y1="758.1392347917034" x2="453.8216924595856" y2="756.4683558317296" stroke-width="5" stroke="red" />
<line x1="458.63374669940265" y1="758.1392347917034" x2="463.01159038527" y2="759.6594340231325" stroke-width="5" stroke="red" />
<line x1="460.41719224282815" y1="237.51028913883513" x2="462.6446309072467" y2="231.07305087546666" stroke-width="5" stroke="red" />
<line x1="460.41719224282815" y1="237.51028913883513" x2="456.6410848540379" y2="247.40732043067752" stroke-width="5" stroke="red" />
<line x1="463.9736361272332" y1="195.18368795662852" x2="459.57891544200095" y2="189.0875416685165" stroke-width="5" stroke="red" />
<line x1="463.9736361272332" y1="195.18368795662852" x2="464.56626941759595" y2="197.43275400611702" stroke-width="5" stroke="red" />
<line x1="464.13068339591706" y1="225.23422113208258" x2="462.8573229219217" y2="230.4583061583841" stroke-width="5" stroke="red" />
<line x1="464.13068339591706" y1="225.23422113208258" x2="466.1261786595703" y2="215.4081381967532" stroke-width="5" stroke="red" />
<line x1="462.8573229219217" y1="230.4583061583841" x2="462.6446309072467" y2="231.07305087546666" stroke-width="5" stroke="red" />
<line x1="466.1261786595703" y1="215.4081381967532" x2="466.3171334814106" y2="211.24916924888583" stroke-width="5" stroke="red" />
<line x1="466.27340608931365" y1="203.91153209662707" x2="464.56626941759595" y2="197.43275400611702" stroke-width="5" stroke="red" />
<line x1="466.27340608931365" y1="203.91153209662707" x2="466.3171334814106" y2="211.24916924888583" stroke-width="5" stroke="red" />
<line x1="470.29088769084933" y1="809.8753531038029" x2="462.17169113662686" y2="815.4323438727529" stroke-width="5" stroke="red" />
<line x1="465.737972110656" y1="760.7553301364026" x2="463.01159038527" y2="759.6594340231325" stroke-width="5" stroke="red" />
<line x1="465.737972110656" y1="760.7553301364026" x2="468.3358066222125" y2="761.7995117211938" stroke-width="5" stroke="red" />
<line x1="471.98582407723734" y1="764.0239261832916" x2="468.3358066222125" y2="761.7995117211938" stroke-width="5" stroke="red" />
<line x1="471.98582407723734" y1="764.0239261832916" x2="477.66029614939754" y2="767.4822004319268" stroke-width="5" stroke="red" />
<line x1="482.36217160657304" y1="797.5544910569862" x2="481.69097430148514" y2="798.3153949891679" stroke-width="5" stroke="red" />
<line x1="482.36217160657304" y1="797.5544910569862" x2="482.7135785030035" y2="796.8652831912825" stroke-width="5" stroke="red" />
<line x1="474.6577370539011" y1="806.2887836231305" x2="470.29088769084933" y2="809.8753531038029" stroke-width="5" stroke="red" />
<line x1="474.6577370539011" y1="806.2887836231305" x2="481.69097430148514" y2="798.3153949891679" stroke-width="5" stroke="red" />
<line x1="477.92452724986487" y1="767.6636968842286" x2="477.66029614939754" y2="767.4822004319268" stroke-width="5" stroke="red" />
<line x1="477.92452724986487" y1="767.6636968842286" x2="478.0752031208498" y2="767.7671892937071" stroke-width="5" stroke="red" />
<line x1="482.2072474345991" y1="772.5786660680102" x2="478.0752031208498" y2="767.7671892937071" stroke-width="5" stroke="red" />
<line x1="482.2072474345991" y1="772.5786660680102" x2="483.7299611176498" y2="774.3519728631843" stroke-width="5" stroke="red" />
<line x1="485.26903380731915" y1="778.5794085802142" x2="483.7299611176498" y2="774.3519728631843" stroke-width="5" stroke="red" />
<line x1="485.26903380731915" y1="778.5794085802142" x2="486.3456515169219" y2="781.5365749584029" stroke-width="5" stroke="red" />
<line x1="486.3456515169219" y1="781.5365749584029" x2="486.0687847530865" y2="786.4475235236455" stroke-width="5" stroke="red" />
<line x1="485.909058299885" y1="789.284262325808" x2="482.7135785030035" y2="796.8652831912825" stroke-width="5" stroke="red" />
<line x1="485.909058299885" y1="789.284262325808" x2="486.0687847530865" y2="786.4475235236455" stroke-width="5" stroke="red" />
<line x1="773.204005415743" y1="485.6350450951606" x2="773.4594523896599" y2="487.48333835799883" stroke-width="5" stroke="red" />
<line x1="773.204005415743" y1="485.6350450951606" x2="772.9627289753892" y2="483.8891802355741" stroke-width="5" stroke="red" />
<line x1="776.0547068106912" y1="500.6034588746404" x2="776.3341826963525" y2="501.56358888651965" stroke-width="5" stroke="red" />
<line x1="776.0547068106912" y1="500.6034588746404" x2="775.6472311537649" y2="499.20355706069995" stroke-width="5" stroke="red" />
<line x1="775.5892276078847" y1="465.6306085882209" x2="774.0523149329969" y2="469.95452441327967" stroke-width="5" stroke="red" />
<line x1="775.5892276078847" y1="465.6306085882209" x2="776.0951449019446" y2="464.20707544497424" stroke-width="5" stroke="red" />
<line x1="773.1126742501216" y1="478.69457852672605" x2="772.9627289753892" y2="483.8891802355741" stroke-width="5" stroke="red" />
<line x1="773.1126742501216" y1="478.69457852672605" x2="773.2906440840533" y2="472.52367801089395" stroke-width="5" stroke="red" />
<line x1="774.5085181748674" y1="493.103528663599" x2="775.6472311537649" y2="499.20355706069995" stroke-width="5" stroke="red" />
<line x1="774.5085181748674" y1="493.103528663599" x2="773.4594523896599" y2="487.48333835799883" stroke-width="5" stroke="red" />
<line x1="779.5523812157126" y1="460.0992361847478" x2="776.0951449019446" y2="464.20707544497424" stroke-width="5" stroke="red" />
<line x1="779.5523812157126" y1="460.0992361847478" x2="781.0156739395587" y2="458.36063152902057" stroke-width="5" stroke="red" />
<line x1="778.6872145611836" y1="508.66918341181514" x2="780.5282245836667" y2="514.2287029475959" stroke-width="5" stroke="red" />
<line x1="778.6872145611836" y1="508.66918341181514" x2="776.3341826963525" y2="501.56358888651965" stroke-width="5" stroke="red" />
<line x1="773.496640537327" y1="471.8288929429319" x2="773.2906440840533" y2="472.52367801089395" stroke-width="5" stroke="red" />
<line x1="773.496640537327" y1="471.8288929429319" x2="774.0523149329969" y2="469.95452441327967" stroke-width="5" stroke="red" />
<line x1="784.7970074017326" y1="525.2517480061963" x2="785.2222852629361" y2="526.2458612584378" stroke-width="5" stroke="red" />
<line x1="784.7970074017326" y1="525.2517480061963" x2="783.6132676659076" y2="522.4845985335345" stroke-width="5" stroke="red" />
<line x1="781.0156739395587" y1="458.36063152902057" x2="786.3874281558905" y2="455.6334254805994" stroke-width="5" stroke="red" />
<line x1="781.4919856465702" y1="516.8077808134836" x2="783.6132676659076" y2="522.4845985335345" stroke-width="5" stroke="red" />
<line x1="781.4919856465702" y1="516.8077808134836" x2="780.5282245836667" y2="514.2287029475959" stroke-width="5" stroke="red" />
<line x1="788.9057958577453" y1="534.249531167766" x2="790.4843784710448" y2="537.6794846851006" stroke-width="5" stroke="red" />
<line x1="788.9057958577453" y1="534.249531167766" x2="785.2222852629361" y2="526.2458612584378" stroke-width="5" stroke="red" />
<line x1="787.934281202786" y1="454.8480713190399" x2="792.9060238268482" y2="454.1985428291633" stroke-width="5" stroke="red" />
<line x1="787.934281202786" y1="454.8480713190399" x2="786.3874281558905" y2="455.6334254805994" stroke-width="5" stroke="red" />
<line x1="793.4018607321451" y1="543.5856173546571" x2="795.9919923592431" y2="548.8292335230655" stroke-width="5" stroke="red" />
<line x1="793.4018607321451" y1="543.5856173546571" x2="790.4843784710448" y2="537.6794846851006" stroke-width="5" stroke="red" />
<line x1="798.403279020638" y1="553.388325098771" x2="801.7670077185885" y2="559.7483094802549" stroke-width="5" stroke="red" />
<line x1="798.403279020638" y1="553.388325098771" x2="795.9919923592431" y2="548.8292335230655" stroke-width="5" stroke="red" />
<line x1="796.9669066300637" y1="453.95850789521063" x2="802.124317812286" y2="454.95825738715865" stroke-width="5" stroke="red" />
<line x1="796.9669066300637" y1="453.95850789521063" x2="792.9060238268482" y2="454.1985428291633" stroke-width="5" stroke="red" />
<line x1="801.7670077185885" y1="559.7483094802549" x2="804.0775858165057" y2="563.8376722158093" stroke-width="5" stroke="red" />
<line x1="808.3256173365077" y1="456.1602653146722" x2="811.515397236609" y2="457.33263236076766" stroke-width="5" stroke="red" />
<line x1="808.3256173365077" y1="456.1602653146722" x2="802.124317812286" y2="454.95825738715865" stroke-width="5" stroke="red" />
<line x1="807.8341819650354" y1="570.4860200474195" x2="804.0775858165057" y2="563.8376722158093" stroke-width="5" stroke="red" />
<line x1="807.8341819650354" y1="570.4860200474195" x2="810.6698773435579" y2="575.1942388176226" stroke-width="5" stroke="red" />
<line x1="814.2211028804519" y1="581.090539846415" x2="810.6698773435579" y2="575.1942388176226" stroke-width="5" stroke="red" />
<line x1="814.2211028804519" y1="581.090539846415" x2="818.5539623942303" y2="587.8544638940181" stroke-width="5" stroke="red" />
<line x1="822.540513036043" y1="462.49752794032" x2="811.515397236609" y2="457.33263236076766" stroke-width="5" stroke="red" />
<line x1="820.9586985779441" y1="591.6084937275363" x2="818.5539623942303" y2="587.8544638940181" stroke-width="5" stroke="red" />
<line x1="820.9586985779441" y1="591.6084937275363" x2="827.5153995014325" y2="601.2533529064912" stroke-width="5" stroke="red" />
<line x1="828.119462680665" y1="602.0699761302344" x2="827.5153995014325" y2="601.2533529064912" stroke-width="5" stroke="red" />
<line x1="828.119462680665" y1="602.0699761302344" x2="828.6123596442922" y2="602.6853295194243" stroke-width="5" stroke="red" />
<line x1="825.784768016371" y1="464.4327600343038" x2="822.540513036043" y2="462.49752794032" stroke-width="5" stroke="red" />
<line x1="825.784768016371" y1="464.4327600343038" x2="832.9496784053233" y2="469.5514035955686" stroke-width="5" stroke="red" />
<line x1="836.3087891266305" y1="612.2939693733471" x2="828.6123596442922" y2="602.6853295194243" stroke-width="5" stroke="red" />
<line x1="836.3087891266305" y1="612.2939693733471" x2="842.982874534447" y2="620.0168796744352" stroke-width="5" stroke="red" />
<line x1="838.1345313379189" y1="473.2555443600076" x2="832.9496784053233" y2="469.5514035955686" stroke-width="5" stroke="red" />
<line x1="838.1345313379189" y1="473.2555443600076" x2="841.1538899719001" y2="475.8352998838426" stroke-width="5" stroke="red" />
<line x1="845.4741478118412" y1="622.4193253316596" x2="842.982874534447" y2="620.0168796744352" stroke-width="5" stroke="red" />
<line x1="845.4741478118412" y1="622.4193253316596" x2="854.6340791388274" y2="630.4232838570589" stroke-width="5" stroke="red" />
<line x1="849.0379618960666" y1="483.2820915142495" x2="841.1538899719001" y2="475.8352998838426" stroke-width="5" stroke="red" />
<line x1="849.0379618960666" y1="483.2820915142495" x2="853.732387712701" y2="488.47196420889304" stroke-width="5" stroke="red" />
<line x1="854.6340791388274" y1="630.4232838570589" x2="857.1750804707133" y2="632.0135845365461" stroke-width="5" stroke="red" />
<line x1="858.8641065893947" y1="494.14530370352503" x2="853.732387712701" y2="488.47196420889304" stroke-width="5" stroke="red" />
<line x1="858.8641065893947" y1="494.14530370352503" x2="866.1186656403612" y2="503.5914330918827" stroke-width="5" stroke="red" />
<line x1="864.3882695769133" y1="635.9704700146287" x2="870.4582103875399" y2="637.4678542886824" stroke-width="5" stroke="red" />
<line x1="864.3882695769133" y1="635.9704700146287" x2="857.1750804707133" y2="632.0135845365461" stroke-width="5" stroke="red" />
<line x1="867.7314626015358" y1="505.6914619448762" x2="866.1186656403612" y2="503.5914330918827" stroke-width="5" stroke="red" />
<line x1="867.7314626015358" y1="505.6914619448762" x2="875.1517207203952" y2="517.1836198580811" stroke-width="5" stroke="red" />
<line x1="873.0140313273176" y1="638.0983598089879" x2="879.8570017315334" y2="637.1813017515896" stroke-width="5" stroke="red" />
<line x1="873.0140313273176" y1="638.0983598089879" x2="870.4582103875399" y2="637.4678542886824" stroke-width="5" stroke="red" />
<line x1="875.6002435469625" y1="517.8782597404147" x2="875.1517207203952" y2="517.1836198580811" stroke-width="5" stroke="red" />
<line x1="880.6247502912056" y1="637.078459173054" x2="879.8570017315334" y2="637.1813017515896" stroke-width="5" stroke="red" />
<line x1="881.9291017426272" y1="529.7089032092772" x2="882.4373777013844" y2="530.659050896061" stroke-width="5" stroke="red" />
<line x1="881.9291017426272" y1="529.7089032092772" x2="875.6002435469625" y2="517.8782597404147" stroke-width="5" stroke="red" />
<line x1="885.8505496841736" y1="633.7620817792447" x2="880.6247502912056" y2="637.078459173054" stroke-width="5" stroke="red" />
<line x1="885.8505496841736" y1="633.7620817792447" x2="887.1816965484115" y2="632.9171793616487" stroke-width="5" stroke="red" />
<line x1="887.1174072625851" y1="541.4493753605028" x2="888.2163650741483" y2="543.9830487597885" stroke-width="5" stroke="red" />
<line x1="887.1174072625851" y1="541.4493753605028" x2="882.4373777013844" y2="530.659050896061" stroke-width="5" stroke="red" />
<line x1="890.2455009005548" y1="628.8373199094377" x2="887.1816965484115" y2="632.9171793616487" stroke-width="5" stroke="red" />
<line x1="890.2455009005548" y1="628.8373199094377" x2="892.6510483039684" y2="625.6344674184676" stroke-width="5" stroke="red" />
<line x1="891.1460374202685" y1="552.5901763765977" x2="892.9180835468492" y2="557.796391832055" stroke-width="5" stroke="red" />
<line x1="891.1460374202685" y1="552.5901763765977" x2="888.2163650741483" y2="543.9830487597885" stroke-width="5" stroke="red" />
<line x1="896.3134742776007" y1="616.397353977244" x2="895.6092621383159" y2="618.5916814571179" stroke-width="5" stroke="red" />
<line x1="896.3134742776007" y1="616.397353977244" x2="896.7960701573793" y2="614.8935298218671" stroke-width="5" stroke="red" />
<line x1="898.823504369478" y1="600.9541523760233" x2="898.7424919924412" y2="602.2470095982126" stroke-width="5" stroke="red" />
<line x1="898.823504369478" y1="600.9541523760233" x2="898.9130480754019" y2="599.5246252122071" stroke-width="5" stroke="red" />
<line x1="898.0751241069004" y1="583.0952843731137" x2="898.5169169598797" y2="586.8773935638975" stroke-width="5" stroke="red" />
<line x1="898.0751241069004" y1="583.0952843731137" x2="897.3165825431581" y2="576.6020542657044" stroke-width="5" stroke="red" />
<line x1="894.3029365779489" y1="563.2570965704068" x2="896.5307131349737" y2="572.0417449219148" stroke-width="5" stroke="red" />
<line x1="894.3029365779489" y1="563.2570965704068" x2="892.9180835468492" y2="557.796391832055" stroke-width="5" stroke="red" />
<line x1="893.7430054241341" y1="623.0349038633033" x2="892.6510483039684" y2="625.6344674184676" stroke-width="5" stroke="red" />
<line x1="893.7430054241341" y1="623.0349038633033" x2="895.6092621383159" y2="618.5916814571179" stroke-width="5" stroke="red" />
<line x1="897.7288642364605" y1="608.833156286332" x2="896.7960701573793" y2="614.8935298218671" stroke-width="5" stroke="red" />
<line x1="897.7288642364605" y1="608.833156286332" x2="898.7424919924412" y2="602.2470095982126" stroke-width="5" stroke="red" />
<line x1="898.6835397531376" y1="592.1974397608275" x2="898.9130480754019" y2="599.5246252122071" stroke-width="5" stroke="red" />
<line x1="898.6835397531376" y1="592.1974397608275" x2="898.5169169598797" y2="586.8773935638975" stroke-width="5" stroke="red" />
<line x1="896.788992030191" y1="573.5405537810095" x2="897.3165825431581" y2="576.6020542657044" stroke-width="5" stroke="red" />
<line x1="896.788992030191" y1="573.5405537810095" x2="896.5307131349737" y2="572.0417449219148" stroke-width="5" stroke="red" />
</svg>
