<svg width="998.62103353099" height="1001.3789664690099" xmlns="http://www.w3.org/2000/svg">
<line x1="108.69772449705981" y1="478.07473029243124" x2="108.7672736837373" y2="477.1537605947116" stroke-width="5" stroke="red" />
<line x1="108.70347953903038" y1="478.3244614228838" x2="108.69772449705981" y2="478.07473029243124" stroke-width="5" stroke="red" />
<line x1="108.70347953903038" y1="478.3244614228838" x2="108.72261893804077" y2="479.1466419745648" stroke-width="5" stroke="red" />
<line x1="111.56058631460888" y1="458.626645996967" x2="111.55821315301326" y2="458.6389041145165" stroke-width="5" stroke="red" />
<line x1="111.56058631460888" y1="458.626645996967" x2="111.75684906440226" y2="457.91601020011495" stroke-width="5" stroke="red" />
<line x1="111.55821315301326" y1="458.6389041145165" x2="111.38735153071813" y2="459.52120708467953" stroke-width="5" stroke="red" />
<line x1="112.08951779760844" y1="503.3294429165079" x2="111.86646136558531" y2="502.5431364553988" stroke-width="5" stroke="red" />
<line x1="112.08951779760844" y1="503.3294429165079" x2="112.14596548517088" y2="503.52842797299735" stroke-width="5" stroke="red" />
<line x1="108.90868234954833" y1="487.13693865746" x2="108.72261893804077" y2="479.1466419745648" stroke-width="5" stroke="red" />
<line x1="108.92716218109669" y1="487.2743918878162" x2="108.90868234954833" y2="487.13693865746" stroke-width="5" stroke="red" />
<line x1="108.92716218109669" y1="487.2743918878162" x2="109.68163812280768" y2="492.8773466213301" stroke-width="5" stroke="red" />
<line x1="109.64610770147209" y1="468.56847355068453" x2="109.62944557902611" y2="468.73083508349407" stroke-width="5" stroke="red" />
<line x1="109.64610770147209" y1="468.56847355068453" x2="111.38735153071813" y2="459.52120708467953" stroke-width="5" stroke="red" />
<line x1="109.62944557902611" y1="468.73083508349407" x2="108.7672736837373" y2="477.1537605947116" stroke-width="5" stroke="red" />
<line x1="110.05312437334507" y1="495.63596681831933" x2="109.68163812280768" y2="492.8773466213301" stroke-width="5" stroke="red" />
<line x1="110.06687032088345" y1="495.68836343088293" x2="110.05312437334507" y2="495.63596681831933" stroke-width="5" stroke="red" />
<line x1="110.06687032088345" y1="495.68836343088293" x2="111.86646136558531" y2="502.5431364553988" stroke-width="5" stroke="red" />
<line x1="114.69347051213164" y1="509.47318637277453" x2="112.14596548517088" y2="503.52842797299735" stroke-width="5" stroke="red" />
<line x1="114.69347051213164" y1="509.47318637277453" x2="115.25067018467163" y2="510.7734073934349" stroke-width="5" stroke="red" />
<line x1="115.72430963456559" y1="445.3633584993471" x2="117.1131210789843" y2="441.6887794635133" stroke-width="5" stroke="red" />
<line x1="115.72430963456559" y1="445.3633584993471" x2="114.73447052647737" y2="447.98247315202366" stroke-width="5" stroke="red" />
<line x1="113.57450547557296" y1="451.85219697617026" x2="114.73447052647737" y2="447.98247315202366" stroke-width="5" stroke="red" />
<line x1="113.57450547557296" y1="451.85219697617026" x2="111.75684906440226" y2="457.91601020011495" stroke-width="5" stroke="red" />
<line x1="118.06408162893263" y1="515.4406936582991" x2="115.25067018467163" y2="510.7734073934349" stroke-width="5" stroke="red" />
<line x1="118.06408162893263" y1="515.4406936582991" x2="119.20595782669264" y2="517.3349149557243" stroke-width="5" stroke="red" />
<line x1="119.06684347906315" y1="436.8527028866279" x2="123.69752546156715" y2="427.15749413289603" stroke-width="5" stroke="red" />
<line x1="122.36800030374314" y1="521.1962696683538" x2="119.20595782669264" y2="517.3349149557243" stroke-width="5" stroke="red" />
<line x1="123.99162785771755" y1="523.1791928634415" x2="127.8427623880185" y2="526.6902974508813" stroke-width="5" stroke="red" />
<line x1="122.36800030374314" y1="521.1962696683538" x2="123.99162785771755" y2="523.1791928634415" stroke-width="5" stroke="red" />
<line x1="118.23681264955184" y1="438.90737601722" x2="117.1131210789843" y2="441.6887794635133" stroke-width="5" stroke="red" />
<line x1="118.23681264955184" y1="438.90737601722" x2="119.06684347906315" y2="436.8527028866279" stroke-width="5" stroke="red" />
<line x1="129.58296159364528" y1="528.2767977088913" x2="134.84284873601268" y2="531.8485960563577" stroke-width="5" stroke="red" />
<line x1="129.58296159364528" y1="528.2767977088913" x2="127.8427623880185" y2="526.6902974508813" stroke-width="5" stroke="red" />
<line x1="124.69878852902723" y1="425.2262183238343" x2="123.69752546156715" y2="427.15749413289603" stroke-width="5" stroke="red" />
<line x1="130.7575581747735" y1="414.9302744538376" x2="124.69878852902723" y2="425.2262183238343" stroke-width="5" stroke="red" />
<line x1="135.95136190875348" y1="532.6013395665221" x2="140.38981480181573" y2="534.8036294306796" stroke-width="5" stroke="red" />
<line x1="135.95136190875348" y1="532.6013395665221" x2="134.84284873601268" y2="531.8485960563577" stroke-width="5" stroke="red" />
<line x1="135.55739045390638" y1="408.02167583725765" x2="138.4806037225839" y2="403.92721752188356" stroke-width="5" stroke="red" />
<line x1="135.55739045390638" y1="408.02167583725765" x2="132.03919795929966" y2="412.9495616597543" stroke-width="5" stroke="red" />
<line x1="131.36928820007896" y1="413.9848729214107" x2="132.03919795929966" y2="412.9495616597543" stroke-width="5" stroke="red" />
<line x1="131.36928820007896" y1="413.9848729214107" x2="130.7575581747735" y2="414.9302744538376" stroke-width="5" stroke="red" />
<line x1="142.58154343818848" y1="535.8697064678192" x2="140.38981480181573" y2="534.8036294306796" stroke-width="5" stroke="red" />
<line x1="142.58154343818848" y1="535.8697064678192" x2="143.1171226779922" y2="536.1302175947302" stroke-width="5" stroke="red" />
<line x1="144.6312191639491" y1="396.30760879529726" x2="146.66078998487416" y2="393.8976944189209" stroke-width="5" stroke="red" />
<line x1="144.6312191639491" y1="396.30760879529726" x2="141.72639352481772" y2="399.7569584506606" stroke-width="5" stroke="red" />
<line x1="139.8863692475632" y1="402.12108970505767" x2="141.72639352481772" y2="399.7569584506606" stroke-width="5" stroke="red" />
<line x1="139.8863692475632" y1="402.12108970505767" x2="138.4806037225839" y2="403.92721752188356" stroke-width="5" stroke="red" />
<line x1="143.1171226779922" y1="536.1302175947302" x2="143.1400554180441" y2="536.1379981568738" stroke-width="5" stroke="red" />
<line x1="148.52895530574148" y1="537.9637331172594" x2="143.1400554180441" y2="536.1379981568738" stroke-width="5" stroke="red" />
<line x1="148.52895530574148" y1="537.9637331172594" x2="151.12879790425706" y2="538.8445076956486" stroke-width="5" stroke="red" />
<line x1="151.12879790425706" y1="538.8445076956486" x2="151.24760089946847" y2="538.8702713989285" stroke-width="5" stroke="red" />
<line x1="154.47656600776205" y1="539.5682797707009" x2="151.24760089946847" y2="538.8702713989285" stroke-width="5" stroke="red" />
<line x1="154.47656600776205" y1="539.5682797707009" x2="159.85760808240457" y2="540.7313374634408" stroke-width="5" stroke="red" />
<line x1="155.15140967635733" y1="384.63963759384865" x2="156.13628787954764" y2="383.7001573072715" stroke-width="5" stroke="red" />
<line x1="154.89542181377362" y1="384.902682026602" x2="154.45750086985748" y2="385.3526805771688" stroke-width="5" stroke="red" />
<line x1="154.89542181377362" y1="384.902682026602" x2="155.15140967635733" y2="384.63963759384865" stroke-width="5" stroke="red" />
<line x1="151.058493281276" y1="389.0132917652678" x2="154.45750086985748" y2="385.3526805771688" stroke-width="5" stroke="red" />
<line x1="151.058493281276" y1="389.0132917652678" x2="146.66078998487416" y2="393.8976944189209" stroke-width="5" stroke="red" />
<line x1="159.85760808240457" y1="540.7313374634408" x2="160.1202244723029" y2="540.7606944359073" stroke-width="5" stroke="red" />
<line x1="160.37776573011055" y1="540.7894437496548" x2="160.1202244723029" y2="540.7606944359073" stroke-width="5" stroke="red" />
<line x1="160.37776573011055" y1="540.7894437496548" x2="160.79396505970743" y2="540.8358965441059" stroke-width="5" stroke="red" />
<line x1="164.50354605032845" y1="375.7185671382696" x2="156.13628787954764" y2="383.7001573072715" stroke-width="5" stroke="red" />
<line x1="166.6441089263271" y1="541.441802939402" x2="169.63705414630894" y2="541.7394120267116" stroke-width="5" stroke="red" />
<line x1="166.6441089263271" y1="541.441802939402" x2="160.79396505970743" y2="540.8358965441059" stroke-width="5" stroke="red" />
<line x1="173.5291142235675" y1="367.7782030375354" x2="174.0286004347665" y2="367.3568199835223" stroke-width="5" stroke="red" />
<line x1="173.5291142235675" y1="367.7782030375354" x2="172.41613378944695" y2="368.717171222771" stroke-width="5" stroke="red" />
<line x1="169.7981829034335" y1="541.7419174604495" x2="169.63705414630894" y2="541.7394120267116" stroke-width="5" stroke="red" />
<line x1="173.16310186106128" y1="541.7911190169676" x2="178.90222771102822" y2="541.8533275164738" stroke-width="5" stroke="red" />
<line x1="173.16310186106128" y1="541.7911190169676" x2="169.7981829034335" y2="541.7419174604495" stroke-width="5" stroke="red" />
<line x1="167.08847237252888" y1="373.43135503107067" x2="172.41613378944695" y2="368.717171222771" stroke-width="5" stroke="red" />
<line x1="167.08847237252888" y1="373.43135503107067" x2="164.50354605032845" y2="375.7185671382696" stroke-width="5" stroke="red" />
<line x1="180.56997294042102" y1="362.21915507948313" x2="183.81106756277097" y2="359.67338610978044" stroke-width="5" stroke="red" />
<line x1="180.56997294042102" y1="362.21915507948313" x2="174.0286004347665" y2="367.3568199835223" stroke-width="5" stroke="red" />
<line x1="180.18062631136127" y1="541.8518326006478" x2="183.19372692094092" y2="541.6163640858315" stroke-width="5" stroke="red" />
<line x1="180.18062631136127" y1="541.8518326006478" x2="178.90222771102822" y2="541.8533275164738" stroke-width="5" stroke="red" />
<line x1="191.45197111297486" y1="540.9709648824693" x2="194.54378734167074" y2="540.5161296870662" stroke-width="5" stroke="red" />
<line x1="191.45197111297486" y1="540.9709648824693" x2="183.19372692094092" y2="541.6163640858315" stroke-width="5" stroke="red" />
<line x1="187.87155488820602" y1="356.71071081287414" x2="193.72535707140918" y2="352.4397525388141" stroke-width="5" stroke="red" />
<line x1="187.87155488820602" y1="356.71071081287414" x2="183.81106756277097" y2="359.67338610978044" stroke-width="5" stroke="red" />
<line x1="203.51423973356603" y1="345.843823355866" x2="203.7918654369426" y2="345.66122029468085" stroke-width="5" stroke="red" />
<line x1="203.51423973356603" y1="345.843823355866" x2="202.34899663352184" y2="346.6102439570324" stroke-width="5" stroke="red" />
<line x1="195.4840914385423" y1="351.25086600310186" x2="202.34899663352184" y2="346.6102439570324" stroke-width="5" stroke="red" />
<line x1="195.4840914385423" y1="351.25086600310186" x2="193.72535707140918" y2="352.4397525388141" stroke-width="5" stroke="red" />
<line x1="203.5839312398779" y1="539.0937404090548" x2="208.750651294663" y2="537.964505657527" stroke-width="5" stroke="red" />
<line x1="203.5839312398779" y1="539.0937404090548" x2="194.54378734167074" y2="540.5161296870662" stroke-width="5" stroke="red" />
<line x1="212.42352127075603" y1="537.1138462446812" x2="216.7625096367949" y2="536.1089798446585" stroke-width="5" stroke="red" />
<line x1="212.42352127075603" y1="537.1138462446812" x2="208.750651294663" y2="537.964505657527" stroke-width="5" stroke="red" />
<line x1="212.2151122975042" y1="340.5111901583105" x2="214.05300424472628" y2="339.38750181296047" stroke-width="5" stroke="red" />
<line x1="212.2151122975042" y1="340.5111901583105" x2="203.7918654369426" y2="345.66122029468085" stroke-width="5" stroke="red" />
<line x1="219.64090794831026" y1="535.2869979805006" x2="216.7625096367949" y2="536.1089798446585" stroke-width="5" stroke="red" />
<line x1="219.64090794831026" y1="535.2869979805006" x2="225.83534695618062" y2="533.4281992931599" stroke-width="5" stroke="red" />
<line x1="221.40888543920758" y1="335.2194655729993" x2="224.4559259238257" y2="333.49290963890394" stroke-width="5" stroke="red" />
<line x1="221.40888543920758" y1="335.2194655729993" x2="214.05300424472628" y2="339.38750181296047" stroke-width="5" stroke="red" />
<line x1="229.72650812644966" y1="532.2605431326666" x2="225.83534695618062" y2="533.4281992931599" stroke-width="5" stroke="red" />
<line x1="229.72650812644966" y1="532.2605431326666" x2="231.78467758123023" y2="531.6118438598097" stroke-width="5" stroke="red" />
<line x1="231.19392365407433" y1="329.9665897310571" x2="235.01378924666147" y2="327.9674211093219" stroke-width="5" stroke="red" />
<line x1="235.01378924666147" y1="327.9674211093219" x2="241.69341547214657" y2="324.751322726968" stroke-width="5" stroke="red" />
<line x1="231.19392365407433" y1="329.9665897310571" x2="224.4559259238257" y2="333.49290963890394" stroke-width="5" stroke="red" />
<line x1="239.16842606126323" y1="528.9645806418612" x2="231.78467758123023" y2="531.6118438598097" stroke-width="5" stroke="red" />
<line x1="239.16842606126323" y1="528.9645806418612" x2="246.6589010631371" y2="526.1898357065332" stroke-width="5" stroke="red" />
<line x1="248.19909648599008" y1="525.6192736905793" x2="246.6589010631371" y2="526.1898357065332" stroke-width="5" stroke="red" />
<line x1="245.74033083531853" y1="322.8028690771634" x2="241.69341547214657" y2="324.751322726968" stroke-width="5" stroke="red" />
<line x1="245.74033083531853" y1="322.8028690771634" x2="253.06474407016393" y2="319.5732917102434" stroke-width="5" stroke="red" />
<line x1="248.77707349302509" y1="525.3981705138791" x2="250.01092785656337" y2="524.9261373508336" stroke-width="5" stroke="red" />
<line x1="248.77707349302509" y1="525.3981705138791" x2="248.19909648599008" y2="525.6192736905793" stroke-width="5" stroke="red" />
<line x1="257.52795610645495" y1="521.8014483550784" x2="250.01092785656337" y2="524.9261373508336" stroke-width="5" stroke="red" />
<line x1="257.52795610645495" y1="521.8014483550784" x2="262.38882662927745" y2="519.739739170998" stroke-width="5" stroke="red" />
<line x1="256.64997889366686" y1="317.99244138602495" x2="253.06474407016393" y2="319.5732917102434" stroke-width="5" stroke="red" />
<line x1="256.64997889366686" y1="317.99244138602495" x2="265.5112590909611" y2="314.4330774417468" stroke-width="5" stroke="red" />
<line x1="266.5710026961103" y1="517.9658820287713" x2="262.38882662927745" y2="519.739739170998" stroke-width="5" stroke="red" />
<line x1="266.5710026961103" y1="517.9658820287713" x2="274.8567499470683" y2="514.3799539874889" stroke-width="5" stroke="red" />
<line x1="267.7579404011591" y1="313.5306404138932" x2="265.5112590909611" y2="314.4330774417468" stroke-width="5" stroke="red" />
<line x1="267.7579404011591" y1="313.5306404138932" x2="278.1424752310119" y2="309.7546855905896" stroke-width="5" stroke="red" />
<line x1="275.3902889339674" y1="514.1364399551335" x2="274.8567499470683" y2="514.3799539874889" stroke-width="5" stroke="red" />
<line x1="275.3902889339674" y1="514.1364399551335" x2="275.5870131927342" y2="514.0456815246091" stroke-width="5" stroke="red" />
<line x1="279.0842273991102" y1="309.4230767073607" x2="278.1424752310119" y2="309.7546855905896" stroke-width="5" stroke="red" />
<line x1="279.0842273991102" y1="309.4230767073607" x2="279.3531616088942" y2="309.339176578287" stroke-width="5" stroke="red" />
<line x1="283.9544442627596" y1="510.1852428986637" x2="275.5870131927342" y2="514.0456815246091" stroke-width="5" stroke="red" />
<line x1="283.9544442627596" y1="510.1852428986637" x2="286.5885022243957" y2="508.95681201223664" stroke-width="5" stroke="red" />
<line x1="292.3869188903635" y1="506.25260651901283" x2="286.5885022243957" y2="508.95681201223664" stroke-width="5" stroke="red" />
<line x1="292.3869188903635" y1="506.25260651901283" x2="296.65748315266256" y2="504.2392584051158" stroke-width="5" stroke="red" />
<line x1="290.69860176838534" y1="305.7998224206402" x2="295.82141947935196" y2="304.4006585059461" stroke-width="5" stroke="red" />
<line x1="290.69860176838534" y1="305.7998224206402" x2="279.3531616088942" y2="309.339176578287" stroke-width="5" stroke="red" />
<line x1="300.7155129261251" y1="502.32613860688286" x2="296.65748315266256" y2="504.2392584051158" stroke-width="5" stroke="red" />
<line x1="300.7155129261251" y1="502.32613860688286" x2="305.98520611765167" y2="499.81489494916656" stroke-width="5" stroke="red" />
<line x1="302.56924161354164" y1="302.5576753187716" x2="314.01826372541274" y2="299.86160331949793" stroke-width="5" stroke="red" />
<line x1="302.56924161354164" y1="302.5576753187716" x2="295.82141947935196" y2="304.4006585059461" stroke-width="5" stroke="red" />
<line x1="308.9669023855566" y1="498.39403538843294" x2="305.98520611765167" y2="499.81489494916656" stroke-width="5" stroke="red" />
<line x1="308.9669023855566" y1="498.39403538843294" x2="314.71778237530145" y2="495.62393235446893" stroke-width="5" stroke="red" />
<line x1="317.1668541354939" y1="494.4442320826798" x2="314.71778237530145" y2="495.62393235446893" stroke-width="5" stroke="red" />
<line x1="322.968811556382" y1="491.61950815577393" x2="325.3405135350405" y2="490.4648238193443" stroke-width="5" stroke="red" />
<line x1="322.968811556382" y1="491.61950815577393" x2="317.1668541354939" y2="494.4442320826798" stroke-width="5" stroke="red" />
<line x1="314.72155177151086" y1="299.7116277557056" x2="314.01826372541274" y2="299.86160331949793" stroke-width="5" stroke="red" />
<line x1="314.72155177151086" y1="299.7116277557056" x2="315.3328630105871" y2="299.605327666575" stroke-width="5" stroke="red" />
<line x1="330.828501966662" y1="487.76443828888176" x2="333.5128463356533" y2="486.44356108524755" stroke-width="5" stroke="red" />
<line x1="330.828501966662" y1="487.76443828888176" x2="325.3405135350405" y2="490.4648238193443" stroke-width="5" stroke="red" />
<line x1="327.26585141027834" y1="297.5302716785298" x2="315.3328630105871" y2="299.605327666575" stroke-width="5" stroke="red" />
<line x1="327.26585141027834" y1="297.5302716785298" x2="338.08552015057256" y2="296.06146676859544" stroke-width="5" stroke="red" />
<line x1="338.36998081386304" y1="484.0282303979833" x2="341.70891516772423" y2="482.3678953634456" stroke-width="5" stroke="red" />
<line x1="338.36998081386304" y1="484.0282303979833" x2="333.5128463356533" y2="486.44356108524755" stroke-width="5" stroke="red" />
<line x1="345.6528985459423" y1="480.3862022544598" x2="349.9541029727406" y2="478.22492709945817" stroke-width="5" stroke="red" />
<line x1="345.6528985459423" y1="480.3862022544598" x2="341.70891516772423" y2="482.3678953634456" stroke-width="5" stroke="red" />
<line x1="340.1494095196571" y1="295.8437042545928" x2="338.08552015057256" y2="296.06146676859544" stroke-width="5" stroke="red" />
<line x1="340.1494095196571" y1="295.8437042545928" x2="344.19821095147256" y2="295.5774540470329" stroke-width="5" stroke="red" />
<line x1="349.9541029727406" y1="478.22492709945817" x2="356.16296522719057" y2="475.07288612809907" stroke-width="5" stroke="red" />
<line x1="353.4835620396049" y1="294.96683070751754" x2="344.19821095147256" y2="295.5774540470329" stroke-width="5" stroke="red" />
<line x1="353.4835620396049" y1="294.96683070751754" x2="357.45031888286144" y2="294.85868783291573" stroke-width="5" stroke="red" />
<line x1="358.2744817560557" y1="474.0008994761067" x2="365.18542060044996" y2="470.45648018122483" stroke-width="5" stroke="red" />
<line x1="358.2744817560557" y1="474.0008994761067" x2="356.16296522719057" y2="475.07288612809907" stroke-width="5" stroke="red" />
<line x1="366.6864051564922" y1="469.65376865215217" x2="365.18542060044996" y2="470.45648018122483" stroke-width="5" stroke="red" />
<line x1="372.7556897949792" y1="466.35049306288886" x2="375.17146163124795" y2="465.0356587766399" stroke-width="5" stroke="red" />
<line x1="372.7556897949792" y1="466.35049306288886" x2="366.6864051564922" y2="469.65376865215217" stroke-width="5" stroke="red" />
<line x1="367.2877530949716" y1="294.97481176348487" x2="357.45031888286144" y2="294.85868783291573" stroke-width="5" stroke="red" />
<line x1="367.2877530949716" y1="294.97481176348487" x2="373.945184882623" y2="295.3199581667983" stroke-width="5" stroke="red" />
<line x1="379.0650210785504" y1="462.87965284188294" x2="383.8109541037008" y2="460.2515500200734" stroke-width="5" stroke="red" />
<line x1="379.0650210785504" y1="462.87965284188294" x2="375.17146163124795" y2="465.0356587766399" stroke-width="5" stroke="red" />
<line x1="381.6121010255968" y1="296.0730707015177" x2="373.945184882623" y2="295.3199581667983" stroke-width="5" stroke="red" />
<line x1="388.3619511401536" y1="297.0169725705196" x2="396.5284711708064" y2="298.61131318116543" stroke-width="5" stroke="red" />
<line x1="388.3619511401536" y1="297.0169725705196" x2="381.6121010255968" y2="296.0730707015177" stroke-width="5" stroke="red" />
<line x1="391.3767076798785" y1="455.89168482344445" x2="392.59761699917755" y2="455.1561335223153" stroke-width="5" stroke="red" />
<line x1="391.3767076798785" y1="455.89168482344445" x2="388.8495508265943" y2="457.41412529691416" stroke-width="5" stroke="red" />
<line x1="385.3178421633092" y1="459.4029378191189" x2="388.8495508265943" y2="457.41412529691416" stroke-width="5" stroke="red" />
<line x1="385.3178421633092" y1="459.4029378191189" x2="383.8109541037008" y2="460.2515500200734" stroke-width="5" stroke="red" />
<line x1="397.1938761399894" y1="452.3214904319797" x2="401.54721373169036" y2="449.6365663912262" stroke-width="5" stroke="red" />
<line x1="397.1938761399894" y1="452.3214904319797" x2="392.59761699917755" y2="455.1561335223153" stroke-width="5" stroke="red" />
<line x1="401.11262509439325" y1="299.7047027726283" x2="412.11050331981994" y2="303.0627105938361" stroke-width="5" stroke="red" />
<line x1="401.11262509439325" y1="299.7047027726283" x2="396.5284711708064" y2="298.61131318116543" stroke-width="5" stroke="red" />
<line x1="403.01789455310313" y1="448.7086801307725" x2="405.5146475059481" y2="447.13346980345136" stroke-width="5" stroke="red" />
<line x1="403.01789455310313" y1="448.7086801307725" x2="401.54721373169036" y2="449.6365663912262" stroke-width="5" stroke="red" />
<line x1="408.60277183461" y1="445.0099842846356" x2="410.6858846778688" y2="443.5775484987472" stroke-width="5" stroke="red" />
<line x1="408.60277183461" y1="445.0099842846356" x2="405.5146475059481" y2="447.13346980345136" stroke-width="5" stroke="red" />
<line x1="402.7477523846546" y1="750.9163747249019" x2="402.70657985880035" y2="748.6664507475407" stroke-width="5" stroke="red" />
<line x1="402.7477523846546" y1="750.9163747249019" x2="402.9467073150582" y2="752.9481672213835" stroke-width="5" stroke="red" />
<line x1="403.2781607812217" y1="731.4035591687308" x2="403.4331584259843" y2="730.6581039215956" stroke-width="5" stroke="red" />
<line x1="403.2781607812217" y1="731.4035591687308" x2="403.1440900298397" y2="732.6427916112278" stroke-width="5" stroke="red" />
<line x1="402.56359725162986" y1="740.8536075033222" x2="403.1440900298397" y2="732.6427916112278" stroke-width="5" stroke="red" />
<line x1="402.56359725162986" y1="740.8536075033222" x2="402.70657985880035" y2="748.6664507475407" stroke-width="5" stroke="red" />
<line x1="405.07869433893455" y1="722.7433058916494" x2="406.56436828369874" y2="718.1446466588997" stroke-width="5" stroke="red" />
<line x1="405.07869433893455" y1="722.7433058916494" x2="403.4331584259843" y2="730.6581039215956" stroke-width="5" stroke="red" />
<line x1="404.17955360712534" y1="761.77689445546" x2="402.9467073150582" y2="752.9481672213835" stroke-width="5" stroke="red" />
<line x1="404.17955360712534" y1="761.77689445546" x2="405.9652714227019" y2="770.1922478048878" stroke-width="5" stroke="red" />
<line x1="414.02143648598786" y1="441.21775340766754" x2="418.6690552467429" y2="437.9296194389315" stroke-width="5" stroke="red" />
<line x1="414.02143648598786" y1="441.21775340766754" x2="410.6858846778688" y2="443.5775484987472" stroke-width="5" stroke="red" />
<line x1="419.4227297741444" y1="437.3406249907901" x2="420.04884693556664" y2="436.8513190620031" stroke-width="5" stroke="red" />
<line x1="419.4227297741444" y1="437.3406249907901" x2="418.6690552467429" y2="437.9296194389315" stroke-width="5" stroke="red" />
<line x1="412.4896905267743" y1="303.1955880927823" x2="413.09144434742336" y2="303.4555894245263" stroke-width="5" stroke="red" />
<line x1="412.4896905267743" y1="303.1955880927823" x2="412.11050331981994" y2="303.0627105938361" stroke-width="5" stroke="red" />
<line x1="407.6694139628494" y1="714.7241623294169" x2="410.6856146937506" y2="708.1518907744489" stroke-width="5" stroke="red" />
<line x1="407.6694139628494" y1="714.7241623294169" x2="406.56436828369874" y2="718.1446466588997" stroke-width="5" stroke="red" />
<line x1="406.7714039602528" y1="773.325464962809" x2="405.9652714227019" y2="770.1922478048878" stroke-width="5" stroke="red" />
<line x1="406.7714039602528" y1="773.325464962809" x2="410.7276916881534" y2="785.5467498661992" stroke-width="5" stroke="red" />
<line x1="422.41191451728076" y1="307.482669082021" x2="428.5735187810676" y2="310.7469906874997" stroke-width="5" stroke="red" />
<line x1="422.41191451728076" y1="307.482669082021" x2="413.09144434742336" y2="303.4555894245263" stroke-width="5" stroke="red" />
<line x1="415.21620558394164" y1="700.8036203792631" x2="415.60311100199135" y2="700.3462232320611" stroke-width="5" stroke="red" />
<line x1="415.21620558394164" y1="700.8036203792631" x2="413.18762540642007" y2="703.9373115603051" stroke-width="5" stroke="red" />
<line x1="416.7366015632879" y1="799.3915544773154" x2="418.04596431802304" y2="801.8109760179091" stroke-width="5" stroke="red" />
<line x1="416.5713456323199" y1="799.0545730717083" x2="412.3525521252947" y2="789.3166790595207" stroke-width="5" stroke="red" />
<line x1="416.7366015632879" y1="799.3915544773154" x2="416.5713456323199" y2="799.0545730717083" stroke-width="5" stroke="red" />
<line x1="411.03680489362375" y1="707.386657874473" x2="413.18762540642007" y2="703.9373115603051" stroke-width="5" stroke="red" />
<line x1="411.03680489362375" y1="707.386657874473" x2="410.6856146937506" y2="708.1518907744489" stroke-width="5" stroke="red" />
<line x1="410.7789019135449" y1="785.6843535271911" x2="410.7276916881534" y2="785.5467498661992" stroke-width="5" stroke="red" />
<line x1="410.7789019135449" y1="785.6843535271911" x2="412.3525521252947" y2="789.3166790595207" stroke-width="5" stroke="red" />
<line x1="424.42807574398324" y1="433.31221963287163" x2="429.41902324929964" y2="429.2787875418465" stroke-width="5" stroke="red" />
<line x1="424.42807574398324" y1="433.31221963287163" x2="420.04884693556664" y2="436.8513190620031" stroke-width="5" stroke="red" />
<line x1="429.5207350356123" y1="429.1865389448846" x2="429.6253959669979" y2="429.0916109719875" stroke-width="5" stroke="red" />
<line x1="429.5207350356123" y1="429.1865389448846" x2="429.41902324929964" y2="429.2787875418465" stroke-width="5" stroke="red" />
<line x1="420.14247549985953" y1="694.9794554960168" x2="421.0369807557392" y2="694.1676764799853" stroke-width="5" stroke="red" />
<line x1="420.14247549985953" y1="694.9794554960168" x2="415.60311100199135" y2="700.3462232320611" stroke-width="5" stroke="red" />
<line x1="423.5964116436361" y1="812.067058236508" x2="424.541774127062" y2="813.6529786021215" stroke-width="5" stroke="red" />
<line x1="423.5964116436361" y1="812.067058236508" x2="418.04596431802304" y2="801.8109760179091" stroke-width="5" stroke="red" />
<line x1="426.77705007201257" y1="689.1850605139897" x2="425.7334489827401" y2="689.9054265898825" stroke-width="5" stroke="red" />
<line x1="426.77705007201257" y1="689.1850605139897" x2="431.9604501437809" y2="685.6073706336659" stroke-width="5" stroke="red" />
<line x1="425.7334489827401" y1="689.9054265898825" x2="421.0369807557392" y2="694.1676764799853" stroke-width="5" stroke="red" />
<line x1="431.28553857013645" y1="312.3220666513931" x2="433.4746237767019" y2="313.8664993955249" stroke-width="5" stroke="red" />
<line x1="431.28553857013645" y1="312.3220666513931" x2="428.5735187810676" y2="310.7469906874997" stroke-width="5" stroke="red" />
<line x1="434.1078615107154" y1="424.8681919593981" x2="438.2561405005788" y2="420.959565375847" stroke-width="5" stroke="red" />
<line x1="434.1078615107154" y1="424.8681919593981" x2="429.6253959669979" y2="429.0916109719875" stroke-width="5" stroke="red" />
<line x1="438.7531273910369" y1="420.42353908549217" x2="439.3933596866588" y2="419.73302524371627" stroke-width="5" stroke="red" />
<line x1="438.7531273910369" y1="420.42353908549217" x2="438.2561405005788" y2="420.959565375847" stroke-width="5" stroke="red" />
<line x1="431.0943876987778" y1="823.7683112266157" x2="435.45871954494726" y2="829.9523562345137" stroke-width="5" stroke="red" />
<line x1="431.0943876987778" y1="823.7683112266157" x2="424.541774127062" y2="813.6529786021215" stroke-width="5" stroke="red" />
<line x1="438.9629296523313" y1="317.73863625410166" x2="445.3914066108749" y2="323.2954303288389" stroke-width="5" stroke="red" />
<line x1="438.9629296523313" y1="317.73863625410166" x2="433.4746237767019" y2="313.8664993955249" stroke-width="5" stroke="red" />
<line x1="432.72999564153855" y1="685.2130836803526" x2="431.9604501437809" y2="685.6073706336659" stroke-width="5" stroke="red" />
<line x1="432.72999564153855" y1="685.2130836803526" x2="438.79155896453574" y2="682.1073421028032" stroke-width="5" stroke="red" />
<line x1="445.699042571409" y1="323.5613433141282" x2="446.2442126624439" y2="324.14798489406127" stroke-width="5" stroke="red" />
<line x1="445.699042571409" y1="323.5613433141282" x2="445.3914066108749" y2="323.2954303288389" stroke-width="5" stroke="red" />
<line x1="438.82161075345437" y1="682.0964425271516" x2="438.79155896453574" y2="682.1073421028032" stroke-width="5" stroke="red" />
<line x1="438.82161075345437" y1="682.0964425271516" x2="438.97720574575135" y2="682.0400093805123" stroke-width="5" stroke="red" />
<line x1="439.03414426157474" y1="834.7003008726261" x2="443.8866777137269" y2="840.6639672464677" stroke-width="5" stroke="red" />
<line x1="439.03414426157474" y1="834.7003008726261" x2="435.45871954494726" y2="829.9523562345137" stroke-width="5" stroke="red" />
<line x1="442.92043839120976" y1="415.76508841125667" x2="445.54075389169697" y2="412.81733606013375" stroke-width="5" stroke="red" />
<line x1="442.92043839120976" y1="415.76508841125667" x2="439.3933596866588" y2="419.73302524371627" stroke-width="5" stroke="red" />
<line x1="446.9673258621224" y1="410.9320846513616" x2="449.30612906629653" y2="407.84110654974785" stroke-width="5" stroke="red" />
<line x1="446.9673258621224" y1="410.9320846513616" x2="445.54075389169697" y2="412.81733606013375" stroke-width="5" stroke="red" />
<line x1="445.0928364383103" y1="679.9347589076795" x2="438.97720574575135" y2="682.0400093805123" stroke-width="5" stroke="red" />
<line x1="445.0928364383103" y1="679.9347589076795" x2="446.322316206388" y2="679.5114940918243" stroke-width="5" stroke="red" />
<line x1="451.25252142799854" y1="329.86135227870034" x2="452.7971692682213" y2="332.0968865151303" stroke-width="5" stroke="red" />
<line x1="451.25252142799854" y1="329.86135227870034" x2="446.2442126624439" y2="324.14798489406127" stroke-width="5" stroke="red" />
<line x1="447.3592847167284" y1="844.9317449694867" x2="443.8866777137269" y2="840.6639672464677" stroke-width="5" stroke="red" />
<line x1="447.3592847167284" y1="844.9317449694867" x2="450.93652480530847" y2="848.9988780807466" stroke-width="5" stroke="red" />
<line x1="457.0577394821581" y1="395.09150370477545" x2="459.073957142421" y2="390.7511600779744" stroke-width="5" stroke="red" />
<line x1="457.0577394821581" y1="395.09150370477545" x2="456.28449568275374" y2="396.7561322278013" stroke-width="5" stroke="red" />
<line x1="450.7179121937152" y1="405.8877967140398" x2="451.5453247360863" y2="404.7430389707371" stroke-width="5" stroke="red" />
<line x1="450.7179121937152" y1="405.8877967140398" x2="449.30612906629653" y2="407.84110654974785" stroke-width="5" stroke="red" />
<line x1="454.003582760892" y1="400.6002987579044" x2="456.28449568275374" y2="396.7561322278013" stroke-width="5" stroke="red" />
<line x1="454.003582760892" y1="400.6002987579044" x2="451.5453247360863" y2="404.7430389707371" stroke-width="5" stroke="red" />
<line x1="455.83274732917016" y1="336.49037250982144" x2="457.9114211549064" y2="340.47617749684787" stroke-width="5" stroke="red" />
<line x1="455.83274732917016" y1="336.49037250982144" x2="452.7971692682213" y2="332.0968865151303" stroke-width="5" stroke="red" />
<line x1="451.41255941946673" y1="678.4247167966175" x2="446.322316206388" y2="679.5114940918243" stroke-width="5" stroke="red" />
<line x1="451.41255941946673" y1="678.4247167966175" x2="454.43521960692607" y2="677.7795352462064" stroke-width="5" stroke="red" />
<line x1="459.4384202923243" y1="343.40410305137544" x2="461.28519147733823" y2="348.4675114533554" stroke-width="5" stroke="red" />
<line x1="459.4384202923243" y1="343.40410305137544" x2="457.9114211549064" y2="340.47617749684787" stroke-width="5" stroke="red" />
<line x1="462.05094321749726" y1="350.5670619614983" x2="463.25338803477507" y2="356.09008402206376" stroke-width="5" stroke="red" />
<line x1="462.05094321749726" y1="350.5670619614983" x2="461.28519147733823" y2="348.4675114533554" stroke-width="5" stroke="red" />
<line x1="464.0812378497451" y1="363.3632102662934" x2="463.6567508602472" y2="357.9424582713023" stroke-width="5" stroke="red" />
<line x1="464.0812378497451" y1="363.3632102662934" x2="464.2479273204227" y2="365.4927548356013" stroke-width="5" stroke="red" />
<line x1="463.6567508602472" y1="357.9424582713023" x2="463.25338803477507" y2="356.09008402206376" stroke-width="5" stroke="red" />
<line x1="456.02137312199176" y1="854.5278216825776" x2="450.93652480530847" y2="848.9988780807466" stroke-width="5" stroke="red" />
<line x1="463.98085269244956" y1="370.30521069677843" x2="464.2479273204227" y2="365.4927548356013" stroke-width="5" stroke="red" />
<line x1="463.98085269244956" y1="370.30521069677843" x2="463.82135867037624" y2="373.1792495556395" stroke-width="5" stroke="red" />
<line x1="457.7348122031782" y1="677.4512004340817" x2="454.43521960692607" y2="677.7795352462064" stroke-width="5" stroke="red" />
<line x1="457.7348122031782" y1="677.4512004340817" x2="463.0857305693027" y2="676.9185447625201" stroke-width="5" stroke="red" />
<line x1="463.1254527132397" y1="376.93440332509584" x2="463.82135867037624" y2="373.1792495556395" stroke-width="5" stroke="red" />
<line x1="463.1254527132397" y1="376.93440332509584" x2="462.3790473603713" y2="380.96257393158703" stroke-width="5" stroke="red" />
<line x1="461.65813588744345" y1="383.2692255259415" x2="462.3790473603713" y2="380.96257393158703" stroke-width="5" stroke="red" />
<line x1="461.65813588744345" y1="383.2692255259415" x2="459.92849410269673" y2="388.8028326704752" stroke-width="5" stroke="red" />
<line x1="459.6980641029944" y1="389.32820772570375" x2="459.92849410269673" y2="388.8028326704752" stroke-width="5" stroke="red" />
<line x1="459.6980641029944" y1="389.32820772570375" x2="459.073957142421" y2="390.7511600779744" stroke-width="5" stroke="red" />
<line x1="464.026233619871" y1="676.9199778791719" x2="463.0857305693027" y2="676.9185447625201" stroke-width="5" stroke="red" />
<line x1="464.026233619871" y1="676.9199778791719" x2="466.0686516800194" y2="676.923180039944" stroke-width="5" stroke="red" />
<line x1="465.01192516538237" y1="863.620295011386" x2="473.1236284163785" y2="871.2368077512657" stroke-width="5" stroke="red" />
<line x1="460.94964138853" y1="859.5120746553392" x2="465.01192516538237" y2="863.620295011386" stroke-width="5" stroke="red" />
<line x1="460.94964138853" y1="859.5120746553392" x2="456.02137312199176" y2="854.5278216825776" stroke-width="5" stroke="red" />
<line x1="470.3790045296864" y1="677.0285378586959" x2="466.0686516800194" y2="676.923180039944" stroke-width="5" stroke="red" />
<line x1="470.3790045296864" y1="677.0285378586959" x2="472.4455726137944" y2="677.079023771556" stroke-width="5" stroke="red" />
<line x1="474.2153303242141" y1="872.2618750491332" x2="477.69889709511443" y2="875.2952765358289" stroke-width="5" stroke="red" />
<line x1="474.2153303242141" y1="872.2618750491332" x2="473.1236284163785" y2="871.2368077512657" stroke-width="5" stroke="red" />
<line x1="476.7122122107868" y1="677.5673930930514" x2="472.4455726137944" y2="677.079023771556" stroke-width="5" stroke="red" />
<line x1="476.7122122107868" y1="677.5673930930514" x2="482.40650766096974" y2="678.2190894805505" stroke-width="5" stroke="red" />
<line x1="482.9478049550493" y1="678.3253697012418" x2="482.40650766096974" y2="678.2190894805505" stroke-width="5" stroke="red" />
<line x1="482.9478049550493" y1="678.3253697012418" x2="483.7316252556405" y2="678.4793003559276" stroke-width="5" stroke="red" />
<line x1="483.691921950005" y1="880.4003342574738" x2="485.21324850159937" y2="881.6082804000927" stroke-width="5" stroke="red" />
<line x1="483.691921950005" y1="880.4003342574738" x2="477.69889709511443" y2="875.2952765358289" stroke-width="5" stroke="red" />
<line x1="489.2586661147989" y1="679.6844241567376" x2="483.7316252556405" y2="678.4793003559276" stroke-width="5" stroke="red" />
<line x1="489.2586661147989" y1="679.6844241567376" x2="493.2425492270748" y2="680.553009431883" stroke-width="5" stroke="red" />
<line x1="493.402552042188" y1="888.1106586833148" x2="496.4189112346087" y2="890.3398216932692" stroke-width="5" stroke="red" />
<line x1="493.402552042188" y1="888.1106586833148" x2="485.21324850159937" y2="881.6082804000927" stroke-width="5" stroke="red" />
<line x1="495.4694171143496" y1="681.2017108027352" x2="493.2425492270748" y2="680.553009431883" stroke-width="5" stroke="red" />
<line x1="495.4694171143496" y1="681.2017108027352" x2="498.056303198842" y2="681.9552767827407" stroke-width="5" stroke="red" />
<line x1="501.68272988848037" y1="683.0864905854432" x2="498.056303198842" y2="681.9552767827407" stroke-width="5" stroke="red" />
<line x1="501.68272988848037" y1="683.0864905854432" x2="504.9563121200503" y2="684.1077369251772" stroke-width="5" stroke="red" />
<line x1="503.3295277493984" y1="895.4470932369641" x2="507.0275008162684" y2="897.9862465930031" stroke-width="5" stroke="red" />
<line x1="503.3295277493984" y1="895.4470932369641" x2="496.4189112346087" y2="890.3398216932692" stroke-width="5" stroke="red" />
<line x1="507.8517961664373" y1="685.2001611235178" x2="504.9563121200503" y2="684.1077369251772" stroke-width="5" stroke="red" />
<line x1="507.8517961664373" y1="685.2001611235178" x2="510.5832535990253" y2="686.2307386267136" stroke-width="5" stroke="red" />
<line x1="517.1663434116441" y1="904.7640123670737" x2="513.4862676564359" y2="902.4209701837608" stroke-width="5" stroke="red" />
<line x1="513.4862676564359" y1="902.4209701837608" x2="507.0275008162684" y2="897.9862465930031" stroke-width="5" stroke="red" />
<line x1="517.1663434116441" y1="904.7640123670737" x2="523.8873347222076" y2="909.0430576716724" stroke-width="5" stroke="red" />
<line x1="514.0122265211429" y1="687.5889821324132" x2="510.5832535990253" y2="686.2307386267136" stroke-width="5" stroke="red" />
<line x1="514.0122265211429" y1="687.5889821324132" x2="517.8457224513604" y2="689.1074284082159" stroke-width="5" stroke="red" />
<line x1="520.1303156855266" y1="690.144566393691" x2="517.8457224513604" y2="689.1074284082159" stroke-width="5" stroke="red" />
<line x1="520.1303156855266" y1="690.144566393691" x2="521.894210650592" y2="690.9453419665838" stroke-width="5" stroke="red" />
<line x1="526.9323220686858" y1="910.8364014400927" x2="523.8873347222076" y2="909.0430576716724" stroke-width="5" stroke="red" />
<line x1="526.9323220686858" y1="910.8364014400927" x2="534.5485039356477" y2="915.3220875033124" stroke-width="5" stroke="red" />
<line x1="526.283965348655" y1="693.0096119955357" x2="521.894210650592" y2="690.9453419665838" stroke-width="5" stroke="red" />
<line x1="526.283965348655" y1="693.0096119955357" x2="532.3221961686863" y2="695.8489224556492" stroke-width="5" stroke="red" />
<line x1="532.3483015192836" y1="695.8625275506749" x2="532.3221961686863" y2="695.8489224556492" stroke-width="5" stroke="red" />
<line x1="532.3483015192836" y1="695.8625275506749" x2="532.3648647962921" y2="695.8711599211412" stroke-width="5" stroke="red" />
<line x1="536.4010907938385" y1="916.3286719237028" x2="534.5485039356477" y2="915.3220875033124" stroke-width="5" stroke="red" />
<line x1="536.4010907938385" y1="916.3286719237028" x2="545.4865316332408" y2="921.2648286200526" stroke-width="5" stroke="red" />
<line x1="538.5427979295711" y1="699.1723950721613" x2="532.3648647962921" y2="695.8711599211412" stroke-width="5" stroke="red" />
<line x1="538.5427979295711" y1="699.1723950721613" x2="542.0695918421216" y2="701.0569750091283" stroke-width="5" stroke="red" />
<line x1="545.6327896151191" y1="921.3379070324123" x2="545.4865316332408" y2="921.2648286200526" stroke-width="5" stroke="red" />
<line x1="545.6327896151191" y1="921.3379070324123" x2="546.2169259598512" y2="921.6298025365288" stroke-width="5" stroke="red" />
<line x1="544.6901338678945" y1="702.4928285909813" x2="542.0695918421216" y2="701.0569750091283" stroke-width="5" stroke="red" />
<line x1="544.6901338678945" y1="702.4928285909813" x2="549.7045233794006" y2="705.240356940317" stroke-width="5" stroke="red" />
<line x1="554.5509833165918" y1="925.6615473464127" x2="546.2169259598512" y2="921.6298025365288" stroke-width="5" stroke="red" />
<line x1="554.5509833165918" y1="925.6615473464127" x2="556.7954664463235" y2="926.7472672785498" stroke-width="5" stroke="red" />
<line x1="550.8404965876766" y1="705.9086721373671" x2="549.7045233794006" y2="705.240356940317" stroke-width="5" stroke="red" />
<line x1="550.8404965876766" y1="705.9086721373671" x2="551.3647220497338" y2="706.2170925768881" stroke-width="5" stroke="red" />
<line x1="560.1950470101103" y1="711.4986380267209" x2="566.7793400873716" y2="715.5029766776881" stroke-width="5" stroke="red" />
<line x1="557.1227545639224" y1="709.6609985915161" x2="551.3647220497338" y2="706.2170925768881" stroke-width="5" stroke="red" />
<line x1="557.1227545639224" y1="709.6609985915161" x2="560.1950470101103" y2="711.4986380267209" stroke-width="5" stroke="red" />
<line x1="563.3005314132179" y1="929.599825522707" x2="556.7954664463235" y2="926.7472672785498" stroke-width="5" stroke="red" />
<line x1="563.3005314132179" y1="929.599825522707" x2="568.4410600279028" y2="931.8541379947302" stroke-width="5" stroke="red" />
<line x1="568.7812653452143" y1="716.720491602683" x2="573.057509579197" y2="719.3655103945086" stroke-width="5" stroke="red" />
<line x1="568.7812653452143" y1="716.720491602683" x2="566.7793400873716" y2="715.5029766776881" stroke-width="5" stroke="red" />
<line x1="571.9271514500921" y1="933.2322649120082" x2="568.4410600279028" y2="931.8541379947302" stroke-width="5" stroke="red" />
<line x1="571.9271514500921" y1="933.2322649120082" x2="580.4373004806481" y2="936.5963406255885" stroke-width="5" stroke="red" />
<line x1="576.2500296606235" y1="721.4213234215185" x2="573.057509579197" y2="719.3655103945086" stroke-width="5" stroke="red" />
<line x1="576.2500296606235" y1="721.4213234215185" x2="577.1049509375973" y2="721.9718509700756" stroke-width="5" stroke="red" />
<line x1="580.4612769709369" y1="936.604826504496" x2="580.4373004806481" y2="936.5963406255885" stroke-width="5" stroke="red" />
<line x1="580.4612769709369" y1="936.604826504496" x2="580.5115805789088" y2="936.6226324025662" stroke-width="5" stroke="red" />
<line x1="588.7200304459856" y1="939.3071820766539" x2="580.5115805789088" y2="936.6226324025662" stroke-width="5" stroke="red" />
<line x1="588.7200304459856" y1="939.3071820766539" x2="592.9515436777667" y2="940.6909640715045" stroke-width="5" stroke="red" />
<line x1="582.8977702641636" y1="725.7371927267776" x2="577.1049509375973" y2="721.9718509700756" stroke-width="5" stroke="red" />
<line x1="582.8977702641636" y1="725.7371927267776" x2="585.2183801882895" y2="727.2456166468702" stroke-width="5" stroke="red" />
<line x1="589.6822858669553" y1="730.1746787332419" x2="585.2183801882895" y2="727.2456166468702" stroke-width="5" stroke="red" />
<line x1="589.6822858669553" y1="730.1746787332419" x2="593.2095570767638" y2="732.4892155358166" stroke-width="5" stroke="red" />
<line x1="592.9515436777667" y1="940.6909640715045" x2="603.7667741184425" y2="943.7689689736522" stroke-width="5" stroke="red" />
<line x1="596.6438063816366" y1="734.7638741076496" x2="593.2095570767638" y2="732.4892155358166" stroke-width="5" stroke="red" />
<line x1="596.6438063816366" y1="734.7638741076496" x2="601.1065321093824" y2="737.7196360661175" stroke-width="5" stroke="red" />
<line x1="603.8300937986604" y1="739.5407056357037" x2="601.1065321093824" y2="737.7196360661175" stroke-width="5" stroke="red" />
<line x1="603.8300937986604" y1="739.5407056357037" x2="608.936303321825" y2="742.9548246997439" stroke-width="5" stroke="red" />
<line x1="612.5906625299141" y1="945.7121548768457" x2="618.1929471116804" y2="946.8874791870845" stroke-width="5" stroke="red" />
<line x1="612.5906625299141" y1="945.7121548768457" x2="605.9025718181122" y2="944.3086445009883" stroke-width="5" stroke="red" />
<line x1="605.9025718181122" y1="944.3086445009883" x2="603.7667741184425" y2="943.7689689736522" stroke-width="5" stroke="red" />
<line x1="616.7249304762097" y1="748.2118459508508" x2="619.1221774403515" y2="749.8451667847235" stroke-width="5" stroke="red" />
<line x1="611.2991812698006" y1="744.5495963050993" x2="608.936303321825" y2="742.9548246997439" stroke-width="5" stroke="red" />
<line x1="611.2991812698006" y1="744.5495963050993" x2="616.7249304762097" y2="748.2118459508508" stroke-width="5" stroke="red" />
<line x1="620.0604466352992" y1="947.2033058160947" x2="618.1929471116804" y2="946.8874791870845" stroke-width="5" stroke="red" />
<line x1="620.0604466352992" y1="947.2033058160947" x2="622.6884872340938" y2="947.647769082953" stroke-width="5" stroke="red" />
<line x1="627.3849157070742" y1="948.2538998764086" x2="622.6884872340938" y2="947.647769082953" stroke-width="5" stroke="red" />
<line x1="627.3849157070742" y1="948.2538998764086" x2="631.0341966683359" y2="948.7248623583646" stroke-width="5" stroke="red" />
<line x1="624.4982358389758" y1="753.5077932220515" x2="627.3885085639564" y2="755.4953069841567" stroke-width="5" stroke="red" />
<line x1="624.4982358389758" y1="753.5077932220515" x2="619.1221774403515" y2="749.8451667847235" stroke-width="5" stroke="red" />
<line x1="632.2818159319786" y1="758.8604189427144" x2="636.2123540982869" y2="761.5886422857571" stroke-width="5" stroke="red" />
<line x1="632.2818159319786" y1="758.8604189427144" x2="627.3885085639564" y2="755.4953069841567" stroke-width="5" stroke="red" />
<line x1="634.6417785019577" y1="949.0413853464763" x2="631.0341966683359" y2="948.7248623583646" stroke-width="5" stroke="red" />
<line x1="634.6417785019577" y1="949.0413853464763" x2="638.9222484453425" y2="949.4170094350369" stroke-width="5" stroke="red" />
<line x1="641.8168142621522" y1="949.5365267576492" x2="638.9222484453425" y2="949.4170094350369" stroke-width="5" stroke="red" />
<line x1="641.8168142621522" y1="949.5365267576492" x2="644.4976737431465" y2="949.6471980070754" stroke-width="5" stroke="red" />
<line x1="640.1016086913294" y1="764.2880538078073" x2="645.7422499987229" y2="768.2394061994503" stroke-width="5" stroke="red" />
<line x1="640.1016086913294" y1="764.2880538078073" x2="636.2123540982869" y2="761.5886422857571" stroke-width="5" stroke="red" />
<line x1="653.233883796257" y1="949.6422664530309" x2="658.6969757605276" y2="949.3433232870498" stroke-width="5" stroke="red" />
<line x1="653.233883796257" y1="949.6422664530309" x2="644.4976737431465" y2="949.6471980070754" stroke-width="5" stroke="red" />
<line x1="647.9840900160034" y1="769.8098574544506" x2="655.2890494005501" y2="774.9738634215225" stroke-width="5" stroke="red" />
<line x1="647.9840900160034" y1="769.8098574544506" x2="645.7422499987229" y2="768.2394061994503" stroke-width="5" stroke="red" />
<line x1="655.9499369943046" y1="775.4578784274375" x2="656.2217114093214" y2="775.6601288997119" stroke-width="5" stroke="red" />
<line x1="655.9499369943046" y1="775.4578784274375" x2="655.2890494005501" y2="774.9738634215225" stroke-width="5" stroke="red" />
<line x1="663.4660972431113" y1="948.9121445471475" x2="666.074534261757" y2="948.6763820092057" stroke-width="5" stroke="red" />
<line x1="663.4660972431113" y1="948.9121445471475" x2="658.6969757605276" y2="949.3433232870498" stroke-width="5" stroke="red" />
<line x1="663.9456776360881" y1="781.4084086668781" x2="668.6430183463725" y2="784.959683821851" stroke-width="5" stroke="red" />
<line x1="663.9456776360881" y1="781.4084086668781" x2="656.2217114093214" y2="775.6601288997119" stroke-width="5" stroke="red" />
<line x1="671.4356280219371" y1="947.8537086137974" x2="677.8809274996452" y2="946.8647716224126" stroke-width="5" stroke="red" />
<line x1="677.8809274996452" y1="946.8647716224126" x2="682.3970542858034" y2="945.8448063273457" stroke-width="5" stroke="red" />
<line x1="671.4356280219371" y1="947.8537086137974" x2="666.074534261757" y2="948.6763820092057" stroke-width="5" stroke="red" />
<line x1="672.0784143459884" y1="787.5568905807203" x2="676.8550326033733" y2="791.2245274757419" stroke-width="5" stroke="red" />
<line x1="672.0784143459884" y1="787.5568905807203" x2="668.6430183463725" y2="784.959683821851" stroke-width="5" stroke="red" />
<line x1="684.2106207147337" y1="797.293335171952" x2="680.3225335967059" y2="794.0523583299452" stroke-width="5" stroke="red" />
<line x1="684.2106207147337" y1="797.293335171952" x2="687.7276607376995" y2="800.224950491357" stroke-width="5" stroke="red" />
<line x1="680.3225335967059" y1="794.0523583299452" x2="676.8550326033733" y2="791.2245274757419" stroke-width="5" stroke="red" />
<line x1="683.228581168894" y1="440.30152672186665" x2="683.2182322876095" y2="441.5720440437491" stroke-width="5" stroke="red" />
<line x1="683.228581168894" y1="440.30152672186665" x2="683.2333566393596" y2="439.71508761163597" stroke-width="5" stroke="red" />
<line x1="683.9552174756346" y1="410.56077549654844" x2="683.7745671478319" y2="414.2850541999863" stroke-width="5" stroke="red" />
<line x1="683.9552174756346" y1="410.56077549654844" x2="684.0036535451458" y2="409.56247801341414" stroke-width="5" stroke="red" />
<line x1="688.5585814509363" y1="944.2645067927468" x2="688.6289388525138" y2="944.240533004194" stroke-width="5" stroke="red" />
<line x1="688.5585814509363" y1="944.2645067927468" x2="682.3970542858034" y2="945.8448063273457" stroke-width="5" stroke="red" />
<line x1="688.6289388525138" y1="944.240533004194" x2="692.363226327602" y2="942.9663505337832" stroke-width="5" stroke="red" />
<line x1="683.3915176518909" y1="429.43255424633935" x2="683.565746260668" y2="421.77424756953314" stroke-width="5" stroke="red" />
<line x1="683.3368059227689" y1="432.988946057011" x2="683.2333566393596" y2="439.71508761163597" stroke-width="5" stroke="red" />
<line x1="683.3368059227689" y1="432.988946057011" x2="683.3915176518909" y2="429.43255424633935" stroke-width="5" stroke="red" />
<line x1="684.3684659313712" y1="402.65207417487505" x2="684.0036535451458" y2="409.56247801341414" stroke-width="5" stroke="red" />
<line x1="684.3684659313712" y1="402.65207417487505" x2="684.5134715099492" y2="399.9049254572577" stroke-width="5" stroke="red" />
<line x1="683.5457127557304" y1="454.3107431735878" x2="683.7765821434069" y2="461.31849792552185" stroke-width="5" stroke="red" />
<line x1="683.5457127557304" y1="454.3107431735878" x2="683.4148878730866" y2="450.33989106892" stroke-width="5" stroke="red" />
<line x1="684.9353524629151" y1="474.7600839608107" x2="685.1764593424599" y2="477.224835644186" stroke-width="5" stroke="red" />
<line x1="684.9353524629151" y1="474.7600839608107" x2="684.7492325488565" y2="472.85742927119844" stroke-width="5" stroke="red" />
<line x1="684.8183864978909" y1="394.5649025533601" x2="684.5134715099492" y2="399.9049254572577" stroke-width="5" stroke="red" />
<line x1="684.8183864978909" y1="394.5649025533601" x2="685.0580034212841" y2="390.36844964959704" stroke-width="5" stroke="red" />
<line x1="683.6199589943047" y1="419.39111254450324" x2="683.565746260668" y2="421.77424756953314" stroke-width="5" stroke="red" />
<line x1="687.7276607376995" y1="800.224950491357" x2="691.8139884263111" y2="803.7038687388216" stroke-width="5" stroke="red" />
<line x1="683.3473479321289" y1="447.3301517686966" x2="683.4148878730866" y2="450.33989106892" stroke-width="5" stroke="red" />
<line x1="683.3473479321289" y1="447.3301517686966" x2="683.2182322876095" y2="441.5720440437491" stroke-width="5" stroke="red" />
<line x1="685.31107264137" y1="386.2497611667547" x2="685.0580034212841" y2="390.36844964959704" stroke-width="5" stroke="red" />
<line x1="685.31107264137" y1="386.2497611667547" x2="685.6385080378183" y2="380.9203816865431" stroke-width="5" stroke="red" />
<line x1="684.3397578981256" y1="468.0008253931088" x2="684.7492325488565" y2="472.85742927119844" stroke-width="5" stroke="red" />
<line x1="684.3397578981256" y1="468.0008253931088" x2="683.7775179267841" y2="461.33178130368566" stroke-width="5" stroke="red" />
<line x1="683.6556841492901" y1="418.2114574491633" x2="683.6199589943047" y2="419.39111254450324" stroke-width="5" stroke="red" />
<line x1="683.6556841492901" y1="418.2114574491633" x2="683.7745671478319" y2="414.2850541999863" stroke-width="5" stroke="red" />
<line x1="686.7940027391195" y1="487.859552822085" x2="687.2914388835645" y2="490.88597231634907" stroke-width="5" stroke="red" />
<line x1="686.7940027391195" y1="487.859552822085" x2="686.3248413642154" y2="485.0050628290096" stroke-width="5" stroke="red" />
<line x1="698.2102299564581" y1="940.9611174016491" x2="698.3701311454151" y2="940.8899713205292" stroke-width="5" stroke="red" />
<line x1="698.2102299564581" y1="940.9611174016491" x2="692.363226327602" y2="942.9663505337832" stroke-width="5" stroke="red" />
<line x1="698.3701311454151" y1="940.8899713205292" x2="706.2476133058855" y2="937.3896452632738" stroke-width="5" stroke="red" />
<line x1="685.8538968023613" y1="377.64728023255407" x2="685.6385080378183" y2="380.9203816865431" stroke-width="5" stroke="red" />
<line x1="685.8538968023613" y1="377.64728023255407" x2="686.256530297253" y2="371.52841337614956" stroke-width="5" stroke="red" />
<line x1="686.9138679887575" y1="362.16160905783056" x2="687.1289356907722" y2="359.2764470886858" stroke-width="5" stroke="red" />
<line x1="686.4560035216352" y1="368.68570165937797" x2="686.256530297253" y2="371.52841337614956" stroke-width="5" stroke="red" />
<line x1="686.4560035216352" y1="368.68570165937797" x2="686.9138679887575" y2="362.16160905783056" stroke-width="5" stroke="red" />
<line x1="687.6125150811681" y1="352.7888434804106" x2="687.8871592784352" y2="349.3087989192148" stroke-width="5" stroke="red" />
<line x1="687.6125150811681" y1="352.7888434804106" x2="687.1289356907722" y2="359.2764470886858" stroke-width="5" stroke="red" />
<line x1="688.3551180408891" y1="343.3793798899051" x2="688.7497262750728" y2="338.6410548388427" stroke-width="5" stroke="red" />
<line x1="688.3551180408891" y1="343.3793798899051" x2="687.8871592784352" y2="349.3087989192148" stroke-width="5" stroke="red" />
<line x1="683.7771501350799" y1="461.3265606682046" x2="683.7775179267841" y2="461.33178130368566" stroke-width="5" stroke="red" />
<line x1="683.7771501350799" y1="461.3265606682046" x2="683.7765821434069" y2="461.31849792552185" stroke-width="5" stroke="red" />
<line x1="689.1444257015227" y1="333.901621805959" x2="689.741387080006" y2="327.0884492579872" stroke-width="5" stroke="red" />
<line x1="689.1444257015227" y1="333.901621805959" x2="688.7497262750728" y2="338.6410548388427" stroke-width="5" stroke="red" />
<line x1="689.9836541998066" y1="324.32334127875015" x2="690.8188352728322" y2="315.23939146149127" stroke-width="5" stroke="red" />
<line x1="689.9836541998066" y1="324.32334127875015" x2="689.741387080006" y2="327.0884492579872" stroke-width="5" stroke="red" />
<line x1="685.7826566013795" y1="481.3319130814107" x2="686.3248413642154" y2="485.0050628290096" stroke-width="5" stroke="red" />
<line x1="685.7826566013795" y1="481.3319130814107" x2="685.1764593424599" y2="477.224835644186" stroke-width="5" stroke="red" />
<line x1="689.5233827856176" y1="500.5769201862724" x2="690.0698166515663" y2="502.8078027627866" stroke-width="5" stroke="red" />
<line x1="689.5233827856176" y1="500.5769201862724" x2="688.8888593620148" y2="497.98620742912465" stroke-width="5" stroke="red" />
<line x1="706.9900200773972" y1="937.0580576653879" x2="707.207416285265" y2="936.9336450961118" stroke-width="5" stroke="red" />
<line x1="706.9900200773972" y1="937.0580576653879" x2="706.2476133058855" y2="937.3896452632738" stroke-width="5" stroke="red" />
<line x1="707.207416285265" y1="936.9336450961118" x2="708.6448182942489" y2="936.1120642537988" stroke-width="5" stroke="red" />
<line x1="693.2940603729965" y1="512.8545368484145" x2="693.4667038773613" y2="513.358911679896" stroke-width="5" stroke="red" />
<line x1="693.2940603729965" y1="512.8545368484145" x2="693.0441686189472" y2="512.1244154311076" stroke-width="5" stroke="red" />
<line x1="688.0494143521539" y1="494.2549738059073" x2="688.8888593620148" y2="497.98620742912465" stroke-width="5" stroke="red" />
<line x1="688.0494143521539" y1="494.2549738059073" x2="687.2914388835645" y2="490.88597231634907" stroke-width="5" stroke="red" />
<line x1="693.2958087735517" y1="294.6155694310202" x2="694.1084271088951" y2="288.4518322678205" stroke-width="5" stroke="red" />
<line x1="693.2958087735517" y1="294.6155694310202" x2="692.7506225658882" y2="299.0034852014608" stroke-width="5" stroke="red" />
<line x1="692.0401406984022" y1="304.72131192975615" x2="692.7506225658882" y2="299.0034852014608" stroke-width="5" stroke="red" />
<line x1="692.0401406984022" y1="304.72131192975615" x2="690.9174077761079" y2="314.3519750481606" stroke-width="5" stroke="red" />
<line x1="690.8872956289915" y1="314.6102941861102" x2="690.9174077761079" y2="314.3519750481606" stroke-width="5" stroke="red" />
<line x1="690.8872956289915" y1="314.6102941861102" x2="690.8188352728322" y2="315.23939146149127" stroke-width="5" stroke="red" />
<line x1="695.258043107075" y1="806.8803339672064" x2="702.015028069929" y2="813.2849282404387" stroke-width="5" stroke="red" />
<line x1="695.258043107075" y1="806.8803339672064" x2="691.8139884263111" y2="803.7038687388216" stroke-width="5" stroke="red" />
<line x1="691.3159407097824" y1="506.710896646742" x2="693.0441686189472" y2="512.1244154311076" stroke-width="5" stroke="red" />
<line x1="691.3159407097824" y1="506.710896646742" x2="690.0698166515663" y2="502.8078027627866" stroke-width="5" stroke="red" />
<line x1="696.4261395930787" y1="274.765579774004" x2="697.4360445001213" y2="269.26110357180517" stroke-width="5" stroke="red" />
<line x1="695.6610336810949" y1="279.194582595887" x2="694.789252229289" y2="284.24165013901046" stroke-width="5" stroke="red" />
<line x1="695.6610336810949" y1="279.194582595887" x2="696.4261395930787" y2="274.765579774004" stroke-width="5" stroke="red" />
<line x1="694.563151051413" y1="285.6399029698783" x2="694.1084271088951" y2="288.4518322678205" stroke-width="5" stroke="red" />
<line x1="694.563151051413" y1="285.6399029698783" x2="694.789252229289" y2="284.24165013901046" stroke-width="5" stroke="red" />
<line x1="695.7562270820471" y1="518.6308071127328" x2="697.4598969596483" y2="522.5538217908579" stroke-width="5" stroke="red" />
<line x1="695.7562270820471" y1="518.6308071127328" x2="693.4667038773613" y2="513.358911679896" stroke-width="5" stroke="red" />
<line x1="700.8564749525408" y1="254.69760983749902" x2="701.0602937158317" y2="253.89238365046057" stroke-width="5" stroke="red" />
<line x1="700.8564749525408" y1="254.69760983749902" x2="700.424083574093" y2="256.50586233030214" stroke-width="5" stroke="red" />
<line x1="698.4065615400914" y1="264.94308281722994" x2="700.424083574093" y2="256.50586233030214" stroke-width="5" stroke="red" />
<line x1="698.4065615400914" y1="264.94308281722994" x2="697.4360445001213" y2="269.26110357180517" stroke-width="5" stroke="red" />
<line x1="701.5390397050954" y1="529.9375871195637" x2="702.0009251166825" y2="530.7403332716872" stroke-width="5" stroke="red" />
<line x1="701.5390397050954" y1="529.9375871195637" x2="700.5363770765982" y2="528.195019826573" stroke-width="5" stroke="red" />
<line x1="707.2608781981967" y1="818.7819862744567" x2="703.3222487047788" y2="814.534051631966" stroke-width="5" stroke="red" />
<line x1="707.2608781981967" y1="818.7819862744567" x2="710.6460965725239" y2="822.4330965405738" stroke-width="5" stroke="red" />
<line x1="703.0938008837657" y1="814.3117226012824" x2="702.9258493654233" y2="814.1482641009967" stroke-width="5" stroke="red" />
<line x1="702.9258493654233" y1="814.1482641009967" x2="702.015028069929" y2="813.2849282404387" stroke-width="5" stroke="red" />
<line x1="703.0938008837657" y1="814.3117226012824" x2="703.3222487047788" y2="814.534051631966" stroke-width="5" stroke="red" />
<line x1="704.7062621502633" y1="242.15458480064967" x2="704.1403074005186" y2="243.90475825080182" stroke-width="5" stroke="red" />
<line x1="704.7062621502633" y1="242.15458480064967" x2="705.0593336706921" y2="241.06268458321094" stroke-width="5" stroke="red" />
<line x1="705.0593336706921" y1="241.06268458321094" x2="706.4878913962541" y2="237.40924779571125" stroke-width="5" stroke="red" />
<line x1="698.4571079983448" y1="524.3823831231362" x2="700.5363770765982" y2="528.195019826573" stroke-width="5" stroke="red" />
<line x1="698.4571079983448" y1="524.3823831231362" x2="697.4598969596483" y2="522.5538217908579" stroke-width="5" stroke="red" />
<line x1="702.7200280651236" y1="248.51007229850683" x2="701.0602937158317" y2="253.89238365046057" stroke-width="5" stroke="red" />
<line x1="702.7200280651236" y1="248.51007229850683" x2="704.1403074005186" y2="243.90475825080182" stroke-width="5" stroke="red" />
<line x1="705.1453665714389" y1="535.1182962426766" x2="707.0717692142465" y2="537.800492641776" stroke-width="5" stroke="red" />
<line x1="705.1453665714389" y1="535.1182962426766" x2="702.0009251166825" y2="530.7403332716872" stroke-width="5" stroke="red" />
<line x1="716.6605589385088" y1="829.705461008108" x2="712.4297660972775" y2="824.4097449326642" stroke-width="5" stroke="red" />
<line x1="716.6605589385088" y1="829.705461008108" x2="720.0175268078112" y2="833.9073484698279" stroke-width="5" stroke="red" />
<line x1="720.0175268078112" y1="833.9073484698279" x2="724.1677565700112" y2="839.8869802298467" stroke-width="5" stroke="red" />
<line x1="712.4297660972775" y1="824.4097449326642" x2="710.6460965725239" y2="822.4330965405738" stroke-width="5" stroke="red" />
<line x1="709.4918020725836" y1="229.72689686650136" x2="706.4878913962541" y2="237.40924779571125" stroke-width="5" stroke="red" />
<line x1="714.7575959360686" y1="932.3942806981524" x2="708.6448182942489" y2="936.1120642537988" stroke-width="5" stroke="red" />
<line x1="714.8895119683413" y1="932.2921841525803" x2="714.7575959360686" y2="932.3942806981524" stroke-width="5" stroke="red" />
<line x1="714.8895119683413" y1="932.2921841525803" x2="718.3130148343708" y2="929.6511328193315" stroke-width="5" stroke="red" />
<line x1="714.3651473896642" y1="219.5373990395593" x2="714.3920685378189" y2="219.4827790747881" stroke-width="5" stroke="red" />
<line x1="713.7524335421222" y1="220.7810900326244" x2="712.4243667781352" y2="223.49818590316676" stroke-width="5" stroke="red" />
<line x1="713.7524335421222" y1="220.7810900326244" x2="714.3651473896642" y2="219.5373990395593" stroke-width="5" stroke="red" />
<line x1="721.5473214019546" y1="927.156166337544" x2="718.3130148343708" y2="929.6511328193315" stroke-width="5" stroke="red" />
<line x1="721.6025832052197" y1="927.1015492258879" x2="721.5473214019546" y2="927.156166337544" stroke-width="5" stroke="red" />
<line x1="721.6025832052197" y1="927.1015492258879" x2="726.9244923871248" y2="921.8365797162812" stroke-width="5" stroke="red" />
<line x1="709.150369562624" y1="540.1047426024178" x2="712.6281181193468" y2="543.9600163330124" stroke-width="5" stroke="red" />
<line x1="709.150369562624" y1="540.1047426024178" x2="707.0717692142465" y2="537.800492641776" stroke-width="5" stroke="red" />
<line x1="710.4583743322576" y1="227.6739480386585" x2="709.4918020725836" y2="229.72689686650136" stroke-width="5" stroke="red" />
<line x1="710.4583743322576" y1="227.6739480386585" x2="712.4243667781352" y2="223.49818590316676" stroke-width="5" stroke="red" />
<line x1="727.3479871630026" y1="921.4175705478789" x2="726.9244923871248" y2="921.8365797162812" stroke-width="5" stroke="red" />
<line x1="727.3557811649079" y1="921.4074608102977" x2="727.3479871630026" y2="921.4175705478789" stroke-width="5" stroke="red" />
<line x1="727.3557811649079" y1="921.4074608102977" x2="728.7314300066296" y2="919.6208739133813" stroke-width="5" stroke="red" />
<line x1="718.6256848160563" y1="549.171596150577" x2="718.6415481254978" y2="549.1849364312259" stroke-width="5" stroke="red" />
<line x1="718.6256848160563" y1="549.171596150577" x2="718.5435785811701" y2="549.102547585701" stroke-width="5" stroke="red" />
<line x1="735.7906573709597" y1="861.8241036669313" x2="735.652614667899" y2="861.4163687452191" stroke-width="5" stroke="red" />
<line x1="735.7906573709597" y1="861.8241036669313" x2="736.2603284694965" y2="863.2298006216873" stroke-width="5" stroke="red" />
<line x1="719.6515178675644" y1="210.5894311892023" x2="719.7448606477732" y2="210.4321967607239" stroke-width="5" stroke="red" />
<line x1="717.4401202717535" y1="214.31202676921203" x2="714.3920685378189" y2="219.4827790747881" stroke-width="5" stroke="red" />
<line x1="717.4401202717535" y1="214.31202676921203" x2="719.6515178675644" y2="210.5894311892023" stroke-width="5" stroke="red" />
<line x1="735.5431795299035" y1="861.1728811795516" x2="735.652614667899" y2="861.4163687452191" stroke-width="5" stroke="red" />
<line x1="732.8370813592859" y1="855.1551287212739" x2="731.6001101059527" y2="852.4308603889203" stroke-width="5" stroke="red" />
<line x1="732.8370813592859" y1="855.1551287212739" x2="735.5431795299035" y2="861.1728811795516" stroke-width="5" stroke="red" />
<line x1="713.6185527800177" y1="544.8210175644456" x2="718.5435785811701" y2="549.102547585701" stroke-width="5" stroke="red" />
<line x1="713.6185527800177" y1="544.8210175644456" x2="712.6281181193468" y2="543.9600163330124" stroke-width="5" stroke="red" />
<line x1="731.5132007912827" y1="852.2758839389172" x2="731.6001101059527" y2="852.4308603889203" stroke-width="5" stroke="red" />
<line x1="729.4551900687819" y1="848.6052922146995" x2="726.4410699018981" y2="843.2719570881956" stroke-width="5" stroke="red" />
<line x1="729.4551900687819" y1="848.6052922146995" x2="731.5132007912827" y2="852.2758839389172" stroke-width="5" stroke="red" />
<line x1="726.4102463476034" y1="843.2257970467725" x2="726.4410699018981" y2="843.2719570881956" stroke-width="5" stroke="red" />
<line x1="725.7080771488748" y1="842.1755317046378" x2="724.1677565700112" y2="839.8869802298467" stroke-width="5" stroke="red" />
<line x1="725.7080771488748" y1="842.1755317046378" x2="726.4102463476034" y2="843.2257970467725" stroke-width="5" stroke="red" />
<line x1="724.3713982340718" y1="552.8873002466987" x2="725.0882352098757" y2="553.3504933065341" stroke-width="5" stroke="red" />
<line x1="724.3713982340718" y1="552.8873002466987" x2="718.6415481254978" y2="549.1849364312259" stroke-width="5" stroke="red" />
<line x1="725.3415776787753" y1="202.64759361746323" x2="725.500593943738" y2="202.42717481036357" stroke-width="5" stroke="red" />
<line x1="721.4143168895117" y1="208.0975047431521" x2="719.7448606477732" y2="210.4321967607239" stroke-width="5" stroke="red" />
<line x1="721.4143168895117" y1="208.0975047431521" x2="725.3415776787753" y2="202.64759361746323" stroke-width="5" stroke="red" />
<line x1="731.5583254817653" y1="915.8471248718132" x2="728.7314300066296" y2="919.6208739133813" stroke-width="5" stroke="red" />
<line x1="731.5583254817653" y1="915.8471248718132" x2="732.0889666588139" y2="915.1387575244204" stroke-width="5" stroke="red" />
<line x1="740.1753837296764" y1="879.5559179980969" x2="740.5293563269619" y2="884.5327351791601" stroke-width="5" stroke="red" />
<line x1="740.1753837296764" y1="879.5559179980969" x2="740.0842261129911" y2="878.2747925194749" stroke-width="5" stroke="red" />
<line x1="729.7326164799741" y1="197.73329100042125" x2="731.4131378068655" y2="195.8798754166217" stroke-width="5" stroke="red" />
<line x1="729.7326164799741" y1="197.73329100042125" x2="726.4168545739308" y2="201.39016214341044" stroke-width="5" stroke="red" />
<line x1="731.5172710620951" y1="195.76499399910716" x2="731.4131378068655" y2="195.8798754166217" stroke-width="5" stroke="red" />
<line x1="730.788880712454" y1="556.0555662283653" x2="731.9239464509642" y2="556.5941867315687" stroke-width="5" stroke="red" />
<line x1="730.788880712454" y1="556.0555662283653" x2="725.0882352098757" y2="553.3504933065341" stroke-width="5" stroke="red" />
<line x1="731.9239464509642" y1="556.5941867315687" x2="737.9753351051968" y2="558.5340776098111" stroke-width="5" stroke="red" />
<line x1="734.9818744788001" y1="909.9061596051696" x2="732.0889666588139" y2="915.1387575244204" stroke-width="5" stroke="red" />
<line x1="734.9818744788001" y1="909.9061596051696" x2="735.7951247483059" y2="908.4350425709815" stroke-width="5" stroke="red" />
<line x1="740.0842261129911" y1="878.2747925194749" x2="740.0738994732692" y2="878.2229850622688" stroke-width="5" stroke="red" />
<line x1="739.1158508892034" y1="873.4238333187557" x2="740.0738994732692" y2="878.2229850622688" stroke-width="5" stroke="red" />
<line x1="739.1158508892034" y1="873.4238333187557" x2="738.4277007381795" y2="869.9766243656359" stroke-width="5" stroke="red" />
<line x1="725.7060748337113" y1="202.19316319034485" x2="725.500593943738" y2="202.42717481036357" stroke-width="5" stroke="red" />
<line x1="725.7060748337113" y1="202.19316319034485" x2="726.4168545739308" y2="201.39016214341044" stroke-width="5" stroke="red" />
<line x1="738.4277007381795" y1="869.9766243656359" x2="738.3792532462639" y2="869.8261658791653" stroke-width="5" stroke="red" />
<line x1="737.6453286907911" y1="867.5415301476007" x2="738.3792532462639" y2="869.8261658791653" stroke-width="5" stroke="red" />
<line x1="737.6453286907911" y1="867.5415301476007" x2="736.2603284694965" y2="863.2298006216873" stroke-width="5" stroke="red" />
<line x1="737.7585922605996" y1="903.2367337125859" x2="735.7951247483059" y2="908.4350425709815" stroke-width="5" stroke="red" />
<line x1="738.4640827153461" y1="901.3690257912792" x2="739.7185546383868" y2="895.6376817060193" stroke-width="5" stroke="red" />
<line x1="737.7585922605996" y1="903.2367337125859" x2="738.4640827153461" y2="901.3690257912792" stroke-width="5" stroke="red" />
<line x1="740.0821934102244" y1="893.9766783715298" x2="740.6042946067112" y2="886.8034679906442" stroke-width="5" stroke="red" />
<line x1="740.0821934102244" y1="893.9766783715298" x2="739.7185546383868" y2="895.6376817060193" stroke-width="5" stroke="red" />
<line x1="734.1429238869977" y1="193.4599239308387" x2="737.8323491423931" y2="190.2209446192773" stroke-width="5" stroke="red" />
<line x1="734.1429238869977" y1="193.4599239308387" x2="731.5172710620951" y2="195.76499399910716" stroke-width="5" stroke="red" />
<line x1="737.8732621530277" y1="190.18498393739793" x2="737.8323491423931" y2="190.2209446192773" stroke-width="5" stroke="red" />
<line x1="739.113706399045" y1="558.8989962207517" x2="737.9753351051968" y2="558.5340776098111" stroke-width="5" stroke="red" />
<line x1="739.113706399045" y1="558.8989962207517" x2="746.0447739441919" y2="560.1495790865974" stroke-width="5" stroke="red" />
<line x1="740.6412034871646" y1="886.2962610072076" x2="740.5293563269619" y2="884.5327351791601" stroke-width="5" stroke="red" />
<line x1="740.6412034871646" y1="886.2962610072076" x2="740.6042946067112" y2="886.8034679906442" stroke-width="5" stroke="red" />
<line x1="744.5437829435172" y1="185.68783461195724" x2="743.4958424064747" y2="186.384167846524" stroke-width="5" stroke="red" />
<line x1="744.5437829435172" y1="185.68783461195724" x2="744.8513154225459" y2="185.53904790128996" stroke-width="5" stroke="red" />
<line x1="738.981164030631" y1="189.4360919496105" x2="743.4958424064747" y2="186.384167846524" stroke-width="5" stroke="red" />
<line x1="738.981164030631" y1="189.4360919496105" x2="737.8732621530277" y2="190.18498393739793" stroke-width="5" stroke="red" />
<line x1="746.6206705709354" y1="560.2534829207874" x2="746.0447739441919" y2="560.1495790865974" stroke-width="5" stroke="red" />
<line x1="746.6206705709354" y1="560.2534829207874" x2="750.259363580541" y2="560.439069498659" stroke-width="5" stroke="red" />
<line x1="751.4725068743605" y1="182.3359805018441" x2="744.8513154225459" y2="185.53904790128996" stroke-width="5" stroke="red" />
<line x1="751.4725068743605" y1="182.3359805018441" x2="752.8919083889043" y2="181.88460335811607" stroke-width="5" stroke="red" />
<line x1="754.4114389940688" y1="560.5803448681834" x2="750.259363580541" y2="560.439069498659" stroke-width="5" stroke="red" />
<line x1="754.4114389940688" y1="560.5803448681834" x2="755.2689889682827" y2="560.5000969602946" stroke-width="5" stroke="red" />
<line x1="760.4456887046946" y1="179.7538053528943" x2="766.1367915388898" y2="178.82043307103356" stroke-width="5" stroke="red" />
<line x1="758.6824945421116" y1="180.04297856117958" x2="752.8919083889043" y2="181.88460335811607" stroke-width="5" stroke="red" />
<line x1="760.4456887046946" y1="179.7538053528943" x2="758.6824945421116" y2="180.04297856117958" stroke-width="5" stroke="red" />
<line x1="762.449700529296" y1="559.8281043820382" x2="755.2689889682827" y2="560.5000969602946" stroke-width="5" stroke="red" />
<line x1="762.449700529296" y1="559.8281043820382" x2="765.9882492577386" y2="559.0700859296113" stroke-width="5" stroke="red" />
<line x1="767.6310698845199" y1="178.79201748274915" x2="773.7974324447139" y2="178.67479790159717" stroke-width="5" stroke="red" />
<line x1="767.6310698845199" y1="178.79201748274915" x2="766.1367915388898" y2="178.82043307103356" stroke-width="5" stroke="red" />
<line x1="770.6898187778578" y1="558.0629583168032" x2="765.9882492577386" y2="559.0700859296113" stroke-width="5" stroke="red" />
<line x1="770.6898187778578" y1="558.0629583168032" x2="778.3968211780574" y2="555.5217473864901" stroke-width="5" stroke="red" />
<line x1="774.526805650421" y1="178.7616425599152" x2="778.5727727541688" y2="179.24318903956032" stroke-width="5" stroke="red" />
<line x1="774.526805650421" y1="178.7616425599152" x2="773.7974324447139" y2="178.67479790159717" stroke-width="5" stroke="red" />
<line x1="779.0897465043538" y1="555.2932691865127" x2="778.3968211780574" y2="555.5217473864901" stroke-width="5" stroke="red" />
<line x1="779.0897465043538" y1="555.2932691865127" x2="780.1814745338777" y2="554.8113007004777" stroke-width="5" stroke="red" />
<line x1="781.5860450466904" y1="179.6441231836434" x2="781.602456449991" y2="179.6463014265421" stroke-width="5" stroke="red" />
<line x1="781.5860450466904" y1="179.6441231836434" x2="778.5727727541688" y2="179.24318903956032" stroke-width="5" stroke="red" />
<line x1="781.602456449991" y1="179.6463014265421" x2="782.3367365442043" y2="179.84696633780487" stroke-width="5" stroke="red" />
<line x1="787.6311167749037" y1="551.1860672383249" x2="780.1814745338777" y2="554.8113007004777" stroke-width="5" stroke="red" />
<line x1="787.6311167749037" y1="551.1860672383249" x2="794.3763515336823" y2="547.1266923659443" stroke-width="5" stroke="red" />
<line x1="789.3980080883183" y1="181.77696415742463" x2="789.4742597782827" y2="181.79785339937786" stroke-width="5" stroke="red" />
<line x1="789.3980080883183" y1="181.77696415742463" x2="782.3367365442043" y2="179.84696633780487" stroke-width="5" stroke="red" />
<line x1="789.4742597782827" y1="181.79785339937786" x2="793.2373829142412" y2="183.34305768878008" stroke-width="5" stroke="red" />
<line x1="796.2534964497362" y1="545.9970215097744" x2="794.3763515336823" y2="547.1266923659443" stroke-width="5" stroke="red" />
<line x1="796.2534964497362" y1="545.9970215097744" x2="797.8684058511718" y2="544.8414845898286" stroke-width="5" stroke="red" />
<line x1="797.2551251729761" y1="184.99274832681746" x2="797.4074506519811" y2="185.0550958145265" stroke-width="5" stroke="red" />
<line x1="797.2551251729761" y1="184.99274832681746" x2="793.2373829142412" y2="183.34305768878008" stroke-width="5" stroke="red" />
<line x1="797.4074506519811" y1="185.0550958145265" x2="804.1409095098584" y2="188.73484328364057" stroke-width="5" stroke="red" />
<line x1="804.9431985719021" y1="539.3259179189193" x2="797.8684058511718" y2="544.8414845898286" stroke-width="5" stroke="red" />
<line x1="804.9431985719021" y1="539.3259179189193" x2="811.2922674942548" y2="533.6153231365538" stroke-width="5" stroke="red" />
<line x1="805.3403438788539" y1="189.43468678918987" x2="805.1202665621106" y2="189.30627174586598" stroke-width="5" stroke="red" />
<line x1="805.3403438788539" y1="189.43468678918987" x2="805.8193211735916" y2="189.78202050669836" stroke-width="5" stroke="red" />
<line x1="805.1202665621106" y1="189.30627174586598" x2="804.1409095098584" y2="188.73484328364057" stroke-width="5" stroke="red" />
<line x1="813.1102273810052" y1="195.0903584530886" x2="812.9649679871466" y2="194.98483412015423" stroke-width="5" stroke="red" />
<line x1="813.1102273810052" y1="195.0903584530886" x2="817.5728574085625" y2="198.98167921215804" stroke-width="5" stroke="red" />
<line x1="812.9649679871466" y1="194.98483412015423" x2="805.8193211735916" y2="189.78202050669836" stroke-width="5" stroke="red" />
<line x1="813.6485864339654" y1="531.3065231246641" x2="811.2922674942548" y2="533.6153231365538" stroke-width="5" stroke="red" />
<line x1="813.6485864339654" y1="531.3065231246641" x2="822.2091418971253" y2="521.823507908208" stroke-width="5" stroke="red" />
<line x1="820.7966037928868" y1="201.80158283269725" x2="820.7369598379156" y2="201.74937856078546" stroke-width="5" stroke="red" />
<line x1="820.7966037928868" y1="201.80158283269725" x2="825.5428757761277" y2="206.65377392550673" stroke-width="5" stroke="red" />
<line x1="820.7369598379156" y1="201.74937856078546" x2="817.5728574085625" y2="198.98167921215804" stroke-width="5" stroke="red" />
<line x1="827.5084036000385" y1="208.78564955693798" x2="825.5428757761277" y2="206.65377392550673" stroke-width="5" stroke="red" />
<line x1="827.5084036000385" y1="208.78564955693798" x2="828.3842609850279" y2="209.73563482937075" stroke-width="5" stroke="red" />
<line x1="822.3482226708024" y1="521.6553951590772" x2="822.2091418971253" y2="521.823507908208" stroke-width="5" stroke="red" />
<line x1="822.3482226708024" y1="521.6553951590772" x2="825.8772511419855" y2="516.9015926539693" stroke-width="5" stroke="red" />
<line x1="832.5502341783449" y1="214.94028035279317" x2="828.3842609850279" y2="209.73563482937075" stroke-width="5" stroke="red" />
<line x1="832.5502341783449" y1="214.94028035279317" x2="835.8554326110061" y2="219.06951753186965" stroke-width="5" stroke="red" />
<line x1="831.1998438021925" y1="509.70774279787764" x2="832.3651793850386" y2="507.81291842962185" stroke-width="5" stroke="red" />
<line x1="831.0304622554423" y1="509.959918722259" x2="825.8772511419855" y2="516.9015926539693" stroke-width="5" stroke="red" />
<line x1="831.1998438021925" y1="509.70774279787764" x2="831.0304622554423" y2="509.959918722259" stroke-width="5" stroke="red" />
<line x1="838.7461549686003" y1="497.4374831903994" x2="839.6881887296997" y2="495.75308766363673" stroke-width="5" stroke="red" />
<line x1="838.7461549686003" y1="497.4374831903994" x2="832.3651793850386" y2="507.81291842962185" stroke-width="5" stroke="red" />
<line x1="835.8554326110061" y1="219.06951753186965" x2="840.3529089955406" y2="225.4648522280604" stroke-width="5" stroke="red" />
<line x1="841.7970275964907" y1="227.68297208113057" x2="840.3529089955406" y2="225.4648522280604" stroke-width="5" stroke="red" />
<line x1="841.7970275964907" y1="227.68297208113057" x2="843.1123451324352" y2="229.70319889949238" stroke-width="5" stroke="red" />
<line x1="845.1335342036747" y1="485.10262159185856" x2="848.3450881389739" y2="478.1537915333495" stroke-width="5" stroke="red" />
<line x1="845.1335342036747" y1="485.10262159185856" x2="839.6881887296997" y2="495.75308766363673" stroke-width="5" stroke="red" />
<line x1="843.1123451324352" y1="229.70319889949238" x2="847.6598265683346" y2="237.58850549623222" stroke-width="5" stroke="red" />
<line x1="848.8178476706158" y1="239.80573168891922" x2="850.0732843651784" y2="242.2094337326141" stroke-width="5" stroke="red" />
<line x1="848.8178476706158" y1="239.80573168891922" x2="847.6598265683346" y2="237.58850549623222" stroke-width="5" stroke="red" />
<line x1="850.6344046144956" y1="472.7694303716103" x2="853.3335974982476" y2="465.6941090947149" stroke-width="5" stroke="red" />
<line x1="850.6344046144956" y1="472.7694303716103" x2="848.3450881389739" y2="478.1537915333495" stroke-width="5" stroke="red" />
<line x1="851.9627521646491" y1="246.27451724112177" x2="853.5486744846876" y2="249.6866328362424" stroke-width="5" stroke="red" />
<line x1="851.9627521646491" y1="246.27451724112177" x2="850.0732843651784" y2="242.2094337326141" stroke-width="5" stroke="red" />
<line x1="855.333322149598" y1="460.4522823458469" x2="853.3335974982476" y2="465.6941090947149" stroke-width="5" stroke="red" />
<line x1="855.333322149598" y1="460.4522823458469" x2="857.1009784577922" y2="455.225795809801" stroke-width="5" stroke="red" />
<line x1="854.9049005493044" y1="252.94612803433256" x2="856.6575405067514" y2="257.1582179242313" stroke-width="5" stroke="red" />
<line x1="854.9049005493044" y1="252.94612803433256" x2="853.5486744846876" y2="249.6866328362424" stroke-width="5" stroke="red" />
<line x1="857.6446036456999" y1="259.81936682604356" x2="858.3431689043758" y2="261.70270327174325" stroke-width="5" stroke="red" />
<line x1="858.3431689043758" y1="261.70270327174325" x2="861.2696968927642" y2="270.6546830088499" stroke-width="5" stroke="red" />
<line x1="857.6446036456999" y1="259.81936682604356" x2="856.6575405067514" y2="257.1582179242313" stroke-width="5" stroke="red" />
<line x1="862.2363681832705" y1="273.6116236061122" x2="861.2696968927642" y2="270.6546830088499" stroke-width="5" stroke="red" />
<line x1="858.6485030621935" y1="450.29165010762443" x2="859.3166705889734" y2="448.16124918593573" stroke-width="5" stroke="red" />
<line x1="858.6485030621935" y1="450.29165010762443" x2="857.1009784577922" y2="455.225795809801" stroke-width="5" stroke="red" />
<line x1="862.4390757366649" y1="274.32919721489964" x2="862.2363681832705" y2="273.6116236061122" stroke-width="5" stroke="red" />
<line x1="862.4390757366649" y1="274.32919721489964" x2="862.7605871935274" y2="275.46735886138987" stroke-width="5" stroke="red" />
<line x1="862.6976208505889" y1="435.8376836001742" x2="865.2297684548574" y2="425.0568317983741" stroke-width="5" stroke="red" />
<line x1="861.177693944778" y1="441.3777874346901" x2="862.6976208505889" y2="435.8376836001742" stroke-width="5" stroke="red" />
<line x1="861.177693944778" y1="441.3777874346901" x2="859.3166705889734" y2="448.16124918593573" stroke-width="5" stroke="red" />
<line x1="865.5824563206509" y1="423.55524247983533" x2="866.4930514334059" y2="418.9013540120503" stroke-width="5" stroke="red" />
<line x1="865.5824563206509" y1="423.55524247983533" x2="865.2297684548574" y2="425.0568317983741" stroke-width="5" stroke="red" />
<line x1="864.5302250292008" y1="282.52736464662627" x2="862.7605871935274" y2="275.46735886138987" stroke-width="5" stroke="red" />
<line x1="864.5302250292008" y1="282.52736464662627" x2="865.5572397280381" y2="286.6245383076298" stroke-width="5" stroke="red" />
<line x1="866.4532589439974" y1="290.8944530265903" x2="868.1973737210303" y2="299.20605556884965" stroke-width="5" stroke="red" />
<line x1="866.4532589439974" y1="290.8944530265903" x2="865.5572397280381" y2="286.6245383076298" stroke-width="5" stroke="red" />
<line x1="867.896600293624" y1="411.2881628343917" x2="868.1789754621013" y2="409.39245235466717" stroke-width="5" stroke="red" />
<line x1="867.896600293624" y1="411.2881628343917" x2="866.4930514334059" y2="418.9013540120503" stroke-width="5" stroke="red" />
<line x1="868.2339024317441" y1="299.40369057202946" x2="868.2512521782503" y2="299.49756378823355" stroke-width="5" stroke="red" />
<line x1="868.2339024317441" y1="299.40369057202946" x2="868.1973737210303" y2="299.20605556884965" stroke-width="5" stroke="red" />
<line x1="871.7002057491352" y1="327.310960680913" x2="872.3603423970604" y2="336.40493124257864" stroke-width="5" stroke="red" />
<line x1="871.7002057491352" y1="327.310960680913" x2="871.5232920505773" y2="324.873721616705" stroke-width="5" stroke="red" />
<line x1="869.5765444807963" y1="308.4792490283289" x2="870.1323691548549" y2="312.246000917646" stroke-width="5" stroke="red" />
<line x1="869.5765444807963" y1="308.4792490283289" x2="868.2512521782503" y2="299.49756378823355" stroke-width="5" stroke="red" />
<line x1="870.7403034991573" y1="317.76513282631504" x2="871.5232920505773" y2="324.873721616705" stroke-width="5" stroke="red" />
<line x1="870.7403034991573" y1="317.76513282631504" x2="870.1323691548549" y2="312.246000917646" stroke-width="5" stroke="red" />
<line x1="869.7221653697638" y1="399.032200386115" x2="870.144293895457" y2="395.321019436663" stroke-width="5" stroke="red" />
<line x1="869.7221653697638" y1="399.032200386115" x2="868.1789754621013" y2="409.39245235466717" stroke-width="5" stroke="red" />
<line x1="871.1162269520848" y1="386.77627392324575" x2="871.4677994556663" y2="382.309389231077" stroke-width="5" stroke="red" />
<line x1="871.1162269520848" y1="386.77627392324575" x2="870.144293895457" y2="395.321019436663" stroke-width="5" stroke="red" />
<line x1="872.27358647759" y1="370.1392635432844" x2="872.0822500812587" y2="374.5027064845244" stroke-width="5" stroke="red" />
<line x1="872.0822500812587" y1="374.5027064845244" x2="871.4677994556663" y2="382.309389231077" stroke-width="5" stroke="red" />
<line x1="872.27358647759" y1="370.1392635432844" x2="872.6219834354115" y2="362.19369299609195" stroke-width="5" stroke="red" />
<line x1="872.6544601477311" y1="358.64496557177495" x2="872.6219834354115" y2="362.19369299609195" stroke-width="5" stroke="red" />
<line x1="872.6544601477311" y1="358.64496557177495" x2="872.7351400982676" y2="349.8314784753335" stroke-width="5" stroke="red" />
<line x1="872.6810349711227" y1="347.69899958307457" x2="872.7351400982676" y2="349.8314784753335" stroke-width="5" stroke="red" />
<line x1="872.6810349711227" y1="347.69899958307457" x2="872.4196741525507" y2="337.3978574350134" stroke-width="5" stroke="red" />
<line x1="872.4078398760855" y1="337.1997975589765" x2="872.4196741525507" y2="337.3978574350134" stroke-width="5" stroke="red" />
<line x1="872.4078398760855" y1="337.1997975589765" x2="872.3603423970604" y2="336.40493124257864" stroke-width="5" stroke="red" />
</svg>
