<svg width="998.62103353099" height="1001.3789664690099" xmlns="http://www.w3.org/2000/svg">
<line x1="155.45108808391785" y1="449.6397653163513" x2="155.85678689887" y2="446.3897667886576" stroke-width="5" stroke="red" />
<line x1="155.45108808391785" y1="449.6397653163513" x2="155.2437478153093" y2="451.3010370381884" stroke-width="5" stroke="red" />
<line x1="159.99932791069156" y1="430.5007783321539" x2="160.1471525644193" y2="430.12585514484135" stroke-width="5" stroke="red" />
<line x1="159.99932791069156" y1="430.5007783321539" x2="159.88241655437525" y2="430.7972784574228" stroke-width="5" stroke="red" />
<line x1="158.79206350243055" y1="475.03543405443105" x2="156.9354368879382" y2="469.85299267757244" stroke-width="5" stroke="red" />
<line x1="159.11661089376113" y1="475.9414996836092" x2="159.70896022676814" y2="476.9878215087983" stroke-width="5" stroke="red" />
<line x1="158.79206350243055" y1="475.03543405443105" x2="159.11661089376113" y2="475.9414996836092" stroke-width="5" stroke="red" />
<line x1="155.2528141500115" y1="456.04203878287785" x2="155.2437478153093" y2="451.3010370381884" stroke-width="5" stroke="red" />
<line x1="155.2528141500115" y1="456.04203878287785" x2="155.2609792532228" y2="460.29289031773635" stroke-width="5" stroke="red" />
<line x1="158.09668665845058" y1="436.86985829159204" x2="159.88241655437525" y2="430.7972784574228" stroke-width="5" stroke="red" />
<line x1="158.09668665845058" y1="436.86985829159204" x2="156.74291789852688" y2="441.47365034796803" stroke-width="5" stroke="red" />
<line x1="162.8603303350995" y1="482.554332860026" x2="159.70896022676814" y2="476.9878215087983" stroke-width="5" stroke="red" />
<line x1="162.8603303350995" y1="482.554332860026" x2="166.75938213396896" y2="487.25064790563283" stroke-width="5" stroke="red" />
<line x1="155.58123884221445" y1="462.4189416346882" x2="155.2609792532228" y2="460.29289031773635" stroke-width="5" stroke="red" />
<line x1="155.58123884221445" y1="462.4189416346882" x2="156.50400808662192" y2="468.54488562366834" stroke-width="5" stroke="red" />
<line x1="156.42378190265802" y1="443.24391848385744" x2="156.74291789852688" y2="441.47365034796803" stroke-width="5" stroke="red" />
<line x1="156.42378190265802" y1="443.24391848385744" x2="155.85678689887" y2="446.3897667886576" stroke-width="5" stroke="red" />
<line x1="166.4999141520812" y1="416.84456713874675" x2="173.39595045979343" y2="405.96001105636327" stroke-width="5" stroke="red" />
<line x1="165.90126103066905" y1="417.9238009393604" x2="165.2992343467775" y2="419.0091191230556" stroke-width="5" stroke="red" />
<line x1="165.2992343467775" y1="419.0091191230556" x2="160.1471525644193" y2="430.12585514484135" stroke-width="5" stroke="red" />
<line x1="165.90126103066905" y1="417.9238009393604" x2="166.4999141520812" y2="416.84456713874675" stroke-width="5" stroke="red" />
<line x1="168.66118075240237" y1="489.19179197002114" x2="173.56482913750247" y2="493.34326481841237" stroke-width="5" stroke="red" />
<line x1="168.66118075240237" y1="489.19179197002114" x2="167.68448852122833" y2="488.3648344980988" stroke-width="5" stroke="red" />
<line x1="167.68448852122833" y1="488.3648344980988" x2="166.75938213396896" y2="487.25064790563283" stroke-width="5" stroke="red" />
<line x1="156.57340086021665" y1="468.7552773358408" x2="156.50400808662192" y2="468.54488562366834" stroke-width="5" stroke="red" />
<line x1="156.57340086021665" y1="468.7552773358408" x2="156.9354368879382" y2="469.85299267757244" stroke-width="5" stroke="red" />
<line x1="173.56482913750247" y1="493.34326481841237" x2="174.84855342915085" y2="494.10926617321775" stroke-width="5" stroke="red" />
<line x1="174.33936943809508" y1="404.64327958682327" x2="173.39595045979343" y2="405.96001105636327" stroke-width="5" stroke="red" />
<line x1="178.89413993643197" y1="398.9871688126064" x2="183.012236659279" y2="393.8733541434527" stroke-width="5" stroke="red" />
<line x1="178.89413993643197" y1="398.9871688126064" x2="174.33936943809508" y2="404.64327958682327" stroke-width="5" stroke="red" />
<line x1="180.67346123721734" y1="497.3655330185084" x2="183.83501637856585" y2="498.5418461742621" stroke-width="5" stroke="red" />
<line x1="180.67346123721734" y1="497.3655330185084" x2="174.84855342915085" y2="494.10926617321775" stroke-width="5" stroke="red" />
<line x1="188.9244428983917" y1="500.4354155043436" x2="195.32203630146284" y2="501.89592141869196" stroke-width="5" stroke="red" />
<line x1="188.9244428983917" y1="500.4354155043436" x2="183.83501637856585" y2="498.5418461742621" stroke-width="5" stroke="red" />
<line x1="189.89649860673583" y1="386.6352064586325" x2="192.2770125002718" y2="384.2070093356437" stroke-width="5" stroke="red" />
<line x1="189.89649860673583" y1="386.6352064586325" x2="185.6284726129586" y2="390.98870594934533" stroke-width="5" stroke="red" />
<line x1="184.01634793249127" y1="392.7662280014083" x2="185.6284726129586" y2="390.98870594934533" stroke-width="5" stroke="red" />
<line x1="184.01634793249127" y1="392.7662280014083" x2="183.012236659279" y2="393.8733541434527" stroke-width="5" stroke="red" />
<line x1="196.2592753429917" y1="380.57173063136923" x2="201.95449105384057" y2="375.3727479517284" stroke-width="5" stroke="red" />
<line x1="196.2592753429917" y1="380.57173063136923" x2="192.2770125002718" y2="384.2070093356437" stroke-width="5" stroke="red" />
<line x1="198.40629893983723" y1="502.47352408249594" x2="206.6743443215055" y2="503.099242768345" stroke-width="5" stroke="red" />
<line x1="198.40629893983723" y1="502.47352408249594" x2="195.32203630146284" y2="501.89592141869196" stroke-width="5" stroke="red" />
<line x1="209.4064507625972" y1="503.30600193106267" x2="210.25920094520336" y2="503.29270830003986" stroke-width="5" stroke="red" />
<line x1="210.25920094520336" y1="503.29270830003986" x2="222.4173524809174" y2="502.6616190774189" stroke-width="5" stroke="red" />
<line x1="209.4064507625972" y1="503.30600193106267" x2="206.6743443215055" y2="503.099242768345" stroke-width="5" stroke="red" />
<line x1="210.44486408420275" y1="368.6439746701565" x2="212.05240024096426" y2="367.3960368901744" stroke-width="5" stroke="red" />
<line x1="210.44486408420275" y1="368.6439746701565" x2="205.65346804666137" y2="372.36353235874924" stroke-width="5" stroke="red" />
<line x1="202.9553482141973" y1="374.5585097333518" x2="205.65346804666137" y2="372.36353235874924" stroke-width="5" stroke="red" />
<line x1="202.9553482141973" y1="374.5585097333518" x2="201.95449105384057" y2="375.3727479517284" stroke-width="5" stroke="red" />
<line x1="223.08521626399923" y1="502.57871214061674" x2="225.7967751218859" y2="502.1515792028469" stroke-width="5" stroke="red" />
<line x1="223.08521626399923" y1="502.57871214061674" x2="222.4173524809174" y2="502.6616190774189" stroke-width="5" stroke="red" />
<line x1="218.63723310087187" y1="362.81805677731575" x2="222.48980157704247" y2="360.1396068902802" stroke-width="5" stroke="red" />
<line x1="218.63723310087187" y1="362.81805677731575" x2="212.05240024096426" y2="367.3960368901744" stroke-width="5" stroke="red" />
<line x1="235.4623267103818" y1="500.62907617822043" x2="225.7967751218859" y2="502.1515792028469" stroke-width="5" stroke="red" />
<line x1="235.4623267103818" y1="500.62907617822043" x2="238.3336743254245" y2="500.07659500388917" stroke-width="5" stroke="red" />
<line x1="227.45333251162756" y1="357.0677568065548" x2="233.21478595871824" y2="353.50214704264715" stroke-width="5" stroke="red" />
<line x1="227.45333251162756" y1="357.0677568065548" x2="222.48980157704247" y2="360.1396068902802" stroke-width="5" stroke="red" />
<line x1="246.97305436886998" y1="497.96701479805" x2="238.3336743254245" y2="500.07659500388917" stroke-width="5" stroke="red" />
<line x1="246.97305436886998" y1="497.96701479805" x2="256.9773901320454" y2="495.2130654801666" stroke-width="5" stroke="red" />
<line x1="237.04918220052676" y1="351.40555252912117" x2="244.23075169023272" y2="347.4788464321593" stroke-width="5" stroke="red" />
<line x1="244.23075169023272" y1="347.4788464321593" x2="247.6347754682658" y2="345.8499539935781" stroke-width="5" stroke="red" />
<line x1="237.04918220052676" y1="351.40555252912117" x2="233.21478595871824" y2="353.50214704264715" stroke-width="5" stroke="red" />
<line x1="257.93483600094305" y1="494.94951059375404" x2="256.9773901320454" y2="495.2130654801666" stroke-width="5" stroke="red" />
<line x1="257.93483600094305" y1="494.94951059375404" x2="259.03077112400285" y2="494.6122448513218" stroke-width="5" stroke="red" />
<line x1="255.5414503212033" y1="342.0664137688774" x2="247.6347754682658" y2="345.8499539935781" stroke-width="5" stroke="red" />
<line x1="255.5414503212033" y1="342.0664137688774" x2="259.49907840226825" y2="340.42882643277153" stroke-width="5" stroke="red" />
<line x1="268.33998474791355" y1="491.4330815585999" x2="259.03077112400285" y2="494.6122448513218" stroke-width="5" stroke="red" />
<line x1="268.33998474791355" y1="491.4330815585999" x2="273.05801513747326" y2="489.6902601250364" stroke-width="5" stroke="red" />
<line x1="267.15162634655934" y1="337.2624103805706" x2="259.49907840226825" y2="340.42882643277153" stroke-width="5" stroke="red" />
<line x1="267.15162634655934" y1="337.2624103805706" x2="273.0558703911261" y2="335.18327458931117" stroke-width="5" stroke="red" />
<line x1="278.4258215670765" y1="487.7074538828266" x2="273.05801513747326" y2="489.6902601250364" stroke-width="5" stroke="red" />
<line x1="278.4258215670765" y1="487.7074538828266" x2="286.25576787623913" y2="484.58960060909254" stroke-width="5" stroke="red" />
<line x1="279.0665070365961" y1="333.06664747682606" x2="273.0558703911261" y2="335.18327458931117" stroke-width="5" stroke="red" />
<line x1="279.0665070365961" y1="333.06664747682606" x2="288.9159290663654" y2="330.1767457753445" stroke-width="5" stroke="red" />
<line x1="288.2572963476059" y1="483.79260902775394" x2="286.25576787623913" y2="484.58960060909254" stroke-width="5" stroke="red" />
<line x1="288.2572963476059" y1="483.79260902775394" x2="297.68242665809925" y2="479.7595154715349" stroke-width="5" stroke="red" />
<line x1="291.2920639322293" y1="329.4795623224291" x2="288.9159290663654" y2="330.1767457753445" stroke-width="5" stroke="red" />
<line x1="292.5996828325525" y1="329.1692791227218" x2="291.2920639322293" y2="329.4795623224291" stroke-width="5" stroke="red" />
<line x1="292.5996828325525" y1="329.1692791227218" x2="296.27736162592186" y2="328.29657038023663" stroke-width="5" stroke="red" />
<line x1="297.87810951913406" y1="479.67577986510634" x2="297.68242665809925" y2="479.7595154715349" stroke-width="5" stroke="red" />
<line x1="297.87810951913406" y1="479.67577986510634" x2="300.3547743928023" y2="478.54022414183623" stroke-width="5" stroke="red" />
<line x1="303.9054816948584" y1="326.6792702848811" x2="309.8846868644788" y2="325.761364208277" stroke-width="5" stroke="red" />
<line x1="303.9054816948584" y1="326.6792702848811" x2="296.27736162592186" y2="328.29657038023663" stroke-width="5" stroke="red" />
<line x1="307.3124947528279" y1="475.30930809992117" x2="300.3547743928023" y2="478.54022414183623" stroke-width="5" stroke="red" />
<line x1="307.71393668054566" y1="475.1129321177908" x2="316.6354245431838" y2="470.7485985522914" stroke-width="5" stroke="red" />
<line x1="307.71393668054566" y1="475.1129321177908" x2="307.3124947528279" y2="475.30930809992117" stroke-width="5" stroke="red" />
<line x1="325.50113103684106" y1="466.15367719316447" x2="325.8746422106587" y2="465.95863922185845" stroke-width="5" stroke="red" />
<line x1="325.50113103684106" y1="466.15367719316447" x2="321.07948756194605" y2="468.4624644556192" stroke-width="5" stroke="red" />
<line x1="316.9420926463093" y1="470.5908349392862" x2="321.07948756194605" y2="468.4624644556192" stroke-width="5" stroke="red" />
<line x1="316.9420926463093" y1="470.5908349392862" x2="316.6354245431838" y2="470.7485985522914" stroke-width="5" stroke="red" />
<line x1="316.90640175635536" y1="324.6833427106442" x2="323.2624692710538" y2="324.0627022112162" stroke-width="5" stroke="red" />
<line x1="316.90640175635536" y1="324.6833427106442" x2="309.8846868644788" y2="325.761364208277" stroke-width="5" stroke="red" />
<line x1="333.4283211239924" y1="461.7654717878569" x2="335.0439478345315" y2="460.86857851162836" stroke-width="5" stroke="red" />
<line x1="333.4283211239924" y1="461.7654717878569" x2="325.8746422106587" y2="465.95863922185845" stroke-width="5" stroke="red" />
<line x1="330.3542462069542" y1="323.65586026432703" x2="323.2624692710538" y2="324.0627022112162" stroke-width="5" stroke="red" />
<line x1="330.3542462069542" y1="323.65586026432703" x2="342.63542647726473" y2="323.66542018106696" stroke-width="5" stroke="red" />
<line x1="340.93008046771854" y1="457.40313496618995" x2="344.1930489850131" y2="455.4821457709977" stroke-width="5" stroke="red" />
<line x1="340.93008046771854" y1="457.40313496618995" x2="335.0439478345315" y2="460.86857851162836" stroke-width="5" stroke="red" />
<line x1="344.1930489850131" y1="455.4821457709977" x2="350.00824468584534" y2="451.8594821154813" stroke-width="5" stroke="red" />
<line x1="344.29135571918044" y1="323.75534908146835" x2="342.63542647726473" y2="323.66542018106696" stroke-width="5" stroke="red" />
<line x1="357.96156235065246" y1="325.3248118512623" x2="358.86506878566905" y2="325.49291268968307" stroke-width="5" stroke="red" />
<line x1="344.29135571918044" y1="323.75534908146835" x2="357.96156235065246" y2="325.3248118512623" stroke-width="5" stroke="red" />
<line x1="361.5568882167208" y1="444.2781309627232" x2="362.53286187899386" y2="443.59070833662514" stroke-width="5" stroke="red" />
<line x1="361.5568882167208" y1="444.2781309627232" x2="359.3567577279626" y2="445.82771009760773" stroke-width="5" stroke="red" />
<line x1="355.0172413848732" y1="448.6815469371" x2="359.3567577279626" y2="445.82771009760773" stroke-width="5" stroke="red" />
<line x1="355.0172413848732" y1="448.6815469371" x2="353.35889990133643" y2="449.7721836684126" stroke-width="5" stroke="red" />
<line x1="353.35889990133643" y1="449.7721836684126" x2="350.00824468584534" y2="451.8594821154813" stroke-width="5" stroke="red" />
<line x1="367.58496151807634" y1="439.8026092445561" x2="371.6956845868383" y2="436.720329159718" stroke-width="5" stroke="red" />
<line x1="367.58496151807634" y1="439.8026092445561" x2="362.53286187899386" y2="443.59070833662514" stroke-width="5" stroke="red" />
<line x1="370.4872950566777" y1="328.3883968763163" x2="374.2841528901726" y2="329.69880659927367" stroke-width="5" stroke="red" />
<line x1="370.4872950566777" y1="328.3883968763163" x2="358.86506878566905" y2="325.49291268968307" stroke-width="5" stroke="red" />
<line x1="379.05449262106566" y1="430.6435910332677" x2="380.87608460782104" y2="429.03624984196415" stroke-width="5" stroke="red" />
<line x1="379.05449262106566" y1="430.6435910332677" x2="376.515414282477" y2="432.884113059714" stroke-width="5" stroke="red" />
<line x1="373.51561908706753" y1="435.2717750246541" x2="376.515414282477" y2="432.884113059714" stroke-width="5" stroke="red" />
<line x1="373.51561908706753" y1="435.2717750246541" x2="371.6956845868383" y2="436.720329159718" stroke-width="5" stroke="red" />
<line x1="380.96352079056453" y1="332.443835520767" x2="388.6236599359406" y2="336.60351562268977" stroke-width="5" stroke="red" />
<line x1="380.96352079056453" y1="332.443835520767" x2="374.2841528901726" y2="329.69880659927367" stroke-width="5" stroke="red" />
<line x1="389.2155641216852" y1="421.0500851836211" x2="390.03322540155375" y2="420.1668398525455" stroke-width="5" stroke="red" />
<line x1="389.2155641216852" y1="421.0500851836211" x2="388.3669283050966" y2="421.96681110731987" stroke-width="5" stroke="red" />
<line x1="389.80294159846886" y1="337.24389687993016" x2="390.9487901712529" y2="338.07374764894206" stroke-width="5" stroke="red" />
<line x1="389.80294159846886" y1="337.24389687993016" x2="388.6236599359406" y2="336.60351562268977" stroke-width="5" stroke="red" />
<line x1="384.2005301375625" y1="425.89882827379483" x2="388.3669283050966" y2="421.96681110731987" stroke-width="5" stroke="red" />
<line x1="384.2005301375625" y1="425.89882827379483" x2="380.87608460782104" y2="429.03624984196415" stroke-width="5" stroke="red" />
<line x1="397.8417919115672" y1="410.87203251990775" x2="399.00471781019587" y2="409.24999946423486" stroke-width="5" stroke="red" />
<line x1="397.8417919115672" y1="410.87203251990775" x2="396.9557366914756" y2="412.1078492190285" stroke-width="5" stroke="red" />
<line x1="393.589495646217" y1="416.02677903275514" x2="396.9557366914756" y2="412.1078492190285" stroke-width="5" stroke="red" />
<line x1="393.589495646217" y1="416.02677903275514" x2="390.03322540155375" y2="420.1668398525455" stroke-width="5" stroke="red" />
<line x1="396.8679194821669" y1="342.8087822259014" x2="399.40720097674586" y2="345.5365034754018" stroke-width="5" stroke="red" />
<line x1="396.8679194821669" y1="342.8087822259014" x2="390.9487901712529" y2="338.07374764894206" stroke-width="5" stroke="red" />
<line x1="402.5433158874182" y1="348.90545203191334" x2="405.7074217017793" y2="353.7080300696248" stroke-width="5" stroke="red" />
<line x1="402.5433158874182" y1="348.90545203191334" x2="399.40720097674586" y2="345.5365034754018" stroke-width="5" stroke="red" />
<line x1="404.6951589516334" y1="399.9679966878864" x2="407.4515887588099" y2="394.58211612739314" stroke-width="5" stroke="red" />
<line x1="404.6951589516334" y1="399.9679966878864" x2="403.199411496207" y2="402.8903904785392" stroke-width="5" stroke="red" />
<line x1="401.46847003129324" y1="405.5147277772511" x2="403.199411496207" y2="402.8903904785392" stroke-width="5" stroke="red" />
<line x1="401.46847003129324" y1="405.5147277772511" x2="399.00471781019587" y2="409.24999946423486" stroke-width="5" stroke="red" />
<line x1="406.8679328791874" y1="355.4695153550989" x2="409.34760522620456" y2="361.3496603821249" stroke-width="5" stroke="red" />
<line x1="406.8679328791874" y1="355.4695153550989" x2="405.7074217017793" y2="353.7080300696248" stroke-width="5" stroke="red" />
<line x1="411.10693997679317" y1="368.5603933495326" x2="409.8191224682499" y2="362.4677547962692" stroke-width="5" stroke="red" />
<line x1="411.10693997679317" y1="368.5603933495326" x2="411.3824612572892" y2="369.8639121143357" stroke-width="5" stroke="red" />
<line x1="409.8191224682499" y1="362.4677547962692" x2="409.34760522620456" y2="361.3496603821249" stroke-width="5" stroke="red" />
<line x1="411.50141800420056" y1="375.4088545635316" x2="411.3824612572892" y2="369.8639121143357" stroke-width="5" stroke="red" />
<line x1="411.50141800420056" y1="375.4088545635316" x2="411.5489124185021" y2="377.6206753327125" stroke-width="5" stroke="red" />
<line x1="410.8901395003204" y1="381.94550548791716" x2="411.5489124185021" y2="377.6206753327125" stroke-width="5" stroke="red" />
<line x1="410.8901395003204" y1="381.94550548791716" x2="410.31853676871884" y2="385.69807314133936" stroke-width="5" stroke="red" />
<line x1="409.53081556214363" y1="388.20918559489684" x2="410.31853676871884" y2="385.69807314133936" stroke-width="5" stroke="red" />
<line x1="409.53081556214363" y1="388.20918559489684" x2="407.69700973339314" y2="394.05473890292546" stroke-width="5" stroke="red" />
<line x1="407.6146908216272" y1="394.23164616228496" x2="407.69700973339314" y2="394.05473890292546" stroke-width="5" stroke="red" />
<line x1="407.6146908216272" y1="394.23164616228496" x2="407.4515887588099" y2="394.58211612739314" stroke-width="5" stroke="red" />
<line x1="445.18954468604636" y1="764.5215792112161" x2="446.07607281918337" y2="757.3237871802116" stroke-width="5" stroke="red" />
<line x1="445.18954468604636" y1="764.5215792112161" x2="445.2420115104424" y2="774.3642880162247" stroke-width="5" stroke="red" />
<line x1="448.7275818680914" y1="747.5282197931862" x2="449.3719085238002" y2="746.2748566884187" stroke-width="5" stroke="red" />
<line x1="448.7275818680914" y1="747.5282197931862" x2="447.28533335558194" y2="751.9938428867305" stroke-width="5" stroke="red" />
<line x1="447.1648450416382" y1="785.6680568806728" x2="445.2676057632162" y2="774.5610580923468" stroke-width="5" stroke="red" />
<line x1="447.1648450416382" y1="785.6680568806728" x2="448.6118959896571" y2="791.1499015426266" stroke-width="5" stroke="red" />
<line x1="446.3004397693325" y1="755.5018078399829" x2="447.28533335558194" y2="751.9938428867305" stroke-width="5" stroke="red" />
<line x1="446.3004397693325" y1="755.5018078399829" x2="446.07607281918337" y2="757.3237871802116" stroke-width="5" stroke="red" />
<line x1="445.2465213934267" y1="774.4376301781263" x2="445.2420115104424" y2="774.3642880162247" stroke-width="5" stroke="red" />
<line x1="445.2465213934267" y1="774.4376301781263" x2="445.2676057632162" y2="774.5610580923468" stroke-width="5" stroke="red" />
<line x1="452.3168597149385" y1="740.5461385065267" x2="453.8842386371232" y2="738.4945685476001" stroke-width="5" stroke="red" />
<line x1="452.3168597149385" y1="740.5461385065267" x2="449.3719085238002" y2="746.2748566884187" stroke-width="5" stroke="red" />
<line x1="454.00054290046154" y1="805.6847263785417" x2="457.16638980556473" y2="812.2621501099974" stroke-width="5" stroke="red" />
<line x1="450.9102827772685" y1="798.1392806022035" x2="448.6118959896571" y2="791.1499015426266" stroke-width="5" stroke="red" />
<line x1="450.9102827772685" y1="798.1392806022035" x2="454.00054290046154" y2="805.6847263785417" stroke-width="5" stroke="red" />
<line x1="459.020932471765" y1="732.6221358730642" x2="456.9287663431662" y2="734.5095662851481" stroke-width="5" stroke="red" />
<line x1="459.020932471765" y1="732.6221358730642" x2="462.5391351166487" y2="729.4485361967348" stroke-width="5" stroke="red" />
<line x1="456.9287663431662" y1="734.5095662851481" x2="453.8842386371232" y2="738.4945685476001" stroke-width="5" stroke="red" />
<line x1="460.68674411174544" y1="818.6503095684643" x2="457.16638980556473" y2="812.2621501099974" stroke-width="5" stroke="red" />
<line x1="464.57855086861065" y1="728.1906686066962" x2="462.5391351166487" y2="729.4485361967348" stroke-width="5" stroke="red" />
<line x1="464.57855086861065" y1="728.1906686066962" x2="469.1197301752152" y2="725.3895831280983" stroke-width="5" stroke="red" />
<line x1="467.7741903576123" y1="829.8055767563428" x2="468.2395338166258" y2="830.4806325927356" stroke-width="5" stroke="red" />
<line x1="467.7741903576123" y1="829.8055767563428" x2="467.0327309196813" y2="828.7299723606853" stroke-width="5" stroke="red" />
<line x1="470.41502661465194" y1="724.8664148641818" x2="469.1197301752152" y2="725.3895831280983" stroke-width="5" stroke="red" />
<line x1="470.41502661465194" y1="724.8664148641818" x2="475.6344524617656" y2="722.7580103578384" stroke-width="5" stroke="red" />
<line x1="463.301302489907" y1="822.803137142155" x2="467.0327309196813" y2="828.7299723606853" stroke-width="5" stroke="red" />
<line x1="463.301302489907" y1="822.803137142155" x2="460.68674411174544" y2="818.6503095684643" stroke-width="5" stroke="red" />
<line x1="476.62924339691415" y1="841.3001590189184" x2="484.2459327619775" y2="850.0193373524767" stroke-width="5" stroke="red" />
<line x1="473.192248305325" y1="836.867810379741" x2="476.62924339691415" y2="841.3001590189184" stroke-width="5" stroke="red" />
<line x1="473.192248305325" y1="836.867810379741" x2="468.2395338166258" y2="830.4806325927356" stroke-width="5" stroke="red" />
<line x1="476.45180207318657" y1="722.4563640721692" x2="475.6344524617656" y2="722.7580103578384" stroke-width="5" stroke="red" />
<line x1="476.45180207318657" y1="722.4563640721692" x2="476.67009170491235" y2="722.3758018073661" stroke-width="5" stroke="red" />
<line x1="482.78055337670685" y1="721.1513019422921" x2="476.67009170491235" y2="722.3758018073661" stroke-width="5" stroke="red" />
<line x1="482.78055337670685" y1="721.1513019422921" x2="485.4402559978631" y2="720.618131811121" stroke-width="5" stroke="red" />
<line x1="485.50615254715825" y1="851.3900407968188" x2="486.2423135652419" y2="852.1083536292693" stroke-width="5" stroke="red" />
<line x1="485.50615254715825" y1="851.3900407968188" x2="484.2459327619775" y2="850.0193373524767" stroke-width="5" stroke="red" />
<line x1="489.1587824082624" y1="720.3734235862178" x2="485.4402559978631" y2="720.618131811121" stroke-width="5" stroke="red" />
<line x1="489.1587824082624" y1="720.3734235862178" x2="495.168145672536" y2="719.9784445733404" stroke-width="5" stroke="red" />
<line x1="495.5402881306666" y1="719.99529887412" x2="495.168145672536" y2="719.9784445733404" stroke-width="5" stroke="red" />
<line x1="495.5402881306666" y1="719.99529887412" x2="496.11141971906005" y2="720.0211334223275" stroke-width="5" stroke="red" />
<line x1="494.9660315947462" y1="860.6205033623673" x2="499.35018508405074" y2="864.4500015776833" stroke-width="5" stroke="red" />
<line x1="494.9660315947462" y1="860.6205033623673" x2="486.2423135652419" y2="852.1083536292693" stroke-width="5" stroke="red" />
<line x1="502.1651379539428" y1="720.5277644444217" x2="496.11141971906005" y2="720.0211334223275" stroke-width="5" stroke="red" />
<line x1="502.1651379539428" y1="720.5277644444217" x2="506.4326308979171" y2="720.8851281856752" stroke-width="5" stroke="red" />
<line x1="504.8255531056105" y1="869.2326695245389" x2="511.2854174106255" y2="874.269087218472" stroke-width="5" stroke="red" />
<line x1="504.8255531056105" y1="869.2326695245389" x2="499.35018508405074" y2="864.4500015776833" stroke-width="5" stroke="red" />
<line x1="508.74286299476483" y1="721.2884939062525" x2="506.4326308979171" y2="720.8851281856752" stroke-width="5" stroke="red" />
<line x1="508.74286299476483" y1="721.2884939062525" x2="511.3760362814365" y2="721.7481238891572" stroke-width="5" stroke="red" />
<line x1="515.0872055947503" y1="877.233161960519" x2="522.3845642286011" y2="882.2910256735788" stroke-width="5" stroke="red" />
<line x1="515.0872055947503" y1="877.233161960519" x2="511.2854174106255" y2="874.269087218472" stroke-width="5" stroke="red" />
<line x1="515.4395891525422" y1="722.6131921286576" x2="511.3760362814365" y2="721.7481238891572" stroke-width="5" stroke="red" />
<line x1="515.4395891525422" y1="722.6131921286576" x2="519.3376116608939" y2="723.4428463406379" stroke-width="5" stroke="red" />
<line x1="522.1565252302389" y1="724.2509244662357" x2="519.3376116608939" y2="723.4428463406379" stroke-width="5" stroke="red" />
<line x1="522.1565252302389" y1="724.2509244662357" x2="524.5873038048469" y2="724.9477125446629" stroke-width="5" stroke="red" />
<line x1="532.8687553518688" y1="888.9876107008189" x2="525.7544834592068" y2="884.6267308121329" stroke-width="5" stroke="red" />
<line x1="525.7544834592068" y1="884.6267308121329" x2="522.3845642286011" y2="882.2910256735788" stroke-width="5" stroke="red" />
<line x1="532.8687553518688" y1="888.9876107008189" x2="536.8318969260898" y2="891.4168337746584" stroke-width="5" stroke="red" />
<line x1="528.9892182017365" y1="726.3707603020562" x2="524.5873038048469" y2="724.9477125446629" stroke-width="5" stroke="red" />
<line x1="528.9892182017365" y1="726.3707603020562" x2="534.6466389010683" y2="728.1997155705282" stroke-width="5" stroke="red" />
<line x1="536.5570589571508" y1="728.9305083341444" x2="539.4154109817139" y2="730.1201962777444" stroke-width="5" stroke="red" />
<line x1="535.7992354498176" y1="728.6406445968485" x2="534.6466389010683" y2="728.1997155705282" stroke-width="5" stroke="red" />
<line x1="535.7992354498176" y1="728.6406445968485" x2="536.5570589571508" y2="728.9305083341444" stroke-width="5" stroke="red" />
<line x1="542.8899964534403" y1="894.6791042093048" x2="536.8318969260898" y2="891.4168337746584" stroke-width="5" stroke="red" />
<line x1="542.8899964534403" y1="894.6791042093048" x2="548.3247381254431" y2="897.6055938855418" stroke-width="5" stroke="red" />
<line x1="547.5788250617707" y1="733.5178577099114" x2="554.5736639350724" y2="736.6811838424129" stroke-width="5" stroke="red" />
<line x1="547.5788250617707" y1="733.5178577099114" x2="539.4154109817139" y2="730.1201962777444" stroke-width="5" stroke="red" />
<line x1="552.5563063890379" y1="899.5900231610584" x2="548.3247381254431" y2="897.6055938855418" stroke-width="5" stroke="red" />
<line x1="552.5563063890379" y1="899.5900231610584" x2="560.2395527925735" y2="903.193361671569" stroke-width="5" stroke="red" />
<line x1="558.0586679601462" y1="738.4004041001973" x2="554.5736639350724" y2="736.6811838424129" stroke-width="5" stroke="red" />
<line x1="561.9476911245786" y1="903.8832847752903" x2="560.2395527925735" y2="903.193361671569" stroke-width="5" stroke="red" />
<line x1="561.9476911245786" y1="903.8832847752903" x2="566.7910100555549" y2="905.8395776953513" stroke-width="5" stroke="red" />
<line x1="571.0113936365892" y1="907.4316825339824" x2="566.7910100555549" y2="905.8395776953513" stroke-width="5" stroke="red" />
<line x1="571.0113936365892" y1="907.4316825339824" x2="572.6573903209942" y2="908.0525937138999" stroke-width="5" stroke="red" />
<line x1="564.4334791714133" y1="741.749894157358" x2="558.0586679601462" y2="738.4004041001973" stroke-width="5" stroke="red" />
<line x1="564.4334791714133" y1="741.749894157358" x2="567.9972412674146" y2="743.6223517338462" stroke-width="5" stroke="red" />
<line x1="571.9578354414573" y1="745.8360900845639" x2="567.9972412674146" y2="743.6223517338462" stroke-width="5" stroke="red" />
<line x1="571.9578354414573" y1="745.8360900845639" x2="577.6145670102269" y2="748.9979587081741" stroke-width="5" stroke="red" />
<line x1="579.7595302041296" y1="910.2624191701215" x2="572.6573903209942" y2="908.0525937138999" stroke-width="5" stroke="red" />
<line x1="579.7595302041296" y1="910.2624191701215" x2="585.6299578588212" y2="912.088955042732" stroke-width="5" stroke="red" />
<line x1="579.6589357659808" y1="750.2122435433721" x2="577.6145670102269" y2="748.9979587081741" stroke-width="5" stroke="red" />
<line x1="579.6589357659808" y1="750.2122435433721" x2="586.9582507619679" y2="754.5479482271564" stroke-width="5" stroke="red" />
<line x1="588.3777621136406" y1="912.773770883407" x2="585.6299578588212" y2="912.088955042732" stroke-width="5" stroke="red" />
<line x1="588.3777621136406" y1="912.773770883407" x2="593.0275452467869" y2="913.9326739688295" stroke-width="5" stroke="red" />
<line x1="596.744904040224" y1="914.7043880410797" x2="593.0275452467869" y2="913.9326739688295" stroke-width="5" stroke="red" />
<line x1="596.744904040224" y1="914.7043880410797" x2="599.198356199279" y2="915.2137138728305" stroke-width="5" stroke="red" />
<line x1="587.6082805417925" y1="754.9577551069166" x2="586.9582507619679" y2="754.5479482271564" stroke-width="5" stroke="red" />
<line x1="587.6082805417925" y1="754.9577551069166" x2="594.2381675621676" y2="759.1373749521325" stroke-width="5" stroke="red" />
<line x1="595.9194108468308" y1="760.2134042533673" x2="594.2381675621676" y2="759.1373749521325" stroke-width="5" stroke="red" />
<line x1="595.9194108468308" y1="760.2134042533673" x2="596.063956015102" y2="760.3059133184003" stroke-width="5" stroke="red" />
<line x1="604.8459790547188" y1="916.0331372517995" x2="599.198356199279" y2="915.2137138728305" stroke-width="5" stroke="red" />
<line x1="604.8459790547188" y1="916.0331372517995" x2="612.1959698545243" y2="917.099504830207" stroke-width="5" stroke="red" />
<line x1="604.983113128576" y1="766.2817807416417" x2="609.9273622432793" y2="769.7469926813915" stroke-width="5" stroke="red" />
<line x1="604.7024693284552" y1="766.0937448804585" x2="596.063956015102" y2="760.3059133184003" stroke-width="5" stroke="red" />
<line x1="604.7024693284552" y1="766.0937448804585" x2="604.983113128576" y2="766.2817807416417" stroke-width="5" stroke="red" />
<line x1="612.8727339358095" y1="917.1611555441934" x2="612.1959698545243" y2="917.099504830207" stroke-width="5" stroke="red" />
<line x1="612.8727339358095" y1="917.1611555441934" x2="613.4604431449228" y2="917.2147108255011" stroke-width="5" stroke="red" />
<line x1="613.7750353246067" y1="772.4696966852663" x2="614.0613511694319" y2="772.6839422285153" stroke-width="5" stroke="red" />
<line x1="613.7750353246067" y1="772.4696966852663" x2="609.9273622432793" y2="769.7469926813915" stroke-width="5" stroke="red" />
<line x1="620.4880493833276" y1="917.4133682028714" x2="627.5853320367037" y2="917.6139829084406" stroke-width="5" stroke="red" />
<line x1="627.5853320367037" y1="917.6139829084406" x2="628.6500301175406" y2="917.5699058229767" stroke-width="5" stroke="red" />
<line x1="620.4880493833276" y1="917.4133682028714" x2="613.4604431449228" y2="917.2147108255011" stroke-width="5" stroke="red" />
<line x1="622.440177649739" y1="778.9537936917613" x2="624.3669113058022" y2="780.4765003541436" stroke-width="5" stroke="red" />
<line x1="622.440177649739" y1="778.9537936917613" x2="614.0613511694319" y2="772.6839422285153" stroke-width="5" stroke="red" />
<line x1="631.0307035817516" y1="785.7430910521709" x2="635.9661079672491" y2="789.8573041170417" stroke-width="5" stroke="red" />
<line x1="631.0307035817516" y1="785.7430910521709" x2="624.3669113058022" y2="780.4765003541436" stroke-width="5" stroke="red" />
<line x1="634.9649991732056" y1="916.9142904364242" x2="640.4107999555945" y2="916.3487453078072" stroke-width="5" stroke="red" />
<line x1="640.4107999555945" y1="916.3487453078072" x2="643.5791838475199" y2="915.7340014823238" stroke-width="5" stroke="red" />
<line x1="634.9649991732056" y1="916.9142904364242" x2="628.6500301175406" y2="917.5699058229767" stroke-width="5" stroke="red" />
<line x1="639.5830692737002" y1="792.8723596538091" x2="646.0035590907321" y2="798.5096806210342" stroke-width="5" stroke="red" />
<line x1="639.5830692737002" y1="792.8723596538091" x2="635.9661079672491" y2="789.8573041170417" stroke-width="5" stroke="red" />
<line x1="648.0900898004726" y1="800.460018366558" x2="650.066140535816" y2="802.4255396466514" stroke-width="5" stroke="red" />
<line x1="648.0900898004726" y1="800.460018366558" x2="646.0035590907321" y2="798.5096806210342" stroke-width="5" stroke="red" />
<line x1="648.2014390815852" y1="914.5519075548996" x2="643.5791838475199" y2="915.7340014823238" stroke-width="5" stroke="red" />
<line x1="648.2014390815852" y1="914.5519075548996" x2="651.278754127873" y2="913.7648641390473" stroke-width="5" stroke="red" />
<line x1="654.4240290816934" y1="912.58840299749" x2="651.278754127873" y2="913.7648641390473" stroke-width="5" stroke="red" />
<line x1="654.4240290816934" y1="912.58840299749" x2="660.0927074792249" y2="910.4680141048035" stroke-width="5" stroke="red" />
<line x1="656.4655863905787" y1="808.7908465586353" x2="661.1668228054377" y2="813.7576751801466" stroke-width="5" stroke="red" />
<line x1="656.4655863905787" y1="808.7908465586353" x2="650.066140535816" y2="802.4255396466514" stroke-width="5" stroke="red" />
<line x1="660.4633759688069" y1="910.3066628838765" x2="660.0927074792249" y2="910.4680141048035" stroke-width="5" stroke="red" />
<line x1="660.4633759688069" y1="910.3066628838765" x2="660.6506941754886" y2="910.2251153062665" stroke-width="5" stroke="red" />
<line x1="672.0967916014822" y1="827.3107440786927" x2="671.3611130610523" y2="826.2473038305978" stroke-width="5" stroke="red" />
<line x1="672.0967916014822" y1="827.3107440786927" x2="672.8294978922302" y2="828.3698705030023" stroke-width="5" stroke="red" />
<line x1="667.7379552429851" y1="821.698478152867" x2="664.7521066993313" y2="817.9501913958578" stroke-width="5" stroke="red" />
<line x1="664.7521066993313" y1="817.9501913958578" x2="661.1668228054377" y2="813.7576751801466" stroke-width="5" stroke="red" />
<line x1="667.7379552429851" y1="821.698478152867" x2="671.3611130610523" y2="826.2473038305978" stroke-width="5" stroke="red" />
<line x1="665.9733625768729" y1="907.0652772986457" x2="660.6506941754886" y2="910.2251153062665" stroke-width="5" stroke="red" />
<line x1="665.9733625768729" y1="907.0652772986457" x2="668.3450267281294" y2="905.6571385527421" stroke-width="5" stroke="red" />
<line x1="671.1801658529245" y1="903.3565658945264" x2="668.3450267281294" y2="905.6571385527421" stroke-width="5" stroke="red" />
<line x1="671.1801658529245" y1="903.3565658945264" x2="674.8081272769163" y2="900.4129357748081" stroke-width="5" stroke="red" />
<line x1="675.9975937536125" y1="899.0642958398698" x2="674.8081272769163" y2="900.4129357748081" stroke-width="5" stroke="red" />
<line x1="675.9975937536125" y1="899.0642958398698" x2="680.0065778354908" y2="894.5191323809962" stroke-width="5" stroke="red" />
<line x1="675.6256875709796" y1="832.7622411964793" x2="672.8294978922302" y2="828.3698705030023" stroke-width="5" stroke="red" />
<line x1="675.6256875709796" y1="832.7622411964793" x2="678.4629706298259" y2="837.2191195932629" stroke-width="5" stroke="red" />
<line x1="678.4629706298259" y1="837.2191195932629" x2="679.6871009032186" y2="839.575349426521" stroke-width="5" stroke="red" />
<line x1="680.3041711764096" y1="894.0230799430354" x2="680.0065778354908" y2="894.5191323809962" stroke-width="5" stroke="red" />
<line x1="683.9141664240486" y1="888.0060748923293" x2="683.9207198547591" y2="887.9881593583343" stroke-width="5" stroke="red" />
<line x1="680.3041711764096" y1="894.0230799430354" x2="683.9141664240486" y2="888.0060748923293" stroke-width="5" stroke="red" />
<line x1="686.5106638045199" y1="880.9071797355539" x2="686.5661750573502" y2="880.5733368396172" stroke-width="5" stroke="red" />
<line x1="686.5106638045199" y1="880.9071797355539" x2="683.9207198547591" y2="887.9881593583343" stroke-width="5" stroke="red" />
<line x1="683.2580187158322" y1="847.1723072468709" x2="679.6871009032186" y2="839.575349426521" stroke-width="5" stroke="red" />
<line x1="683.2580187158322" y1="847.1723072468709" x2="685.6205354945207" y2="854.0871981148139" stroke-width="5" stroke="red" />
<line x1="687.7827830697264" y1="873.2583181953274" x2="687.7674966126707" y2="871.1259797184798" stroke-width="5" stroke="red" />
<line x1="687.7827830697264" y1="873.2583181953274" x2="686.5661750573502" y2="880.5733368396172" stroke-width="5" stroke="red" />
<line x1="687.7242760879965" y1="865.0992434997079" x2="686.6520983660741" y2="858.440986003765" stroke-width="5" stroke="red" />
<line x1="687.7242760879965" y1="865.0992434997079" x2="687.7674966126707" y2="871.1259797184798" stroke-width="5" stroke="red" />
<line x1="686.3349057721856" y1="856.4711872381674" x2="685.6205354945207" y2="854.0871981148139" stroke-width="5" stroke="red" />
<line x1="686.3349057721856" y1="856.4711872381674" x2="686.6520983660741" y2="858.440986003765" stroke-width="5" stroke="red" />
<line x1="707.7116245074101" y1="374.1837436443362" x2="707.6242488437565" y2="376.1031267951113" stroke-width="5" stroke="red" />
<line x1="707.7116245074101" y1="374.1837436443362" x2="707.7192024883473" y2="374.01724214116285" stroke-width="5" stroke="red" />
<line x1="707.7640091926163" y1="417.8575613950378" x2="708.0119974974554" y2="421.6375451547066" stroke-width="5" stroke="red" />
<line x1="708.4314051441189" y1="363.31283210438755" x2="708.9749400144175" y2="357.1117505664107" stroke-width="5" stroke="red" />
<line x1="708.4086999053253" y1="363.65404320120024" x2="707.7192024883473" y2="374.01724214116285" stroke-width="5" stroke="red" />
<line x1="708.4086999053253" y1="363.65404320120024" x2="708.4314051441189" y2="363.31283210438755" stroke-width="5" stroke="red" />
<line x1="707.4746452451933" y1="410.6405094687641" x2="707.7640091926163" y2="417.8575613950378" stroke-width="5" stroke="red" />
<line x1="707.4746452451933" y1="410.6405094687641" x2="707.3144713231366" y2="406.6456447769506" stroke-width="5" stroke="red" />
<line x1="710.3215312560701" y1="441.2026624294883" x2="709.9385936127035" y2="438.26124172847966" stroke-width="5" stroke="red" />
<line x1="710.444061707281" y1="441.9693933939518" x2="710.6303542648919" y2="443.1350647798852" stroke-width="5" stroke="red" />
<line x1="710.444061707281" y1="441.9693933939518" x2="710.3215312560701" y2="441.2026624294883" stroke-width="5" stroke="red" />
<line x1="707.2498400190408" y1="402.08867005457705" x2="707.3144713231366" y2="406.6456447769506" stroke-width="5" stroke="red" />
<line x1="707.2498400190408" y1="402.08867005457705" x2="707.1583412753391" y2="395.63517277535686" stroke-width="5" stroke="red" />
<line x1="707.1872692196163" y1="393.2402439377736" x2="707.1583412753391" y2="395.63517277535686" stroke-width="5" stroke="red" />
<line x1="707.1872692196163" y1="393.2402439377736" x2="707.2894688030145" y2="384.7750552113844" stroke-width="5" stroke="red" />
<line x1="708.7810638329306" y1="429.36936287902387" x2="709.9385936127035" y2="438.26124172847966" stroke-width="5" stroke="red" />
<line x1="707.3195946895872" y1="383.99440190814937" x2="707.2894688030145" y2="384.7750552113844" stroke-width="5" stroke="red" />
<line x1="707.3195946895872" y1="383.99440190814937" x2="707.6242488437565" y2="376.1031267951113" stroke-width="5" stroke="red" />
<line x1="708.5290943343977" y1="426.8368053326729" x2="708.7810638329306" y2="429.36936287902387" stroke-width="5" stroke="red" />
<line x1="708.5290943343977" y1="426.8368053326729" x2="708.0119974974554" y2="421.6375451547066" stroke-width="5" stroke="red" />
<line x1="709.3894440426953" y1="352.6128413939824" x2="709.4291847249965" y2="352.2788783461786" stroke-width="5" stroke="red" />
<line x1="709.3894440426953" y1="352.6128413939824" x2="708.9749400144175" y2="357.1117505664107" stroke-width="5" stroke="red" />
<line x1="713.4671871490391" y1="455.9693491997987" x2="714.1657857480944" y2="458.76732960675474" stroke-width="5" stroke="red" />
<line x1="713.4671871490391" y1="455.9693491997987" x2="712.8646588674383" y2="453.5558687386589" stroke-width="5" stroke="red" />
<line x1="710.6672374772625" y1="341.87529953195036" x2="711.0147875680838" y2="339.49192038341636" stroke-width="5" stroke="red" />
<line x1="710.6672374772625" y1="341.87529953195036" x2="709.4291847249965" y2="352.2788783461786" stroke-width="5" stroke="red" />
<line x1="712.2457363655379" y1="331.05080597835007" x2="713.3232164611691" y2="324.80680639341193" stroke-width="5" stroke="red" />
<line x1="712.2457363655379" y1="331.05080597835007" x2="711.0147875680838" y2="339.49192038341636" stroke-width="5" stroke="red" />
<line x1="714.1370607065907" y1="320.0902709938666" x2="715.8439694292347" y2="311.5178022133237" stroke-width="5" stroke="red" />
<line x1="714.1370607065907" y1="320.0902709938666" x2="713.3232164611691" y2="324.80680639341193" stroke-width="5" stroke="red" />
<line x1="711.8867227279089" y1="448.99455155424624" x2="712.8646588674383" y2="453.5558687386589" stroke-width="5" stroke="red" />
<line x1="711.8867227279089" y1="448.99455155424624" x2="710.6303542648919" y2="443.1350647798852" stroke-width="5" stroke="red" />
<line x1="717.6110665125433" y1="469.0590801043063" x2="718.4031267063657" y2="471.2221875680392" stroke-width="5" stroke="red" />
<line x1="717.6110665125433" y1="469.0590801043063" x2="716.7083333189596" y2="466.59340281170677" stroke-width="5" stroke="red" />
<line x1="715.4105130004803" y1="462.598503037176" x2="716.7083333189596" y2="466.59340281170677" stroke-width="5" stroke="red" />
<line x1="715.4105130004803" y1="462.598503037176" x2="714.1657857480944" y2="458.76732960675474" stroke-width="5" stroke="red" />
<line x1="719.457519210085" y1="297.53562536607217" x2="721.4667888066703" y2="290.77083843020716" stroke-width="5" stroke="red" />
<line x1="719.457519210085" y1="297.53562536607217" x2="717.094919754367" y2="306.4677943415768" stroke-width="5" stroke="red" />
<line x1="716.4407241707702" y1="308.9410241463795" x2="717.094919754367" y2="306.4677943415768" stroke-width="5" stroke="red" />
<line x1="716.4407241707702" y1="308.9410241463795" x2="715.8439694292347" y2="311.5178022133237" stroke-width="5" stroke="red" />
<line x1="723.0949777789602" y1="481.13280671107543" x2="723.250122679353" y2="481.4318523354957" stroke-width="5" stroke="red" />
<line x1="723.0949777789602" y1="481.13280671107543" x2="722.8568538061693" y2="480.6738589331785" stroke-width="5" stroke="red" />
<line x1="720.2444078606264" y1="475.1298735095637" x2="722.8568538061693" y2="480.6738589331785" stroke-width="5" stroke="red" />
<line x1="720.2444078606264" y1="475.1298735095637" x2="718.4031267063657" y2="471.2221875680392" stroke-width="5" stroke="red" />
<line x1="723.2215891497927" y1="285.7955324461783" x2="727.1864837480053" y2="275.69104070155436" stroke-width="5" stroke="red" />
<line x1="723.2215891497927" y1="285.7955324461783" x2="721.4667888066703" y2="290.77083843020716" stroke-width="5" stroke="red" />
<line x1="726.6163594513903" y1="486.4649619466263" x2="728.6682887237378" y2="489.5329843358292" stroke-width="5" stroke="red" />
<line x1="726.6163594513903" y1="486.4649619466263" x2="723.250122679353" y2="481.4318523354957" stroke-width="5" stroke="red" />
<line x1="733.1370870247754" y1="264.0570612053807" x2="728.1695022088567" y2="273.6096360958778" stroke-width="5" stroke="red" />
<line x1="727.6798622238921" y1="274.64640007297913" x2="727.1864837480053" y2="275.69104070155436" stroke-width="5" stroke="red" />
<line x1="727.6798622238921" y1="274.64640007297913" x2="728.1695022088567" y2="273.6096360958778" stroke-width="5" stroke="red" />
<line x1="730.4823113399292" y1="491.594612474329" x2="734.5758905888374" y2="496.2463451432987" stroke-width="5" stroke="red" />
<line x1="730.4823113399292" y1="491.594612474329" x2="728.6682887237378" y2="489.5329843358292" stroke-width="5" stroke="red" />
<line x1="739.3588917991624" y1="254.93558304165222" x2="734.3817951692184" y2="262.103183466273" stroke-width="5" stroke="red" />
<line x1="739.3588917991624" y1="254.93558304165222" x2="743.876038161068" y2="249.75442469536003" stroke-width="5" stroke="red" />
<line x1="733.6966896134511" y1="263.1785650068579" x2="733.1370870247754" y2="264.0570612053807" stroke-width="5" stroke="red" />
<line x1="733.6966896134511" y1="263.1785650068579" x2="734.3817951692184" y2="262.103183466273" stroke-width="5" stroke="red" />
<line x1="739.8847443031824" y1="500.44213484486073" x2="740.9606264710714" y2="501.2826790640966" stroke-width="5" stroke="red" />
<line x1="739.8847443031824" y1="500.44213484486073" x2="735.5492925318483" y2="497.05539411950315" stroke-width="5" stroke="red" />
<line x1="734.7810443157559" y1="496.41685698706976" x2="735.5492925318483" y2="497.05539411950315" stroke-width="5" stroke="red" />
<line x1="734.7810443157559" y1="496.41685698706976" x2="734.5758905888374" y2="496.2463451432987" stroke-width="5" stroke="red" />
<line x1="745.8726001154355" y1="247.63340854715074" x2="743.876038161068" y2="249.75442469536003" stroke-width="5" stroke="red" />
<line x1="745.8726001154355" y1="247.63340854715074" x2="747.6961162448033" y2="246.14649275272268" stroke-width="5" stroke="red" />
<line x1="745.6856658623383" y1="503.82990858515734" x2="747.7661060729373" y2="504.95139525133675" stroke-width="5" stroke="red" />
<line x1="745.6856658623383" y1="503.82990858515734" x2="740.9606264710714" y2="501.2826790640966" stroke-width="5" stroke="red" />
<line x1="752.6507476728209" y1="242.10645033463044" x2="747.6961162448033" y2="246.14649275272268" stroke-width="5" stroke="red" />
<line x1="752.6507476728209" y1="242.10645033463044" x2="758.1076794638744" y2="238.89816294274917" stroke-width="5" stroke="red" />
<line x1="752.3067665338726" y1="506.42220482698633" x2="754.9541921846547" y2="507.27972105964125" stroke-width="5" stroke="red" />
<line x1="752.3067665338726" y1="506.42220482698633" x2="747.7661060729373" y2="504.95139525133675" stroke-width="5" stroke="red" />
<line x1="754.9541921846547" y1="507.27972105964125" x2="759.9662770627369" y2="507.9289544300806" stroke-width="5" stroke="red" />
<line x1="759.6879446049822" y1="237.9690871487081" x2="758.1076794638744" y2="238.89816294274917" stroke-width="5" stroke="red" />
<line x1="759.6879446049822" y1="237.9690871487081" x2="766.8681100205113" y2="235.27254162543662" stroke-width="5" stroke="red" />
<line x1="762.4880660364357" y1="508.25559085784266" x2="759.9662770627369" y2="507.9289544300806" stroke-width="5" stroke="red" />
<line x1="762.4880660364357" y1="508.25559085784266" x2="768.9671412515765" y2="507.9405023010972" stroke-width="5" stroke="red" />
<line x1="766.9483253076754" y1="235.24241663909513" x2="766.8681100205113" y2="235.27254162543662" stroke-width="5" stroke="red" />
<line x1="766.9483253076754" y1="235.24241663909513" x2="768.9404913696928" y2="234.89409242634127" stroke-width="5" stroke="red" />
<line x1="770.3292706541193" y1="507.87425382100923" x2="768.9671412515765" y2="507.9405023010972" stroke-width="5" stroke="red" />
<line x1="770.3292706541193" y1="507.87425382100923" x2="774.7672635301564" y2="506.92364263253273" stroke-width="5" stroke="red" />
<line x1="774.3927543649196" y1="233.9656367744765" x2="776.7743823491904" y2="233.98107734814954" stroke-width="5" stroke="red" />
<line x1="774.3927543649196" y1="233.9656367744765" x2="768.9404913696928" y2="234.89409242634127" stroke-width="5" stroke="red" />
<line x1="781.602967289653" y1="234.06346186709698" x2="781.9886675102891" y2="234.07005328295085" stroke-width="5" stroke="red" />
<line x1="781.602967289653" y1="234.06346186709698" x2="776.7743823491904" y2="233.98107734814954" stroke-width="5" stroke="red" />
<line x1="778.4483646725882" y1="505.985071834285" x2="774.7672635301564" y2="506.92364263253273" stroke-width="5" stroke="red" />
<line x1="778.4483646725882" y1="505.985071834285" x2="780.2113049518259" y2="505.23812538888194" stroke-width="5" stroke="red" />
<line x1="788.1018943374382" y1="235.3080173375119" x2="789.6917095975606" y2="235.62999769915248" stroke-width="5" stroke="red" />
<line x1="788.1018943374382" y1="235.3080173375119" x2="781.9886675102891" y2="234.07005328295085" stroke-width="5" stroke="red" />
<line x1="786.8150454507014" y1="502.44011547046415" x2="780.2113049518259" y2="505.23812538888194" stroke-width="5" stroke="red" />
<line x1="786.8150454507014" y1="502.44011547046415" x2="795.2173532764821" y2="497.5330042371504" stroke-width="5" stroke="red" />
<line x1="794.209071743729" y1="237.36376200107438" x2="797.4643048823878" y2="238.61302466396884" stroke-width="5" stroke="red" />
<line x1="794.209071743729" y1="237.36376200107438" x2="789.6917095975606" y2="235.62999769915248" stroke-width="5" stroke="red" />
<line x1="800.0067603149548" y1="240.04370770489155" x2="805.2666178288587" y2="243.00359758549726" stroke-width="5" stroke="red" />
<line x1="800.0067603149548" y1="240.04370770489155" x2="797.4643048823878" y2="238.61302466396884" stroke-width="5" stroke="red" />
<line x1="795.3743310946217" y1="497.4291147009325" x2="795.2173532764821" y2="497.5330042371504" stroke-width="5" stroke="red" />
<line x1="795.3743310946217" y1="497.4291147009325" x2="795.6212801737703" y2="497.2242912414307" stroke-width="5" stroke="red" />
<line x1="804.1407069123039" y1="490.1580731954545" x2="795.6212801737703" y2="497.2242912414307" stroke-width="5" stroke="red" />
<line x1="804.1407069123039" y1="490.1580731954545" x2="808.0935435683539" y2="486.23740412248685" stroke-width="5" stroke="red" />
<line x1="805.5527488657696" y1="243.21567673363572" x2="806.1168129911248" y2="243.63376984299333" stroke-width="5" stroke="red" />
<line x1="805.5527488657696" y1="243.21567673363572" x2="805.2666178288587" y2="243.00359758549726" stroke-width="5" stroke="red" />
<line x1="810.549998410853" y1="247.2964886159726" x2="813.019185910741" y2="249.33645575241593" stroke-width="5" stroke="red" />
<line x1="810.549998410853" y1="247.2964886159726" x2="806.1168129911248" y2="243.63376984299333" stroke-width="5" stroke="red" />
<line x1="815.3448319417607" y1="251.72172932135132" x2="818.824701850093" y2="255.29061805054192" stroke-width="5" stroke="red" />
<line x1="815.3448319417607" y1="251.72172932135132" x2="813.019185910741" y2="249.33645575241593" stroke-width="5" stroke="red" />
<line x1="819.8974418275753" y1="256.5285989067355" x2="820.6916867517599" y2="257.44527476917096" stroke-width="5" stroke="red" />
<line x1="819.8974418275753" y1="256.5285989067355" x2="818.824701850093" y2="255.29061805054192" stroke-width="5" stroke="red" />
<line x1="817.995717506449" y1="474.31465276311826" x2="822.171015009183" y2="468.19983611204464" stroke-width="5" stroke="red" />
<line x1="813.0683772289557" y1="480.6777088723515" x2="808.0935435683539" y2="486.23740412248685" stroke-width="5" stroke="red" />
<line x1="813.0683772289557" y1="480.6777088723515" x2="817.995717506449" y2="474.31465276311826" stroke-width="5" stroke="red" />
<line x1="820.6916867517599" y1="257.44527476917096" x2="827.8030115161239" y2="267.2846032774809" stroke-width="5" stroke="red" />
<line x1="828.0141114814792" y1="267.618518389968" x2="827.8030115161239" y2="267.2846032774809" stroke-width="5" stroke="red" />
<line x1="828.0141114814792" y1="267.618518389968" x2="828.2005333722697" y2="267.91340893971415" stroke-width="5" stroke="red" />
<line x1="825.8895830613475" y1="462.0519957069356" x2="822.171015009183" y2="468.19983611204464" stroke-width="5" stroke="red" />
<line x1="828.201433551351" y1="457.6734670972232" x2="831.498939300279" y2="451.42830342888703" stroke-width="5" stroke="red" />
<line x1="828.201433551351" y1="457.6734670972232" x2="825.8895830613475" y2="462.0519957069356" stroke-width="5" stroke="red" />
<line x1="835.040244837793" y1="280.6083696535419" x2="828.2005333722697" y2="267.91340893971415" stroke-width="5" stroke="red" />
<line x1="835.2301879732134" y1="281.0208231785725" x2="835.4496660636983" y2="281.49738319503945" stroke-width="5" stroke="red" />
<line x1="835.2301879732134" y1="281.0208231785725" x2="835.040244837793" y2="280.6083696535419" stroke-width="5" stroke="red" />
<line x1="832.3659330697938" y1="449.60613779243596" x2="831.498939300279" y2="451.42830342888703" stroke-width="5" stroke="red" />
<line x1="832.3659330697938" y1="449.60613779243596" x2="833.3837318473237" y2="447.11684705686486" stroke-width="5" stroke="red" />
<line x1="837.5445420374367" y1="436.94055908551667" x2="841.3289250572684" y2="425.8836424931405" stroke-width="5" stroke="red" />
<line x1="837.5445420374367" y1="436.94055908551667" x2="833.3837318473237" y2="447.11684705686486" stroke-width="5" stroke="red" />
<line x1="838.2538501456088" y1="288.5497483565397" x2="840.4012296456261" y2="293.95035254157625" stroke-width="5" stroke="red" />
<line x1="838.2538501456088" y1="288.5497483565397" x2="835.4496660636983" y2="281.49738319503945" stroke-width="5" stroke="red" />
<line x1="841.1507414525254" y1="296.2285133805637" x2="842.290610225168" y2="299.69286338913025" stroke-width="5" stroke="red" />
<line x1="841.1507414525254" y1="296.2285133805637" x2="840.4012296456261" y2="293.95035254157625" stroke-width="5" stroke="red" />
<line x1="841.8519306029282" y1="424.2183084465" x2="842.0912055306973" y2="423.281615190215" stroke-width="5" stroke="red" />
<line x1="841.8519306029282" y1="424.2183084465" x2="841.3289250572684" y2="425.8836424931405" stroke-width="5" stroke="red" />
<line x1="847.698239403829" y1="322.1621025754321" x2="848.4001584567969" y2="326.4588804947268" stroke-width="5" stroke="red" />
<line x1="847.698239403829" y1="322.1621025754321" x2="847.4258009748503" y2="320.4944195043895" stroke-width="5" stroke="red" />
<line x1="843.6505262429905" y1="304.4510442793945" x2="844.4511625725105" y2="307.2526158915012" stroke-width="5" stroke="red" />
<line x1="843.6505262429905" y1="304.4510442793945" x2="842.290610225168" y2="299.69286338913025" stroke-width="5" stroke="red" />
<line x1="845.7804339989723" y1="313.17017647311263" x2="847.4258009748503" y2="320.4944195043895" stroke-width="5" stroke="red" />
<line x1="845.7804339989723" y1="313.17017647311263" x2="844.4511625725105" y2="307.2526158915012" stroke-width="5" stroke="red" />
<line x1="845.1210077825604" y1="411.4203840520188" x2="846.2411983630653" y2="405.74830228827693" stroke-width="5" stroke="red" />
<line x1="845.1210077825604" y1="411.4203840520188" x2="842.0912055306973" y2="423.281615190215" stroke-width="5" stroke="red" />
<line x1="847.6559252303516" y1="398.5856261528092" x2="848.790301264694" y2="390.4941259032141" stroke-width="5" stroke="red" />
<line x1="847.6559252303516" y1="398.5856261528092" x2="846.2411983630653" y2="405.74830228827693" stroke-width="5" stroke="red" />
<line x1="849.4611298962511" y1="385.7085455056478" x2="850.1985471695531" y2="376.86493758869045" stroke-width="5" stroke="red" />
<line x1="849.4611298962511" y1="385.7085455056478" x2="848.790301264694" y2="390.4941259032141" stroke-width="5" stroke="red" />
<line x1="850.7649993098097" y1="364.4322407047298" x2="850.5388778986404" y2="372.78387032414963" stroke-width="5" stroke="red" />
<line x1="850.5388778986404" y1="372.78387032414963" x2="850.1985471695531" y2="376.86493758869045" stroke-width="5" stroke="red" />
<line x1="850.7649993098097" y1="364.4322407047298" x2="850.8902655314926" y2="359.8059392258548" stroke-width="5" stroke="red" />
<line x1="850.6911463347009" y1="352.9046628087732" x2="850.8902655314926" y2="359.8059392258548" stroke-width="5" stroke="red" />
<line x1="850.6911463347009" y1="352.9046628087732" x2="850.5140393053421" y2="346.7690211368852" stroke-width="5" stroke="red" />
<line x1="850.1176622916557" y1="342.0758729594067" x2="850.5140393053421" y2="346.7690211368852" stroke-width="5" stroke="red" />
<line x1="850.1176622916557" y1="342.0758729594067" x2="849.4076613097499" y2="333.66733803891844" stroke-width="5" stroke="red" />
<line x1="849.1459279869313" y1="331.79461551136086" x2="849.4076613097499" y2="333.66733803891844" stroke-width="5" stroke="red" />
<line x1="849.1459279869313" y1="331.79461551136086" x2="848.4001584567969" y2="326.4588804947268" stroke-width="5" stroke="red" />
</svg>
