<svg width="1005.8216363586872" height="994.1783636413129" xmlns="http://www.w3.org/2000/svg">
<line x1="439.0965460269945" y1="489.04093586455144" x2="439.1197697217284" y2="489.68352233464253" stroke-width="5" stroke="red" />
<line x1="439.0965460269945" y1="489.04093586455144" x2="439.10683488735043" y2="488.7654300356681" stroke-width="5" stroke="red" />
<line x1="439.1276789195136" y1="489.9418804798395" x2="439.1197697217284" y2="489.68352233464253" stroke-width="5" stroke="red" />
<line x1="439.1276789195136" y1="489.9418804798395" x2="439.1581796655644" y2="490.26755931078304" stroke-width="5" stroke="red" />
<line x1="439.1690050145875" y1="490.3909378456697" x2="439.2140109600225" y2="490.7196137415006" stroke-width="5" stroke="red" />
<line x1="439.1690050145875" y1="490.3909378456697" x2="439.1581796655644" y2="490.26755931078304" stroke-width="5" stroke="red" />
<line x1="439.12702706508617" y1="488.1399891987331" x2="439.15692952949286" y2="487.85147225037576" stroke-width="5" stroke="red" />
<line x1="439.12702706508617" y1="488.1399891987331" x2="439.10683488735043" y2="488.7654300356681" stroke-width="5" stroke="red" />
<line x1="439.22923439349506" y1="490.8381082486782" x2="439.2140109600225" y2="490.7196137415006" stroke-width="5" stroke="red" />
<line x1="439.22923439349506" y1="490.8381082486782" x2="439.2891168305096" y2="491.16912707826623" stroke-width="5" stroke="red" />
<line x1="439.3087486200161" y1="491.28248052703333" x2="439.3838689301627" y2="491.6151524725433" stroke-width="5" stroke="red" />
<line x1="439.3087486200161" y1="491.28248052703333" x2="439.2891168305096" y2="491.16912707826623" stroke-width="5" stroke="red" />
<line x1="439.21590492773225" y1="487.2500997478509" x2="439.15692952949286" y2="487.85147225037576" stroke-width="5" stroke="red" />
<line x1="439.21590492773225" y1="487.2500997478509" x2="439.2669634968076" y2="486.94862672883494" stroke-width="5" stroke="red" />
<line x1="439.4075019015126" y1="491.72318551010034" x2="439.3838689301627" y2="491.6151524725433" stroke-width="5" stroke="red" />
<line x1="439.4075019015126" y1="491.72318551010034" x2="439.4982161803617" y2="492.05677395922544" stroke-width="5" stroke="red" />
<line x1="439.5252703380695" y1="492.15929091720255" x2="439.6319451730536" y2="492.4931059170359" stroke-width="5" stroke="red" />
<line x1="439.5252703380695" y1="492.15929091720255" x2="439.4982161803617" y2="492.05677395922544" stroke-width="5" stroke="red" />
<line x1="439.363121644392" y1="486.3684728573134" x2="439.43753849853937" y2="486.05640682066127" stroke-width="5" stroke="red" />
<line x1="439.363121644392" y1="486.3684728573134" x2="439.2669634968076" y2="486.94862672883494" stroke-width="5" stroke="red" />
<line x1="439.66219330840784" y1="492.58999775637915" x2="439.6319451730536" y2="492.4931059170359" stroke-width="5" stroke="red" />
<line x1="439.66219330840784" y1="492.58999775637915" x2="439.785183087416" y2="492.92334634385264" stroke-width="5" stroke="red" />
<line x1="439.56805821225186" y1="485.49908019402244" x2="439.43753849853937" y2="486.05640682066127" stroke-width="5" stroke="red" />
<line x1="439.56805821225186" y1="485.49908019402244" x2="439.66738183754967" y2="485.1788773957265" stroke-width="5" stroke="red" />
<line x1="439.81805980669236" y1="493.01455137709485" x2="439.95711902071747" y2="493.3468262875027" stroke-width="5" stroke="red" />
<line x1="439.81805980669236" y1="493.01455137709485" x2="439.785183087416" y2="492.92334634385264" stroke-width="5" stroke="red" />
<line x1="439.992084450404" y1="493.4323143960474" x2="439.95711902071747" y2="493.3468262875027" stroke-width="5" stroke="red" />
<line x1="439.992084450404" y1="493.4323143960474" x2="440.14572000628715" y2="493.7630444860654" stroke-width="5" stroke="red" />
<line x1="439.83057997565265" y1="484.6455921964649" x2="439.95528459921167" y2="484.31979657792647" stroke-width="5" stroke="red" />
<line x1="439.83057997565265" y1="484.6455921964649" x2="439.66738183754967" y2="485.1788773957265" stroke-width="5" stroke="red" />
<line x1="440.18225813844373" y1="493.84289647690053" x2="440.3513752404215" y2="494.17171165595727" stroke-width="5" stroke="red" />
<line x1="440.18225813844373" y1="493.84289647690053" x2="440.14572000628715" y2="493.7630444860654" stroke-width="5" stroke="red" />
<line x1="440.3888646187326" y1="494.246024744038" x2="440.76938842187445" y2="494.8997873238706" stroke-width="5" stroke="red" />
<line x1="440.3888646187326" y1="494.246024744038" x2="440.3513752404215" y2="494.17171165595727" stroke-width="5" stroke="red" />
<line x1="440.1477402322681" y1="483.81145854564306" x2="439.95528459921167" y2="484.31979657792647" stroke-width="5" stroke="red" />
<line x1="440.1477402322681" y1="483.81145854564306" x2="440.29861481297297" y2="483.4824719306972" stroke-width="5" stroke="red" />
<line x1="440.8436843578493" y1="495.0294739109434" x2="440.76938842187445" y2="494.8997873238706" stroke-width="5" stroke="red" />
<line x1="440.8436843578493" y1="495.0294739109434" x2="441.27356526208064" y2="495.66970631579534" stroke-width="5" stroke="red" />
<line x1="440.51808103028515" y1="482.99942781461954" x2="440.69412007079734" y2="482.66948890821396" stroke-width="5" stroke="red" />
<line x1="440.51808103028515" y1="482.99942781461954" x2="440.29861481297297" y2="483.4824719306972" stroke-width="5" stroke="red" />
<line x1="440.93632637086114" y1="482.2116280874972" x2="440.69412007079734" y2="482.66948890821396" stroke-width="5" stroke="red" />
<line x1="440.93632637086114" y1="482.2116280874972" x2="441.1371467026065" y2="481.8825830990259" stroke-width="5" stroke="red" />
<line x1="441.3456383673264" y1="495.7786567955223" x2="441.82004775731474" y2="496.40877009900174" stroke-width="5" stroke="red" />
<line x1="441.3456383673264" y1="495.7786567955223" x2="441.27356526208064" y2="495.66970631579534" stroke-width="5" stroke="red" />
<line x1="441.39986977653473" y1="481.44932879592494" x2="441.62155881820394" y2="481.12616990694465" stroke-width="5" stroke="red" />
<line x1="441.39986977653473" y1="481.44932879592494" x2="441.1371467026065" y2="481.8825830990259" stroke-width="5" stroke="red" />
<line x1="441.8873159071592" y1="496.4992285709635" x2="441.82004775731474" y2="496.40877009900174" stroke-width="5" stroke="red" />
<line x1="441.8873159071592" y1="496.4992285709635" x2="442.4021935101774" y2="497.12003526553264" stroke-width="5" stroke="red" />
<line x1="441.8982247236599" y1="480.72083145690897" x2="441.62155881820394" y2="481.12616990694465" stroke-width="5" stroke="red" />
<line x1="441.8982247236599" y1="480.72083145690897" x2="442.1417221978441" y2="480.4013655149544" stroke-width="5" stroke="red" />
<line x1="442.4624136275676" y1="497.1935825076565" x2="443.0126886483884" y2="497.80639736280165" stroke-width="5" stroke="red" />
<line x1="442.4624136275676" y1="497.1935825076565" x2="442.4021935101774" y2="497.12003526553264" stroke-width="5" stroke="red" />
<line x1="442.4326544605048" y1="480.01819041832624" x2="442.69654718286625" y2="479.703372690004" stroke-width="5" stroke="red" />
<line x1="442.4326544605048" y1="480.01819041832624" x2="442.1417221978441" y2="480.4013655149544" stroke-width="5" stroke="red" />
<line x1="443.064265928619" y1="497.8644379547477" x2="445.60845083994707" y2="500.3599370865234" stroke-width="5" stroke="red" />
<line x1="443.064265928619" y1="497.8644379547477" x2="443.0126886483884" y2="497.80639736280165" stroke-width="5" stroke="red" />
<line x1="442.99890332120503" y1="479.34111733239837" x2="442.69654718286625" y2="479.703372690004" stroke-width="5" stroke="red" />
<line x1="442.99890332120503" y1="479.34111733239837" x2="443.2823232822241" y2="479.031688271046" stroke-width="5" stroke="red" />
<line x1="443.59465086803516" y1="478.6890707615882" x2="444.2115339843895" y2="478.0887552081219" stroke-width="5" stroke="red" />
<line x1="443.59465086803516" y1="478.6890707615882" x2="443.2823232822241" y2="479.031688271046" stroke-width="5" stroke="red" />
<line x1="444.85929321314933" y1="477.45648074726483" x2="444.2115339843895" y2="478.0887552081219" stroke-width="5" stroke="red" />
<line x1="444.85929321314933" y1="477.45648074726483" x2="445.5343883395758" y2="476.8786056650218" stroke-width="5" stroke="red" />
<line x1="445.6364537152229" y1="500.3876555746062" x2="446.00122079611185" y2="500.72574766615696" stroke-width="5" stroke="red" />
<line x1="445.6364537152229" y1="500.3876555746062" x2="445.6226750346714" y2="500.3745041789004" stroke-width="5" stroke="red" />
<line x1="445.6226750346714" y1="500.3745041789004" x2="445.60845083994707" y2="500.3599370865234" stroke-width="5" stroke="red" />
<line x1="446.20120504498345" y1="476.3070331597348" x2="447.6680545968477" y2="475.1982716005147" stroke-width="5" stroke="red" />
<line x1="446.20120504498345" y1="476.3070331597348" x2="445.5343883395758" y2="476.8786056650218" stroke-width="5" stroke="red" />
<line x1="450.3360904808625" y1="504.7790648791625" x2="450.9629185403354" y2="505.36032612572654" stroke-width="5" stroke="red" />
<line x1="450.3360904808625" y1="504.7790648791625" x2="446.00122079611185" y2="500.72574766615696" stroke-width="5" stroke="red" />
<line x1="449.0086460837007" y1="474.18451945439693" x2="447.6680545968477" y2="475.1982716005147" stroke-width="5" stroke="red" />
<line x1="449.0086460837007" y1="474.18451945439693" x2="450.5924364259128" y2="473.0943136191055" stroke-width="5" stroke="red" />
<line x1="450.9629185403354" y1="505.36032612572654" x2="451.3476079383958" y2="505.7478130957731" stroke-width="5" stroke="red" />
<line x1="451.9102492801558" y1="472.1878378651759" x2="455.30262328506757" y2="469.9316364001481" stroke-width="5" stroke="red" />
<line x1="451.9102492801558" y1="472.1878378651759" x2="450.5924364259128" y2="473.0943136191055" stroke-width="5" stroke="red" />
<line x1="453.51940080569966" y1="507.94898865480786" x2="454.0920126001294" y2="508.58384371568616" stroke-width="5" stroke="red" />
<line x1="453.51940080569966" y1="507.94898865480786" x2="451.3476079383958" y2="505.7478130957731" stroke-width="5" stroke="red" />
<line x1="455.94207542458656" y1="510.6475955909701" x2="454.0920126001294" y2="508.58384371568616" stroke-width="5" stroke="red" />
<line x1="455.94207542458656" y1="510.6475955909701" x2="456.6818900858981" y2="511.56651706515936" stroke-width="5" stroke="red" />
<line x1="457.7787689512218" y1="468.287872297489" x2="455.30262328506757" y2="469.9316364001481" stroke-width="5" stroke="red" />
<line x1="457.7787689512218" y1="468.287872297489" x2="461.3437668089668" y2="465.71557167101315" stroke-width="5" stroke="red" />
<line x1="458.2068492745295" y1="513.4713665214688" x2="459.0855615101681" y2="514.7088516597099" stroke-width="5" stroke="red" />
<line x1="458.2068492745295" y1="513.4713665214688" x2="456.6818900858981" y2="511.56651706515936" stroke-width="5" stroke="red" />
<line x1="460.28877373327236" y1="516.4138986089066" x2="459.0855615101681" y2="514.7088516597099" stroke-width="5" stroke="red" />
<line x1="460.28877373327236" y1="516.4138986089066" x2="461.27416937270533" y2="518.0053651035236" stroke-width="5" stroke="red" />
<line x1="462.17643390782166" y1="519.4709051315175" x2="463.23268956647354" y2="521.4418657902869" stroke-width="5" stroke="red" />
<line x1="462.17643390782166" y1="519.4709051315175" x2="461.27416937270533" y2="518.0053651035236" stroke-width="5" stroke="red" />
<line x1="463.5020658878159" y1="464.16266715444857" x2="461.3437668089668" y2="465.71557167101315" stroke-width="5" stroke="red" />
<line x1="463.5020658878159" y1="464.16266715444857" x2="465.2775776377785" y2="462.6516523399679" stroke-width="5" stroke="red" />
<line x1="463.8610757074938" y1="522.6225627997006" x2="463.23268956647354" y2="521.4418657902869" stroke-width="5" stroke="red" />
<line x1="463.8610757074938" y1="522.6225627997006" x2="464.97343957842384" y2="524.9874357878429" stroke-width="5" stroke="red" />
<line x1="465.3727072277483" y1="525.8425045892027" x2="466.53935447744243" y2="528.604286717018" stroke-width="5" stroke="red" />
<line x1="465.3727072277483" y1="525.8425045892027" x2="464.97343957842384" y2="524.9874357878429" stroke-width="5" stroke="red" />
<line x1="466.7478591687318" y1="529.101599438703" x2="468.3439844465036" y2="533.3885922923021" stroke-width="5" stroke="red" />
<line x1="466.7478591687318" y1="529.101599438703" x2="466.53935447744243" y2="528.604286717018" stroke-width="5" stroke="red" />
<line x1="466.1991389995092" y1="461.8708001214797" x2="465.2775776377785" y2="462.6516523399679" stroke-width="5" stroke="red" />
<line x1="466.1991389995092" y1="461.8708001214797" x2="467.06736274320605" y2="461.03824458451595" stroke-width="5" stroke="red" />
<line x1="467.4786115659445" y1="460.6456151752104" x2="467.06736274320605" y2="461.03824458451595" stroke-width="5" stroke="red" />
<line x1="467.4786115659445" y1="460.6456151752104" x2="468.3320495848689" y2="459.7555024415205" stroke-width="5" stroke="red" />
<line x1="468.70655739082673" y1="459.366630142697" x2="469.5449745473163" y2="458.41249412227813" stroke-width="5" stroke="red" />
<line x1="468.70655739082673" y1="459.366630142697" x2="468.3320495848689" y2="459.7555024415205" stroke-width="5" stroke="red" />
<line x1="469.88291564102633" y1="458.0296110936766" x2="469.5449745473163" y2="458.41249412227813" stroke-width="5" stroke="red" />
<line x1="469.88291564102633" y1="458.0296110936766" x2="470.70041341764687" y2="457.0120539460598" stroke-width="5" stroke="red" />
<line x1="469.2287715610593" y1="535.7197456260739" x2="469.4416456650901" y2="536.3463979538724" stroke-width="5" stroke="red" />
<line x1="469.2287715610593" y1="535.7197456260739" x2="468.3439844465036" y2="533.3885922923021" stroke-width="5" stroke="red" />
<line x1="471.00040613380924" y1="456.6405270588475" x2="471.79486864217654" y2="455.5576370310874" stroke-width="5" stroke="red" />
<line x1="471.00040613380924" y1="456.6405270588475" x2="470.70041341764687" y2="457.0120539460598" stroke-width="5" stroke="red" />
<line x1="471.4887470549397" y1="542.4247009191807" x2="472.2746526832197" y2="544.8992538713651" stroke-width="5" stroke="red" />
<line x1="471.4887470549397" y1="542.4247009191807" x2="469.4416456650901" y2="536.3463979538724" stroke-width="5" stroke="red" />
<line x1="472.05713728253215" y1="455.2017030857231" x2="471.79486864217654" y2="455.5576370310874" stroke-width="5" stroke="red" />
<line x1="472.05713728253215" y1="455.2017030857231" x2="472.82494774166224" y2="454.0521963377938" stroke-width="5" stroke="red" />
<line x1="473.05035254067485" y1="453.71615983620615" x2="473.79281194358464" y2="452.4942844463304" stroke-width="5" stroke="red" />
<line x1="473.05035254067485" y1="453.71615983620615" x2="472.82494774166224" y2="454.0521963377938" stroke-width="5" stroke="red" />
<line x1="473.5908290997291" y1="549.0817311424119" x2="474.9998346362856" y2="553.451353844085" stroke-width="5" stroke="red" />
<line x1="473.5908290997291" y1="549.0817311424119" x2="472.2746526832197" y2="544.8992538713651" stroke-width="5" stroke="red" />
<line x1="473.9841139089477" y1="452.1812591575245" x2="473.79281194358464" y2="452.4942844463304" stroke-width="5" stroke="red" />
<line x1="473.9841139089477" y1="452.1812591575245" x2="474.6963948777386" y2="450.89147231390973" stroke-width="5" stroke="red" />
<line x1="474.85428683350096" y1="450.60694990225596" x2="475.3352453165655" y2="449.5369774460567" stroke-width="5" stroke="red" />
<line x1="474.85428683350096" y1="450.60694990225596" x2="474.6963948777386" y2="450.89147231390973" stroke-width="5" stroke="red" />
<line x1="475.6983825385405" y1="555.6385719163321" x2="474.9998346362856" y2="553.451353844085" stroke-width="5" stroke="red" />
<line x1="475.6983825385405" y1="555.6385719163321" x2="476.7076264407253" y2="558.3256289183357" stroke-width="5" stroke="red" />
<line x1="475.3352453165655" y1="449.5369774460567" x2="476.4038688927369" y2="447.32440822816375" stroke-width="5" stroke="red" />
<line x1="476.4038688927369" y1="447.32440822816375" x2="477.52065427023723" y2="444.5517082452408" stroke-width="5" stroke="red" />
<line x1="476.89446121154845" y1="558.8285582442912" x2="476.7076264407253" y2="558.3256289183357" stroke-width="5" stroke="red" />
<line x1="476.89446121154845" y1="558.8285582442912" x2="477.2078194772468" y2="559.5146463038058" stroke-width="5" stroke="red" />
<line x1="477.24721645757484" y1="559.6020997512481" x2="477.2078194772468" y2="559.5146463038058" stroke-width="5" stroke="red" />
<line x1="477.24721645757484" y1="559.6020997512481" x2="477.42277330254797" y2="559.944236391027" stroke-width="5" stroke="red" />
<line x1="477.4412357274035" y1="559.9805811844071" x2="477.63555180776063" y2="560.3206135814658" stroke-width="5" stroke="red" />
<line x1="477.4412357274035" y1="559.9805811844071" x2="477.42277330254797" y2="559.944236391027" stroke-width="5" stroke="red" />
<line x1="477.6523865157389" y1="560.3504248313086" x2="477.63555180776063" y2="560.3206135814658" stroke-width="5" stroke="red" />
<line x1="477.6523865157389" y1="560.3504248313086" x2="477.8708038962334" y2="560.684383198548" stroke-width="5" stroke="red" />
<line x1="477.88585825464196" y1="560.7077254658881" x2="477.8708038962334" y2="560.684383198548" stroke-width="5" stroke="red" />
<line x1="477.88585825464196" y1="560.7077254658881" x2="478.0054310820883" y2="560.8698482806511" stroke-width="5" stroke="red" />
<line x1="478.01264328825783" y1="560.8797223170409" x2="478.1415913540338" y2="561.0375527928726" stroke-width="5" stroke="red" />
<line x1="478.01264328825783" y1="560.8797223170409" x2="478.0054310820883" y2="560.8698482806511" stroke-width="5" stroke="red" />
<line x1="477.75577047657146" y1="443.9694473921459" x2="477.52065427023723" y2="444.5517082452408" stroke-width="5" stroke="red" />
<line x1="477.75577047657146" y1="443.9694473921459" x2="478.86754856979843" y2="440.7508823534958" stroke-width="5" stroke="red" />
<line x1="478.14830696282786" y1="561.0458654471076" x2="478.1415913540338" y2="561.0375527928726" stroke-width="5" stroke="red" />
<line x1="478.14830696282786" y1="561.0458654471076" x2="478.28670483704747" y2="561.1982273815464" stroke-width="5" stroke="red" />
<line x1="478.2928142704685" y1="561.2050391081846" x2="478.44141451763744" y2="561.350349027961" stroke-width="5" stroke="red" />
<line x1="478.2928142704685" y1="561.2050391081846" x2="478.28670483704747" y2="561.1982273815464" stroke-width="5" stroke="red" />
<line x1="478.4468463539806" y1="561.355734479848" x2="478.44141451763744" y2="561.350349027961" stroke-width="5" stroke="red" />
<line x1="478.4468463539806" y1="561.355734479848" x2="478.60565733850314" y2="561.4920473112182" stroke-width="5" stroke="red" />
<line x1="478.6103405761745" y1="561.4961097909274" x2="478.780961753055" y2="561.6215112898636" stroke-width="5" stroke="red" />
<line x1="478.6103405761745" y1="561.4961097909274" x2="478.60565733850314" y2="561.4920473112182" stroke-width="5" stroke="red" />
<line x1="478.78481912398104" y1="561.6243810159164" x2="478.780961753055" y2="561.6215112898636" stroke-width="5" stroke="red" />
<line x1="478.78481912398104" y1="561.6243810159164" x2="478.9614451015903" y2="561.7352515569695" stroke-width="5" stroke="red" />
<line x1="478.9643639660454" y1="561.737106248446" x2="479.14975872483865" y2="561.8352125668213" stroke-width="5" stroke="red" />
<line x1="478.9643639660454" y1="561.737106248446" x2="478.9614451015903" y2="561.7352515569695" stroke-width="5" stroke="red" />
<line x1="479.1517679778145" y1="561.8362906803146" x2="479.14975872483865" y2="561.8352125668213" stroke-width="5" stroke="red" />
<line x1="479.1517679778145" y1="561.8362906803146" x2="479.34577808425445" y2="561.9209623391636" stroke-width="5" stroke="red" />
<line x1="479.34687271861736" y1="561.9214472448361" x2="479.5471997011016" y2="561.9924766771882" stroke-width="5" stroke="red" />
<line x1="479.34687271861736" y1="561.9214472448361" x2="479.34577808425445" y2="561.9209623391636" stroke-width="5" stroke="red" />
<line x1="478.939510346159" y1="440.54292668821114" x2="478.86754856979843" y2="440.7508823534958" stroke-width="5" stroke="red" />
<line x1="478.939510346159" y1="440.54292668821114" x2="479.5459592745993" y2="438.69376812226125" stroke-width="5" stroke="red" />
<line x1="479.5473892088234" y1="561.9925447170666" x2="479.5471997011016" y2="561.9924766771882" stroke-width="5" stroke="red" />
<line x1="479.5473892088234" y1="561.9925447170666" x2="479.5933321845677" y2="562.0052921907675" stroke-width="5" stroke="red" />
<line x1="480.0775853104702" y1="437.1090442756246" x2="479.5459592745993" y2="438.69376812226125" stroke-width="5" stroke="red" />
<line x1="480.0775853104702" y1="437.1090442756246" x2="480.10867287032875" y2="437.0259404457516" stroke-width="5" stroke="red" />
<line x1="481.34500387917575" y1="433.73493602874885" x2="481.37155243411576" y2="433.67488805147656" stroke-width="5" stroke="red" />
<line x1="481.34500387917575" y1="433.73493602874885" x2="480.10867287032875" y2="437.0259404457516" stroke-width="5" stroke="red" />
<line x1="479.7538793038642" y1="562.0509973408003" x2="479.754500503033" y2="562.0511721004011" stroke-width="5" stroke="red" />
<line x1="479.7538793038642" y1="562.0509973408003" x2="479.5933321845677" y2="562.0052921907675" stroke-width="5" stroke="red" />
<line x1="479.9635679177573" y1="562.0962829912006" x2="479.9649254619828" y2="562.0965718145887" stroke-width="5" stroke="red" />
<line x1="479.9635679177573" y1="562.0962829912006" x2="479.754500503033" y2="562.0511721004011" stroke-width="5" stroke="red" />
<line x1="481.708734589626" y1="432.91503067996814" x2="481.37155243411576" y2="433.67488805147656" stroke-width="5" stroke="red" />
<line x1="481.708734589626" y1="432.91503067996814" x2="481.7422293640469" y2="432.84680668294345" stroke-width="5" stroke="red" />
<line x1="480.1755728669114" y1="562.1288029966013" x2="480.177598582449" y2="562.1291076895407" stroke-width="5" stroke="red" />
<line x1="480.1755728669114" y1="562.1288029966013" x2="479.9649254619828" y2="562.0965718145887" stroke-width="5" stroke="red" />
<line x1="480.388431447528" y1="562.1493742246117" x2="480.39104145362006" y2="562.1496188786489" stroke-width="5" stroke="red" />
<line x1="480.388431447528" y1="562.1493742246117" x2="480.177598582449" y2="562.1291076895407" stroke-width="5" stroke="red" />
<line x1="482.1040395498284" y1="432.11008458858464" x2="482.14597143309624" y2="432.0350578289651" stroke-width="5" stroke="red" />
<line x1="482.1040395498284" y1="432.11008458858464" x2="481.7422293640469" y2="432.84680668294345" stroke-width="5" stroke="red" />
<line x1="480.60142130185636" y1="562.1588143026564" x2="480.60454457031" y2="562.1589439485936" stroke-width="5" stroke="red" />
<line x1="480.60142130185636" y1="562.1588143026564" x2="480.39104145362006" y2="562.1496188786489" stroke-width="5" stroke="red" />
<line x1="480.81460735613075" y1="562.1581114120997" x2="480.8181533568722" y2="562.1580904466584" stroke-width="5" stroke="red" />
<line x1="480.81460735613075" y1="562.1581114120997" x2="480.60454457031" y2="562.1589439485936" stroke-width="5" stroke="red" />
<line x1="482.54159811031616" y1="431.3267917489099" x2="482.14597143309624" y2="432.0350578289651" stroke-width="5" stroke="red" />
<line x1="482.54159811031616" y1="431.3267917489099" x2="482.5667610181703" y2="431.28660329004225" stroke-width="5" stroke="red" />
<line x1="481.02726936453394" y1="562.1481744102382" x2="481.0311871044953" y2="562.147982552154" stroke-width="5" stroke="red" />
<line x1="481.02726936453394" y1="562.1481744102382" x2="480.8181533568722" y2="562.1580904466584" stroke-width="5" stroke="red" />
<line x1="481.23946927442336" y1="562.1299606036301" x2="481.2436709623352" y2="562.1295902850311" stroke-width="5" stroke="red" />
<line x1="481.23946927442336" y1="562.1299606036301" x2="481.0311871044953" y2="562.147982552154" stroke-width="5" stroke="red" />
<line x1="482.7799035324238" y1="430.9467405869766" x2="482.5667610181703" y2="431.28660329004225" stroke-width="5" stroke="red" />
<line x1="482.7799035324238" y1="430.9467405869766" x2="482.80799423457944" y2="430.90581957167086" stroke-width="5" stroke="red" />
<line x1="481.65497102341044" y1="562.0721633911623" x2="481.66420053259174" y2="562.0708627795697" stroke-width="5" stroke="red" />
<line x1="481.65497102341044" y1="562.0721633911623" x2="481.2436709623352" y2="562.1295902850311" stroke-width="5" stroke="red" />
<line x1="483.03364168926413" y1="430.5766868936478" x2="483.06492480646745" y2="430.5355351715999" stroke-width="5" stroke="red" />
<line x1="483.03364168926413" y1="430.5766868936478" x2="482.80799423457944" y2="430.90581957167086" stroke-width="5" stroke="red" />
<line x1="483.3043755980406" y1="430.21937340633434" x2="483.06492480646745" y2="430.5355351715999" stroke-width="5" stroke="red" />
<line x1="483.3043755980406" y1="430.21937340633434" x2="483.3391083610781" y2="430.1786148548899" stroke-width="5" stroke="red" />
<line x1="482.06966965733375" y1="561.9892622119621" x2="482.07933252238826" y2="561.9873073100969" stroke-width="5" stroke="red" />
<line x1="482.06966965733375" y1="561.9892622119621" x2="481.66420053259174" y2="562.0708627795697" stroke-width="5" stroke="red" />
<line x1="483.5943374651326" y1="429.8780953986655" x2="483.6329456435576" y2="429.83848682582857" stroke-width="5" stroke="red" />
<line x1="483.5943374651326" y1="429.8780953986655" x2="483.3391083610781" y2="430.1786148548899" stroke-width="5" stroke="red" />
<line x1="482.47954348985616" y1="561.8858911350802" x2="482.4893597638275" y2="561.8833984643447" stroke-width="5" stroke="red" />
<line x1="482.47954348985616" y1="561.8858911350802" x2="482.07933252238826" y2="561.9873073100969" stroke-width="5" stroke="red" />
<line x1="483.9066063063506" y1="429.55667099188577" x2="483.6329456435576" y2="429.83848682582857" stroke-width="5" stroke="red" />
<line x1="483.9066063063506" y1="429.55667099188577" x2="483.9275468509558" y2="429.5374933137555" stroke-width="5" stroke="red" />
<line x1="484.07159984647154" y1="429.4050619693864" x2="483.9275468509558" y2="429.5374933137555" stroke-width="5" stroke="red" />
<line x1="484.07159984647154" y1="429.4050619693864" x2="484.0936797464844" y2="429.386557331199" stroke-width="5" stroke="red" />
<line x1="482.8840564887077" y1="561.7655367503941" x2="482.89372982078106" y2="561.7626395483844" stroke-width="5" stroke="red" />
<line x1="482.8840564887077" y1="561.7655367503941" x2="482.4893597638275" y2="561.8833984643447" stroke-width="5" stroke="red" />
<line x1="484.24219813377977" y1="429.2604070478624" x2="484.26521938906393" y2="429.24272548002665" stroke-width="5" stroke="red" />
<line x1="484.24219813377977" y1="429.2604070478624" x2="484.0936797464844" y2="429.386557331199" stroke-width="5" stroke="red" />
<line x1="484.4195385961063" y1="429.1235898430123" x2="484.26521938906393" y2="429.24272548002665" stroke-width="5" stroke="red" />
<line x1="484.4195385961063" y1="429.1235898430123" x2="484.44368525300666" y2="429.10690129675703" stroke-width="5" stroke="red" />
<line x1="482.89372982078106" y1="561.7626395483844" x2="483.66984858911945" y2="561.4873222460897" stroke-width="5" stroke="red" />
<line x1="484.603166211953" y1="428.99547402803677" x2="484.62832411369675" y2="428.97993172506756" stroke-width="5" stroke="red" />
<line x1="484.603166211953" y1="428.99547402803677" x2="484.44368525300666" y2="429.10690129675703" stroke-width="5" stroke="red" />
<line x1="484.7929917822104" y1="428.8770216657102" x2="484.62832411369675" y2="428.97993172506756" stroke-width="5" stroke="red" />
<line x1="484.7929917822104" y1="428.8770216657102" x2="484.81913827778493" y2="428.86279602649415" stroke-width="5" stroke="red" />
<line x1="484.98902329644113" y1="428.76908915651956" x2="485.01612916602033" y2="428.75630847879125" stroke-width="5" stroke="red" />
<line x1="484.98902329644113" y1="428.76908915651956" x2="484.81913827778493" y2="428.86279602649415" stroke-width="5" stroke="red" />
<line x1="485.19060811774574" y1="428.67240031958363" x2="485.01612916602033" y2="428.75630847879125" stroke-width="5" stroke="red" />
<line x1="483.68779124517005" y1="561.4809532456185" x2="485.2021737878745" y2="560.8171955189163" stroke-width="5" stroke="red" />
<line x1="483.68779124517005" y1="561.4809532456185" x2="483.66984858911945" y2="561.4873222460897" stroke-width="5" stroke="red" />
<line x1="485.36967067143786" y1="428.5988284596262" x2="485.19060811774574" y2="428.67240031958363" stroke-width="5" stroke="red" />
<line x1="485.36967067143786" y1="428.5988284596262" x2="485.39754913013934" y2="428.58759121698" stroke-width="5" stroke="red" />
<line x1="485.5806668907723" y1="428.52484060064285" x2="485.39754913013934" y2="428.58759121698" stroke-width="5" stroke="red" />
<line x1="485.5806668907723" y1="428.52484060064285" x2="485.609192027797" y2="428.51529875178613" stroke-width="5" stroke="red" />
<line x1="485.609192027797" y1="428.51529875178613" x2="485.79575411624677" y2="428.4635584163007" stroke-width="5" stroke="red" />
<line x1="485.82477775351134" y1="428.4557596782588" x2="486.0135095194914" y2="428.4148333217434" stroke-width="5" stroke="red" />
<line x1="485.82477775351134" y1="428.4557596782588" x2="485.79575411624677" y2="428.4635584163007" stroke-width="5" stroke="red" />
<line x1="486.04288204379066" y1="428.4087363164903" x2="486.0135095194914" y2="428.4148333217434" stroke-width="5" stroke="red" />
<line x1="486.04288204379066" y1="428.4087363164903" x2="486.23316197010143" y2="428.37806249917116" stroke-width="5" stroke="red" />
<line x1="486.2626353198242" y1="428.37358745271627" x2="486.4551559976849" y2="428.35286113162243" stroke-width="5" stroke="red" />
<line x1="486.2626353198242" y1="428.37358745271627" x2="486.23316197010143" y2="428.37806249917116" stroke-width="5" stroke="red" />
<line x1="486.48468559641765" y1="428.3499332253096" x2="486.4551559976849" y2="428.35286113162243" stroke-width="5" stroke="red" />
<line x1="486.48468559641765" y1="428.3499332253096" x2="486.67816394594894" y2="428.33860479693084" stroke-width="5" stroke="red" />
<line x1="486.707508861028" y1="428.3371250738296" x2="486.90131499658406" y2="428.3346077105409" stroke-width="5" stroke="red" />
<line x1="486.707508861028" y1="428.3371250738296" x2="486.67816394594894" y2="428.33860479693084" stroke-width="5" stroke="red" />
<line x1="485.22658592900115" y1="560.8065001950497" x2="485.2021737878745" y2="560.8171955189163" stroke-width="5" stroke="red" />
<line x1="485.22658592900115" y1="560.8065001950497" x2="487.29984935873966" y2="559.6919911517557" stroke-width="5" stroke="red" />
<line x1="486.9306347575918" y1="428.3344670873027" x2="486.90131499658406" y2="428.3346077105409" stroke-width="5" stroke="red" />
<line x1="486.9306347575918" y1="428.3344670873027" x2="487.1247916318646" y2="428.34021785953405" stroke-width="5" stroke="red" />
<line x1="487.1537559375688" y1="428.34129905768043" x2="487.54214377684247" y2="428.3751292169562" stroke-width="5" stroke="red" />
<line x1="487.1537559375688" y1="428.34129905768043" x2="487.1247916318646" y2="428.34021785953405" stroke-width="5" stroke="red" />
<line x1="487.59863158073784" y1="428.3804738330534" x2="487.98470778779165" y2="428.44048179890456" stroke-width="5" stroke="red" />
<line x1="487.59863158073784" y1="428.3804738330534" x2="487.54214377684247" y2="428.3751292169562" stroke-width="5" stroke="red" />
<line x1="488.0393285723622" y1="428.4493251475968" x2="487.98470778779165" y2="428.44048179890456" stroke-width="5" stroke="red" />
<line x1="488.0393285723622" y1="428.4493251475968" x2="488.42383882546176" y2="428.5313031523508" stroke-width="5" stroke="red" />
<line x1="488.17909434318796" y1="559.2239964314551" x2="488.2004734562235" y2="559.2113015651701" stroke-width="5" stroke="red" />
<line x1="488.17909434318796" y1="559.2239964314551" x2="487.29984935873966" y2="559.6919911517557" stroke-width="5" stroke="red" />
<line x1="488.4764469971946" y1="428.5428285718499" x2="488.8581220149189" y2="428.6435949530554" stroke-width="5" stroke="red" />
<line x1="488.4764469971946" y1="428.5428285718499" x2="488.42383882546176" y2="428.5313031523508" stroke-width="5" stroke="red" />
<line x1="488.90834171436404" y1="428.6571492818391" x2="488.8581220149189" y2="428.6435949530554" stroke-width="5" stroke="red" />
<line x1="488.90834171436404" y1="428.6571492818391" x2="489.28789172261503" y2="428.7737080853528" stroke-width="5" stroke="red" />
<line x1="489.33590844565026" y1="428.7886867877078" x2="490.0896458131068" y2="429.0610052316807" stroke-width="5" stroke="red" />
<line x1="489.33590844565026" y1="428.7886867877078" x2="489.28789172261503" y2="428.7737080853528" stroke-width="5" stroke="red" />
<line x1="490.1768378912324" y1="429.0929113710803" x2="490.0896458131068" y2="429.0610052316807" stroke-width="5" stroke="red" />
<line x1="490.1768378912324" y1="429.0929113710803" x2="490.9236996751721" y2="429.4053800758935" stroke-width="5" stroke="red" />
<line x1="491.0013300422524" y1="429.4381856022197" x2="492.49349188397065" y2="430.153046311749" stroke-width="5" stroke="red" />
<line x1="491.0013300422524" y1="429.4381856022197" x2="490.9236996751721" y2="429.4053800758935" stroke-width="5" stroke="red" />
<line x1="491.06284858682284" y1="557.5177329575005" x2="491.2875186857276" y2="557.3837138005697" stroke-width="5" stroke="red" />
<line x1="491.06284858682284" y1="557.5177329575005" x2="488.2004734562235" y2="559.2113015651701" stroke-width="5" stroke="red" />
<line x1="492.61352784961736" y1="430.2109803664411" x2="497.8198420772558" y2="433.1165799217716" stroke-width="5" stroke="red" />
<line x1="492.61352784961736" y1="430.2109803664411" x2="492.49349188397065" y2="430.153046311749" stroke-width="5" stroke="red" />
<line x1="496.83515976076376" y1="554.0864984421514" x2="497.4314670587725" y2="553.7644150503057" stroke-width="5" stroke="red" />
<line x1="496.83515976076376" y1="554.0864984421514" x2="491.2875186857276" y2="557.3837138005697" stroke-width="5" stroke="red" />
<line x1="504.08418990729234" y1="436.6051911429597" x2="498.8773678000507" y2="433.7165619766566" stroke-width="5" stroke="red" />
<line x1="498.8773678000507" y1="433.7165619766566" x2="497.8198420772558" y2="433.1165799217716" stroke-width="5" stroke="red" />
<line x1="502.765577926605" y1="550.8935586686196" x2="503.680559701486" y2="550.4638736134748" stroke-width="5" stroke="red" />
<line x1="502.765577926605" y1="550.8935586686196" x2="497.4314670587725" y2="553.7644150503057" stroke-width="5" stroke="red" />
<line x1="505.18512278653844" y1="437.2388993285326" x2="504.08418990729234" y2="436.6051911429597" stroke-width="5" stroke="red" />
<line x1="505.18512278653844" y1="437.2388993285326" x2="505.9384831501264" y2="437.59618989220866" stroke-width="5" stroke="red" />
<line x1="508.8814355538961" y1="548.0297568475306" x2="510.03492077210603" y2="547.5699748003333" stroke-width="5" stroke="red" />
<line x1="508.8814355538961" y1="548.0297568475306" x2="503.680559701486" y2="550.4638736134748" stroke-width="5" stroke="red" />
<line x1="511.67105439273666" y1="440.3203097720156" x2="505.9384831501264" y2="437.59618989220866" stroke-width="5" stroke="red" />
<line x1="511.67105439273666" y1="440.3203097720156" x2="513.065683232427" y2="440.8760289888783" stroke-width="5" stroke="red" />
<line x1="515.1673154030713" y1="545.5305433053481" x2="516.4674531295831" y2="545.0985568887037" stroke-width="5" stroke="red" />
<line x1="515.1673154030713" y1="545.5305433053481" x2="510.03492077210603" y2="547.5699748003333" stroke-width="5" stroke="red" />
<line x1="518.3077716600138" y1="442.9704686083361" x2="513.065683232427" y2="440.8760289888783" stroke-width="5" stroke="red" />
<line x1="518.3077716600138" y1="442.9704686083361" x2="520.3176881331684" y2="443.6641918279091" stroke-width="5" stroke="red" />
<line x1="521.5944986955235" y1="543.3991087784202" x2="526.781406985282" y2="541.9478610142639" stroke-width="5" stroke="red" />
<line x1="521.5944986955235" y1="543.3991087784202" x2="516.4674531295831" y2="545.0985568887037" stroke-width="5" stroke="red" />
<line x1="525.0351273088892" y1="445.2977805287092" x2="520.3176881331684" y2="443.6641918279091" stroke-width="5" stroke="red" />
<line x1="525.0351273088892" y1="445.2977805287092" x2="527.6387044778318" y2="446.0848982867193" stroke-width="5" stroke="red" />
<line x1="528.1162436752154" y1="541.5740186825471" x2="533.4055546423122" y2="540.2552142347648" stroke-width="5" stroke="red" />
<line x1="528.1162436752154" y1="541.5740186825471" x2="526.781406985282" y2="541.9478610142639" stroke-width="5" stroke="red" />
<line x1="531.8249445201034" y1="447.355189148405" x2="527.6387044778318" y2="446.0848982867193" stroke-width="5" stroke="red" />
<line x1="531.8249445201034" y1="447.355189148405" x2="535.0029579260845" y2="448.1925292949357" stroke-width="5" stroke="red" />
<line x1="534.685307136414" y1="539.9362150161236" x2="540.0829271643292" y2="538.6731356051519" stroke-width="5" stroke="red" />
<line x1="534.685307136414" y1="539.9362150161236" x2="533.4055546423122" y2="540.2552142347648" stroke-width="5" stroke="red" />
<line x1="538.6626835579881" y1="449.16091702889906" x2="535.0029579260845" y2="448.1925292949357" stroke-width="5" stroke="red" />
<line x1="538.6626835579881" y1="449.16091702889906" x2="542.396358204679" y2="449.9891414916618" stroke-width="5" stroke="red" />
<line x1="541.2732132058585" y1="538.3949846300916" x2="546.7698575858606" y2="537.1186905076132" stroke-width="5" stroke="red" />
<line x1="541.2732132058585" y1="538.3949846300916" x2="540.0829271643292" y2="538.6731356051519" stroke-width="5" stroke="red" />
<line x1="545.5476699116558" y1="450.69172352525857" x2="542.396358204679" y2="449.9891414916618" stroke-width="5" stroke="red" />
<line x1="545.5476699116558" y1="450.69172352525857" x2="549.8025761130395" y2="451.5575633663906" stroke-width="5" stroke="red" />
<line x1="547.8596260266909" y1="536.8662827614772" x2="553.4067050471706" y2="535.4682009966338" stroke-width="5" stroke="red" />
<line x1="547.8596260266909" y1="536.8662827614772" x2="546.7698575858606" y2="537.1186905076132" stroke-width="5" stroke="red" />
<line x1="552.4394775993586" y1="452.09764601443027" x2="549.8025761130395" y2="451.5575633663906" stroke-width="5" stroke="red" />
<line x1="552.4394775993586" y1="452.09764601443027" x2="553.5610431558431" y2="452.3660687762164" stroke-width="5" stroke="red" />
<line x1="552.5794123332565" y1="486.55911655025875" x2="552.5982277323563" y2="485.46739926530955" stroke-width="5" stroke="red" />
<line x1="552.5794123332565" y1="486.55911655025875" x2="552.6035534861314" y2="487.3476908207969" stroke-width="5" stroke="red" />
<line x1="552.6141442225552" y1="484.76084272984" x2="552.5982277323563" y2="485.46739926530955" stroke-width="5" stroke="red" />
<line x1="552.6141442225552" y1="484.76084272984" x2="552.7033548599237" y2="483.58766147810803" stroke-width="5" stroke="red" />
<line x1="552.6389507088752" y1="488.35192440357525" x2="552.7073335834522" y2="489.2241727140616" stroke-width="5" stroke="red" />
<line x1="552.6389507088752" y1="488.35192440357525" x2="552.6035534861314" y2="487.3476908207969" stroke-width="5" stroke="red" />
<line x1="552.7538786812512" y1="482.96319336586225" x2="552.9245177117812" y2="481.7165185094275" stroke-width="5" stroke="red" />
<line x1="552.7538786812512" y1="482.96319336586225" x2="552.7033548599237" y2="483.58766147810803" stroke-width="5" stroke="red" />
<line x1="552.7831423168799" y1="490.13887757689605" x2="552.7073335834522" y2="489.2241727140616" stroke-width="5" stroke="red" />
<line x1="552.7831423168799" y1="490.13887757689605" x2="552.8991806691369" y2="491.09246270792386" stroke-width="5" stroke="red" />
<line x1="553.0026597377259" y1="491.9129078218064" x2="553.3938935319776" y2="494.0895006590532" stroke-width="5" stroke="red" />
<line x1="553.0026597377259" y1="491.9129078218064" x2="552.8991806691369" y2="491.09246270792386" stroke-width="5" stroke="red" />
<line x1="553.001750193085" y1="481.173214242118" x2="552.9245177117812" y2="481.7165185094275" stroke-width="5" stroke="red" />
<line x1="553.001750193085" y1="481.173214242118" x2="553.2556252999567" y2="479.86632002529024" stroke-width="5" stroke="red" />
<line x1="553.347926228825" y1="479.4035598888649" x2="553.6845435055478" y2="478.0382272257697" stroke-width="5" stroke="red" />
<line x1="553.347926228825" y1="479.4035598888649" x2="553.2556252999567" y2="479.86632002529024" stroke-width="5" stroke="red" />
<line x1="553.6373974467717" y1="495.41524969186673" x2="554.2561482591594" y2="497.9284841635773" stroke-width="5" stroke="red" />
<line x1="553.6373974467717" y1="495.41524969186673" x2="553.3938935319776" y2="494.0895006590532" stroke-width="5" stroke="red" />
<line x1="553.7822469741903" y1="477.6504115192771" x2="553.6845435055478" y2="478.0382272257697" stroke-width="5" stroke="red" />
<line x1="553.7822469741903" y1="477.6504115192771" x2="554.1981853975117" y2="476.23216287306764" stroke-width="5" stroke="red" />
<line x1="554.1530313368406" y1="452.5088362820531" x2="553.5610431558431" y2="452.3660687762164" stroke-width="5" stroke="red" />
<line x1="554.1530313368406" y1="452.5088362820531" x2="555.2949179251931" y2="452.8349228893668" stroke-width="5" stroke="red" />
<line x1="554.2926335728619" y1="475.91549676918714" x2="554.7847249156214" y2="474.44827142771027" stroke-width="5" stroke="red" />
<line x1="554.2926335728619" y1="475.91549676918714" x2="554.1981853975117" y2="476.23216287306764" stroke-width="5" stroke="red" />
<line x1="554.4150016418628" y1="535.2151299973085" x2="553.4067050471706" y2="535.4682009966338" stroke-width="5" stroke="red" />
<line x1="554.4150016418628" y1="535.2151299973085" x2="557.1627681702531" y2="534.3899703537313" stroke-width="5" stroke="red" />
<line x1="554.48672718353" y1="498.8518766710896" x2="554.2561482591594" y2="497.9284841635773" stroke-width="5" stroke="red" />
<line x1="554.48672718353" y1="498.8518766710896" x2="555.3468990303246" y2="501.6957518293913" stroke-width="5" stroke="red" />
<line x1="554.869592223536" y1="474.1988687269785" x2="554.7847249156214" y2="474.44827142771027" stroke-width="5" stroke="red" />
<line x1="554.869592223536" y1="474.1988687269785" x2="556.0711883677443" y2="471.089042805643" stroke-width="5" stroke="red" />
<line x1="555.5072376333663" y1="502.21976502350174" x2="557.1265411623107" y2="506.595099410134" stroke-width="5" stroke="red" />
<line x1="555.5072376333663" y1="502.21976502350174" x2="555.3468990303246" y2="501.6957518293913" stroke-width="5" stroke="red" />
<line x1="555.8452410405606" y1="452.99327918000444" x2="556.4185286055839" y2="453.1893986690863" stroke-width="5" stroke="red" />
<line x1="555.8452410405606" y1="452.99327918000444" x2="555.2949179251931" y2="452.8349228893668" stroke-width="5" stroke="red" />
<line x1="556.1738764180556" y1="470.82632130517925" x2="556.0711883677443" y2="471.089042805643" stroke-width="5" stroke="red" />
<line x1="556.6778323345449" y1="453.27874075791846" x2="556.4185286055839" y2="453.1893986690863" stroke-width="5" stroke="red" />
<line x1="556.6778323345449" y1="453.27874075791846" x2="557.2500706097758" y2="453.50715314190484" stroke-width="5" stroke="red" />
<line x1="557.4947591067122" y1="453.60559978013947" x2="557.7780738669395" y2="453.734992347162" stroke-width="5" stroke="red" />
<line x1="557.4947591067122" y1="453.60559978013947" x2="557.2500706097758" y2="453.50715314190484" stroke-width="5" stroke="red" />
<line x1="556.2711966238666" y1="470.60346853667045" x2="557.6112527760355" y2="467.49965932438795" stroke-width="5" stroke="red" />
<line x1="556.2711966238666" y1="470.60346853667045" x2="556.1738764180556" y2="470.82632130517925" stroke-width="5" stroke="red" />
<line x1="557.6555150118322" y1="534.2431081175812" x2="557.1627681702531" y2="534.3899703537313" stroke-width="5" stroke="red" />
<line x1="557.9242617290446" y1="508.8092291038814" x2="557.1265411623107" y2="506.595099410134" stroke-width="5" stroke="red" />
<line x1="557.9242617290446" y1="508.8092291038814" x2="558.1632466007476" y2="509.3780106062581" stroke-width="5" stroke="red" />
<line x1="557.8946665228317" y1="453.78871068055474" x2="557.7780738669395" y2="453.734992347162" stroke-width="5" stroke="red" />
<line x1="557.8946665228317" y1="453.78871068055474" x2="558.1751178340988" y2="453.930562134925" stroke-width="5" stroke="red" />
<line x1="558.2869196477367" y1="453.98758922872815" x2="558.5628846187348" y2="454.1440371119026" stroke-width="5" stroke="red" />
<line x1="558.2869196477367" y1="453.98758922872815" x2="558.1751178340988" y2="453.930562134925" stroke-width="5" stroke="red" />
<line x1="558.6692389370121" y1="454.20483301900987" x2="558.5628846187348" y2="454.1440371119026" stroke-width="5" stroke="red" />
<line x1="558.6692389370121" y1="454.20483301900987" x2="558.9384987569371" y2="454.3782298256268" stroke-width="5" stroke="red" />
<line x1="559.0387881432691" y1="454.4431697619239" x2="559.3024408582722" y2="454.6387484026622" stroke-width="5" stroke="red" />
<line x1="559.0387881432691" y1="454.4431697619239" x2="558.9384987569371" y2="454.3782298256268" stroke-width="5" stroke="red" />
<line x1="557.6218450116532" y1="467.47588862294054" x2="557.7893050099651" y2="467.09648542518704" stroke-width="5" stroke="red" />
<line x1="557.6218450116532" y1="467.47588862294054" x2="557.6112527760355" y2="467.49965932438795" stroke-width="5" stroke="red" />
<line x1="559.0782273336966" y1="464.2282257500649" x2="557.7893050099651" y2="467.09648542518704" stroke-width="5" stroke="red" />
<line x1="559.0782273336966" y1="464.2282257500649" x2="559.1181265449768" y2="464.1323701974827" stroke-width="5" stroke="red" />
<line x1="559.0061892517009" y1="533.765773607878" x2="559.2525866517366" y2="533.6796287265388" stroke-width="5" stroke="red" />
<line x1="559.0061892517009" y1="533.765773607878" x2="557.6555150118322" y2="534.2431081175812" stroke-width="5" stroke="red" />
<line x1="559.3964634177961" y1="454.7091497525425" x2="559.3024408582722" y2="454.6387484026622" stroke-width="5" stroke="red" />
<line x1="559.3964634177961" y1="454.7091497525425" x2="559.5232331200702" y2="454.8151380102048" stroke-width="5" stroke="red" />
<line x1="559.5675019782158" y1="454.85233223543133" x2="559.5232331200702" y2="454.8151380102048" stroke-width="5" stroke="red" />
<line x1="559.5675019782158" y1="454.85233223543133" x2="559.6909994167372" y2="454.9643439407316" stroke-width="5" stroke="red" />
<line x1="559.732825769981" y1="455.00276291871614" x2="559.850747724158" y2="455.1210591114314" stroke-width="5" stroke="red" />
<line x1="559.732825769981" y1="455.00276291871614" x2="559.6909994167372" y2="454.9643439407316" stroke-width="5" stroke="red" />
<line x1="559.771374489335" y1="462.5760368781028" x2="559.8270856612321" y2="462.42216599319045" stroke-width="5" stroke="red" />
<line x1="559.771374489335" y1="462.5760368781028" x2="559.1181265449768" y2="464.1323701974827" stroke-width="5" stroke="red" />
<line x1="559.8899815689077" y1="455.1607166489855" x2="559.850747724158" y2="455.1210591114314" stroke-width="5" stroke="red" />
<line x1="559.8899815689077" y1="455.1607166489855" x2="560.0034189812517" y2="455.2855560256785" stroke-width="5" stroke="red" />
<line x1="560.0401081986707" y1="455.3263985161202" x2="560.1472874042671" y2="455.4579292802571" stroke-width="5" stroke="red" />
<line x1="560.0401081986707" y1="455.3263985161202" x2="560.0034189812517" y2="455.2855560256785" stroke-width="5" stroke="red" />
<line x1="560.1813015541958" y1="455.4999204855184" x2="560.1472874042671" y2="455.4579292802571" stroke-width="5" stroke="red" />
<line x1="560.1813015541958" y1="455.4999204855184" x2="560.2815705859111" y2="455.63814795635363" stroke-width="5" stroke="red" />
<line x1="560.3124411607316" y1="455.68112304171245" x2="560.4051385581457" y2="455.8258863987057" stroke-width="5" stroke="red" />
<line x1="560.3124411607316" y1="455.68112304171245" x2="560.2815705859111" y2="455.63814795635363" stroke-width="5" stroke="red" />
<line x1="560.3866916271784" y1="460.89161585388524" x2="559.8270856612321" y2="462.42216599319045" stroke-width="5" stroke="red" />
<line x1="560.3866916271784" y1="460.89161585388524" x2="560.4182655524037" y2="460.7844039438754" stroke-width="5" stroke="red" />
<line x1="560.6555823802317" y1="515.2687868605615" x2="558.1632466007476" y2="509.3780106062581" stroke-width="5" stroke="red" />
<line x1="560.6555823802317" y1="515.2687868605615" x2="561.6577824554342" y2="517.5541575964181" stroke-width="5" stroke="red" />
<line x1="560.4329527604765" y1="455.86970524507757" x2="560.4051385581457" y2="455.8258863987057" stroke-width="5" stroke="red" />
<line x1="560.4329527604765" y1="455.86970524507757" x2="560.5173991526888" y2="456.020960853106" stroke-width="5" stroke="red" />
<line x1="560.5419101808036" y1="456.06547345067656" x2="560.6174140205958" y2="456.22286277671145" stroke-width="5" stroke="red" />
<line x1="560.5419101808036" y1="456.06547345067656" x2="560.5173991526888" y2="456.020960853106" stroke-width="5" stroke="red" />
<line x1="560.6387326435562" y1="456.26785323199186" x2="560.6174140205958" y2="456.22286277671145" stroke-width="5" stroke="red" />
<line x1="560.6387326435562" y1="456.26785323199186" x2="560.7045843861196" y2="456.4307386534734" stroke-width="5" stroke="red" />
<line x1="560.6427429462077" y1="460.0256260902131" x2="560.4182655524037" y2="460.7844039438754" stroke-width="5" stroke="red" />
<line x1="560.6427429462077" y1="460.0256260902131" x2="560.6577098820279" y2="459.96407010781707" stroke-width="5" stroke="red" />
<line x1="560.7226637315493" y1="456.4759477463351" x2="560.7787385904838" y2="456.6437868645849" stroke-width="5" stroke="red" />
<line x1="560.7226637315493" y1="456.4759477463351" x2="560.7045843861196" y2="456.4307386534734" stroke-width="5" stroke="red" />
<line x1="560.7509002985014" y1="459.5871049418555" x2="560.7643712066844" y2="459.52103657998504" stroke-width="5" stroke="red" />
<line x1="560.7509002985014" y1="459.5871049418555" x2="560.6577098820279" y2="459.96407010781707" stroke-width="5" stroke="red" />
<line x1="560.5677428877981" y1="533.1323252410391" x2="560.8174439842745" y2="533.0299577226634" stroke-width="5" stroke="red" />
<line x1="560.5677428877981" y1="533.1323252410391" x2="559.2525866517366" y2="533.6796287265388" stroke-width="5" stroke="red" />
<line x1="560.79370476151" y1="456.68898285924246" x2="560.7787385904838" y2="456.6437868645849" stroke-width="5" stroke="red" />
<line x1="560.79370476151" y1="456.68898285924246" x2="560.8398755937521" y2="456.8611888752314" stroke-width="5" stroke="red" />
<line x1="560.8411191015967" y1="459.1446613594631" x2="560.7643712066844" y2="459.52103657998504" stroke-width="5" stroke="red" />
<line x1="560.8411191015967" y1="459.1446613594631" x2="560.8519846873669" y2="459.07395942135474" stroke-width="5" stroke="red" />
<line x1="560.8517032008373" y1="456.90612580313245" x2="560.8878446822097" y2="457.0820251596449" stroke-width="5" stroke="red" />
<line x1="560.8517032008373" y1="456.90612580313245" x2="560.8398755937521" y2="456.8611888752314" stroke-width="5" stroke="red" />
<line x1="560.8969712881807" y1="457.1265080005846" x2="560.8878446822097" y2="457.0820251596449" stroke-width="5" stroke="red" />
<line x1="560.8969712881807" y1="457.1265080005846" x2="560.9235626001007" y2="457.30543967232524" stroke-width="5" stroke="red" />
<line x1="560.9100383157485" y1="458.69858495362075" x2="560.9171575311418" y2="458.62317463013443" stroke-width="5" stroke="red" />
<line x1="560.9100383157485" y1="458.69858495362075" x2="560.8519846873669" y2="459.07395942135474" stroke-width="5" stroke="red" />
<line x1="560.9299643837137" y1="457.3492580477315" x2="560.9475023697305" y2="457.53056157338864" stroke-width="5" stroke="red" />
<line x1="560.9299643837137" y1="457.3492580477315" x2="560.9235626001007" y2="457.30543967232524" stroke-width="5" stroke="red" />
<line x1="560.9514522646978" y1="457.5735431077079" x2="560.9475023697305" y2="457.53056157338864" stroke-width="5" stroke="red" />
<line x1="560.9514522646978" y1="457.5735431077079" x2="560.9592095036269" y2="457.7566201505607" stroke-width="5" stroke="red" />
<line x1="560.9518402646718" y1="458.24946814266576" x2="560.9171575311418" y2="458.62317463013443" stroke-width="5" stroke="red" />
<line x1="560.9518402646718" y1="458.24946814266576" x2="560.9534756833693" y2="458.20962224705835" stroke-width="5" stroke="red" />
<line x1="560.9609666659816" y1="457.7986270233623" x2="560.9613094896711" y2="457.98315975664656" stroke-width="5" stroke="red" />
<line x1="560.9609666659816" y1="457.7986270233623" x2="560.9592095036269" y2="457.7566201505607" stroke-width="5" stroke="red" />
<line x1="560.9612571877656" y1="458.02411844070684" x2="560.9613094896711" y2="457.98315975664656" stroke-width="5" stroke="red" />
<line x1="560.9612571877656" y1="458.02411844070684" x2="560.9534756833693" y2="458.20962224705835" stroke-width="5" stroke="red" />
<line x1="561.4687349168972" y1="532.7116076515018" x2="561.5968692157496" y2="532.6501642344743" stroke-width="5" stroke="red" />
<line x1="561.4687349168972" y1="532.7116076515018" x2="560.8174439842745" y2="533.0299577226634" stroke-width="5" stroke="red" />
<line x1="562.2226458461583" y1="532.2965723638913" x2="562.3517108305311" y2="532.2255625639264" stroke-width="5" stroke="red" />
<line x1="562.2226458461583" y1="532.2965723638913" x2="561.5968692157496" y2="532.6501642344743" stroke-width="5" stroke="red" />
<line x1="562.6529439882574" y1="532.0325006248851" x2="562.7169086284227" y2="531.9926719641542" stroke-width="5" stroke="red" />
<line x1="562.6529439882574" y1="532.0325006248851" x2="562.3517108305311" y2="532.2255625639264" stroke-width="5" stroke="red" />
<line x1="563.0061643200477" y1="531.7873795030788" x2="563.0699088408817" y2="531.7437647780492" stroke-width="5" stroke="red" />
<line x1="563.0061643200477" y1="531.7873795030788" x2="562.7169086284227" y2="531.9926719641542" stroke-width="5" stroke="red" />
<line x1="563.4423818358453" y1="521.6029711111688" x2="561.6577824554342" y2="517.5541575964181" stroke-width="5" stroke="red" />
<line x1="563.4423818358453" y1="521.6029711111688" x2="563.7800013581019" y2="522.4426504381904" stroke-width="5" stroke="red" />
<line x1="563.3458735253693" y1="531.5250160926541" x2="563.409005709303" y2="531.4769601918942" stroke-width="5" stroke="red" />
<line x1="563.3458735253693" y1="531.5250160926541" x2="563.0699088408817" y2="531.7437647780492" stroke-width="5" stroke="red" />
<line x1="563.6679212356466" y1="531.2438359507046" x2="563.7297290888051" y2="531.1905850497056" stroke-width="5" stroke="red" />
<line x1="563.6679212356466" y1="531.2438359507046" x2="563.409005709303" y2="531.4769601918942" stroke-width="5" stroke="red" />
<line x1="563.8522886955826" y1="531.0682955213621" x2="563.7297290888051" y2="531.1905850497056" stroke-width="5" stroke="red" />
<line x1="564.0848624014895" y1="523.1983377482366" x2="563.7800013581019" y2="522.4426504381904" stroke-width="5" stroke="red" />
<line x1="564.0848624014895" y1="523.1983377482366" x2="564.417068425176" y2="524.1486195753988" stroke-width="5" stroke="red" />
<line x1="563.9691569724928" y1="530.9425266799435" x2="563.8522886955826" y2="531.0682955213621" stroke-width="5" stroke="red" />
<line x1="563.9691569724928" y1="530.9425266799435" x2="564.0292815634723" y2="530.8832442998422" stroke-width="5" stroke="red" />
<line x1="564.0292815634723" y1="530.8832442998422" x2="564.0578169443916" y2="530.8516717748787" stroke-width="5" stroke="red" />
<line x1="564.169506004737" y1="530.7213965363902" x2="564.1971225344123" y2="530.6880419648361" stroke-width="5" stroke="red" />
<line x1="564.169506004737" y1="530.7213965363902" x2="564.0578169443916" y2="530.8516717748787" stroke-width="5" stroke="red" />
<line x1="564.3029241188381" y1="530.5539876444807" x2="564.1971225344123" y2="530.6880419648361" stroke-width="5" stroke="red" />
<line x1="564.3029241188381" y1="530.5539876444807" x2="564.3297537353236" y2="530.5187480063618" stroke-width="5" stroke="red" />
<line x1="564.4284892039351" y1="530.3810188525237" x2="564.4540452373074" y2="530.3438217023515" stroke-width="5" stroke="red" />
<line x1="564.4284892039351" y1="530.3810188525237" x2="564.3297537353236" y2="530.5187480063618" stroke-width="5" stroke="red" />
<line x1="564.5457521817951" y1="530.2025762637721" x2="564.4540452373074" y2="530.3438217023515" stroke-width="5" stroke="red" />
<line x1="564.5457521817951" y1="530.2025762637721" x2="564.570149356637" y2="530.1633380626104" stroke-width="5" stroke="red" />
<line x1="564.6513114062102" y1="524.8182111468035" x2="564.7994477067061" y2="525.3355274077737" stroke-width="5" stroke="red" />
<line x1="564.6513114062102" y1="524.8182111468035" x2="564.417068425176" y2="524.1486195753988" stroke-width="5" stroke="red" />
<line x1="564.6548733134917" y1="530.0188166046253" x2="564.6775762600961" y2="529.9774690562705" stroke-width="5" stroke="red" />
<line x1="564.6548733134917" y1="530.0188166046253" x2="564.570149356637" y2="530.1633380626104" stroke-width="5" stroke="red" />
<line x1="564.7541782804004" y1="529.8299137613495" x2="564.6775762600961" y2="529.9774690562705" stroke-width="5" stroke="red" />
<line x1="564.7541782804004" y1="529.8299137613495" x2="564.7754464704639" y2="529.7863997161368" stroke-width="5" stroke="red" />
<line x1="564.8866736715157" y1="525.6424390423108" x2="564.7994477067061" y2="525.3355274077737" stroke-width="5" stroke="red" />
<line x1="564.8866736715157" y1="525.6424390423108" x2="565.0084266377614" y2="526.1927548305473" stroke-width="5" stroke="red" />
<line x1="564.8445890918912" y1="529.6361348774888" x2="564.8638383892653" y2="529.5904658406132" stroke-width="5" stroke="red" />
<line x1="564.8445890918912" y1="529.6361348774888" x2="564.7754464704639" y2="529.7863997161368" stroke-width="5" stroke="red" />
<line x1="564.9244150073473" y1="529.4379420957482" x2="564.8638383892653" y2="529.5904658406132" stroke-width="5" stroke="red" />
<line x1="564.9244150073473" y1="529.4379420957482" x2="564.9417169232479" y2="529.3901386297516" stroke-width="5" stroke="red" />
<line x1="564.9938214107317" y1="529.2358723381591" x2="565.0090713613854" y2="529.18596411106" stroke-width="5" stroke="red" />
<line x1="564.9938214107317" y1="529.2358723381591" x2="564.9417169232479" y2="529.3901386297516" stroke-width="5" stroke="red" />
<line x1="565.0709827457835" y1="526.4793055131158" x2="565.1167841452193" y2="526.7659944068105" stroke-width="5" stroke="red" />
<line x1="565.0709827457835" y1="526.4793055131158" x2="565.0084266377614" y2="526.1927548305473" stroke-width="5" stroke="red" />
<line x1="565.0528056315619" y1="529.0304297222926" x2="565.0090713613854" y2="529.18596411106" stroke-width="5" stroke="red" />
<line x1="565.0528056315619" y1="529.0304297222926" x2="565.0657037653868" y2="528.9784967900353" stroke-width="5" stroke="red" />
<line x1="565.1378875926071" y1="526.9027779120732" x2="565.1167841452193" y2="526.7659944068105" stroke-width="5" stroke="red" />
<line x1="565.1378875926071" y1="526.9027779120732" x2="565.1693602598165" y2="527.1978611023926" stroke-width="5" stroke="red" />
<line x1="565.1017414961607" y1="528.8222727800174" x2="565.1123436591836" y2="528.7683730242219" stroke-width="5" stroke="red" />
<line x1="565.1017414961607" y1="528.8222727800174" x2="565.0657037653868" y2="528.9784967900353" stroke-width="5" stroke="red" />
<line x1="565.1402228736115" y1="528.6118850911213" x2="565.1123436591836" y2="528.7683730242219" stroke-width="5" stroke="red" />
<line x1="565.1402228736115" y1="528.6118850911213" x2="565.1483980192615" y2="528.556131356533" stroke-width="5" stroke="red" />
<line x1="565.1824313834032" y1="527.3293049249405" x2="565.1962780056809" y2="527.6321499709535" stroke-width="5" stroke="red" />
<line x1="565.1824313834032" y1="527.3293049249405" x2="565.1693602598165" y2="527.1978611023926" stroke-width="5" stroke="red" />
<line x1="565.1693566468895" y1="528.3999750946424" x2="565.1751648099737" y2="528.3424746361911" stroke-width="5" stroke="red" />
<line x1="565.1693566468895" y1="528.3999750946424" x2="565.1483980192615" y2="528.556131356533" stroke-width="5" stroke="red" />
<line x1="565.1887538381044" y1="528.1870426764604" x2="565.1751648099737" y2="528.3424746361911" stroke-width="5" stroke="red" />
<line x1="565.1887538381044" y1="528.1870426764604" x2="565.192066654155" y2="528.127617922365" stroke-width="5" stroke="red" />
<line x1="565.2009312221735" y1="527.7579675770208" x2="565.1962780056809" y2="527.6321499709535" stroke-width="5" stroke="red" />
<line x1="565.2009312221735" y1="527.7579675770208" x2="565.2000649558793" y2="527.9115782040469" stroke-width="5" stroke="red" />
<line x1="565.1989667708607" y1="527.9725974719445" x2="565.2000649558793" y2="527.9115782040469" stroke-width="5" stroke="red" />
<line x1="565.1989667708607" y1="527.9725974719445" x2="565.192066654155" y2="528.127617922365" stroke-width="5" stroke="red" />
</svg>
