<svg width="1005.8216363586872" height="994.1783636413129" xmlns="http://www.w3.org/2000/svg">
<line x1="445.0607742609908" y1="498.3325699872668" x2="445.1218152392023" y2="498.9292263724351" stroke-width="5" stroke="red" />
<line x1="445.0607742609908" y1="498.3325699872668" x2="445.0326443615574" y2="498.0326192559447" stroke-width="5" stroke="red" />
<line x1="445.14159025645665" y1="499.0601537251806" x2="445.19189565345096" y2="499.3755770616528" stroke-width="5" stroke="red" />
<line x1="445.14159025645665" y1="499.0601537251806" x2="445.1218152392023" y2="498.9292263724351" stroke-width="5" stroke="red" />
<line x1="445.0142822138518" y1="497.4772551151236" x2="445.0326443615574" y2="498.0326192559447" stroke-width="5" stroke="red" />
<line x1="445.0142822138518" y1="497.4772551151236" x2="445.0051770157013" y2="497.1346521510325" stroke-width="5" stroke="red" />
<line x1="445.2146990580662" y1="499.49476651922464" x2="445.27984118689807" y2="499.8196024002896" stroke-width="5" stroke="red" />
<line x1="445.2146990580662" y1="499.49476651922464" x2="445.19189565345096" y2="499.3755770616528" stroke-width="5" stroke="red" />
<line x1="445.3051149564367" y1="499.92682878661157" x2="445.3859286329297" y2="500.2604928548549" stroke-width="5" stroke="red" />
<line x1="445.3051149564367" y1="499.92682878661157" x2="445.27984118689807" y2="499.8196024002896" stroke-width="5" stroke="red" />
<line x1="445.02113150092237" y1="496.62590586536857" x2="445.0051770157013" y2="497.1346521510325" stroke-width="5" stroke="red" />
<line x1="445.02113150092237" y1="496.62590586536857" x2="445.03546393572367" y2="496.2465743960519" stroke-width="5" stroke="red" />
<line x1="445.03546393572367" y1="496.2465743960519" x2="445.07779736270305" y2="495.83508094860656" stroke-width="5" stroke="red" />
<line x1="445.41234201891075" y1="500.3556564804379" x2="445.51029284287216" y2="500.697403462925" stroke-width="5" stroke="red" />
<line x1="445.41234201891075" y1="500.3556564804379" x2="445.3859286329297" y2="500.2604928548549" stroke-width="5" stroke="red" />
<line x1="445.5370675486467" y1="500.780474381417" x2="445.6530487705662" y2="501.12943436507453" stroke-width="5" stroke="red" />
<line x1="445.5370675486467" y1="500.780474381417" x2="445.51029284287216" y2="500.697403462925" stroke-width="5" stroke="red" />
<line x1="445.12294955936864" y1="495.36579713875915" x2="445.07779736270305" y2="495.83508094860656" stroke-width="5" stroke="red" />
<line x1="445.12294955936864" y1="495.36579713875915" x2="445.19804090467215" y2="494.91888282164354" stroke-width="5" stroke="red" />
<line x1="445.67922849635875" y1="501.20046203604994" x2="445.8134630731313" y2="501.5559384923952" stroke-width="5" stroke="red" />
<line x1="445.67922849635875" y1="501.20046203604994" x2="445.6530487705662" y2="501.12943436507453" stroke-width="5" stroke="red" />
<line x1="445.8379917593583" y1="501.6150938641237" x2="445.9906486490953" y2="501.97613787437314" stroke-width="5" stroke="red" />
<line x1="445.8379917593583" y1="501.6150938641237" x2="445.8134630731313" y2="501.5559384923952" stroke-width="5" stroke="red" />
<line x1="445.2661969780991" y1="494.4961694116828" x2="445.19804090467215" y2="494.91888282164354" stroke-width="5" stroke="red" />
<line x1="445.2661969780991" y1="494.4961694116828" x2="445.3794253760292" y2="494.018820970999" stroke-width="5" stroke="red" />
<line x1="446.0125416047532" y1="502.0236581363112" x2="446.18440332954276" y2="502.3895745480246" stroke-width="5" stroke="red" />
<line x1="446.0125416047532" y1="502.0236581363112" x2="445.9906486490953" y2="501.97613787437314" stroke-width="5" stroke="red" />
<line x1="446.2214323830795" y1="502.45965702879033" x2="446.61615719850505" y2="503.194821849358" stroke-width="5" stroke="red" />
<line x1="446.2214323830795" y1="502.45965702879033" x2="446.18440332954276" y2="502.3895745480246" stroke-width="5" stroke="red" />
<line x1="445.4666143408562" y1="493.64152446292286" x2="445.3794253760292" y2="494.018820970999" stroke-width="5" stroke="red" />
<line x1="445.4666143408562" y1="493.64152446292286" x2="445.62123625191646" y2="493.1390952107107" stroke-width="5" stroke="red" />
<line x1="445.7215132606594" y1="492.8053379393455" x2="445.62123625191646" y2="493.1390952107107" stroke-width="5" stroke="red" />
<line x1="445.7215132606594" y1="492.8053379393455" x2="445.9201015521017" y2="492.2832063073173" stroke-width="5" stroke="red" />
<line x1="446.6337544937679" y1="503.22335439405896" x2="446.9731313891529" y2="503.76740733592186" stroke-width="5" stroke="red" />
<line x1="446.6337544937679" y1="503.22335439405896" x2="446.61615719850505" y2="503.194821849358" stroke-width="5" stroke="red" />
<line x1="446.02941167056827" y1="491.99055852966484" x2="445.9201015521017" y2="492.2832063073173" stroke-width="5" stroke="red" />
<line x1="446.02941167056827" y1="491.99055852966484" x2="446.2727845185885" y2="491.4539830058012" stroke-width="5" stroke="red" />
<line x1="446.38630387565684" y1="491.1995700817874" x2="446.2727845185885" y2="491.4539830058012" stroke-width="5" stroke="red" />
<line x1="446.38630387565684" y1="491.1995700817874" x2="446.67500048131365" y2="490.65322600452726" stroke-width="5" stroke="red" />
<line x1="446.7891683143874" y1="490.4338400215201" x2="446.67500048131365" y2="490.65322600452726" stroke-width="5" stroke="red" />
<line x1="446.7891683143874" y1="490.4338400215201" x2="447.11879353929805" y2="489.8877862972776" stroke-width="5" stroke="red" />
<line x1="447.0956214911906" y1="503.962982865087" x2="447.10220184540293" y2="503.9733348270175" stroke-width="5" stroke="red" />
<line x1="447.0956214911906" y1="503.962982865087" x2="446.9731313891529" y2="503.76740733592186" stroke-width="5" stroke="red" />
<line x1="447.22953332810874" y1="489.7019216557374" x2="447.11879353929805" y2="489.8877862972776" stroke-width="5" stroke="red" />
<line x1="447.22953332810874" y1="489.7019216557374" x2="447.6008860946814" y2="489.15395682803313" stroke-width="5" stroke="red" />
<line x1="447.60223929178443" y1="504.67927518859744" x2="447.6359333360113" y2="504.7263465689994" stroke-width="5" stroke="red" />
<line x1="447.60223929178443" y1="504.67927518859744" x2="447.10220184540293" y2="503.9733348270175" stroke-width="5" stroke="red" />
<line x1="447.70670833021063" y1="488.9960062025942" x2="447.6008860946814" y2="489.15395682803313" stroke-width="5" stroke="red" />
<line x1="447.70670833021063" y1="488.9960062025942" x2="448.1183607931177" y2="488.4490904361228" stroke-width="5" stroke="red" />
<line x1="447.6359333360113" y1="504.7263465689994" x2="447.67590004846824" y2="504.7768938519679" stroke-width="5" stroke="red" />
<line x1="448.21764017164355" y1="488.3160480517808" x2="448.1183607931177" y2="488.4490904361228" stroke-width="5" stroke="red" />
<line x1="448.21764017164355" y1="488.3160480517808" x2="448.66770806169535" y2="487.77248809577287" stroke-width="5" stroke="red" />
<line x1="448.28050143284423" y1="505.5417716882118" x2="447.67590004846824" y2="504.7768938519679" stroke-width="5" stroke="red" />
<line x1="448.53199494515684" y1="505.8389836070049" x2="448.8731528790166" y2="506.23534835036196" stroke-width="5" stroke="red" />
<line x1="448.53199494515684" y1="505.8389836070049" x2="448.28050143284423" y2="505.5417716882118" stroke-width="5" stroke="red" />
<line x1="448.75879746345345" y1="487.66149847918956" x2="448.66770806169535" y2="487.77248809577287" stroke-width="5" stroke="red" />
<line x1="448.75879746345345" y1="487.66149847918956" x2="449.7746632939368" y2="486.5813051428309" stroke-width="5" stroke="red" />
<line x1="449.11970968136245" y1="506.50643813632087" x2="449.4887846852278" y2="506.9064308827434" stroke-width="5" stroke="red" />
<line x1="449.11970968136245" y1="506.50643813632087" x2="448.8731528790166" y2="506.23534835036196" stroke-width="5" stroke="red" />
<line x1="450.4072219830049" y1="507.80865506584837" x2="452.08333582194626" y2="509.4390884819722" stroke-width="5" stroke="red" />
<line x1="450.4072219830049" y1="507.80865506584837" x2="449.4887846852278" y2="506.9064308827434" stroke-width="5" stroke="red" />
<line x1="449.92004570451064" y1="486.4254701891546" x2="449.7746632939368" y2="486.5813051428309" stroke-width="5" stroke="red" />
<line x1="449.92004570451064" y1="486.4254701891546" x2="451.06017155017145" y2="485.3726431206588" stroke-width="5" stroke="red" />
<line x1="451.16453824791375" y1="485.2756458395796" x2="451.06017155017145" y2="485.3726431206588" stroke-width="5" stroke="red" />
<line x1="451.16453824791375" y1="485.2756458395796" x2="453.7524319318125" y2="483.19431507159993" stroke-width="5" stroke="red" />
<line x1="453.3742170092801" y1="510.64874773622273" x2="457.33108713340215" y2="514.3371331091096" stroke-width="5" stroke="red" />
<line x1="453.3742170092801" y1="510.64874773622273" x2="452.08333582194626" y2="509.4390884819722" stroke-width="5" stroke="red" />
<line x1="453.7919817132124" y1="483.16238583902424" x2="453.7524319318125" y2="483.19431507159993" stroke-width="5" stroke="red" />
<line x1="453.7919817132124" y1="483.16238583902424" x2="454.4483582694522" y2="482.68666270695866" stroke-width="5" stroke="red" />
<line x1="456.5306642171376" y1="481.1935548062322" x2="456.8179156011881" y2="480.99595768285326" stroke-width="5" stroke="red" />
<line x1="456.5306642171376" y1="481.1935548062322" x2="454.4483582694522" y2="482.68666270695866" stroke-width="5" stroke="red" />
<line x1="457.54989854859866" y1="514.5591453501909" x2="459.67546613703365" y2="516.7091214904817" stroke-width="5" stroke="red" />
<line x1="457.54989854859866" y1="514.5591453501909" x2="457.33108713340215" y2="514.3371331091096" stroke-width="5" stroke="red" />
<line x1="459.8275829517727" y1="516.863927017621" x2="459.84241694651234" y2="516.879022078799" stroke-width="5" stroke="red" />
<line x1="459.8275829517727" y1="516.863927017621" x2="459.67546613703365" y2="516.7091214904817" stroke-width="5" stroke="red" />
<line x1="462.09513999925446" y1="477.36463113057397" x2="456.8179156011881" y2="480.99595768285326" stroke-width="5" stroke="red" />
<line x1="462.09513999925446" y1="477.36463113057397" x2="463.08446877168893" y2="476.6265628584835" stroke-width="5" stroke="red" />
<line x1="462.0396180912158" y1="519.326529766601" x2="462.2749981495351" y2="519.5887558101255" stroke-width="5" stroke="red" />
<line x1="462.0396180912158" y1="519.326529766601" x2="459.84241694651234" y2="516.879022078799" stroke-width="5" stroke="red" />
<line x1="464.11803840210257" y1="521.8712708989761" x2="464.55229505082093" y2="522.4089242808328" stroke-width="5" stroke="red" />
<line x1="464.11803840210257" y1="521.8712708989761" x2="462.2749981495351" y2="519.5887558101255" stroke-width="5" stroke="red" />
<line x1="466.04866140291074" y1="524.491591930182" x2="466.65213257594843" y2="525.330913444732" stroke-width="5" stroke="red" />
<line x1="466.04866140291074" y1="524.491591930182" x2="464.55229505082093" y2="522.4089242808328" stroke-width="5" stroke="red" />
<line x1="467.52926028479317" y1="473.31255309851116" x2="463.08446877168893" y2="476.6265628584835" stroke-width="5" stroke="red" />
<line x1="467.52926028479317" y1="473.31255309851116" x2="468.32121640614804" y2="472.61367500003627" stroke-width="5" stroke="red" />
<line x1="467.8248871953617" y1="527.1824555664809" x2="468.5651467670996" y2="528.3491116036515" stroke-width="5" stroke="red" />
<line x1="467.8248871953617" y1="527.1824555664809" x2="466.65213257594843" y2="525.330913444732" stroke-width="5" stroke="red" />
<line x1="469.44369388364873" y1="529.9319587265187" x2="470.2848198569753" y2="531.4424903939657" stroke-width="5" stroke="red" />
<line x1="469.44369388364873" y1="529.9319587265187" x2="468.5651467670996" y2="528.3491116036515" stroke-width="5" stroke="red" />
<line x1="470.0883118748673" y1="471.0559028564306" x2="468.32121640614804" y2="472.61367500003627" stroke-width="5" stroke="red" />
<line x1="470.0883118748673" y1="471.0559028564306" x2="470.5482962962792" y2="470.59672606385976" stroke-width="5" stroke="red" />
<line x1="470.91767496757325" y1="532.7237221583549" x2="471.8412516932793" y2="534.5852441983918" stroke-width="5" stroke="red" />
<line x1="470.91767496757325" y1="532.7237221583549" x2="470.2848198569753" y2="531.4424903939657" stroke-width="5" stroke="red" />
<line x1="471.30087431000857" y1="469.8467232667645" x2="470.5482962962792" y2="470.59672606385976" stroke-width="5" stroke="red" />
<line x1="471.30087431000857" y1="469.8467232667645" x2="471.79614294736774" y2="469.3072630131913" stroke-width="5" stroke="red" />
<line x1="472.26971659565277" y1="535.5397674312202" x2="473.26877147694853" y2="537.7499303008684" stroke-width="5" stroke="red" />
<line x1="472.26971659565277" y1="535.5397674312202" x2="471.8412516932793" y2="534.5852441983918" stroke-width="5" stroke="red" />
<line x1="472.4625714325648" y1="468.5821268879481" x2="472.9931039047729" y2="467.94984597557493" stroke-width="5" stroke="red" />
<line x1="472.4625714325648" y1="468.5821268879481" x2="471.79614294736774" y2="469.3072630131913" stroke-width="5" stroke="red" />
<line x1="473.26877147694853" y1="537.7499303008684" x2="475.5238865039875" y2="543.3250536944147" stroke-width="5" stroke="red" />
<line x1="473.57448357878553" y1="467.257705587972" x2="472.9931039047729" y2="467.94984597557493" stroke-width="5" stroke="red" />
<line x1="474.0701253552081" y1="466.6103728765687" x2="473.57448357878553" y2="467.257705587972" stroke-width="5" stroke="red" />
<line x1="474.0701253552081" y1="466.6103728765687" x2="474.62926433575217" y2="465.87926728945223" stroke-width="5" stroke="red" />
<line x1="475.044771383941" y1="465.2821537584276" x2="474.62926433575217" y2="465.87926728945223" stroke-width="5" stroke="red" />
<line x1="475.044771383941" y1="465.2821537584276" x2="475.6239690368046" y2="464.44889662512287" stroke-width="5" stroke="red" />
<line x1="475.7843245703935" y1="543.9635645569487" x2="475.8434871204591" y2="544.1077140393953" stroke-width="5" stroke="red" />
<line x1="475.7843245703935" y1="543.9635645569487" x2="475.5238865039875" y2="543.3250536944147" stroke-width="5" stroke="red" />
<line x1="475.9629764628825" y1="463.91226961100745" x2="475.6239690368046" y2="464.44889662512287" stroke-width="5" stroke="red" />
<line x1="475.9629764628825" y1="463.91226961100745" x2="476.55796617444594" y2="462.96945172329583" stroke-width="5" stroke="red" />
<line x1="476.8256344377204" y1="462.501629896459" x2="476.55796617444594" y2="462.96945172329583" stroke-width="5" stroke="red" />
<line x1="476.8256344377204" y1="462.501629896459" x2="477.4334363127022" y2="461.43831560484864" stroke-width="5" stroke="red" />
<line x1="475.8434871204591" y1="544.1077140393953" x2="475.9311154325008" y2="544.3444340578693" stroke-width="5" stroke="red" />
<line x1="477.6339128250706" y1="461.0513049840556" x2="477.4334363127022" y2="461.43831560484864" stroke-width="5" stroke="red" />
<line x1="477.6339128250706" y1="461.0513049840556" x2="478.2477355437769" y2="459.8652067300222" stroke-width="5" stroke="red" />
<line x1="478.21575583587344" y1="550.5478245539032" x2="478.97589024780194" y2="552.723422263876" stroke-width="5" stroke="red" />
<line x1="478.21575583587344" y1="550.5478245539032" x2="475.9311154325008" y2="544.3444340578693" stroke-width="5" stroke="red" />
<line x1="478.4989683081265" y1="459.30300491174404" x2="478.2477355437769" y2="459.8652067300222" stroke-width="5" stroke="red" />
<line x1="478.4989683081265" y1="459.30300491174404" x2="479.70176633191716" y2="456.61023750617915" stroke-width="5" stroke="red" />
<line x1="480.86688749401947" y1="453.4880477660381" x2="480.2284966436179" y2="455.17997027308405" stroke-width="5" stroke="red" />
<line x1="480.86688749401947" y1="453.4880477660381" x2="480.9562473881791" y2="453.2511023890596" stroke-width="5" stroke="red" />
<line x1="480.42607048932655" y1="556.9004952931267" x2="481.8691698094059" y2="560.9705438062562" stroke-width="5" stroke="red" />
<line x1="480.42607048932655" y1="556.9004952931267" x2="478.97589024780194" y2="552.723422263876" stroke-width="5" stroke="red" />
<line x1="479.7677439792732" y1="456.4313047937829" x2="479.70176633191716" y2="456.61023750617915" stroke-width="5" stroke="red" />
<line x1="479.7677439792732" y1="456.4313047937829" x2="480.2284966436179" y2="455.17997027308405" stroke-width="5" stroke="red" />
<line x1="481.8380968867721" y1="450.50186570346983" x2="480.9562473881791" y2="453.2511023890596" stroke-width="5" stroke="red" />
<line x1="481.8380968867721" y1="450.50186570346983" x2="482.053541263481" y2="449.82968824105467" stroke-width="5" stroke="red" />
<line x1="482.6266482318908" y1="563.1214541740312" x2="481.8691698094059" y2="560.9705438062562" stroke-width="5" stroke="red" />
<line x1="482.6266482318908" y1="563.1214541740312" x2="483.6492317019442" y2="565.6450605679713" stroke-width="5" stroke="red" />
<line x1="482.76255875734455" y1="447.4859177534101" x2="482.053541263481" y2="449.82968824105467" stroke-width="5" stroke="red" />
<line x1="482.76255875734455" y1="447.4859177534101" x2="483.09931344491895" y2="446.37468349064136" stroke-width="5" stroke="red" />
<line x1="483.84742896080706" y1="566.1374445376516" x2="483.6492317019442" y2="565.6450605679713" stroke-width="5" stroke="red" />
<line x1="483.84742896080706" y1="566.1374445376516" x2="484.15913442929076" y2="566.7825668374826" stroke-width="5" stroke="red" />
<line x1="484.20035873049216" y1="566.868440023726" x2="484.15913442929076" y2="566.7825668374826" stroke-width="5" stroke="red" />
<line x1="484.20035873049216" y1="566.868440023726" x2="484.3731359124254" y2="567.1903236002345" stroke-width="5" stroke="red" />
<line x1="484.39226799383215" y1="567.2262349896833" x2="484.5821336185332" y2="567.5463685511469" stroke-width="5" stroke="red" />
<line x1="484.39226799383215" y1="567.2262349896833" x2="484.3731359124254" y2="567.1903236002345" stroke-width="5" stroke="red" />
<line x1="483.74411059063885" y1="444.4706219453868" x2="483.09931344491895" y2="446.37468349064136" stroke-width="5" stroke="red" />
<line x1="483.74411059063885" y1="444.4706219453868" x2="484.25956064909826" y2="442.95279173554724" stroke-width="5" stroke="red" />
<line x1="484.5996648240665" y1="567.5761208990191" x2="484.5821336185332" y2="567.5463685511469" stroke-width="5" stroke="red" />
<line x1="484.5996648240665" y1="567.5761208990191" x2="484.8103595742992" y2="567.8908790176108" stroke-width="5" stroke="red" />
<line x1="484.82609013773265" y1="567.9145241025345" x2="484.8103595742992" y2="567.8908790176108" stroke-width="5" stroke="red" />
<line x1="484.82609013773265" y1="567.9145241025345" x2="484.941216940315" y2="568.0675328333192" stroke-width="5" stroke="red" />
<line x1="484.9487779095764" y1="568.0776418237267" x2="485.0709166451869" y2="568.2268112297019" stroke-width="5" stroke="red" />
<line x1="484.9487779095764" y1="568.0776418237267" x2="484.941216940315" y2="568.0675328333192" stroke-width="5" stroke="red" />
<line x1="485.0780041269129" y1="568.235434442528" x2="485.0709166451869" y2="568.2268112297019" stroke-width="5" stroke="red" />
<line x1="485.0780041269129" y1="568.235434442528" x2="485.20931319407754" y2="568.3796848793558" stroke-width="5" stroke="red" />
<line x1="485.2158318740875" y1="568.3868748826065" x2="485.3562831846587" y2="568.5247699299232" stroke-width="5" stroke="red" />
<line x1="485.2158318740875" y1="568.3868748826065" x2="485.20931319407754" y2="568.3796848793558" stroke-width="5" stroke="red" />
<line x1="484.5868198679706" y1="442.1808400704142" x2="484.25956064909826" y2="442.95279173554724" stroke-width="5" stroke="red" />
<line x1="484.7598156369966" y1="441.7509339198377" x2="484.9608318219387" y2="441.30277166824453" stroke-width="5" stroke="red" />
<line x1="484.5868198679706" y1="442.1808400704142" x2="484.7598156369966" y2="441.7509339198377" stroke-width="5" stroke="red" />
<line x1="485.36217630373375" y1="568.5305896055089" x2="485.3562831846587" y2="568.5247699299232" stroke-width="5" stroke="red" />
<line x1="485.3683461158435" y1="568.5359568120759" x2="485.5169208663395" y2="568.6648394621204" stroke-width="5" stroke="red" />
<line x1="485.3683461158435" y1="568.5359568120759" x2="485.36217630373375" y2="568.5305896055089" stroke-width="5" stroke="red" />
<line x1="485.52236295132496" y1="568.6689456178844" x2="485.6808240611289" y2="568.7879411145146" stroke-width="5" stroke="red" />
<line x1="485.52236295132496" y1="568.6689456178844" x2="485.5169208663395" y2="568.6648394621204" stroke-width="5" stroke="red" />
<line x1="485.68535547970635" y1="568.7908683958403" x2="485.6808240611289" y2="568.7879411145146" stroke-width="5" stroke="red" />
<line x1="485.68535547970635" y1="568.7908683958403" x2="485.84906195389556" y2="568.8966282705721" stroke-width="5" stroke="red" />
<line x1="485.13157710251" y1="440.96630642598024" x2="484.9608318219387" y2="441.30277166824453" stroke-width="5" stroke="red" />
<line x1="485.13157710251" y1="440.96630642598024" x2="485.366440456572" y2="440.50666830949604" stroke-width="5" stroke="red" />
<line x1="485.85276309768886" y1="568.898665212953" x2="486.02401798390457" y2="568.9927951585224" stroke-width="5" stroke="red" />
<line x1="485.85276309768886" y1="568.898665212953" x2="485.84906195389556" y2="568.8966282705721" stroke-width="5" stroke="red" />
<line x1="486.02687546332805" y1="568.994101263588" x2="486.2054098130661" y2="569.075880791549" stroke-width="5" stroke="red" />
<line x1="486.02687546332805" y1="568.994101263588" x2="486.02401798390457" y2="568.9927951585224" stroke-width="5" stroke="red" />
<line x1="485.454808615376" y1="440.3518238382139" x2="485.366440456572" y2="440.50666830949604" stroke-width="5" stroke="red" />
<line x1="485.454808615376" y1="440.3518238382139" x2="485.588053098346" y2="440.12012056894076" stroke-width="5" stroke="red" />
<line x1="486.2073938053277" y1="569.0766277096943" x2="486.391687263029" y2="569.145823701658" stroke-width="5" stroke="red" />
<line x1="486.2073938053277" y1="569.0766277096943" x2="486.2054098130661" y2="569.075880791549" stroke-width="5" stroke="red" />
<line x1="485.67931267987655" y1="439.97428779802186" x2="485.588053098346" y2="440.12012056894076" stroke-width="5" stroke="red" />
<line x1="485.67931267987655" y1="439.97428779802186" x2="485.8246884756408" y2="439.7435852823276" stroke-width="5" stroke="red" />
<line x1="486.39284173873364" y1="569.1461677918213" x2="486.5813224120112" y2="569.2026415857222" stroke-width="5" stroke="red" />
<line x1="486.39284173873364" y1="569.1461677918213" x2="486.391687263029" y2="569.145823701658" stroke-width="5" stroke="red" />
<line x1="486.58168461450106" y1="569.2027243740207" x2="486.67790911939693" y2="569.2247295561085" stroke-width="5" stroke="red" />
<line x1="486.58168461450106" y1="569.2027243740207" x2="486.5813224120112" y2="569.2026415857222" stroke-width="5" stroke="red" />
<line x1="485.9189416563602" y1="439.6071826792648" x2="485.8246884756408" y2="439.7435852823276" stroke-width="5" stroke="red" />
<line x1="485.9189416563602" y1="439.6071826792648" x2="486.0776932910388" y2="439.3796421720781" stroke-width="5" stroke="red" />
<line x1="486.17564721332485" y1="439.25324087407574" x2="486.0776932910388" y2="439.3796421720781" stroke-width="5" stroke="red" />
<line x1="486.17564721332485" y1="439.25324087407574" x2="486.34901259683545" y2="439.03155951407496" stroke-width="5" stroke="red" />
<line x1="486.45165409543597" y1="438.9157658314512" x2="486.34901259683545" y2="439.03155951407496" stroke-width="5" stroke="red" />
<line x1="486.45165409543597" y1="438.9157658314512" x2="486.64182472689066" y2="438.7031917483683" stroke-width="5" stroke="red" />
<line x1="486.6947433816844" y1="438.64967099131303" x2="486.64182472689066" y2="438.7031917483683" stroke-width="5" stroke="red" />
<line x1="486.6947433816844" y1="438.64967099131303" x2="486.7969994842065" y2="438.5479916108018" stroke-width="5" stroke="red" />
<line x1="486.85142420962194" y1="438.497474142031" x2="486.7969994842065" y2="438.5479916108018" stroke-width="5" stroke="red" />
<line x1="486.85142420962194" y1="438.497474142031" x2="486.9580770169064" y2="438.3996959292471" stroke-width="5" stroke="red" />
<line x1="487.01377271115246" y1="438.35234326827543" x2="486.9580770169064" y2="438.3996959292471" stroke-width="5" stroke="red" />
<line x1="487.01377271115246" y1="438.35234326827543" x2="487.12481772300595" y2="438.25910750686535" stroke-width="5" stroke="red" />
<line x1="487.18207624535404" y1="438.2150729759825" x2="487.12481772300595" y2="438.25910750686535" stroke-width="5" stroke="red" />
<line x1="487.18207624535404" y1="438.2150729759825" x2="487.29851932783305" y2="438.1271585894648" stroke-width="5" stroke="red" />
<line x1="487.35714046299427" y1="438.08663922803817" x2="487.29851932783305" y2="438.1271585894648" stroke-width="5" stroke="red" />
<line x1="487.35714046299427" y1="438.08663922803817" x2="487.4779456582444" y2="438.00476563690705" stroke-width="5" stroke="red" />
<line x1="487.5382477551719" y1="437.9679310943478" x2="487.4779456582444" y2="438.00476563690705" stroke-width="5" stroke="red" />
<line x1="487.5382477551719" y1="437.9679310943478" x2="487.66337107508065" y2="437.8927968364338" stroke-width="5" stroke="red" />
<line x1="487.725182873235" y1="437.85975735666653" x2="487.66337107508065" y2="437.8927968364338" stroke-width="5" stroke="red" />
<line x1="487.725182873235" y1="437.85975735666653" x2="487.8550704737974" y2="437.7919327148047" stroke-width="5" stroke="red" />
<line x1="487.9182416461588" y1="437.7628287071334" x2="487.8550704737974" y2="437.7919327148047" stroke-width="5" stroke="red" />
<line x1="487.9182416461588" y1="437.7628287071334" x2="488.05178980699975" y2="437.7029289925784" stroke-width="5" stroke="red" />
<line x1="488.1166754634291" y1="437.6778823647078" x2="488.05178980699975" y2="437.7029289925784" stroke-width="5" stroke="red" />
<line x1="488.1166754634291" y1="437.6778823647078" x2="488.2537833592367" y2="437.6264041847141" stroke-width="5" stroke="red" />
<line x1="488.2537833592367" y1="437.6264041847141" x2="488.3197660940821" y2="437.6054672571614" stroke-width="5" stroke="red" />
<line x1="488.4598031557307" y1="437.5626750110412" x2="488.3197660940821" y2="437.6054672571614" stroke-width="5" stroke="red" />
<line x1="488.4598031557307" y1="437.5626750110412" x2="488.5269980336082" y2="437.54577872516694" stroke-width="5" stroke="red" />
<line x1="488.669305438004" y1="437.51164918915924" x2="488.5269980336082" y2="437.54577872516694" stroke-width="5" stroke="red" />
<line x1="488.669305438004" y1="437.51164918915924" x2="488.7373380971533" y2="437.49865009916095" stroke-width="5" stroke="red" />
<line x1="488.8807464755384" y1="437.4728159280201" x2="488.7373380971533" y2="437.49865009916095" stroke-width="5" stroke="red" />
<line x1="488.8807464755384" y1="437.4728159280201" x2="488.9499751786852" y2="437.4636161935782" stroke-width="5" stroke="red" />
<line x1="486.7742443625778" y1="569.2479265564548" x2="486.77457520759543" y2="569.2480068661232" stroke-width="5" stroke="red" />
<line x1="486.7742443625778" y1="569.2479265564548" x2="486.67790911939693" y2="569.2247295561085" stroke-width="5" stroke="red" />
<line x1="486.9689993005232" y1="569.2821985133477" x2="486.96992767380556" y2="569.2823632553723" stroke-width="5" stroke="red" />
<line x1="486.9689993005232" y1="569.2821985133477" x2="486.77457520759543" y2="569.2480068661232" stroke-width="5" stroke="red" />
<line x1="489.09485980924813" y1="437.44586836649074" x2="488.9499751786852" y2="437.4636161935782" stroke-width="5" stroke="red" />
<line x1="489.09485980924813" y1="437.44586836649074" x2="489.16514883721237" y2="437.44032950064354" stroke-width="5" stroke="red" />
<line x1="487.16420454562393" y1="569.3050093311732" x2="487.1656642754485" y2="569.305180595669" stroke-width="5" stroke="red" />
<line x1="487.16420454562393" y1="569.3050093311732" x2="486.96992767380556" y2="569.2823632553723" stroke-width="5" stroke="red" />
<line x1="489.3103462143107" y1="437.43024287041663" x2="489.16514883721237" y2="437.44032950064354" stroke-width="5" stroke="red" />
<line x1="489.45502462942414" y1="437.42740460210814" x2="489.3103462143107" y2="437.43024287041663" stroke-width="5" stroke="red" />
<line x1="489.45502462942414" y1="437.42740460210814" x2="489.5264238619392" y2="437.42535484499945" stroke-width="5" stroke="red" />
<line x1="487.35993120420596" y1="569.3171586966513" x2="487.3618452753343" y2="569.3172786637078" stroke-width="5" stroke="red" />
<line x1="487.35993120420596" y1="569.3171586966513" x2="487.1656642754485" y2="569.305180595669" stroke-width="5" stroke="red" />
<line x1="489.67114203508135" y1="437.42915255182754" x2="489.5264238619392" y2="437.42535484499945" stroke-width="5" stroke="red" />
<line x1="489.67114203508135" y1="437.42915255182754" x2="489.7430618248039" y2="437.43045231650166" stroke-width="5" stroke="red" />
<line x1="487.55473411634154" y1="569.319565235236" x2="487.55702880312646" y2="569.3195942014277" stroke-width="5" stroke="red" />
<line x1="487.55473411634154" y1="569.319565235236" x2="487.3618452753343" y2="569.3172786637078" stroke-width="5" stroke="red" />
<line x1="490.02938435906515" y1="437.4560286526024" x2="489.7430618248039" y2="437.43045231650166" stroke-width="5" stroke="red" />
<line x1="490.02938435906515" y1="437.4560286526024" x2="490.17612863606865" y2="437.4680325154016" stroke-width="5" stroke="red" />
<line x1="487.74945192246946" y1="569.3131046341532" x2="487.7520776990245" y2="569.3130173164036" stroke-width="5" stroke="red" />
<line x1="487.74945192246946" y1="569.3131046341532" x2="487.55702880312646" y2="569.3195942014277" stroke-width="5" stroke="red" />
<line x1="487.94266382072954" y1="569.2986756331486" x2="487.94555654154107" y2="569.2984592413553" stroke-width="5" stroke="red" />
<line x1="487.94266382072954" y1="569.2986756331486" x2="487.7520776990245" y2="569.3130173164036" stroke-width="5" stroke="red" />
<line x1="490.45742607786985" y1="437.5139576505093" x2="490.17612863606865" y2="437.4680325154016" stroke-width="5" stroke="red" />
<line x1="490.45742607786985" y1="437.5139576505093" x2="490.6070593672502" y2="437.5374487347601" stroke-width="5" stroke="red" />
<line x1="488.32153785089594" y1="569.2490092625009" x2="488.32805237088536" y2="569.2481525571102" stroke-width="5" stroke="red" />
<line x1="488.32153785089594" y1="569.2490092625009" x2="487.94555654154107" y2="569.2984592413553" stroke-width="5" stroke="red" />
<line x1="488.69887242168573" y1="569.1753220702217" x2="488.7057955492066" y2="569.1739595480882" stroke-width="5" stroke="red" />
<line x1="488.69887242168573" y1="569.1753220702217" x2="488.32805237088536" y2="569.2481525571102" stroke-width="5" stroke="red" />
<line x1="490.88179998407713" y1="437.59972954955947" x2="490.6070593672502" y2="437.5374487347601" stroke-width="5" stroke="red" />
<line x1="490.88179998407713" y1="437.59972954955947" x2="491.034146861262" y2="437.6334714243429" stroke-width="5" stroke="red" />
<line x1="489.07067410485246" y1="569.081921493978" x2="489.0777098497395" y2="569.0801410753514" stroke-width="5" stroke="red" />
<line x1="489.07067410485246" y1="569.081921493978" x2="488.7057955492066" y2="569.1739595480882" stroke-width="5" stroke="red" />
<line x1="491.30192694450443" y1="437.7088093246627" x2="491.034146861262" y2="437.6334714243429" stroke-width="5" stroke="red" />
<line x1="491.30192694450443" y1="437.7088093246627" x2="491.45724850307715" y2="437.7518411142225" stroke-width="5" stroke="red" />
<line x1="489.0777098497395" y1="569.0801410753514" x2="489.4364685262408" y2="568.9721508447902" stroke-width="5" stroke="red" />
<line x1="491.71728479748197" y1="437.8372847210693" x2="491.45724850307715" y2="437.7518411142225" stroke-width="5" stroke="red" />
<line x1="491.71728479748197" y1="437.8372847210693" x2="491.87576656730175" y2="437.88868935720933" stroke-width="5" stroke="red" />
<line x1="489.4434001391238" y1="568.9700606655655" x2="490.1483479265008" y2="568.7158025281457" stroke-width="5" stroke="red" />
<line x1="489.4434001391238" y1="568.9700606655655" x2="489.4364685262408" y2="568.9721508447902" stroke-width="5" stroke="red" />
<line x1="492.37174777232997" y1="438.0807015886557" x2="491.87576656730175" y2="437.88868935720933" stroke-width="5" stroke="red" />
<line x1="492.37174777232997" y1="438.0807015886557" x2="492.6990738841475" y2="438.20641686499215" stroke-width="5" stroke="red" />
<line x1="490.16093460477646" y1="568.7112496416432" x2="490.1483479265008" y2="568.7158025281457" stroke-width="5" stroke="red" />
<line x1="490.16093460477646" y1="568.7112496416432" x2="490.8505985204983" y2="568.4177828117865" stroke-width="5" stroke="red" />
<line x1="493.1656431741839" y1="438.41550641374647" x2="492.6990738841475" y2="438.20641686499215" stroke-width="5" stroke="red" />
<line x1="493.1656431741839" y1="438.41550641374647" x2="493.50693995442083" y2="438.56782683145366" stroke-width="5" stroke="red" />
<line x1="490.86086175690923" y1="568.4133990210884" x2="491.5392611325351" y2="568.0902564540906" stroke-width="5" stroke="red" />
<line x1="490.86086175690923" y1="568.4133990210884" x2="490.8505985204983" y2="568.4177828117865" stroke-width="5" stroke="red" />
<line x1="494.3532418083565" y1="439.00262588718175" x2="493.50693995442083" y2="438.56782683145366" stroke-width="5" stroke="red" />
<line x1="494.3532418083565" y1="439.00262588718175" x2="495.0845907002287" y2="439.37741132802455" stroke-width="5" stroke="red" />
<line x1="491.54659910305054" y1="568.0867492191381" x2="491.5392611325351" y2="568.0902564540906" stroke-width="5" stroke="red" />
<line x1="491.54659910305054" y1="568.0867492191381" x2="492.80714777899385" y2="567.3840779786123" stroke-width="5" stroke="red" />
<line x1="494.19752460885803" y1="566.6184956242587" x2="494.2316017298165" y2="566.5975992893797" stroke-width="5" stroke="red" />
<line x1="494.19752460885803" y1="566.6184956242587" x2="492.80714777899385" y2="567.3840779786123" stroke-width="5" stroke="red" />
<line x1="497.60719094507846" y1="440.88739605404504" x2="495.0845907002287" y2="439.37741132802455" stroke-width="5" stroke="red" />
<line x1="497.60719094507846" y1="440.88739605404504" x2="501.19851729545184" y2="443.03698233341834" stroke-width="5" stroke="red" />
<line x1="496.778921554238" y1="565.0326529547906" x2="497.01276829754784" y2="564.8888255326937" stroke-width="5" stroke="red" />
<line x1="496.778921554238" y1="565.0326529547906" x2="494.2316017298165" y2="566.5975992893797" stroke-width="5" stroke="red" />
<line x1="502.5015949501546" y1="443.80252682766627" x2="501.19851729545184" y2="443.03698233341834" stroke-width="5" stroke="red" />
<line x1="502.5015949501546" y1="443.80252682766627" x2="507.30646438398867" y2="446.6291678833009" stroke-width="5" stroke="red" />
<line x1="501.95730671075063" y1="561.8444005496854" x2="502.53054816854734" y2="561.5269845945629" stroke-width="5" stroke="red" />
<line x1="501.95730671075063" y1="561.8444005496854" x2="497.01276829754784" y2="564.8888255326937" stroke-width="5" stroke="red" />
<line x1="507.3729570927772" y1="446.662617892344" x2="507.30646438398867" y2="446.6291678833009" stroke-width="5" stroke="red" />
<line x1="507.3729570927772" y1="446.662617892344" x2="507.65034046484465" y2="446.80243180327756" stroke-width="5" stroke="red" />
<line x1="507.30182561062884" y1="558.8849629308279" x2="508.1689701365068" y2="558.470558639354" stroke-width="5" stroke="red" />
<line x1="507.30182561062884" y1="558.8849629308279" x2="502.53054816854734" y2="561.5269845945629" stroke-width="5" stroke="red" />
<line x1="512.4210400115501" y1="449.2548384724991" x2="507.65034046484465" y2="446.80243180327756" stroke-width="5" stroke="red" />
<line x1="512.4210400115501" y1="449.2548384724991" x2="513.579148918066" y2="449.85189035839863" stroke-width="5" stroke="red" />
<line x1="512.8358226408054" y1="556.2422737132953" x2="513.924044799737" y2="555.8048100706434" stroke-width="5" stroke="red" />
<line x1="512.8358226408054" y1="556.2422737132953" x2="508.1689701365068" y2="558.470558639354" stroke-width="5" stroke="red" />
<line x1="513.579148918066" y1="449.85189035839863" x2="515.5403188409771" y2="450.70676125747883" stroke-width="5" stroke="red" />
<line x1="518.5415305656968" y1="553.9520491373808" x2="519.7645447458284" y2="553.5463232689012" stroke-width="5" stroke="red" />
<line x1="518.5415305656968" y1="553.9520491373808" x2="513.924044799737" y2="555.8048100706434" stroke-width="5" stroke="red" />
<line x1="519.9762395405696" y1="452.6372080874778" x2="515.5403188409771" y2="450.70676125747883" stroke-width="5" stroke="red" />
<line x1="519.9762395405696" y1="452.6372080874778" x2="523.8752724551468" y2="454.1190554015038" stroke-width="5" stroke="red" />
<line x1="524.3872249683674" y1="552.0177237182302" x2="529.0718569660792" y2="550.7230607301316" stroke-width="5" stroke="red" />
<line x1="524.3872249683674" y1="552.0177237182302" x2="519.7645447458284" y2="553.5463232689012" stroke-width="5" stroke="red" />
<line x1="526.4400901646487" y1="455.0921071115943" x2="523.8752724551468" y2="454.1190554015038" stroke-width="5" stroke="red" />
<line x1="526.4400901646487" y1="455.0921071115943" x2="532.1643282576744" y2="457.01067130640257" stroke-width="5" stroke="red" />
<line x1="530.3232422659362" y1="550.3760739078041" x2="535.1024861254665" y2="549.2062973976051" stroke-width="5" stroke="red" />
<line x1="530.3232422659362" y1="550.3760739078041" x2="529.0718569660792" y2="550.7230607301316" stroke-width="5" stroke="red" />
<line x1="532.9437698012048" y1="457.27147192208116" x2="532.1643282576744" y2="457.01067130640257" stroke-width="5" stroke="red" />
<line x1="532.9437698012048" y1="457.27147192208116" x2="535.9567083634035" y2="458.158435615549" stroke-width="5" stroke="red" />
<line x1="538.896388931827" y1="459.0490065098431" x2="535.9567083634035" y2="458.158435615549" stroke-width="5" stroke="red" />
<line x1="536.3013268036098" y1="548.9121000339094" x2="541.1796600767708" y2="547.7936061313744" stroke-width="5" stroke="red" />
<line x1="536.3013268036098" y1="548.9121000339094" x2="535.1024861254665" y2="549.2062973976051" stroke-width="5" stroke="red" />
<line x1="539.4769055548961" y1="459.2407979028999" x2="538.896388931827" y2="459.0490065098431" stroke-width="5" stroke="red" />
<line x1="539.4769055548961" y1="459.2407979028999" x2="539.8750899956411" y2="459.3463082483714" stroke-width="5" stroke="red" />
<line x1="542.2940749379162" y1="547.5376532234646" x2="547.2596394998685" y2="546.4034100454168" stroke-width="5" stroke="red" />
<line x1="542.2940749379162" y1="547.5376532234646" x2="541.1796600767708" y2="547.7936061313744" stroke-width="5" stroke="red" />
<line x1="546.0320123940418" y1="460.96524155802837" x2="539.8750899956411" y2="459.3463082483714" stroke-width="5" stroke="red" />
<line x1="546.0320123940418" y1="460.96524155802837" x2="547.1230861870808" y2="461.2314061646131" stroke-width="5" stroke="red" />
<line x1="548.2803936596932" y1="546.1703077388764" x2="553.2829851674151" y2="544.9060051989329" stroke-width="5" stroke="red" />
<line x1="548.2803936596932" y1="546.1703077388764" x2="547.2596394998685" y2="546.4034100454168" stroke-width="5" stroke="red" />
<line x1="552.4808435499631" y1="498.26397522929415" x2="552.4606698698851" y2="496.9913164621546" stroke-width="5" stroke="red" />
<line x1="552.4808435499631" y1="498.26397522929415" x2="552.4861383309302" y2="498.77320786258696" stroke-width="5" stroke="red" />
<line x1="552.5573397563722" y1="499.94725090518693" x2="552.4861383309302" y2="498.77320786258696" stroke-width="5" stroke="red" />
<line x1="552.5573397563722" y1="499.94725090518693" x2="552.5903786006332" y2="500.5475979159464" stroke-width="5" stroke="red" />
<line x1="552.4769822531532" y1="496.57244454150623" x2="552.5222270844998" y2="495.20252797900906" stroke-width="5" stroke="red" />
<line x1="552.4769822531532" y1="496.57244454150623" x2="552.4606698698851" y2="496.9913164621546" stroke-width="5" stroke="red" />
<line x1="552.6988339339846" y1="501.6180554265874" x2="552.5903786006332" y2="500.5475979159464" stroke-width="5" stroke="red" />
<line x1="552.6988339339846" y1="501.6180554265874" x2="552.7648662316251" y2="502.3072881873085" stroke-width="5" stroke="red" />
<line x1="552.5749061411295" y1="462.5535740029093" x2="547.1230861870808" y2="461.2314061646131" stroke-width="5" stroke="red" />
<line x1="552.5749061411295" y1="462.5535740029093" x2="552.9810625724099" y2="462.6677035045604" stroke-width="5" stroke="red" />
<line x1="552.5530095250738" y1="494.8740351401175" x2="552.6822189628058" y2="493.4130968584058" stroke-width="5" stroke="red" />
<line x1="552.5530095250738" y1="494.8740351401175" x2="552.5222270844998" y2="495.20252797900906" stroke-width="5" stroke="red" />
<line x1="553.0485897290199" y1="504.1348406607307" x2="552.7648662316251" y2="502.3072881873085" stroke-width="5" stroke="red" />
<line x1="553.0485897290199" y1="504.1348406607307" x2="553.2938494452662" y2="505.7753762279414" stroke-width="5" stroke="red" />
<line x1="552.7180674834754" y1="493.1737531017933" x2="552.9421277657339" y2="491.6300174575727" stroke-width="5" stroke="red" />
<line x1="552.7180674834754" y1="493.1737531017933" x2="552.6822189628058" y2="493.4130968584058" stroke-width="5" stroke="red" />
<line x1="552.9729802103076" y1="491.4777791780987" x2="553.2920939306138" y2="489.86567217047434" stroke-width="5" stroke="red" />
<line x1="552.9729802103076" y1="491.4777791780987" x2="552.9421277657339" y2="491.6300174575727" stroke-width="5" stroke="red" />
<line x1="553.2938494452662" y1="505.7753762279414" x2="553.727902112832" y2="507.824784132015" stroke-width="5" stroke="red" />
<line x1="553.3095821044425" y1="489.79585826091767" x2="553.6744219187178" y2="488.3151633188122" stroke-width="5" stroke="red" />
<line x1="553.3095821044425" y1="489.79585826091767" x2="553.2920939306138" y2="489.86567217047434" stroke-width="5" stroke="red" />
<line x1="553.7209806970516" y1="488.1301494446856" x2="553.7232582716211" y2="488.1209116713968" stroke-width="5" stroke="red" />
<line x1="553.7209806970516" y1="488.1301494446856" x2="553.6744219187178" y2="488.3151633188122" stroke-width="5" stroke="red" />
<line x1="554.018860141808" y1="509.16976047184966" x2="553.727902112832" y2="507.824784132015" stroke-width="5" stroke="red" />
<line x1="554.018860141808" y1="509.16976047184966" x2="554.664874501842" y2="511.61701538492616" stroke-width="5" stroke="red" />
<line x1="554.1966974741655" y1="463.00850402570137" x2="552.9810625724099" y2="462.6677035045604" stroke-width="5" stroke="red" />
<line x1="554.1966974741655" y1="463.00850402570137" x2="554.6397530912691" y2="463.15443870298907" stroke-width="5" stroke="red" />
<line x1="554.2309157765108" y1="544.6677415546283" x2="553.2829851674151" y2="544.9060051989329" stroke-width="5" stroke="red" />
<line x1="554.6880336286031" y1="485.06644240461947" x2="553.7232582716211" y2="488.1209116713968" stroke-width="5" stroke="red" />
<line x1="554.7315576497729" y1="484.91625776892573" x2="554.785121311057" y2="484.75477972118557" stroke-width="5" stroke="red" />
<line x1="554.6880336286031" y1="485.06644240461947" x2="554.7315576497729" y2="484.91625776892573" stroke-width="5" stroke="red" />
<line x1="554.8985078481281" y1="512.4872745084234" x2="556.916607873346" y2="518.6632112805576" stroke-width="5" stroke="red" />
<line x1="554.8985078481281" y1="512.4872745084234" x2="554.664874501842" y2="511.61701538492616" stroke-width="5" stroke="red" />
<line x1="555.7969298724444" y1="463.53545863444583" x2="556.0333388577793" y2="463.6273373668726" stroke-width="5" stroke="red" />
<line x1="555.7969298724444" y1="463.53545863444583" x2="554.6397530912691" y2="463.15443870298907" stroke-width="5" stroke="red" />
<line x1="555.8293440318478" y1="482.0358196036027" x2="556.0489111554417" y2="481.45817798336014" stroke-width="5" stroke="red" />
<line x1="555.8293440318478" y1="482.0358196036027" x2="554.785121311057" y2="484.75477972118557" stroke-width="5" stroke="red" />
<line x1="556.5829081797343" y1="463.8413693404664" x2="556.0333388577793" y2="463.6273373668726" stroke-width="5" stroke="red" />
<line x1="556.5829081797343" y1="463.8413693404664" x2="556.8264263147233" y2="463.9506237785597" stroke-width="5" stroke="red" />
<line x1="556.9950490176695" y1="518.9084956956043" x2="556.916607873346" y2="518.6632112805576" stroke-width="5" stroke="red" />
<line x1="556.9950490176695" y1="518.9084956956043" x2="557.0215210865114" y2="518.9790442055064" stroke-width="5" stroke="red" />
<line x1="556.7020727814458" y1="543.8980013423873" x2="557.1672977063016" y2="543.7551488570818" stroke-width="5" stroke="red" />
<line x1="556.7020727814458" y1="543.8980013423873" x2="554.2309157765108" y2="544.6677415546283" stroke-width="5" stroke="red" />
<line x1="557.3536516261508" y1="464.187914936819" x2="557.6021103716814" y2="464.320584552007" stroke-width="5" stroke="red" />
<line x1="557.3536516261508" y1="464.187914936819" x2="556.8264263147233" y2="463.9506237785597" stroke-width="5" stroke="red" />
<line x1="557.0852114041292" y1="479.02879986143233" x2="557.4366874131779" y2="478.1994525682781" stroke-width="5" stroke="red" />
<line x1="557.0852114041292" y1="479.02879986143233" x2="556.0489111554417" y2="481.45817798336014" stroke-width="5" stroke="red" />
<line x1="558.1004724685259" y1="464.5882399811859" x2="557.6021103716814" y2="464.320584552007" stroke-width="5" stroke="red" />
<line x1="558.1004724685259" y1="464.5882399811859" x2="558.225531460766" y2="464.66624391222905" stroke-width="5" stroke="red" />
<line x1="558.4609887185126" y1="464.8140055072396" x2="558.225531460766" y2="464.66624391222905" stroke-width="5" stroke="red" />
<line x1="558.4609887185126" y1="464.8140055072396" x2="558.5852227288418" y2="464.90133994397524" stroke-width="5" stroke="red" />
<line x1="558.3763277992267" y1="543.2982737427084" x2="558.6097511128391" y2="543.2121131423369" stroke-width="5" stroke="red" />
<line x1="558.3763277992267" y1="543.2982737427084" x2="557.1672977063016" y2="543.7551488570818" stroke-width="5" stroke="red" />
<line x1="558.809368103884" y1="465.0601810758581" x2="558.9332986841036" y2="465.1597888961618" stroke-width="5" stroke="red" />
<line x1="558.809368103884" y1="465.0601810758581" x2="558.5852227288418" y2="464.90133994397524" stroke-width="5" stroke="red" />
<line x1="558.3823247283361" y1="476.0187348935428" x2="558.8498342595276" y2="474.93509070750366" stroke-width="5" stroke="red" />
<line x1="558.3823247283361" y1="476.0187348935428" x2="557.4366874131779" y2="478.1994525682781" stroke-width="5" stroke="red" />
<line x1="559.1470939369855" y1="465.333390812027" x2="558.9332986841036" y2="465.1597888961618" stroke-width="5" stroke="red" />
<line x1="559.1470939369855" y1="465.333390812027" x2="559.2076971856884" y2="465.3880170602693" stroke-width="5" stroke="red" />
<line x1="559.3871346408547" y1="525.2249950377188" x2="557.0215210865114" y2="518.9790442055064" stroke-width="5" stroke="red" />
<line x1="559.3871346408547" y1="525.2249950377188" x2="560.1387467217834" y2="527.1229159876942" stroke-width="5" stroke="red" />
<line x1="559.3081746019366" y1="465.47989334356447" x2="559.2076971856884" y2="465.3880170602693" stroke-width="5" stroke="red" />
<line x1="559.3081746019366" y1="465.47989334356447" x2="559.3675809187689" y2="465.537988559101" stroke-width="5" stroke="red" />
<line x1="559.2018231013049" y1="542.9555875191423" x2="559.3189002530502" y2="542.906348911954" stroke-width="5" stroke="red" />
<line x1="559.2018231013049" y1="542.9555875191423" x2="558.6097511128391" y2="543.2121131423369" stroke-width="5" stroke="red" />
<line x1="559.4638772298292" y1="465.6334294488043" x2="559.5217522955627" y2="465.69514483059095" stroke-width="5" stroke="red" />
<line x1="559.4638772298292" y1="465.6334294488043" x2="559.3675809187689" y2="465.537988559101" stroke-width="5" stroke="red" />
<line x1="559.2609076437584" y1="473.9150286439876" x2="559.5172048122851" y2="473.27780828709996" stroke-width="5" stroke="red" />
<line x1="559.2609076437584" y1="473.9150286439876" x2="558.8498342595276" y2="474.93509070750366" stroke-width="5" stroke="red" />
<line x1="559.6134425072269" y1="465.79418704329385" x2="559.5217522955627" y2="465.69514483059095" stroke-width="5" stroke="red" />
<line x1="559.6134425072269" y1="465.79418704329385" x2="559.6691337523931" y2="465.8597824552121" stroke-width="5" stroke="red" />
<line x1="559.7553530782217" y1="465.9624838176583" x2="559.8090983784605" y2="466.0320862945508" stroke-width="5" stroke="red" />
<line x1="559.7553530782217" y1="465.9624838176583" x2="559.6691337523931" y2="465.8597824552121" stroke-width="5" stroke="red" />
<line x1="559.8890211864306" y1="466.13839156569566" x2="559.8090983784605" y2="466.0320862945508" stroke-width="5" stroke="red" />
<line x1="559.8890211864306" y1="466.13839156569566" x2="559.939517464765" y2="466.21210304201514" stroke-width="5" stroke="red" />
<line x1="560.0136766481284" y1="466.321779894629" x2="560.0614471178843" y2="466.39958483188326" stroke-width="5" stroke="red" />
<line x1="560.0136766481284" y1="466.321779894629" x2="559.939517464765" y2="466.21210304201514" stroke-width="5" stroke="red" />
<line x1="559.8976767883232" y1="542.6252720451417" x2="560.015694743771" y2="542.5699633772314" stroke-width="5" stroke="red" />
<line x1="559.8976767883232" y1="542.6252720451417" x2="559.3189002530502" y2="542.906348911954" stroke-width="5" stroke="red" />
<line x1="560.1290543155272" y1="466.51242567923197" x2="560.0614471178843" y2="466.39958483188326" stroke-width="5" stroke="red" />
<line x1="560.1897036125655" y1="466.62799597282986" x2="560.1290543155272" y2="466.51242567923197" stroke-width="5" stroke="red" />
<line x1="560.1897036125655" y1="466.62799597282986" x2="560.2337797815469" y2="466.71013844071626" stroke-width="5" stroke="red" />
<line x1="559.8564096434309" y1="472.3048554332538" x2="560.1085937259388" y2="471.58372413838606" stroke-width="5" stroke="red" />
<line x1="559.8564096434309" y1="472.3048554332538" x2="559.5172048122851" y2="473.27780828709996" stroke-width="5" stroke="red" />
<line x1="560.2868363477901" y1="466.8281969240002" x2="560.2337797815469" y2="466.71013844071626" stroke-width="5" stroke="red" />
<line x1="560.2868363477901" y1="466.8281969240002" x2="560.3266708539843" y2="466.9143594783279" stroke-width="5" stroke="red" />
<line x1="560.3727171451152" y1="467.03430289716187" x2="560.3266708539843" y2="466.9143594783279" stroke-width="5" stroke="red" />
<line x1="560.3727171451152" y1="467.03430289716187" x2="560.4081717605804" y2="467.12427670171655" stroke-width="5" stroke="red" />
<line x1="560.2417118833971" y1="471.1087350236964" x2="560.3539766460264" y2="470.7106296317352" stroke-width="5" stroke="red" />
<line x1="560.2417118833971" y1="471.1087350236964" x2="560.1085937259388" y2="471.58372413838606" stroke-width="5" stroke="red" />
<line x1="560.4469347826109" y1="467.24562363207497" x2="560.4081717605804" y2="467.12427670171655" stroke-width="5" stroke="red" />
<line x1="560.4469347826109" y1="467.24562363207497" x2="560.4778694178626" y2="467.3392035539575" stroke-width="5" stroke="red" />
<line x1="560.5090965806249" y1="467.46141973735496" x2="560.4778694178626" y2="467.3392035539575" stroke-width="5" stroke="red" />
<line x1="560.5090965806249" y1="467.46141973735496" x2="560.5350272981843" y2="467.55828829436734" stroke-width="5" stroke="red" />
<line x1="560.407517797882" y1="470.4769483756037" x2="560.4562161286042" y2="470.26787831264704" stroke-width="5" stroke="red" />
<line x1="560.407517797882" y1="470.4769483756037" x2="560.3539766460264" y2="470.7106296317352" stroke-width="5" stroke="red" />
<line x1="560.5593043899495" y1="467.6808532712993" x2="560.5350272981843" y2="467.55828829436734" stroke-width="5" stroke="red" />
<line x1="560.5593043899495" y1="467.6808532712993" x2="560.5804224473985" y2="467.78074034259964" stroke-width="5" stroke="red" />
<line x1="560.4999301023385" y1="470.03716062795297" x2="560.5415784209285" y2="469.8208355570819" stroke-width="5" stroke="red" />
<line x1="560.4999301023385" y1="470.03716062795297" x2="560.4562161286042" y2="470.26787831264704" stroke-width="5" stroke="red" />
<line x1="560.5979150772816" y1="467.90316957528296" x2="560.5804224473985" y2="467.78074034259964" stroke-width="5" stroke="red" />
<line x1="560.5979150772816" y1="467.90316957528296" x2="560.6137212283976" y2="468.0056883642687" stroke-width="5" stroke="red" />
<line x1="560.6253939993205" y1="468.1274546680871" x2="560.6137212283976" y2="468.0056883642687" stroke-width="5" stroke="red" />
<line x1="560.6253939993205" y1="468.1274546680871" x2="560.6364430928875" y2="468.2322734732639" stroke-width="5" stroke="red" />
<line x1="560.5731231543183" y1="469.5935015835022" x2="560.6054905470612" y2="469.36984877282435" stroke-width="5" stroke="red" />
<line x1="560.5731231543183" y1="469.5935015835022" x2="560.5415784209285" y2="469.8208355570819" stroke-width="5" stroke="red" />
<line x1="560.6420398489428" y1="468.3530137275792" x2="560.6364430928875" y2="468.2322734732639" stroke-width="5" stroke="red" />
<line x1="560.6420398489428" y1="468.3530137275792" x2="560.6481972837245" y2="468.45975960606313" stroke-width="5" stroke="red" />
<line x1="560.6231159675397" y1="469.14651450499986" x2="560.6426743404368" y2="468.91566539033346" stroke-width="5" stroke="red" />
<line x1="560.6231159675397" y1="469.14651450499986" x2="560.6054905470612" y2="469.36984877282435" stroke-width="5" stroke="red" />
<line x1="560.6486510309649" y1="468.5792657202825" x2="560.6481972837245" y2="468.45975960606313" stroke-width="5" stroke="red" />
<line x1="560.6486510309649" y1="468.5792657202825" x2="560.6497775437307" y2="468.68774442636584" stroke-width="5" stroke="red" />
<line x1="560.6455982156511" y1="468.8057261975519" x2="560.6497775437307" y2="468.68774442636584" stroke-width="5" stroke="red" />
<line x1="560.6455982156511" y1="468.8057261975519" x2="560.6426743404368" y2="468.91566539033346" stroke-width="5" stroke="red" />
<line x1="560.5873278574983" y1="542.2506968197537" x2="560.7088180979998" y2="542.1856974147867" stroke-width="5" stroke="red" />
<line x1="560.5873278574983" y1="542.2506968197537" x2="560.015694743771" y2="542.5699633772314" stroke-width="5" stroke="red" />
<line x1="560.9847458175336" y1="542.0109630821495" x2="561.0452836064247" y2="541.9745361872925" stroke-width="5" stroke="red" />
<line x1="560.9847458175336" y1="542.0109630821495" x2="560.7088180979998" y2="542.1856974147867" stroke-width="5" stroke="red" />
<line x1="561.3113097645257" y1="541.7879950044928" x2="561.371553765104" y2="541.7481428328032" stroke-width="5" stroke="red" />
<line x1="561.3113097645257" y1="541.7879950044928" x2="561.0452836064247" y2="541.9745361872925" stroke-width="5" stroke="red" />
<line x1="561.832741714571" y1="531.374965693466" x2="560.1387467217834" y2="527.1229159876942" stroke-width="5" stroke="red" />
<line x1="561.832741714571" y1="531.374965693466" x2="562.113857647093" y2="532.1351278459232" stroke-width="5" stroke="red" />
<line x1="561.6263594045876" y1="541.548610944588" x2="561.6863142387167" y2="541.504724518964" stroke-width="5" stroke="red" />
<line x1="561.6263594045876" y1="541.548610944588" x2="561.371553765104" y2="541.7481428328032" stroke-width="5" stroke="red" />
<line x1="561.926760488683" y1="541.2912550436579" x2="561.9857220229624" y2="541.2426839295978" stroke-width="5" stroke="red" />
<line x1="561.926760488683" y1="541.2912550436579" x2="561.6863142387167" y2="541.504724518964" stroke-width="5" stroke="red" />
<line x1="562.0994182516253" y1="541.1303603613512" x2="561.9857220229624" y2="541.2426839295978" stroke-width="5" stroke="red" />
<line x1="562.4015707744118" y1="532.9134262086338" x2="562.113857647093" y2="532.1351278459232" stroke-width="5" stroke="red" />
<line x1="562.4015707744118" y1="532.9134262086338" x2="562.6869513384861" y2="533.7777373532717" stroke-width="5" stroke="red" />
<line x1="562.2087436783854" y1="541.0145738284008" x2="562.0994182516253" y2="541.1303603613512" stroke-width="5" stroke="red" />
<line x1="562.2087436783854" y1="541.0145738284008" x2="562.2663694562472" y2="540.9605856441989" stroke-width="5" stroke="red" />
<line x1="562.3701733716761" y1="540.8408738193272" x2="562.3981229738662" y2="540.8117990027025" stroke-width="5" stroke="red" />
<line x1="562.3701733716761" y1="540.8408738193272" x2="562.2663694562472" y2="540.9605856441989" stroke-width="5" stroke="red" />
<line x1="562.4967048933612" y1="540.6885487942521" x2="562.5238353708878" y2="540.6578731699228" stroke-width="5" stroke="red" />
<line x1="562.4967048933612" y1="540.6885487942521" x2="562.3981229738662" y2="540.8117990027025" stroke-width="5" stroke="red" />
<line x1="562.6166138274114" y1="540.5312377311752" x2="562.6430634473714" y2="540.4988872714835" stroke-width="5" stroke="red" />
<line x1="562.6166138274114" y1="540.5312377311752" x2="562.5238353708878" y2="540.6578731699228" stroke-width="5" stroke="red" />
<line x1="562.9121358914019" y1="534.4674577463741" x2="563.0449005097623" y2="534.9391518736737" stroke-width="5" stroke="red" />
<line x1="562.9121358914019" y1="534.4674577463741" x2="562.6869513384861" y2="533.7777373532717" stroke-width="5" stroke="red" />
<line x1="562.7294718226901" y1="540.3690263943865" x2="562.7552264228798" y2="540.3349333676754" stroke-width="5" stroke="red" />
<line x1="562.7294718226901" y1="540.3690263943865" x2="562.6430634473714" y2="540.4988872714835" stroke-width="5" stroke="red" />
<line x1="562.8353131744691" y1="540.202107104468" x2="562.8598684584094" y2="540.1662178308785" stroke-width="5" stroke="red" />
<line x1="562.8353131744691" y1="540.202107104468" x2="562.7552264228798" y2="540.3349333676754" stroke-width="5" stroke="red" />
<line x1="562.9336784497253" y1="540.0307737368491" x2="562.9571548731939" y2="539.9930044302877" stroke-width="5" stroke="red" />
<line x1="562.9336784497253" y1="540.0307737368491" x2="562.8598684584094" y2="540.1662178308785" stroke-width="5" stroke="red" />
<line x1="563.1313735540826" y1="535.254526756478" x2="563.0449005097623" y2="534.9391518736737" stroke-width="5" stroke="red" />
<line x1="563.1313735540826" y1="535.254526756478" x2="563.2478859836015" y2="535.7559772592814" stroke-width="5" stroke="red" />
<line x1="563.0235629771302" y1="539.8551698520945" x2="563.0459190453631" y2="539.8155021333816" stroke-width="5" stroke="red" />
<line x1="563.0235629771302" y1="539.8551698520945" x2="562.9571548731939" y2="539.9930044302877" stroke-width="5" stroke="red" />
<line x1="563.1061746439119" y1="539.6755911270061" x2="563.1271883380938" y2="539.6339583203918" stroke-width="5" stroke="red" />
<line x1="563.1061746439119" y1="539.6755911270061" x2="563.0459190453631" y2="539.8155021333816" stroke-width="5" stroke="red" />
<line x1="563.1807690928156" y1="539.4923305475291" x2="563.2003781388701" y2="539.448705343925" stroke-width="5" stroke="red" />
<line x1="563.1807690928156" y1="539.4923305475291" x2="563.1271883380938" y2="539.6339583203918" stroke-width="5" stroke="red" />
<line x1="563.3129303884111" y1="536.0508069585213" x2="563.3613096610457" y2="536.3120963347775" stroke-width="5" stroke="red" />
<line x1="563.3129303884111" y1="536.0508069585213" x2="563.2478859836015" y2="535.7559772592814" stroke-width="5" stroke="red" />
<line x1="563.247360782645" y1="539.3056661688779" x2="563.2653143636682" y2="539.2600336072576" stroke-width="5" stroke="red" />
<line x1="563.247360782645" y1="539.3056661688779" x2="563.2003781388701" y2="539.448705343925" stroke-width="5" stroke="red" />
<line x1="563.3849498462745" y1="536.4527770551721" x2="563.3613096610457" y2="536.3120963347775" stroke-width="5" stroke="red" />
<line x1="563.3849498462745" y1="536.4527770551721" x2="563.4242528816836" y2="536.7217878499042" stroke-width="5" stroke="red" />
<line x1="563.3052038151759" y1="539.1158613029754" x2="563.3214187931721" y2="539.0682017911971" stroke-width="5" stroke="red" />
<line x1="563.3052038151759" y1="539.1158613029754" x2="563.2653143636682" y2="539.2600336072576" stroke-width="5" stroke="red" />
<line x1="563.3554441931591" y1="538.923331510736" x2="563.3700171528354" y2="538.8736736437921" stroke-width="5" stroke="red" />
<line x1="563.3554441931591" y1="538.923331510736" x2="563.3214187931721" y2="539.0682017911971" stroke-width="5" stroke="red" />
<line x1="563.3700171528354" y1="538.8736736437921" x2="563.3822988043112" y2="538.82268881791" stroke-width="5" stroke="red" />
<line x1="563.4412437705191" y1="536.8572226921921" x2="563.4684521960637" y2="537.1336818095263" stroke-width="5" stroke="red" />
<line x1="563.4412437705191" y1="536.8572226921921" x2="563.4242528816836" y2="536.7217878499042" stroke-width="5" stroke="red" />
<line x1="563.4095811186901" y1="538.6767968345667" x2="563.4200525472043" y2="538.6239053583032" stroke-width="5" stroke="red" />
<line x1="563.4095811186901" y1="538.6767968345667" x2="563.3822988043112" y2="538.82268881791" stroke-width="5" stroke="red" />
<line x1="563.4416110517963" y1="538.4779724308924" x2="563.4200525472043" y2="538.6239053583032" stroke-width="5" stroke="red" />
<line x1="563.4416110517963" y1="538.4779724308924" x2="563.4499689991553" y2="538.4232331114662" stroke-width="5" stroke="red" />
<line x1="563.4781561566189" y1="537.2636734372686" x2="563.4684521960637" y2="537.1336818095263" stroke-width="5" stroke="red" />
<line x1="563.4781561566189" y1="537.2636734372686" x2="563.4911649819509" y2="537.5469157034106" stroke-width="5" stroke="red" />
<line x1="563.46588298089" y1="538.277606966047" x2="563.4720103804151" y2="538.2210807209105" stroke-width="5" stroke="red" />
<line x1="563.46588298089" y1="538.277606966047" x2="563.4499689991553" y2="538.4232331114662" stroke-width="5" stroke="red" />
<line x1="563.4931120799046" y1="537.6711037230798" x2="563.4930634460503" y2="537.8139651706892" stroke-width="5" stroke="red" />
<line x1="563.4931120799046" y1="537.6711037230798" x2="563.4911649819509" y2="537.5469157034106" stroke-width="5" stroke="red" />
<line x1="563.4818146090864" y1="538.076105365355" x2="563.4720103804151" y2="538.2210807209105" stroke-width="5" stroke="red" />
<line x1="563.4818146090864" y1="538.076105365355" x2="563.4860129432672" y2="538.0178782470907" stroke-width="5" stroke="red" />
<line x1="563.4908991497783" y1="537.8738120139816" x2="563.4930634460503" y2="537.8139651706892" stroke-width="5" stroke="red" />
<line x1="563.4908991497783" y1="537.8738120139816" x2="563.4860129432672" y2="538.0178782470907" stroke-width="5" stroke="red" />
</svg>
