<svg width="1005.8216363586872" height="994.1783636413129" xmlns="http://www.w3.org/2000/svg">
<line x1="467.05278328633887" y1="528.0897787617118" x2="466.9477501468596" y2="528.7898991017386" stroke-width="5" stroke="red" />
<line x1="467.05278328633887" y1="528.0897787617118" x2="467.0557534941649" y2="528.0720909759783" stroke-width="5" stroke="red" />
<line x1="467.2108064097741" y1="527.349794834583" x2="467.0557534941649" y2="528.0720909759783" stroke-width="5" stroke="red" />
<line x1="467.2108064097741" y1="527.349794834583" x2="467.2189707431292" y2="527.3146098916542" stroke-width="5" stroke="red" />
<line x1="467.4125072621369" y1="526.6269788857435" x2="467.2189707431292" y2="527.3146098916542" stroke-width="5" stroke="red" />
<line x1="467.4125072621369" y1="526.6269788857435" x2="467.427751487161" y2="526.5760870812562" stroke-width="5" stroke="red" />
<line x1="467.65473612256613" y1="525.9236214660782" x2="467.427751487161" y2="526.5760870812562" stroke-width="5" stroke="red" />
<line x1="467.65473612256613" y1="525.9236214660782" x2="467.67847598709363" y2="525.8589009528141" stroke-width="5" stroke="red" />
<line x1="467.93417621063514" y1="525.2475564656444" x2="467.67847598709363" y2="525.8589009528141" stroke-width="5" stroke="red" />
<line x1="467.93417621063514" y1="525.2475564656444" x2="467.96729180798616" y2="525.1718357318575" stroke-width="5" stroke="red" />
<line x1="468.2491997540684" y1="524.5939272921262" x2="467.96729180798616" y2="525.1718357318575" stroke-width="5" stroke="red" />
<line x1="468.2491997540684" y1="524.5939272921262" x2="468.29249672851296" y2="524.5083109237554" stroke-width="5" stroke="red" />
<line x1="468.5969742534144" y1="523.9627649918459" x2="468.29249672851296" y2="524.5083109237554" stroke-width="5" stroke="red" />
<line x1="468.5969742534144" y1="523.9627649918459" x2="468.65123613204963" y2="523.868950344256" stroke-width="5" stroke="red" />
<line x1="468.97491245188996" y1="523.3542890233023" x2="468.65123613204963" y2="523.868950344256" stroke-width="5" stroke="red" />
<line x1="468.97491245188996" y1="523.3542890233023" x2="469.0401523727043" y2="523.2537939489903" stroke-width="5" stroke="red" />
<line x1="466.97806208674604" y1="532.7470725905025" x2="466.99293335025123" y2="532.8529080822883" stroke-width="5" stroke="red" />
<line x1="466.97806208674604" y1="532.7470725905025" x2="466.88613103109805" y2="532.0403933061518" stroke-width="5" stroke="red" />
<line x1="466.8796746907098" y1="531.9570369823351" x2="466.88613103109805" y2="532.0403933061518" stroke-width="5" stroke="red" />
<line x1="466.8796746907098" y1="531.9570369823351" x2="466.8311457248065" y2="531.2335757014713" stroke-width="5" stroke="red" />
<line x1="467.0560062037507" y1="533.1984590711868" x2="467.06738726987174" y2="533.2574836802319" stroke-width="5" stroke="red" />
<line x1="467.0560062037507" y1="533.1984590711868" x2="466.99293335025123" y2="532.8529080822883" stroke-width="5" stroke="red" />
<line x1="467.14109701052087" y1="533.5958066306664" x2="467.1558278430831" y2="533.6601586562915" stroke-width="5" stroke="red" />
<line x1="467.14109701052087" y1="533.5958066306664" x2="467.06738726987174" y2="533.2574836802319" stroke-width="5" stroke="red" />
<line x1="466.82980818044183" y1="531.171707913333" x2="466.8311457248065" y2="531.2335757014713" stroke-width="5" stroke="red" />
<line x1="466.82980818044183" y1="531.171707913333" x2="466.82158321429404" y2="530.4301658463374" stroke-width="5" stroke="red" />
<line x1="467.24035139591996" y1="533.9906280469428" x2="467.2589548063612" y2="534.0601437434539" stroke-width="5" stroke="red" />
<line x1="467.24035139591996" y1="533.9906280469428" x2="467.1558278430831" y2="533.6601586562915" stroke-width="5" stroke="red" />
<line x1="467.35380866127906" y1="534.3823322867493" x2="467.37654022804026" y2="534.4568115253479" stroke-width="5" stroke="red" />
<line x1="467.35380866127906" y1="534.3823322867493" x2="467.2589548063612" y2="534.0601437434539" stroke-width="5" stroke="red" />
<line x1="466.8230185617652" y1="530.3893196851643" x2="466.82158321429404" y2="530.4301658463374" stroke-width="5" stroke="red" />
<line x1="466.8230185617652" y1="530.3893196851643" x2="466.8570287128535" y2="529.6331986340954" stroke-width="5" stroke="red" />
<line x1="467.4806394506117" y1="534.7702250433196" x2="467.5080402361123" y2="534.8494656138759" stroke-width="5" stroke="red" />
<line x1="467.4806394506117" y1="534.7702250433196" x2="467.37654022804026" y2="534.4568115253479" stroke-width="5" stroke="red" />
<line x1="467.62211921986744" y1="535.153703026131" x2="467.65424372358206" y2="535.2374460192511" stroke-width="5" stroke="red" />
<line x1="467.62211921986744" y1="535.153703026131" x2="467.5080402361123" y2="534.8494656138759" stroke-width="5" stroke="red" />
<line x1="466.85891290520857" y1="529.6126336983048" x2="466.8570287128535" y2="529.6331986340954" stroke-width="5" stroke="red" />
<line x1="466.85891290520857" y1="529.6126336983048" x2="466.9385647683911" y2="528.8458337247075" stroke-width="5" stroke="red" />
<line x1="469.3810604402125" y1="522.7682840920986" x2="469.0401523727043" y2="523.2537939489903" stroke-width="5" stroke="red" />
<line x1="469.3810604402125" y1="522.7682840920986" x2="469.4573748074582" y2="522.662486977733" stroke-width="5" stroke="red" />
<line x1="467.7754717196772" y1="535.5323120197044" x2="467.8128444969479" y2="535.6203063237718" stroke-width="5" stroke="red" />
<line x1="467.7754717196772" y1="535.5323120197044" x2="467.65424372358206" y2="535.2374460192511" stroke-width="5" stroke="red" />
<line x1="466.93876604157094" y1="528.8445155745881" x2="466.9385647683911" y2="528.8458337247075" stroke-width="5" stroke="red" />
<line x1="466.93876604157094" y1="528.8445155745881" x2="466.9477501468596" y2="528.7898991017386" stroke-width="5" stroke="red" />
<line x1="467.9419901469663" y1="535.9056325262903" x2="467.9844064631722" y2="535.9976221077476" stroke-width="5" stroke="red" />
<line x1="467.9419901469663" y1="535.9056325262903" x2="467.8128444969479" y2="535.6203063237718" stroke-width="5" stroke="red" />
<line x1="468.2586475264676" y1="536.5371464259554" x2="468.3613204385526" y2="536.7344903529844" stroke-width="5" stroke="red" />
<line x1="468.2586475264676" y1="536.5371464259554" x2="467.9844064631722" y2="535.9976221077476" stroke-width="5" stroke="red" />
<line x1="469.8991790665455" y1="522.0945724970071" x2="470.0932079248007" y2="521.8789905184159" stroke-width="5" stroke="red" />
<line x1="469.8118781714622" y1="522.2044798777403" x2="469.4573748074582" y2="522.662486977733" stroke-width="5" stroke="red" />
<line x1="469.8118781714622" y1="522.2044798777403" x2="469.8991790665455" y2="522.0945724970071" stroke-width="5" stroke="red" />
<line x1="468.6541252353771" y1="537.2369126855998" x2="468.778592568549" y2="537.4471494037879" stroke-width="5" stroke="red" />
<line x1="468.6541252353771" y1="537.2369126855998" x2="468.3613204385526" y2="536.7344903529844" stroke-width="5" stroke="red" />
<line x1="469.0831075367585" y1="537.91439189739" x2="469.2294892220959" y2="538.1361716567445" stroke-width="5" stroke="red" />
<line x1="469.0831075367585" y1="537.91439189739" x2="468.778592568549" y2="537.4471494037879" stroke-width="5" stroke="red" />
<line x1="469.5383464916442" y1="538.5681855396856" x2="469.7050209890632" y2="538.7991127378069" stroke-width="5" stroke="red" />
<line x1="469.5383464916442" y1="538.5681855396856" x2="469.2294892220959" y2="538.1361716567445" stroke-width="5" stroke="red" />
<line x1="470.84651179821935" y1="521.0244943733849" x2="471.0795467710839" y2="520.7985144191736" stroke-width="5" stroke="red" />
<line x1="470.84651179821935" y1="521.0244943733849" x2="470.0932079248007" y2="521.8789905184159" stroke-width="5" stroke="red" />
<line x1="470.0159707853948" y1="539.2008735411317" x2="470.2032727835613" y2="539.4412881652072" stroke-width="5" stroke="red" />
<line x1="470.0159707853948" y1="539.2008735411317" x2="469.7050209890632" y2="538.7991127378069" stroke-width="5" stroke="red" />
<line x1="470.81443261412767" y1="540.1622145313737" x2="471.24957928718015" y2="540.6728458917582" stroke-width="5" stroke="red" />
<line x1="470.81443261412767" y1="540.1622145313737" x2="470.2032727835613" y2="539.4412881652072" stroke-width="5" stroke="red" />
<line x1="471.85601479182026" y1="520.0335709648836" x2="471.0795467710839" y2="520.7985144191736" stroke-width="5" stroke="red" />
<line x1="471.85601479182026" y1="520.0335709648836" x2="472.12324505844043" y2="519.7978345174197" stroke-width="5" stroke="red" />
<line x1="472.3707157651484" y1="541.8705128711713" x2="473.4380143459622" y2="543.0114148050802" stroke-width="5" stroke="red" />
<line x1="472.3707157651484" y1="541.8705128711713" x2="471.24957928718015" y2="540.6728458917582" stroke-width="5" stroke="red" />
<line x1="472.90955349887247" y1="519.0957380798244" x2="473.5203627866701" y2="518.6034165626882" stroke-width="5" stroke="red" />
<line x1="472.90955349887247" y1="519.0957380798244" x2="472.12324505844043" y2="519.7978345174197" stroke-width="5" stroke="red" />
<line x1="475.1261986545365" y1="544.8001303576328" x2="477.80525437841357" y2="547.6535125760837" stroke-width="5" stroke="red" />
<line x1="475.1261986545365" y1="544.8001303576328" x2="473.4380143459622" y2="543.0114148050802" stroke-width="5" stroke="red" />
<line x1="475.09606514898724" y1="517.3219337967594" x2="476.5684559473069" y2="516.209932702205" stroke-width="5" stroke="red" />
<line x1="475.09606514898724" y1="517.3219337967594" x2="473.5203627866701" y2="518.6034165626882" stroke-width="5" stroke="red" />
<line x1="478.2976707966778" y1="548.2239861022225" x2="479.8812158246664" y2="550.0698340611829" stroke-width="5" stroke="red" />
<line x1="478.2976707966778" y1="548.2239861022225" x2="477.80525437841357" y2="547.6535125760837" stroke-width="5" stroke="red" />
<line x1="480.1615006459664" y1="550.4254776064606" x2="481.84743664204774" y2="552.5783261153942" stroke-width="5" stroke="red" />
<line x1="480.1615006459664" y1="550.4254776064606" x2="479.8812158246664" y2="550.0698340611829" stroke-width="5" stroke="red" />
<line x1="479.5789570511103" y1="513.9250282068616" x2="476.5684559473069" y2="516.209932702205" stroke-width="5" stroke="red" />
<line x1="479.5789570511103" y1="513.9250282068616" x2="481.3618157567059" y2="512.4849626914536" stroke-width="5" stroke="red" />
<line x1="481.93177998876837" y1="552.697091964237" x2="482.7003573574508" y2="553.786155591866" stroke-width="5" stroke="red" />
<line x1="481.93177998876837" y1="552.697091964237" x2="481.84743664204774" y2="552.5783261153942" stroke-width="5" stroke="red" />
<line x1="483.5071348823781" y1="554.9536226749351" x2="483.67117495162466" y2="555.1912726692101" stroke-width="5" stroke="red" />
<line x1="483.5071348823781" y1="554.9536226749351" x2="482.7003573574508" y2="553.786155591866" stroke-width="5" stroke="red" />
<line x1="484.9012945420765" y1="557.1889784263019" x2="485.3389809512723" y2="557.9019906006258" stroke-width="5" stroke="red" />
<line x1="484.9012945420765" y1="557.1889784263019" x2="483.67117495162466" y2="555.1912726692101" stroke-width="5" stroke="red" />
<line x1="483.98438669618326" y1="510.3622678415796" x2="481.3618157567059" y2="512.4849626914536" stroke-width="5" stroke="red" />
<line x1="486.20223675878356" y1="559.4890891938126" x2="486.86036343078047" y2="560.7042220692879" stroke-width="5" stroke="red" />
<line x1="486.20223675878356" y1="559.4890891938126" x2="485.3389809512723" y2="557.9019906006258" stroke-width="5" stroke="red" />
<line x1="485.0769522045063" y1="509.3201362583737" x2="483.98438669618326" y2="510.3622678415796" stroke-width="5" stroke="red" />
<line x1="485.0769522045063" y1="509.3201362583737" x2="486.061738599405" y2="508.3809741657778" stroke-width="5" stroke="red" />
<line x1="487.4144281360551" y1="561.8610461023451" x2="486.86036343078047" y2="560.7042220692879" stroke-width="5" stroke="red" />
<line x1="487.4144281360551" y1="561.8610461023451" x2="487.55447617038845" y2="562.1365830956762" stroke-width="5" stroke="red" />
<line x1="487.55447617038845" y1="562.1365830956762" x2="488.23511555016313" y2="563.5778770191923" stroke-width="5" stroke="red" />
<line x1="486.5449460741153" y1="507.8563549127739" x2="486.061738599405" y2="508.3809741657778" stroke-width="5" stroke="red" />
<line x1="486.5449460741153" y1="507.8563549127739" x2="487.0435304985268" y2="507.31512934910575" stroke-width="5" stroke="red" />
<line x1="488.23511555016313" y1="563.5778770191923" x2="489.2868560972713" y2="566.032693458624" stroke-width="5" stroke="red" />
<line x1="487.4808171942536" y1="506.7931825103111" x2="487.0435304985268" y2="507.31512934910575" stroke-width="5" stroke="red" />
<line x1="487.4808171942536" y1="506.7931825103111" x2="487.98168540235145" y2="506.195900663042" stroke-width="5" stroke="red" />
<line x1="489.6193802375384" y1="566.8353476404161" x2="490.51221964686766" y2="569.1259808442222" stroke-width="5" stroke="red" />
<line x1="489.6193802375384" y1="566.8353476404161" x2="489.2868560972713" y2="566.032693458624" stroke-width="5" stroke="red" />
<line x1="488.3737570513703" y1="505.6800187024756" x2="487.98168540235145" y2="506.195900663042" stroke-width="5" stroke="red" />
<line x1="488.3737570513703" y1="505.6800187024756" x2="488.8763012125625" y2="505.0193263802662" stroke-width="5" stroke="red" />
<line x1="490.62752985202076" y1="569.0262985624856" x2="490.51221964686766" y2="569.1259808442222" stroke-width="5" stroke="red" />
<line x1="492.5115109827695" y1="567.4455668641338" x2="490.62752985202076" y2="569.0262985624856" stroke-width="5" stroke="red" />
<line x1="496.65807096267156" y1="564.0312444535285" x2="503.86838166974155" y2="558.0937147769115" stroke-width="5" stroke="red" />
<line x1="496.65807096267156" y1="564.0312444535285" x2="492.5115109827695" y2="567.4455668641338" stroke-width="5" stroke="red" />
<line x1="489.22119100096137" y1="504.51723493671926" x2="488.8763012125625" y2="505.0193263802662" stroke-width="5" stroke="red" />
<line x1="489.22119100096137" y1="504.51723493671926" x2="489.72089211899254" y2="503.7903382766412" stroke-width="5" stroke="red" />
<line x1="490.0192443515052" y1="503.3082261616125" x2="489.72089211899254" y2="503.7903382766412" stroke-width="5" stroke="red" />
<line x1="490.0192443515052" y1="503.3082261616125" x2="490.5138023347845" y2="502.51062573748646" stroke-width="5" stroke="red" />
<line x1="490.7673992375992" y1="502.0550901982115" x2="490.5138023347845" y2="502.51062573748646" stroke-width="5" stroke="red" />
<line x1="490.7673992375992" y1="502.0550901982115" x2="491.2540409631503" y2="501.18277487120537" stroke-width="5" stroke="red" />
<line x1="491.4658598260101" y1="500.75872806894745" x2="491.2540409631503" y2="501.18277487120537" stroke-width="5" stroke="red" />
<line x1="491.4658598260101" y1="500.75872806894745" x2="491.94371257908773" y2="499.8042073412468" stroke-width="5" stroke="red" />
<line x1="492.11537883763964" y1="499.4201898044867" x2="491.94371257908773" y2="499.8042073412468" stroke-width="5" stroke="red" />
<line x1="492.11537883763964" y1="499.4201898044867" x2="492.5802845249932" y2="498.3839285393473" stroke-width="5" stroke="red" />
<line x1="495.4079861921958" y1="489.261272730817" x2="495.2088124887156" y2="490.07399817731624" stroke-width="5" stroke="red" />
<line x1="495.4079861921958" y1="489.261272730817" x2="495.42803084539287" y2="489.1804395964922" stroke-width="5" stroke="red" />
<line x1="492.82827844845644" y1="497.7284519605689" x2="492.5802845249932" y2="498.3839285393473" stroke-width="5" stroke="red" />
<line x1="492.82827844845644" y1="497.7284519605689" x2="493.70054478274494" y2="495.43361666561725" stroke-width="5" stroke="red" />
<line x1="493.834919848646" y1="494.9909940468163" x2="493.70054478274494" y2="495.43361666561725" stroke-width="5" stroke="red" />
<line x1="493.834919848646" y1="494.9909940468163" x2="494.6404265440068" y2="492.35347674631106" stroke-width="5" stroke="red" />
<line x1="496.6376240812117" y1="483.9514671892228" x2="495.42803084539287" y2="489.1804395964922" stroke-width="5" stroke="red" />
<line x1="496.6376240812117" y1="483.9514671892228" x2="496.9305372484676" y2="482.7189384862231" stroke-width="5" stroke="red" />
<line x1="494.68839974789586" y1="492.1591648298809" x2="494.6404265440068" y2="492.35347674631106" stroke-width="5" stroke="red" />
<line x1="494.68839974789586" y1="492.1591648298809" x2="495.2088124887156" y2="490.07399817731624" stroke-width="5" stroke="red" />
<line x1="497.280334235938" y1="481.55861813063484" x2="496.9305372484676" y2="482.7189384862231" stroke-width="5" stroke="red" />
<line x1="497.280334235938" y1="481.55861813063484" x2="497.4086505614043" y2="481.14833073734354" stroke-width="5" stroke="red" />
<line x1="497.6040193996984" y1="480.6039276637934" x2="497.4086505614043" y2="481.14833073734354" stroke-width="5" stroke="red" />
<line x1="497.6040193996984" y1="480.6039276637934" x2="497.6866387737566" y2="480.383321966785" stroke-width="5" stroke="red" />
<line x1="497.9018887739299" y1="479.8703925417799" x2="497.6866387737566" y2="480.383321966785" stroke-width="5" stroke="red" />
<line x1="497.9018887739299" y1="479.8703925417799" x2="498.00217901455005" y2="479.641542049805" stroke-width="5" stroke="red" />
<line x1="498.11927276254073" y1="479.3979739179882" x2="498.00217901455005" y2="479.641542049805" stroke-width="5" stroke="red" />
<line x1="498.11927276254073" y1="479.3979739179882" x2="498.17724163483945" y2="479.2829537144922" stroke-width="5" stroke="red" />
<line x1="498.3013155672127" y1="479.04987921974316" x2="498.17724163483945" y2="479.2829537144922" stroke-width="5" stroke="red" />
<line x1="498.3013155672127" y1="479.04987921974316" x2="498.3659113598342" y2="478.9353955557064" stroke-width="5" stroke="red" />
<line x1="498.49900401824146" y1="478.7139818250061" x2="498.3659113598342" y2="478.9353955557064" stroke-width="5" stroke="red" />
<line x1="498.49900401824146" y1="478.7139818250061" x2="498.57047382939453" y2="478.6013696850524" stroke-width="5" stroke="red" />
<line x1="498.7126689079645" y1="478.39346502966396" x2="498.57047382939453" y2="478.6013696850524" stroke-width="5" stroke="red" />
<line x1="498.7126689079645" y1="478.39346502966396" x2="498.792543979295" y2="478.284529800285" stroke-width="5" stroke="red" />
<line x1="498.9890634029903" y1="478.03984586702217" x2="499.03425301403917" y2="477.9892666231524" stroke-width="5" stroke="red" />
<line x1="498.9460008428913" y1="478.0923535754868" x2="498.9890634029903" y2="478.03984586702217" stroke-width="5" stroke="red" />
<line x1="498.9460008428913" y1="478.0923535754868" x2="498.792543979295" y2="478.284529800285" stroke-width="5" stroke="red" />
<line x1="499.1155194548701" y1="477.89989533622435" x2="499.03425301403917" y2="477.9892666231524" stroke-width="5" stroke="red" />
<line x1="499.1155194548701" y1="477.89989533622435" x2="499.1632515000033" y2="477.85144298298604" stroke-width="5" stroke="red" />
<line x1="499.24755827962025" y1="477.7670984420449" x2="499.1632515000033" y2="477.85144298298604" stroke-width="5" stroke="red" />
<line x1="499.24755827962025" y1="477.7670984420449" x2="499.29758210082645" y2="477.72111265023597" stroke-width="5" stroke="red" />
<line x1="515.3948662559791" y1="552.2492801750263" x2="516.2552562241603" y2="551.8305664539307" stroke-width="5" stroke="red" />
<line x1="515.3948662559791" y1="552.2492801750263" x2="510.1201148228448" y2="554.8162851392207" stroke-width="5" stroke="red" />
<line x1="499.3849744331465" y1="477.64219791547373" x2="499.29758210082645" y2="477.72111265023597" stroke-width="5" stroke="red" />
<line x1="499.3849744331465" y1="477.64219791547373" x2="499.4372893855861" y2="477.59904444331085" stroke-width="5" stroke="red" />
<line x1="499.52831088211025" y1="477.52604527825224" x2="499.4372893855861" y2="477.59904444331085" stroke-width="5" stroke="red" />
<line x1="499.52831088211025" y1="477.52604527825224" x2="499.583185465994" y2="477.48612031421425" stroke-width="5" stroke="red" />
<line x1="499.6774124054028" y1="477.41940857288694" x2="499.583185465994" y2="477.48612031421425" stroke-width="5" stroke="red" />
<line x1="499.6774124054028" y1="477.41940857288694" x2="499.7345551762254" y2="477.3830407559861" stroke-width="5" stroke="red" />
<line x1="499.83206509635454" y1="477.32310572159236" x2="499.7345551762254" y2="477.3830407559861" stroke-width="5" stroke="red" />
<line x1="499.83206509635454" y1="477.32310572159236" x2="499.8914488715241" y2="477.2906590650694" stroke-width="5" stroke="red" />
<line x1="499.99134651547854" y1="477.237955722127" x2="499.8914488715241" y2="477.2906590650694" stroke-width="5" stroke="red" />
<line x1="499.99134651547854" y1="477.237955722127" x2="500.05236250189836" y2="477.2097415777436" stroke-width="5" stroke="red" />
<line x1="500.1561631593536" y1="477.1645249065653" x2="500.05236250189836" y2="477.2097415777436" stroke-width="5" stroke="red" />
<line x1="500.1561631593536" y1="477.1645249065653" x2="500.21903030229885" y2="477.14065452680757" stroke-width="5" stroke="red" />
<line x1="500.3248959195069" y1="477.1032520967572" x2="500.21903030229885" y2="477.14065452680757" stroke-width="5" stroke="red" />
<line x1="500.3892672262846" y1="477.08398246604105" x2="500.3248959195069" y2="477.1032520967572" stroke-width="5" stroke="red" />
<line x1="500.3892672262846" y1="477.08398246604105" x2="500.49821208348305" y2="477.05447007511356" stroke-width="5" stroke="red" />
<line x1="500.63084731020626" y1="477.02956777997906" x2="500.5639997429805" y2="477.0397862335457" stroke-width="5" stroke="red" />
<line x1="500.63084731020626" y1="477.02956777997906" x2="500.74147094711094" y2="477.0077671924924" stroke-width="5" stroke="red" />
<line x1="500.5639997429805" y1="477.0397862335457" x2="500.49821208348305" y2="477.05447007511356" stroke-width="5" stroke="red" />
<line x1="500.8087381095142" y1="477.0018920257094" x2="500.74147094711094" y2="477.0077671924924" stroke-width="5" stroke="red" />
<line x1="500.8087381095142" y1="477.0018920257094" x2="500.92156067403096" y2="476.98768421294017" stroke-width="5" stroke="red" />
<line x1="500.98915056590135" y1="476.9860036780011" x2="500.92156067403096" y2="476.98768421294017" stroke-width="5" stroke="red" />
<line x1="500.98915056590135" y1="476.9860036780011" x2="501.10325296976765" y2="476.9791604032633" stroke-width="5" stroke="red" />
<line x1="501.171072520532" y1="476.9813497808401" x2="501.10325296976765" y2="476.9791604032633" stroke-width="5" stroke="red" />
<line x1="501.171072520532" y1="476.9813497808401" x2="501.28648833058907" y2="476.98151067334305" stroke-width="5" stroke="red" />
<line x1="501.3538957123218" y1="476.98726312888726" x2="501.28648833058907" y2="476.98151067334305" stroke-width="5" stroke="red" />
<line x1="501.3538957123218" y1="476.98726312888726" x2="501.470151286991" y2="476.9939452560867" stroke-width="5" stroke="red" />
<line x1="501.5373376555706" y1="477.0029288478741" x2="501.470151286991" y2="476.9939452560867" stroke-width="5" stroke="red" />
<line x1="501.5373376555706" y1="477.0029288478741" x2="501.6539606968137" y2="477.0156102679618" stroke-width="5" stroke="red" />
<line x1="501.7866942743424" y1="477.0420208762489" x2="501.6539606968137" y2="477.0156102679618" stroke-width="5" stroke="red" />
<line x1="501.7866942743424" y1="477.0420208762489" x2="502.02143651779534" y2="477.0838051056398" stroke-width="5" stroke="red" />
<line x1="502.15118816398694" y1="477.11956351579363" x2="502.02143651779534" y2="477.0838051056398" stroke-width="5" stroke="red" />
<line x1="502.15118816398694" y1="477.11956351579363" x2="502.38695529876867" y2="477.1806249219231" stroke-width="5" stroke="red" />
<line x1="502.5130611923859" y1="477.2235463865784" x2="502.38695529876867" y2="477.1806249219231" stroke-width="5" stroke="red" />
<line x1="502.5130611923859" y1="477.2235463865784" x2="502.7498567608846" y2="477.30093529483315" stroke-width="5" stroke="red" />
<line x1="502.87177855819266" y1="477.3492894846134" x2="502.7498567608846" y2="477.30093529483315" stroke-width="5" stroke="red" />
<line x1="502.87177855819266" y1="477.3492894846134" x2="503.108570454152" y2="477.44064041173567" stroke-width="5" stroke="red" />
<line x1="504.88427851668337" y1="557.561151037314" x2="510.1201148228448" y2="554.8162851392207" stroke-width="5" stroke="red" />
<line x1="504.88427851668337" y1="557.561151037314" x2="503.86838166974155" y2="558.0937147769115" stroke-width="5" stroke="red" />
<line x1="503.22659861108025" y1="477.4930388596336" x2="503.108570454152" y2="477.44064041173567" stroke-width="5" stroke="red" />
<line x1="503.22659861108025" y1="477.4930388596336" x2="503.4638638877161" y2="477.5966082699973" stroke-width="5" stroke="red" />
<line x1="503.6880049247671" y1="477.7093035215081" x2="503.4638638877161" y2="477.5966082699973" stroke-width="5" stroke="red" />
<line x1="503.6880049247671" y1="477.7093035215081" x2="504.1631070095635" y2="477.945730119075" stroke-width="5" stroke="red" />
<line x1="504.5676165710481" y1="478.18399427193725" x2="504.1631070095635" y2="477.945730119075" stroke-width="5" stroke="red" />
<line x1="504.5676165710481" y1="478.18399427193725" x2="505.5261523925555" y2="478.7474603546971" stroke-width="5" stroke="red" />
<line x1="506.183763199104" y1="479.19525857194486" x2="505.5261523925555" y2="478.7474603546971" stroke-width="5" stroke="red" />
<line x1="506.183763199104" y1="479.19525857194486" x2="508.1719906837643" y2="480.5565642982908" stroke-width="5" stroke="red" />
<line x1="508.60974017486257" y1="480.8744522476204" x2="508.1719906837643" y2="480.5565642982908" stroke-width="5" stroke="red" />
<line x1="508.60974017486257" y1="480.8744522476204" x2="510.7587950167248" y2="482.44921081032606" stroke-width="5" stroke="red" />
<line x1="511.1800607471646" y1="482.7458939568919" x2="510.7587950167248" y2="482.44921081032606" stroke-width="5" stroke="red" />
<line x1="511.1800607471646" y1="482.7458939568919" x2="513.563968821243" y2="484.4468363197749" stroke-width="5" stroke="red" />
<line x1="515.591519749724" y1="485.8787299051404" x2="513.563968821243" y2="484.4468363197749" stroke-width="5" stroke="red" />
<line x1="515.591519749724" y1="485.8787299051404" x2="515.9231241656405" y2="486.11553338858056" stroke-width="5" stroke="red" />
<line x1="520.1481938306093" y1="488.7294700927321" x2="515.9231241656405" y2="486.11553338858056" stroke-width="5" stroke="red" />
<line x1="520.1481938306093" y1="488.7294700927321" x2="521.192313257728" y2="489.38402466911896" stroke-width="5" stroke="red" />
<line x1="524.8049997558778" y1="491.2990163514136" x2="521.192313257728" y2="489.38402466911896" stroke-width="5" stroke="red" />
<line x1="524.8049997558778" y1="491.2990163514136" x2="526.5524341899977" y2="492.2378924550546" stroke-width="5" stroke="red" />
<line x1="517.2869019003007" y1="551.5488359866811" x2="529.4655737644003" y2="548.2232637346868" stroke-width="5" stroke="red" />
<line x1="517.2869019003007" y1="551.5488359866811" x2="516.2552562241603" y2="551.8305664539307" stroke-width="5" stroke="red" />
<line x1="529.5318988337916" y1="493.6314090124131" x2="526.5524341899977" y2="492.2378924550546" stroke-width="5" stroke="red" />
<line x1="529.5318988337916" y1="493.6314090124131" x2="531.9555906155359" y2="494.78036957676574" stroke-width="5" stroke="red" />
<line x1="534.3079193847115" y1="495.76333103096295" x2="531.9555906155359" y2="494.78036957676574" stroke-width="5" stroke="red" />
<line x1="534.3079193847115" y1="495.76333103096295" x2="537.3803372695897" y2="497.06536405212876" stroke-width="5" stroke="red" />
<line x1="539.1210687710055" y1="497.71435563006213" x2="537.3803372695897" y2="497.06536405212876" stroke-width="5" stroke="red" />
<line x1="539.1210687710055" y1="497.71435563006213" x2="542.8173090777199" y2="499.1131252354476" stroke-width="5" stroke="red" />
<line x1="530.1070272876453" y1="548.1708155214734" x2="533.121863756093" y2="547.9243076704311" stroke-width="5" stroke="red" />
<line x1="530.1070272876453" y1="548.1708155214734" x2="529.4655737644003" y2="548.2232637346868" stroke-width="5" stroke="red" />
<line x1="541.3943140048525" y1="547.564986473807" x2="543.4844737122485" y2="547.4741844745008" stroke-width="5" stroke="red" />
<line x1="541.3943140048525" y1="547.564986473807" x2="533.121863756093" y2="547.9243076704311" stroke-width="5" stroke="red" />
<line x1="543.9668922861666" y1="499.4865742976445" x2="542.8173090777199" y2="499.1131252354476" stroke-width="5" stroke="red" />
<line x1="543.9668922861666" y1="499.4865742976445" x2="548.2623579312841" y2="500.90433103577095" stroke-width="5" stroke="red" />
<line x1="548.2623579312841" y1="500.90433103577095" x2="553.6676329869506" y2="502.5369882724273" stroke-width="5" stroke="red" />
<line x1="553.7038671682603" y1="502.5478120428129" x2="553.6676329869506" y2="502.5369882724273" stroke-width="5" stroke="red" />
<line x1="553.7038671682603" y1="502.5478120428129" x2="553.9655169757427" y2="502.641525494068" stroke-width="5" stroke="red" />
<line x1="556.276877649407" y1="503.45335230890197" x2="553.9655169757427" y2="502.641525494068" stroke-width="5" stroke="red" />
<line x1="556.276877649407" y1="503.45335230890197" x2="556.4101522909992" y2="503.5003861058318" stroke-width="5" stroke="red" />
<line x1="555.2476828988557" y1="531.7415667899884" x2="555.2477375317021" y2="531.7264990784648" stroke-width="5" stroke="red" />
<line x1="555.2476828988557" y1="531.7415667899884" x2="555.2463898673446" y2="532.0165638355028" stroke-width="5" stroke="red" />
<line x1="555.3315798080247" y1="530.2376504063159" x2="555.3369193169773" y2="530.1418817426052" stroke-width="5" stroke="red" />
<line x1="555.3315798080247" y1="530.2376504063159" x2="555.2477375317021" y2="531.7264990784648" stroke-width="5" stroke="red" />
<line x1="555.4881423637156" y1="528.7413635427223" x2="555.506791007821" y2="528.5678169799303" stroke-width="5" stroke="red" />
<line x1="555.4881423637156" y1="528.7413635427223" x2="555.3369193169773" y2="530.1418817426052" stroke-width="5" stroke="red" />
<line x1="555.7098151700937" y1="527.260733487411" x2="555.7481569194093" y2="527.0141280374163" stroke-width="5" stroke="red" />
<line x1="555.7098151700937" y1="527.260733487411" x2="555.506791007821" y2="528.5678169799303" stroke-width="5" stroke="red" />
<line x1="555.3211889272707" y1="534.6322712164156" x2="555.33510060695" y2="534.900335451797" stroke-width="5" stroke="red" />
<line x1="555.3211889272707" y1="534.6322712164156" x2="555.2523736651441" y2="533.3134653469792" stroke-width="5" stroke="red" />
<line x1="555.4460151297685" y1="536.0706719828148" x2="555.4854974690776" y2="536.4871861865544" stroke-width="5" stroke="red" />
<line x1="555.4460151297685" y1="536.0706719828148" x2="555.33510060695" y2="534.900335451797" stroke-width="5" stroke="red" />
<line x1="551.6255861573279" y1="548.7590486175416" x2="558.3043627372011" y2="549.8131054548044" stroke-width="5" stroke="red" />
<line x1="551.6255861573279" y1="548.7590486175416" x2="543.4844737122485" y2="547.4741844745008" stroke-width="5" stroke="red" />
<line x1="558.3043627372011" y1="549.8131054548044" x2="558.4724163139256" y2="549.6724955773637" stroke-width="5" stroke="red" />
<line x1="555.6208828934194" y1="537.5065552822003" x2="555.695582492765" y2="538.0673016205199" stroke-width="5" stroke="red" />
<line x1="555.6208828934194" y1="537.5065552822003" x2="555.4854974690776" y2="536.4871861865544" stroke-width="5" stroke="red" />
<line x1="555.2518167819146" y1="533.1937590450623" x2="555.2523736651441" y2="533.3134653469792" stroke-width="5" stroke="red" />
<line x1="555.2518167819146" y1="533.1937590450623" x2="555.2463898673446" y2="532.0165638355028" stroke-width="5" stroke="red" />
<line x1="555.695582492765" y1="538.0673016205199" x2="555.8958720562255" y2="539.1893511218099" stroke-width="5" stroke="red" />
<line x1="555.991550036234" y1="525.793132306779" x2="556.0548280298074" y2="525.4763433750439" stroke-width="5" stroke="red" />
<line x1="555.991550036234" y1="525.793132306779" x2="555.7481569194093" y2="527.0141280374163" stroke-width="5" stroke="red" />
<line x1="556.1977796672762" y1="540.8394469739785" x2="555.8958720562255" y2="539.1893511218099" stroke-width="5" stroke="red" />
<line x1="556.1977796672762" y1="540.8394469739785" x2="556.2733939058102" y2="541.1998749537742" stroke-width="5" stroke="red" />
<line x1="556.5367714156807" y1="542.2870834935953" x2="557.0230081717685" y2="544.289771305955" stroke-width="5" stroke="red" />
<line x1="556.5367714156807" y1="542.2870834935953" x2="556.2733939058102" y2="541.1998749537742" stroke-width="5" stroke="red" />
<line x1="556.6085854553472" y1="523.3113980376405" x2="556.8294497626231" y2="522.4506796029402" stroke-width="5" stroke="red" />
<line x1="556.6085854553472" y1="523.3113980376405" x2="556.0548280298074" y2="525.4763433750439" stroke-width="5" stroke="red" />
<line x1="557.2097068651699" y1="544.9307929305138" x2="557.90968938822" y2="547.3339649501253" stroke-width="5" stroke="red" />
<line x1="557.2097068651699" y1="544.9307929305138" x2="557.0230081717685" y2="544.289771305955" stroke-width="5" stroke="red" />
<line x1="557.0308666776033" y1="503.76647288220823" x2="556.4101522909992" y2="503.5003861058318" stroke-width="5" stroke="red" />
<line x1="557.0308666776033" y1="503.76647288220823" x2="557.0753840440346" y2="503.78558951374407" stroke-width="5" stroke="red" />
<line x1="557.90968938822" y1="547.3339649501253" x2="558.6916752921355" y2="549.6775642273458" stroke-width="5" stroke="red" />
<line x1="558.4724163139256" y1="549.6724955773637" x2="558.6916752921355" y2="549.6775642273458" stroke-width="5" stroke="red" />
<line x1="557.6760481546404" y1="504.07584296898887" x2="557.0753840440346" y2="503.78558951374407" stroke-width="5" stroke="red" />
<line x1="557.6760481546404" y1="504.07584296898887" x2="557.7307755274406" y2="504.1022729925187" stroke-width="5" stroke="red" />
<line x1="558.3064799309021" y1="504.4243184062873" x2="557.7307755274406" y2="504.1022729925187" stroke-width="5" stroke="red" />
<line x1="558.3064799309021" y1="504.4243184062873" x2="558.3712630794536" y2="504.46048698176696" stroke-width="5" stroke="red" />
<line x1="557.9711300681951" y1="519.0194615593425" x2="558.7915248137008" y2="516.5703087306769" stroke-width="5" stroke="red" />
<line x1="557.9711300681951" y1="519.0194615593425" x2="556.8294497626231" y2="522.4506796029402" stroke-width="5" stroke="red" />
<line x1="558.6478205469934" y1="504.63701813417697" x2="558.3712630794536" y2="504.46048698176696" stroke-width="5" stroke="red" />
<line x1="558.6478205469934" y1="504.63701813417697" x2="558.6826967623509" y2="504.6591082862425" stroke-width="5" stroke="red" />
<line x1="558.9505499091293" y1="504.8474444255988" x2="558.6826967623509" y2="504.6591082862425" stroke-width="5" stroke="red" />
<line x1="558.9505499091293" y1="504.8474444255988" x2="558.9876423232208" y2="504.8733767312047" stroke-width="5" stroke="red" />
<line x1="559.2469190061088" y1="505.07775823492466" x2="558.9876423232208" y2="504.8733767312047" stroke-width="5" stroke="red" />
<line x1="559.2469190061088" y1="505.07775823492466" x2="559.2864967385317" y2="505.1086884012887" stroke-width="5" stroke="red" />
<line x1="559.5319095327394" y1="505.328257227914" x2="559.2864967385317" y2="505.1086884012887" stroke-width="5" stroke="red" />
<line x1="559.5319095327394" y1="505.328257227914" x2="559.5731258749555" y2="505.36470496962386" stroke-width="5" stroke="red" />
<line x1="559.2738003768687" y1="515.1959883801615" x2="559.8256507893236" y2="513.6379821166357" stroke-width="5" stroke="red" />
<line x1="559.2738003768687" y1="515.1959883801615" x2="558.7915248137008" y2="516.5703087306769" stroke-width="5" stroke="red" />
<line x1="559.6899296206082" y1="505.4808539517196" x2="559.5731258749555" y2="505.36470496962386" stroke-width="5" stroke="red" />
<line x1="559.6899296206082" y1="505.4808539517196" x2="559.7106589603803" y2="505.5011865534028" stroke-width="5" stroke="red" />
<line x1="559.8229409280341" y1="505.6215988268646" x2="559.7106589603803" y2="505.5011865534028" stroke-width="5" stroke="red" />
<line x1="559.8229409280341" y1="505.6215988268646" x2="559.8437995802732" y2="505.64365432574414" stroke-width="5" stroke="red" />
<line x1="559.9509653966071" y1="505.76843034939856" x2="559.8437995802732" y2="505.64365432574414" stroke-width="5" stroke="red" />
<line x1="559.9509653966071" y1="505.76843034939856" x2="559.9719232984454" y2="505.7923717474278" stroke-width="5" stroke="red" />
<line x1="560.0733852938915" y1="505.9214329099814" x2="559.9719232984454" y2="505.7923717474278" stroke-width="5" stroke="red" />
<line x1="560.0733852938915" y1="505.9214329099814" x2="560.0940140832456" y2="505.94734546369136" stroke-width="5" stroke="red" />
<line x1="560.0156308323262" y1="513.034970738797" x2="560.2986418644357" y2="512.1458214843298" stroke-width="5" stroke="red" />
<line x1="560.0156308323262" y1="513.034970738797" x2="559.8256507893236" y2="513.6379821166357" stroke-width="5" stroke="red" />
<line x1="560.1891968749578" y1="506.0806240324889" x2="560.0940140832456" y2="505.94734546369136" stroke-width="5" stroke="red" />
<line x1="560.1891968749578" y1="506.0806240324889" x2="560.2097002384902" y2="506.1086445674356" stroke-width="5" stroke="red" />
<line x1="560.298062712429" y1="506.24613548349913" x2="560.2097002384902" y2="506.1086445674356" stroke-width="5" stroke="red" />
<line x1="560.298062712429" y1="506.24613548349913" x2="560.3179685919738" y2="506.27635978999007" stroke-width="5" stroke="red" />
<line x1="560.400195507212" y1="506.41766856788064" x2="560.3179685919738" y2="506.27635978999007" stroke-width="5" stroke="red" />
<line x1="560.400195507212" y1="506.41766856788064" x2="560.4195598673165" y2="506.4501737209891" stroke-width="5" stroke="red" />
<line x1="560.3755878954219" y1="511.86600862170604" x2="560.5097794251827" y2="511.38725096207065" stroke-width="5" stroke="red" />
<line x1="560.3755878954219" y1="511.86600862170604" x2="560.2986418644357" y2="512.1458214843298" stroke-width="5" stroke="red" />
<line x1="560.4938877796859" y1="506.5949143187182" x2="560.4195598673165" y2="506.4501737209891" stroke-width="5" stroke="red" />
<line x1="560.4938877796859" y1="506.5949143187182" x2="560.5121781399466" y2="506.62972639987555" stroke-width="5" stroke="red" />
<line x1="560.5787071525544" y1="506.77747191873635" x2="560.5121781399466" y2="506.62972639987555" stroke-width="5" stroke="red" />
<line x1="560.5787071525544" y1="506.77747191873635" x2="560.5961160185113" y2="506.81461110389614" stroke-width="5" stroke="red" />
<line x1="560.5722326130715" y1="511.1207222726464" x2="560.6927320110359" y2="510.616926265479" stroke-width="5" stroke="red" />
<line x1="560.5722326130715" y1="511.1207222726464" x2="560.5097794251827" y2="511.38725096207065" stroke-width="5" stroke="red" />
<line x1="560.6549534083102" y1="506.96487069905925" x2="560.5961160185113" y2="506.81461110389614" stroke-width="5" stroke="red" />
<line x1="560.6549534083102" y1="506.96487069905925" x2="560.6708926042762" y2="507.00432620360675" stroke-width="5" stroke="red" />
<line x1="560.721548584764" y1="507.1565379916416" x2="560.6708926042762" y2="507.00432620360675" stroke-width="5" stroke="red" />
<line x1="560.721548584764" y1="507.1565379916416" x2="560.7358815646421" y2="507.198259698554" stroke-width="5" stroke="red" />
<line x1="560.7790571341852" y1="507.3517680093444" x2="560.7358815646421" y2="507.198259698554" stroke-width="5" stroke="red" />
<line x1="560.7790571341852" y1="507.3517680093444" x2="560.7919801349176" y2="507.39562741696176" stroke-width="5" stroke="red" />
<line x1="560.7385128457744" y1="510.36227667524247" x2="560.8377168871157" y2="509.82718699066413" stroke-width="5" stroke="red" />
<line x1="560.7385128457744" y1="510.36227667524247" x2="560.6927320110359" y2="510.616926265479" stroke-width="5" stroke="red" />
<line x1="560.826621469268" y1="507.5497859333012" x2="560.7919801349176" y2="507.39562741696176" stroke-width="5" stroke="red" />
<line x1="560.826621469268" y1="507.5497859333012" x2="560.8376598098788" y2="507.59569080226413" stroke-width="5" stroke="red" />
<line x1="560.8526744568137" y1="509.7062331096496" x2="560.8893138562895" y2="509.426464709081" stroke-width="5" stroke="red" />
<line x1="560.8526744568137" y1="509.7062331096496" x2="560.8377168871157" y2="509.82718699066413" stroke-width="5" stroke="red" />
<line x1="560.8656366749972" y1="507.74994834025836" x2="560.8376598098788" y2="507.59569080226413" stroke-width="5" stroke="red" />
<line x1="560.8656366749972" y1="507.74994834025836" x2="560.8746425461901" y2="507.7977792272083" stroke-width="5" stroke="red" />
<line x1="560.8949082759266" y1="507.95168579418555" x2="560.8746425461901" y2="507.7977792272083" stroke-width="5" stroke="red" />
<line x1="560.8949082759266" y1="507.95168579418555" x2="560.9021105455203" y2="508.00126574074255" stroke-width="5" stroke="red" />
<line x1="560.8986816342883" y1="509.3095161568978" x2="560.9234555106634" y2="509.02191984164074" stroke-width="5" stroke="red" />
<line x1="560.8986816342883" y1="509.3095161568978" x2="560.8893138562895" y2="509.426464709081" stroke-width="5" stroke="red" />
<line x1="560.9159344124979" y1="508.15436322265066" x2="560.9021105455203" y2="508.00126574074255" stroke-width="5" stroke="red" />
<line x1="560.9159344124979" y1="508.15436322265066" x2="560.9210164050767" y2="508.2055803055078" stroke-width="5" stroke="red" />
<line x1="560.929057333466" y1="508.3573914144351" x2="560.9210164050767" y2="508.2055803055078" stroke-width="5" stroke="red" />
<line x1="560.929057333466" y1="508.3573914144351" x2="560.9322833189764" y2="508.4100794277519" stroke-width="5" stroke="red" />
<line x1="560.9261783267812" y1="508.90945459498" x2="560.9359034497468" y2="508.61444492244294" stroke-width="5" stroke="red" />
<line x1="560.9261783267812" y1="508.90945459498" x2="560.9234555106634" y2="509.02191984164074" stroke-width="5" stroke="red" />
<line x1="560.934643617028" y1="508.560386333793" x2="560.9322833189764" y2="508.4100794277519" stroke-width="5" stroke="red" />
<line x1="560.934643617028" y1="508.560386333793" x2="560.9359034497468" y2="508.61444492244294" stroke-width="5" stroke="red" />
</svg>
