<svg width="1005.8216363586872" height="994.1783636413129" xmlns="http://www.w3.org/2000/svg">
<line x1="436.55194781433374" y1="485.5024260130585" x2="436.5539062578125" y2="485.65715411955637" stroke-width="5" stroke="red" />
<line x1="436.55194781433374" y1="485.5024260130585" x2="436.596808453019" y2="484.73572429694025" stroke-width="5" stroke="red" />
<line x1="436.56188494775995" y1="486.4142832662539" x2="436.5539062578125" y2="485.65715411955637" stroke-width="5" stroke="red" />
<line x1="436.56188494775995" y1="486.4142832662539" x2="436.56762295657484" y2="486.49609932204385" stroke-width="5" stroke="red" />
<line x1="436.59268488150457" y1="486.8691852209409" x2="436.6021733786062" y2="486.9533258102479" stroke-width="5" stroke="red" />
<line x1="436.59268488150457" y1="486.8691852209409" x2="436.56762295657484" y2="486.49609932204385" stroke-width="5" stroke="red" />
<line x1="436.60508925401035" y1="484.5913014369318" x2="436.6997151885826" y2="483.82489460852383" stroke-width="5" stroke="red" />
<line x1="436.60508925401035" y1="484.5913014369318" x2="436.596808453019" y2="484.73572429694025" stroke-width="5" stroke="red" />
<line x1="436.64307955265195" y1="487.3223396118576" x2="436.6021733786062" y2="486.9533258102479" stroke-width="5" stroke="red" />
<line x1="436.64307955265195" y1="487.3223396118576" x2="436.6565441028841" y2="487.4086290968958" stroke-width="5" stroke="red" />
<line x1="436.71244599217357" y1="487.77290979935384" x2="436.73041964735876" y2="487.8611729839513" stroke-width="5" stroke="red" />
<line x1="436.71244599217357" y1="487.77290979935384" x2="436.6565441028841" y2="487.4086290968958" stroke-width="5" stroke="red" />
<line x1="436.7159650056019" y1="483.6920185004546" x2="436.6997151885826" y2="483.82489460852383" stroke-width="5" stroke="red" />
<line x1="436.7159650056019" y1="483.6920185004546" x2="436.862185177644" y2="482.92403748665157" stroke-width="5" stroke="red" />
<line x1="436.80168842015587" y1="488.2199559980303" x2="436.73041964735876" y2="487.8611729839513" stroke-width="5" stroke="red" />
<line x1="436.80168842015587" y1="488.2199559980303" x2="436.8241098737737" y2="488.3099839009408" stroke-width="5" stroke="red" />
<line x1="436.9110953897794" y1="488.6625344892166" x2="436.9385166279347" y2="488.7541084144137" stroke-width="5" stroke="red" />
<line x1="436.9110953897794" y1="488.6625344892166" x2="436.8241098737737" y2="488.3099839009408" stroke-width="5" stroke="red" />
<line x1="436.8854335743243" y1="482.80170543565737" x2="437.0850600437654" y2="482.03619684652807" stroke-width="5" stroke="red" />
<line x1="436.8854335743243" y1="482.80170543565737" x2="436.862185177644" y2="482.92403748665157" stroke-width="5" stroke="red" />
<line x1="437.0403645515407" y1="489.0997832465231" x2="436.9385166279347" y2="488.7541084144137" stroke-width="5" stroke="red" />
<line x1="437.0403645515407" y1="489.0997832465231" x2="437.0727079907177" y2="489.19268233418785" stroke-width="5" stroke="red" />
<line x1="437.1141836157534" y1="481.9243353695784" x2="437.0850600437654" y2="482.03619684652807" stroke-width="5" stroke="red" />
<line x1="437.1141836157534" y1="481.9243353695784" x2="437.3669601707135" y2="481.1652674167222" stroke-width="5" stroke="red" />
<line x1="437.18857714787293" y1="489.53093798087656" x2="437.2259048909416" y2="489.6249427677544" stroke-width="5" stroke="red" />
<line x1="437.18857714787293" y1="489.53093798087656" x2="437.0727079907177" y2="489.19268233418785" stroke-width="5" stroke="red" />
<line x1="437.3555521905914" y1="489.95525490844574" x2="437.2259048909416" y2="489.6249427677544" stroke-width="5" stroke="red" />
<line x1="437.3555521905914" y1="489.95525490844574" x2="437.3979109516522" y2="490.0501847224902" stroke-width="5" stroke="red" />
<line x1="437.40083008333215" y1="481.06366469262633" x2="437.7056792473323" y2="480.31476768906674" stroke-width="5" stroke="red" />
<line x1="437.40083008333215" y1="481.06366469262633" x2="437.3669601707135" y2="481.1652674167222" stroke-width="5" stroke="red" />
<line x1="437.5405125235409" y1="490.3723766774525" x2="437.5879327236819" y2="490.4680720144189" stroke-width="5" stroke="red" />
<line x1="437.5405125235409" y1="490.3723766774525" x2="437.3979109516522" y2="490.0501847224902" stroke-width="5" stroke="red" />
<line x1="437.7415320475971" y1="490.78197948595374" x2="437.85024755488155" y2="490.9741913081386" stroke-width="5" stroke="red" />
<line x1="437.7415320475971" y1="490.78197948595374" x2="437.5879327236819" y2="490.4680720144189" stroke-width="5" stroke="red" />
<line x1="437.7430300180828" y1="480.22304692306994" x2="437.7056792473323" y2="480.31476768906674" stroke-width="5" stroke="red" />
<line x1="437.7430300180828" y1="480.22304692306994" x2="438.09804129576173" y2="479.48756394540754" stroke-width="5" stroke="red" />
<line x1="438.18798931461754" y1="491.57801353945007" x2="437.85024755488155" y2="490.9741913081386" stroke-width="5" stroke="red" />
<line x1="438.18798931461754" y1="491.57801353945007" x2="438.31471594004347" y2="491.77099452514705" stroke-width="5" stroke="red" />
<line x1="438.13785289259135" y1="479.40522299298163" x2="438.5395700212139" y2="478.6857404728019" stroke-width="5" stroke="red" />
<line x1="438.13785289259135" y1="479.40522299298163" x2="438.09804129576173" y2="479.48756394540754" stroke-width="5" stroke="red" />
<line x1="438.6840522349614" y1="492.3391980256713" x2="438.8278603706297" y2="492.5335144887758" stroke-width="5" stroke="red" />
<line x1="438.6840522349614" y1="492.3391980256713" x2="438.31471594004347" y2="491.77099452514705" stroke-width="5" stroke="red" />
<line x1="438.5807513699093" y1="478.6121687017985" x2="438.5395700212139" y2="478.6857404728019" stroke-width="5" stroke="red" />
<line x1="438.5807513699093" y1="478.6121687017985" x2="439.02691543755003" y2="477.91061832435486" stroke-width="5" stroke="red" />
<line x1="439.06855674050394" y1="477.84513848157826" x2="439.54981189869693" y2="477.1698851957238" stroke-width="5" stroke="red" />
<line x1="439.06855674050394" y1="477.84513848157826" x2="439.02691543755003" y2="477.91061832435486" stroke-width="5" stroke="red" />
<line x1="439.2221460268512" y1="493.0712279036569" x2="438.8278603706297" y2="492.5335144887758" stroke-width="5" stroke="red" />
<line x1="439.2221460268512" y1="493.0712279036569" x2="439.3820334141254" y2="493.2667270695532" stroke-width="5" stroke="red" />
<line x1="439.5909012088804" y1="477.1123447050546" x2="439.54981189869693" y2="477.1698851957238" stroke-width="5" stroke="red" />
<line x1="439.5909012088804" y1="477.1123447050546" x2="440.10809896588256" y2="476.4565929158847" stroke-width="5" stroke="red" />
<line x1="439.7948860870584" y1="493.776464643038" x2="439.9698181385693" y2="493.9732126437152" stroke-width="5" stroke="red" />
<line x1="439.7948860870584" y1="493.776464643038" x2="439.3820334141254" y2="493.2667270695532" stroke-width="5" stroke="red" />
<line x1="440.14840830808805" y1="476.4056067946562" x2="440.69889411052196" y2="475.7698183356587" stroke-width="5" stroke="red" />
<line x1="440.14840830808805" y1="476.4056067946562" x2="440.10809896588256" y2="476.4565929158847" stroke-width="5" stroke="red" />
<line x1="440.3962173523406" y1="494.4576298614774" x2="439.9698181385693" y2="493.9732126437152" stroke-width="5" stroke="red" />
<line x1="440.3962173523406" y1="494.4576298614774" x2="440.7845783602907" y2="494.8546888795967" stroke-width="5" stroke="red" />
<line x1="440.73798010640655" y1="475.7247353831342" x2="440.69889411052196" y2="475.7698183356587" stroke-width="5" stroke="red" />
<line x1="440.73798010640655" y1="475.7247353831342" x2="441.3183084253571" y2="475.1087822441709" stroke-width="5" stroke="red" />
<line x1="441.3558696154441" y1="475.0689800005038" x2="442.5966373608681" y2="473.89256419080965" stroke-width="5" stroke="red" />
<line x1="441.3558696154441" y1="475.0689800005038" x2="441.3183084253571" y2="475.1087822441709" stroke-width="5" stroke="red" />
<line x1="441.6632514560989" y1="495.7616392407056" x2="442.0969545984179" y2="496.17288693559345" stroke-width="5" stroke="red" />
<line x1="441.6632514560989" y1="495.7616392407056" x2="440.7845783602907" y2="494.8546888795967" stroke-width="5" stroke="red" />
<line x1="442.66368129240834" y1="473.829153039254" x2="442.5966373608681" y2="473.89256419080965" stroke-width="5" stroke="red" />
<line x1="442.66368129240834" y1="473.829153039254" x2="443.9884564605054" y2="472.72131610083824" stroke-width="5" stroke="red" />
<line x1="442.9799107087361" y1="497.0173482112583" x2="445.0130270243938" y2="498.9014788307617" stroke-width="5" stroke="red" />
<line x1="442.9799107087361" y1="497.0173482112583" x2="442.0969545984179" y2="496.17288693559345" stroke-width="5" stroke="red" />
<line x1="444.0473199816257" y1="472.6722012033627" x2="446.8514643623325" y2="470.59205844948485" stroke-width="5" stroke="red" />
<line x1="444.0473199816257" y1="472.6722012033627" x2="443.9884564605054" y2="472.72131610083824" stroke-width="5" stroke="red" />
<line x1="446.93226050702435" y1="470.5322676904209" x2="446.8514643623325" y2="470.59205844948485" stroke-width="5" stroke="red" />
<line x1="446.93226050702435" y1="470.5322676904209" x2="449.8620748256385" y2="468.54629166907694" stroke-width="5" stroke="red" />
<line x1="448.28401016945486" y1="501.9562735514547" x2="445.0130270243938" y2="498.9014788307617" stroke-width="5" stroke="red" />
<line x1="448.28401016945486" y1="501.9562735514547" x2="449.4551236342555" y2="503.135052593931" stroke-width="5" stroke="red" />
<line x1="449.90653624548844" y1="468.5162467440216" x2="453.55778589160263" y2="466.12111317374615" stroke-width="5" stroke="red" />
<line x1="449.90653624548844" y1="468.5162467440216" x2="449.8620748256385" y2="468.54629166907694" stroke-width="5" stroke="red" />
<line x1="450.8315354531818" y1="504.53122969126474" x2="452.06730805331676" y2="505.90459505379226" stroke-width="5" stroke="red" />
<line x1="450.8315354531818" y1="504.53122969126474" x2="449.4551236342555" y2="503.135052593931" stroke-width="5" stroke="red" />
<line x1="453.2446738911374" y1="507.2229987079208" x2="452.06730805331676" y2="505.90459505379226" stroke-width="5" stroke="red" />
<line x1="453.2446738911374" y1="507.2229987079208" x2="454.52311221251574" y2="508.82102966296435" stroke-width="5" stroke="red" />
<line x1="455.49803269595856" y1="510.0482600382234" x2="456.79162137083176" y2="511.8919246595868" stroke-width="5" stroke="red" />
<line x1="455.49803269595856" y1="510.0482600382234" x2="454.52311221251574" y2="508.82102966296435" stroke-width="5" stroke="red" />
<line x1="455.91848261480163" y1="464.58253145414983" x2="453.55778589160263" y2="466.12111317374615" stroke-width="5" stroke="red" />
<line x1="455.91848261480163" y1="464.58253145414983" x2="455.97520913718483" y2="464.54225105813873" stroke-width="5" stroke="red" />
<line x1="457.56536595769376" y1="513.0020072706435" x2="456.79162137083176" y2="511.8919246595868" stroke-width="5" stroke="red" />
<line x1="457.56536595769376" y1="513.0020072706435" x2="458.84987735191515" y2="515.1138631877326" stroke-width="5" stroke="red" />
<line x1="459.43428212433116" y1="516.0808936100594" x2="460.6834536710117" y2="518.4720900531012" stroke-width="5" stroke="red" />
<line x1="459.43428212433116" y1="516.0808936100594" x2="458.84987735191515" y2="515.1138631877326" stroke-width="5" stroke="red" />
<line x1="461.0957044273586" y1="519.2661430420752" x2="460.6834536710117" y2="518.4720900531012" stroke-width="5" stroke="red" />
<line x1="461.0957044273586" y1="519.2661430420752" x2="462.3105280283606" y2="521.9384122941215" stroke-width="5" stroke="red" />
<line x1="461.78291668623143" y1="460.43732233054004" x2="455.97520913718483" y2="464.54225105813873" stroke-width="5" stroke="red" />
<line x1="461.78291668623143" y1="460.43732233054004" x2="461.88495603178205" y2="460.3520311277399" stroke-width="5" stroke="red" />
<line x1="462.5786235971204" y1="522.5314551693375" x2="463.7728595808536" y2="525.4783943381153" stroke-width="5" stroke="red" />
<line x1="462.5786235971204" y1="522.5314551693375" x2="462.3105280283606" y2="521.9384122941215" stroke-width="5" stroke="red" />
<line x1="463.92162491373733" y1="525.8473764252336" x2="465.71889316416053" y2="530.9272808963411" stroke-width="5" stroke="red" />
<line x1="463.92162491373733" y1="525.8473764252336" x2="463.7728595808536" y2="525.4783943381153" stroke-width="5" stroke="red" />
<line x1="464.5479398486083" y1="458.1380806104619" x2="461.88495603178205" y2="460.3520311277399" stroke-width="5" stroke="red" />
<line x1="464.5479398486083" y1="458.1380806104619" x2="464.61783926397305" y2="458.0723859360121" stroke-width="5" stroke="red" />
<line x1="465.86069357953323" y1="456.91064492072456" x2="464.61783926397305" y2="458.0723859360121" stroke-width="5" stroke="red" />
<line x1="465.86069357953323" y1="456.91064492072456" x2="465.93953560970795" y2="456.8301239387036" stroke-width="5" stroke="red" />
<line x1="466.3105531724704" y1="532.5885531012672" x2="466.3982549562531" y2="532.8681122228397" stroke-width="5" stroke="red" />
<line x1="466.3105531724704" y1="532.5885531012672" x2="465.71889316416053" y2="530.9272808963411" stroke-width="5" stroke="red" />
<line x1="467.1210877100431" y1="455.6306906018808" x2="467.2088003050974" y2="455.53309661168515" stroke-width="5" stroke="red" />
<line x1="467.1210877100431" y1="455.6306906018808" x2="465.93953560970795" y2="456.8301239387036" stroke-width="5" stroke="red" />
<line x1="468.3305547516375" y1="454.2940009733636" x2="467.2088003050974" y2="455.53309661168515" stroke-width="5" stroke="red" />
<line x1="468.3305547516375" y1="454.2940009733636" x2="468.4263790410721" y2="454.17766292356407" stroke-width="5" stroke="red" />
<line x1="468.4497942464036" y1="539.445582718657" x2="468.87902090733655" y2="540.9234967529342" stroke-width="5" stroke="red" />
<line x1="468.4497942464036" y1="539.445582718657" x2="466.3982549562531" y2="532.8681122228397" stroke-width="5" stroke="red" />
<line x1="469.4794914021602" y1="452.90669500879113" x2="469.5825470626238" y2="452.76975219036103" stroke-width="5" stroke="red" />
<line x1="469.4794914021602" y1="452.90669500879113" x2="468.4263790410721" y2="454.17766292356407" stroke-width="5" stroke="red" />
<line x1="470.56688072887374" y1="451.4711487343207" x2="469.5825470626238" y2="452.76975219036103" stroke-width="5" stroke="red" />
<line x1="470.56688072887374" y1="451.4711487343207" x2="470.6763182353045" y2="451.3118307386025" stroke-width="5" stroke="red" />
<line x1="470.43273018224335" y1="546.30386995466" x2="471.2431177522192" y2="549.0537967574993" stroke-width="5" stroke="red" />
<line x1="470.43273018224335" y1="546.30386995466" x2="468.87902090733655" y2="540.9234967529342" stroke-width="5" stroke="red" />
<line x1="471.5905835431596" y1="449.9903942490515" x2="471.7058129009749" y2="449.80637596349766" stroke-width="5" stroke="red" />
<line x1="471.5905835431596" y1="449.9903942490515" x2="470.6763182353045" y2="451.3118307386025" stroke-width="5" stroke="red" />
<line x1="472.5542908574769" y1="448.4619775660312" x2="471.7058129009749" y2="449.80637596349766" stroke-width="5" stroke="red" />
<line x1="472.5542908574769" y1="448.4619775660312" x2="472.67391653625816" y2="448.25239000663527" stroke-width="5" stroke="red" />
<line x1="472.4313691254308" y1="553.1103684433197" x2="471.2431177522192" y2="549.0537967574993" stroke-width="5" stroke="red" />
<line x1="472.4313691254308" y1="553.1103684433197" x2="473.06195794172237" y2="554.9260212224434" stroke-width="5" stroke="red" />
<line x1="473.4543097775911" y1="446.895809500968" x2="473.69409914542945" y2="446.4135824348027" stroke-width="5" stroke="red" />
<line x1="473.4543097775911" y1="446.895809500968" x2="472.67391653625816" y2="448.25239000663527" stroke-width="5" stroke="red" />
<line x1="473.58409208557856" y1="556.4411809192967" x2="473.06195794172237" y2="554.9260212224434" stroke-width="5" stroke="red" />
<line x1="473.58409208557856" y1="556.4411809192967" x2="473.790292815926" y2="556.9219572043422" stroke-width="5" stroke="red" />
<line x1="473.93001090226585" y1="557.2507596011127" x2="473.790292815926" y2="556.9219572043422" stroke-width="5" stroke="red" />
<line x1="473.93001090226585" y1="557.2507596011127" x2="474.0470378445967" y2="557.4920340618183" stroke-width="5" stroke="red" />
<line x1="474.1217265794966" y1="557.6470916584642" x2="474.2521684077164" y2="557.8871784917326" stroke-width="5" stroke="red" />
<line x1="474.1217265794966" y1="557.6470916584642" x2="474.0470378445967" y2="557.4920340618183" stroke-width="5" stroke="red" />
<line x1="474.3312466022716" y1="558.0344729700253" x2="474.2521684077164" y2="557.8871784917326" stroke-width="5" stroke="red" />
<line x1="474.3312466022716" y1="558.0344729700253" x2="474.4788458833046" y2="558.2705503132304" stroke-width="5" stroke="red" />
<line x1="474.56442173993673" y1="558.4088037124317" x2="474.4788458833046" y2="558.2705503132304" stroke-width="5" stroke="red" />
<line x1="474.56442173993673" y1="558.4088037124317" x2="474.6463194313325" y2="558.5236997345226" stroke-width="5" stroke="red" />
<line x1="474.6924494788435" y1="558.58897142928" x2="474.7808836311793" y2="558.7008592284451" stroke-width="5" stroke="red" />
<line x1="474.6924494788435" y1="558.58897142928" x2="474.6463194313325" y2="558.5236997345226" stroke-width="5" stroke="red" />
<line x1="474.82924899881976" y1="558.7629800186746" x2="474.7808836311793" y2="558.7008592284451" stroke-width="5" stroke="red" />
<line x1="474.82924899881976" y1="558.7629800186746" x2="474.92479436977857" y2="558.8710245903554" stroke-width="5" stroke="red" />
<line x1="475.070763922976" y1="443.66727018077364" x2="475.31946900745106" y2="443.06993155298704" stroke-width="5" stroke="red" />
<line x1="475.070763922976" y1="443.66727018077364" x2="473.69409914542945" y2="446.4135824348027" stroke-width="5" stroke="red" />
<line x1="474.97584353060546" y1="558.9296748800743" x2="475.0785731367067" y2="559.0326945957969" stroke-width="5" stroke="red" />
<line x1="474.97584353060546" y1="558.9296748800743" x2="474.92479436977857" y2="558.8710245903554" stroke-width="5" stroke="red" />
<line x1="475.13247584756186" y1="559.0873990069878" x2="475.0785731367067" y2="559.0326945957969" stroke-width="5" stroke="red" />
<line x1="475.13247584756186" y1="559.0873990069878" x2="475.2434495679662" y2="559.1840280911093" stroke-width="5" stroke="red" />
<line x1="475.30037799876914" y1="559.2342451568388" x2="475.41920871017123" y2="559.3230719958553" stroke-width="5" stroke="red" />
<line x1="475.30037799876914" y1="559.2342451568388" x2="475.2434495679662" y2="559.1840280911093" stroke-width="5" stroke="red" />
<line x1="475.4788315272645" y1="559.3683012874466" x2="475.41920871017123" y2="559.3230719958553" stroke-width="5" stroke="red" />
<line x1="475.4788315272645" y1="559.3683012874466" x2="475.6023165915615" y2="559.4468035912541" stroke-width="5" stroke="red" />
<line x1="475.66307310360855" y1="559.4859892274333" x2="475.7934025064528" y2="559.5553726838745" stroke-width="5" stroke="red" />
<line x1="475.66307310360855" y1="559.4859892274333" x2="475.6023165915615" y2="559.4468035912541" stroke-width="5" stroke="red" />
<line x1="475.8565775475879" y1="559.5894318590628" x2="475.7934025064528" y2="559.5553726838745" stroke-width="5" stroke="red" />
<line x1="475.8565775475879" y1="559.5894318590628" x2="475.99320875735356" y2="559.6492251369884" stroke-width="5" stroke="red" />
<line x1="476.05779102817473" y1="559.6781158018191" x2="476.19968731538813" y2="559.7281883401646" stroke-width="5" stroke="red" />
<line x1="476.05779102817473" y1="559.6781158018191" x2="475.99320875735356" y2="559.6492251369884" stroke-width="5" stroke="red" />
<line x1="476.2659294739839" y1="559.7520325499186" x2="476.19968731538813" y2="559.7281883401646" stroke-width="5" stroke="red" />
<line x1="476.2659294739839" y1="559.7520325499186" x2="476.41202337673525" y2="559.7923485170191" stroke-width="5" stroke="red" />
<line x1="476.4716076099209" y1="440.3273559727314" x2="475.31946900745106" y2="443.06993155298704" stroke-width="5" stroke="red" />
<line x1="476.4716076099209" y1="440.3273559727314" x2="476.72750263202676" y2="439.6133725487531" stroke-width="5" stroke="red" />
<line x1="476.4792312114466" y1="559.8113295481259" x2="476.6284435021239" y2="559.8421598915728" stroke-width="5" stroke="red" />
<line x1="476.4792312114466" y1="559.8113295481259" x2="476.41202337673525" y2="559.7923485170191" stroke-width="5" stroke="red" />
<line x1="476.696185707266" y1="559.8565395283713" x2="476.6284435021239" y2="559.8421598915728" stroke-width="5" stroke="red" />
<line x1="476.696185707266" y1="559.8565395283713" x2="476.8479481395765" y2="559.8783697478261" stroke-width="5" stroke="red" />
<line x1="476.9160404988827" y1="559.8885082061258" x2="477.0692520729351" y2="559.9018750038088" stroke-width="5" stroke="red" />
<line x1="476.9160404988827" y1="559.8885082061258" x2="476.8479481395765" y2="559.8783697478261" stroke-width="5" stroke="red" />
<line x1="477.1372863494307" y1="559.908105581179" x2="477.0692520729351" y2="559.9018750038088" stroke-width="5" stroke="red" />
<line x1="477.1372863494307" y1="559.908105581179" x2="477.2918981534724" y2="559.9135609757753" stroke-width="5" stroke="red" />
<line x1="477.35970324161804" y1="559.9162212778843" x2="477.5146093150748" y2="559.9144317720248" stroke-width="5" stroke="red" />
<line x1="477.35970324161804" y1="559.9162212778843" x2="477.2918981534724" y2="559.9135609757753" stroke-width="5" stroke="red" />
<line x1="477.582244220765" y1="559.9138796932918" x2="477.5146093150748" y2="559.9144317720248" stroke-width="5" stroke="red" />
<line x1="477.582244220765" y1="559.9138796932918" x2="477.73686840726907" y2="559.9054899370161" stroke-width="5" stroke="red" />
<line x1="477.70166930480235" y1="436.9208874055763" x2="477.98401708835934" y2="436.09535176792923" stroke-width="5" stroke="red" />
<line x1="477.70166930480235" y1="436.9208874055763" x2="476.72750263202676" y2="439.6133725487531" stroke-width="5" stroke="red" />
<line x1="477.8039325551272" y1="559.9020554620986" x2="477.95875942885084" y2="559.8877221001804" stroke-width="5" stroke="red" />
<line x1="477.8039325551272" y1="559.9020554620986" x2="477.73686840726907" y2="559.9054899370161" stroke-width="5" stroke="red" />
<line x1="478.02553275255707" y1="559.881717986957" x2="477.95875942885084" y2="559.8877221001804" stroke-width="5" stroke="red" />
<line x1="478.1577849955047" y1="559.8629313602022" x2="478.46600486399035" y2="559.8185447769788" stroke-width="5" stroke="red" />
<line x1="478.1577849955047" y1="559.8629313602022" x2="478.02553275255707" y2="559.881717986957" stroke-width="5" stroke="red" />
<line x1="478.59616148231976" y1="559.7921922152265" x2="478.90167404931213" y2="559.729949523914" stroke-width="5" stroke="red" />
<line x1="478.59616148231976" y1="559.7921922152265" x2="478.46600486399035" y2="559.8185447769788" stroke-width="5" stroke="red" />
<line x1="478.8818604710557" y1="433.4930164014773" x2="477.98401708835934" y2="436.09535176792923" stroke-width="5" stroke="red" />
<line x1="478.8818604710557" y1="433.4930164014773" x2="479.23411860057683" y2="432.57346623434177" stroke-width="5" stroke="red" />
<line x1="479.0300353801346" y1="559.697400087632" x2="479.3325860193314" y2="559.620448991832" stroke-width="5" stroke="red" />
<line x1="479.0300353801346" y1="559.697400087632" x2="478.90167404931213" y2="559.729949523914" stroke-width="5" stroke="red" />
<line x1="479.4591747286943" y1="559.582759035445" x2="479.75802221081494" y2="559.4937040586796" stroke-width="5" stroke="red" />
<line x1="479.4591747286943" y1="559.582759035445" x2="479.3325860193314" y2="559.620448991832" stroke-width="5" stroke="red" />
<line x1="479.75802221081494" y1="559.4937040586796" x2="480.007282656599" y2="559.4058900823682" stroke-width="5" stroke="red" />
<line x1="480.1866627067216" y1="430.10672216485455" x2="480.2969871440168" y2="429.8633853011809" stroke-width="5" stroke="red" />
<line x1="480.1866627067216" y1="430.10672216485455" x2="479.23411860057683" y2="432.57346623434177" stroke-width="5" stroke="red" />
<line x1="480.56107281074145" y1="429.2843765984955" x2="480.2969871440168" y2="429.8633853011809" stroke-width="5" stroke="red" />
<line x1="480.56107281074145" y1="429.2843765984955" x2="480.6837292769815" y2="429.04015914590553" stroke-width="5" stroke="red" />
<line x1="480.5959240803838" y1="559.1989988049436" x2="480.007282656599" y2="559.4058900823682" stroke-width="5" stroke="red" />
<line x1="480.5959240803838" y1="559.1989988049436" x2="480.8415119668521" y2="559.0982089210006" stroke-width="5" stroke="red" />
<line x1="480.9686342675481" y1="428.4773619401827" x2="481.1071922337803" y2="428.2347988990027" stroke-width="5" stroke="red" />
<line x1="480.9686342675481" y1="428.4773619401827" x2="480.6837292769815" y2="429.04015914590553" stroke-width="5" stroke="red" />
<line x1="481.4183877190246" y1="427.69236724674073" x2="481.1071922337803" y2="428.2347988990027" stroke-width="5" stroke="red" />
<line x1="481.4183877190246" y1="427.69236724674073" x2="481.4952752819925" y2="427.5727147763167" stroke-width="5" stroke="red" />
<line x1="481.4169932846237" y1="558.8626642443056" x2="481.66045512276486" y2="558.751710296288" stroke-width="5" stroke="red" />
<line x1="481.4169932846237" y1="558.8626642443056" x2="480.8415119668521" y2="559.0982089210006" stroke-width="5" stroke="red" />
<line x1="481.6632324816281" y1="427.3116625542165" x2="481.4952752819925" y2="427.5727147763167" stroke-width="5" stroke="red" />
<line x1="481.6632324816281" y1="427.3116625542165" x2="481.7456075358928" y2="427.1941865781613" stroke-width="5" stroke="red" />
<line x1="481.9237750430769" y1="426.9412232737321" x2="482.0124050192611" y2="426.8269010561629" stroke-width="5" stroke="red" />
<line x1="481.9237750430769" y1="426.9412232737321" x2="481.7456075358928" y2="427.1941865781613" stroke-width="5" stroke="red" />
<line x1="482.20177075184426" y1="426.5836675398681" x2="482.0124050192611" y2="426.8269010561629" stroke-width="5" stroke="red" />
<line x1="482.20177075184426" y1="426.5836675398681" x2="482.2976670180299" y2="426.47374756331476" stroke-width="5" stroke="red" />
<line x1="482.2241597418573" y1="558.495685374101" x2="481.66045512276486" y2="558.751710296288" stroke-width="5" stroke="red" />
<line x1="482.2241597418573" y1="558.495685374101" x2="483.19058842436567" y2="557.9851146698053" stroke-width="5" stroke="red" />
<line x1="482.49974111498415" y1="426.24247097024886" x2="482.60342496275626" y2="426.13840025009034" stroke-width="5" stroke="red" />
<line x1="482.49974111498415" y1="426.24247097024886" x2="482.2976670180299" y2="426.47374756331476" stroke-width="5" stroke="red" />
<line x1="482.81972290609764" y1="425.92153681253563" x2="482.60342496275626" y2="426.13840025009034" stroke-width="5" stroke="red" />
<line x1="482.81972290609764" y1="425.92153681253563" x2="482.87480926128677" y2="425.87224529558534" stroke-width="5" stroke="red" />
<line x1="482.9888221863964" y1="425.77030629956727" x2="482.87480926128677" y2="425.87224529558534" stroke-width="5" stroke="red" />
<line x1="482.9888221863964" y1="425.77030629956727" x2="483.0460392860877" y2="425.72322981210294" stroke-width="5" stroke="red" />
<line x1="483.1639947262478" y1="425.62621162436193" x2="483.2235850914643" y2="425.5816391981357" stroke-width="5" stroke="red" />
<line x1="483.1639947262478" y1="425.62621162436193" x2="483.0460392860877" y2="425.72322981210294" stroke-width="5" stroke="red" />
<line x1="483.34599879249754" y1="425.49006105476394" x2="483.2235850914643" y2="425.5816391981357" stroke-width="5" stroke="red" />
<line x1="483.34599879249754" y1="425.49006105476394" x2="483.4077079824764" y2="425.4483285894207" stroke-width="5" stroke="red" />
<line x1="483.5340777102467" y1="425.36280646977326" x2="483.5981425731038" y2="425.3242511702583" stroke-width="5" stroke="red" />
<line x1="483.5340777102467" y1="425.36280646977326" x2="483.4077079824764" y2="425.4483285894207" stroke-width="5" stroke="red" />
<line x1="483.7284807490682" y1="425.2453664902142" x2="483.5981425731038" y2="425.3242511702583" stroke-width="5" stroke="red" />
<line x1="483.7284807490682" y1="425.2453664902142" x2="483.7946385952016" y2="425.21030880963656" stroke-width="5" stroke="red" />
<line x1="483.9289605689048" y1="425.1386764398439" x2="483.9969436989781" y2="425.1073730627094" stroke-width="5" stroke="red" />
<line x1="483.9289605689048" y1="425.1386764398439" x2="483.7946385952016" y2="425.21030880963656" stroke-width="5" stroke="red" />
<line x1="484.1352680905671" y1="425.0433857934049" x2="483.9969436989781" y2="425.1073730627094" stroke-width="5" stroke="red" />
<line x1="484.1352680905671" y1="425.0433857934049" x2="484.20505402225314" y2="425.0160591375334" stroke-width="5" stroke="red" />
<line x1="484.34689426028837" y1="424.9601430114463" x2="484.4182087820901" y2="424.9370115295992" stroke-width="5" stroke="red" />
<line x1="484.34689426028837" y1="424.9601430114463" x2="484.20505402225314" y2="425.0160591375334" stroke-width="5" stroke="red" />
<line x1="484.56257352566485" y1="424.8895664254856" x2="484.4182087820901" y2="424.9370115295992" stroke-width="5" stroke="red" />
<line x1="484.56257352566485" y1="424.8895664254856" x2="484.71000860282004" y2="424.85076829973406" stroke-width="5" stroke="red" />
<line x1="484.7828135081877" y1="424.8319235280653" x2="484.9313167460425" y2="424.80151087731434" stroke-width="5" stroke="red" />
<line x1="484.7828135081877" y1="424.8319235280653" x2="484.71000860282004" y2="424.85076829973406" stroke-width="5" stroke="red" />
<line x1="485.0045821263735" y1="424.7868480900458" x2="484.9313167460425" y2="424.80151087731434" stroke-width="5" stroke="red" />
<line x1="485.0045821263735" y1="424.7868480900458" x2="485.1551971358615" y2="424.7643741353414" stroke-width="5" stroke="red" />
<line x1="485.22914449210066" y1="424.7536735991731" x2="485.3803705939238" y2="424.73885438415107" stroke-width="5" stroke="red" />
<line x1="485.22914449210066" y1="424.7536735991731" x2="485.1551971358615" y2="424.7643741353414" stroke-width="5" stroke="red" />
<line x1="485.3567128572159" y1="556.8464818066319" x2="486.35716815630553" y2="556.2592442193635" stroke-width="5" stroke="red" />
<line x1="485.3567128572159" y1="556.8464818066319" x2="483.19058842436567" y2="557.9851146698053" stroke-width="5" stroke="red" />
<line x1="485.45472440781504" y1="424.7319240630536" x2="485.3803705939238" y2="424.73885438415107" stroke-width="5" stroke="red" />
<line x1="485.45472440781504" y1="424.7319240630536" x2="485.6065844508603" y2="424.72428751365607" stroke-width="5" stroke="red" />
<line x1="485.6808231259189" y1="424.7209160050827" x2="485.83282949280255" y2="424.7200568687206" stroke-width="5" stroke="red" />
<line x1="485.6808231259189" y1="424.7209160050827" x2="485.6065844508603" y2="424.72428751365607" stroke-width="5" stroke="red" />
<line x1="485.9071786278765" y1="424.71998437825744" x2="485.83282949280255" y2="424.7200568687206" stroke-width="5" stroke="red" />
<line x1="485.9071786278765" y1="424.71998437825744" x2="486.0593496625403" y2="424.72533829244276" stroke-width="5" stroke="red" />
<line x1="486.1335408676182" y1="424.7283186014076" x2="486.43752262628124" y2="424.75599614891877" stroke-width="5" stroke="red" />
<line x1="486.1335408676182" y1="424.7283186014076" x2="486.0593496625403" y2="424.72533829244276" stroke-width="5" stroke="red" />
<line x1="486.58427426910833" y1="424.77007564288044" x2="486.8865509906148" y2="424.8174279756644" stroke-width="5" stroke="red" />
<line x1="486.58427426910833" y1="424.77007564288044" x2="486.43752262628124" y2="424.75599614891877" stroke-width="5" stroke="red" />
<line x1="487.03124005592264" y1="424.8407974601237" x2="486.8865509906148" y2="424.8174279756644" stroke-width="5" stroke="red" />
<line x1="487.03124005592264" y1="424.8407974601237" x2="487.3308628934523" y2="424.9046584943432" stroke-width="5" stroke="red" />
<line x1="487.47315942117064" y1="424.935631157906" x2="487.77069977503425" y2="425.013532229728" stroke-width="5" stroke="red" />
<line x1="487.47315942117064" y1="424.935631157906" x2="487.3308628934523" y2="424.9046584943432" stroke-width="5" stroke="red" />
<line x1="487.91053986362016" y1="425.05077386187963" x2="487.77069977503425" y2="425.013532229728" stroke-width="5" stroke="red" />
<line x1="487.91053986362016" y1="425.05077386187963" x2="488.2055227248557" y2="425.1404861928124" stroke-width="5" stroke="red" />
<line x1="488.3426193931239" y1="425.18277100288947" x2="488.92717798427054" y2="425.3910701009687" stroke-width="5" stroke="red" />
<line x1="488.3426193931239" y1="425.18277100288947" x2="488.2055227248557" y2="425.1404861928124" stroke-width="5" stroke="red" />
<line x1="488.41145987855805" y1="555.060308738315" x2="490.58594149304173" y2="553.7770102450697" stroke-width="5" stroke="red" />
<line x1="488.41145987855805" y1="555.060308738315" x2="486.35716815630553" y2="556.2592442193635" stroke-width="5" stroke="red" />
<line x1="489.1931371087849" y1="425.4869633525755" x2="488.92717798427054" y2="425.3910701009687" stroke-width="5" stroke="red" />
<line x1="489.1931371087849" y1="425.4869633525755" x2="489.7713850981064" y2="425.72492335707034" stroke-width="5" stroke="red" />
<line x1="490.0277246546157" y1="425.83148877711346" x2="491.17564685046403" y2="426.3717032553181" stroke-width="5" stroke="red" />
<line x1="490.0277246546157" y1="425.83148877711346" x2="489.7713850981064" y2="425.72492335707034" stroke-width="5" stroke="red" />
<line x1="491.65945134871595" y1="426.6014706569342" x2="496.4062055505599" y2="429.19947415928516" stroke-width="5" stroke="red" />
<line x1="491.65945134871595" y1="426.6014706569342" x2="491.17564685046403" y2="426.3717032553181" stroke-width="5" stroke="red" />
<line x1="494.5173362094759" y1="551.4705296263513" x2="497.0055993981433" y2="550.1378417182937" stroke-width="5" stroke="red" />
<line x1="494.5173362094759" y1="551.4705296263513" x2="490.58594149304173" y2="553.7770102450697" stroke-width="5" stroke="red" />
<line x1="498.0036101337482" y1="430.07989609759977" x2="496.4062055505599" y2="429.19947415928516" stroke-width="5" stroke="red" />
<line x1="498.0036101337482" y1="430.07989609759977" x2="503.13284960708285" y2="432.81810265016935" stroke-width="5" stroke="red" />
<line x1="500.77159855756736" y1="548.1313094542825" x2="503.53871020272106" y2="546.8391037272817" stroke-width="5" stroke="red" />
<line x1="500.77159855756736" y1="548.1313094542825" x2="497.0055993981433" y2="550.1378417182937" stroke-width="5" stroke="red" />
<line x1="504.3841982338932" y1="433.4906781958933" x2="503.13284960708285" y2="432.81810265016935" stroke-width="5" stroke="red" />
<line x1="504.3841982338932" y1="433.4906781958933" x2="510.0252184141024" y2="436.0445654121226" stroke-width="5" stroke="red" />
<line x1="507.2041465827836" y1="545.1351102448685" x2="510.1866446314423" y2="543.9495755048811" stroke-width="5" stroke="red" />
<line x1="507.2041465827836" y1="545.1351102448685" x2="503.53871020272106" y2="546.8391037272817" stroke-width="5" stroke="red" />
<line x1="510.95999390953494" y1="436.47099277373206" x2="510.0252184141024" y2="436.0445654121226" stroke-width="5" stroke="red" />
<line x1="510.95999390953494" y1="436.47099277373206" x2="517.0882745664593" y2="438.7937199178106" stroke-width="5" stroke="red" />
<line x1="513.8045215194031" y1="542.5161824960454" x2="516.9255639050634" y2="541.4781279329756" stroke-width="5" stroke="red" />
<line x1="513.8045215194031" y1="542.5161824960454" x2="510.1866446314423" y2="543.9495755048811" stroke-width="5" stroke="red" />
<line x1="517.7011928637062" y1="439.0280092627258" x2="517.0882745664593" y2="438.7937199178106" stroke-width="5" stroke="red" />
<line x1="517.7011928637062" y1="439.0280092627258" x2="524.2603413454485" y2="441.17418730281116" stroke-width="5" stroke="red" />
<line x1="520.5451143203067" y1="540.2764026480412" x2="524.2080577165461" y2="539.2466008227043" stroke-width="5" stroke="red" />
<line x1="520.5451143203067" y1="540.2764026480412" x2="516.9255639050634" y2="541.4781279329756" stroke-width="5" stroke="red" />
<line x1="524.5456859444438" y1="441.26845161097935" x2="524.2603413454485" y2="441.17418730281116" stroke-width="5" stroke="red" />
<line x1="524.5456859444438" y1="441.26845161097935" x2="530.6149555353765" y2="443.0013234348106" stroke-width="5" stroke="red" />
<line x1="527.3841967686408" y1="538.353811579246" x2="531.1140661894327" y2="537.4173841895558" stroke-width="5" stroke="red" />
<line x1="527.3841967686408" y1="538.353811579246" x2="524.2080577165461" y2="539.2466008227043" stroke-width="5" stroke="red" />
<line x1="531.4659349009333" y1="443.24891674092015" x2="530.6149555353765" y2="443.0013234348106" stroke-width="5" stroke="red" />
<line x1="531.4659349009333" y1="443.24891674092015" x2="531.5077901762997" y2="443.25939828906996" stroke-width="5" stroke="red" />
<line x1="534.2740339724041" y1="536.6254527275307" x2="538.0810259332587" y2="535.7280055523431" stroke-width="5" stroke="red" />
<line x1="534.2740339724041" y1="536.6254527275307" x2="531.1140661894327" y2="537.4173841895558" stroke-width="5" stroke="red" />
<line x1="538.4504829602861" y1="445.0152751244489" x2="531.5077901762997" y2="443.25939828906996" stroke-width="5" stroke="red" />
<line x1="538.4504829602861" y1="445.0152751244489" x2="538.8202813110736" y2="445.0928249245203" stroke-width="5" stroke="red" />
<line x1="541.1860914002023" y1="534.9980445244596" x2="545.0696915664942" y2="534.0914528798085" stroke-width="5" stroke="red" />
<line x1="541.1860914002023" y1="534.9980445244596" x2="538.0810259332587" y2="535.7280055523431" stroke-width="5" stroke="red" />
<line x1="545.4919105225026" y1="446.5077243486181" x2="538.8202813110736" y2="445.0928249245203" stroke-width="5" stroke="red" />
<line x1="545.4919105225026" y1="446.5077243486181" x2="546.1760178111851" y2="446.63916697619396" stroke-width="5" stroke="red" />
<line x1="548.102466581178" y1="533.3858332464551" x2="552.0325572782051" y2="532.3974126430528" stroke-width="5" stroke="red" />
<line x1="548.102466581178" y1="533.3858332464551" x2="545.0696915664942" y2="534.0914528798085" stroke-width="5" stroke="red" />
<line x1="552.5472343226414" y1="447.8790016626523" x2="546.1760178111851" y2="446.63916697619396" stroke-width="5" stroke="red" />
<line x1="552.5472343226414" y1="447.8790016626523" x2="552.7853309051629" y2="447.9332334835654" stroke-width="5" stroke="red" />
<line x1="552.8427330257649" y1="482.4341513451194" x2="552.848913281882" y2="481.71755652515316" stroke-width="5" stroke="red" />
<line x1="552.8427330257649" y1="482.4341513451194" x2="552.8905353032354" y2="483.5694138054782" stroke-width="5" stroke="red" />
<line x1="552.862326227144" y1="480.632588523778" x2="552.848913281882" y2="481.71755652515316" stroke-width="5" stroke="red" />
<line x1="552.862326227144" y1="480.632588523778" x2="552.9149967284274" y2="479.8652963243999" stroke-width="5" stroke="red" />
<line x1="552.9209530989416" y1="484.2313676244533" x2="553.0297652484933" y2="485.41809370063135" stroke-width="5" stroke="red" />
<line x1="552.9209530989416" y1="484.2313676244533" x2="552.8905353032354" y2="483.5694138054782" stroke-width="5" stroke="red" />
<line x1="552.9901240437467" y1="478.8326033323525" x2="553.0973020081424" y2="478.01973320230184" stroke-width="5" stroke="red" />
<line x1="552.9901240437467" y1="478.8326033323525" x2="552.9149967284274" y2="479.8652963243999" stroke-width="5" stroke="red" />
<line x1="553.0872572233666" y1="486.0240024276066" x2="553.0297652484933" y2="485.41809370063135" stroke-width="5" stroke="red" />
<line x1="553.0872572233666" y1="486.0240024276066" x2="553.255762889335" y2="487.25840756039554" stroke-width="5" stroke="red" />
<line x1="553.2311321441882" y1="477.0412087758859" x2="553.0973020081424" y2="478.01973320230184" stroke-width="5" stroke="red" />
<line x1="553.2311321441882" y1="477.0412087758859" x2="553.3935903933872" y2="476.191401194603" stroke-width="5" stroke="red" />
<line x1="553.3320351752451" y1="487.8050812396705" x2="553.8508741718632" y2="490.447936732231" stroke-width="5" stroke="red" />
<line x1="553.3320351752451" y1="487.8050812396705" x2="553.255762889335" y2="487.25840756039554" stroke-width="5" stroke="red" />
<line x1="553.5739649411821" y1="475.2711121055741" x2="553.790943191118" y2="474.38561610912643" stroke-width="5" stroke="red" />
<line x1="553.5739649411821" y1="475.2711121055741" x2="553.3935903933872" y2="476.191401194603" stroke-width="5" stroke="red" />
<line x1="554.0077749481574" y1="473.5185948230901" x2="553.790943191118" y2="474.38561610912643" stroke-width="5" stroke="red" />
<line x1="554.0077749481574" y1="473.5185948230901" x2="554.2773875633244" y2="472.6009589034712" stroke-width="5" stroke="red" />
<line x1="554.0253049220206" y1="491.32589597172915" x2="554.7775528970415" y2="494.1603223862088" stroke-width="5" stroke="red" />
<line x1="554.0253049220206" y1="491.32589597172915" x2="553.8508741718632" y2="490.447936732231" stroke-width="5" stroke="red" />
<line x1="554.3031433069066" y1="448.28320630837754" x2="552.7853309051629" y2="447.9332334835654" stroke-width="5" stroke="red" />
<line x1="554.3031433069066" y1="448.28320630837754" x2="554.5587278251785" y2="448.3530472555734" stroke-width="5" stroke="red" />
<line x1="554.5209191113071" y1="471.7852862329838" x2="554.8402639276347" y2="470.83814817349594" stroke-width="5" stroke="red" />
<line x1="554.5209191113071" y1="471.7852862329838" x2="554.2773875633244" y2="472.6009589034712" stroke-width="5" stroke="red" />
<line x1="554.9891611274285" y1="531.6562143524387" x2="552.0325572782051" y2="532.3974126430528" stroke-width="5" stroke="red" />
<line x1="554.9891611274285" y1="531.6562143524387" x2="556.9442995432419" y2="531.0784498586419" stroke-width="5" stroke="red" />
<line x1="554.9449989636307" y1="494.78733093147827" x2="554.7775528970415" y2="494.1603223862088" stroke-width="5" stroke="red" />
<line x1="554.9449989636307" y1="494.78733093147827" x2="555.9227547674916" y2="497.8108151061625" stroke-width="5" stroke="red" />
<line x1="555.1028186880511" y1="470.0713697214432" x2="554.8402639276347" y2="470.83814817349594" stroke-width="5" stroke="red" />
<line x1="555.1028186880511" y1="470.0713697214432" x2="555.8709136486058" y2="468.10006728653843" stroke-width="5" stroke="red" />
<line x1="556.0376221589083" y1="448.7620956492619" x2="556.1730355296428" y2="448.8066541489535" stroke-width="5" stroke="red" />
<line x1="556.0376221589083" y1="448.7620956492619" x2="554.5587278251785" y2="448.3530472555734" stroke-width="5" stroke="red" />
<line x1="556.0448542675001" y1="498.18662393335666" x2="558.0080749121922" y2="503.17950571500484" stroke-width="5" stroke="red" />
<line x1="556.0448542675001" y1="498.18662393335666" x2="555.9227547674916" y2="497.8108151061625" stroke-width="5" stroke="red" />
<line x1="556.4211105503434" y1="466.7074328022173" x2="557.332769996563" y2="464.6239283195244" stroke-width="5" stroke="red" />
<line x1="556.4211105503434" y1="466.7074328022173" x2="555.8709136486058" y2="468.10006728653843" stroke-width="5" stroke="red" />
<line x1="556.8916587592056" y1="449.0456612873314" x2="556.1730355296428" y2="448.8066541489535" stroke-width="5" stroke="red" />
<line x1="556.8916587592056" y1="449.0456612873314" x2="557.0303336593954" y2="449.0990960487869" stroke-width="5" stroke="red" />
<line x1="557.729739663859" y1="449.3714878859155" x2="557.8002809919536" y2="449.4026945856477" stroke-width="5" stroke="red" />
<line x1="557.729739663859" y1="449.3714878859155" x2="557.0303336593954" y2="449.0990960487869" stroke-width="5" stroke="red" />
<line x1="557.8775361266213" y1="463.39363380966716" x2="557.332769996563" y2="464.6239283195244" stroke-width="5" stroke="red" />
<line x1="557.8775361266213" y1="463.39363380966716" x2="558.8692900422872" y2="461.18146449950314" stroke-width="5" stroke="red" />
<line x1="558.1406189534737" y1="449.5545215275309" x2="557.8002809919536" y2="449.4026945856477" stroke-width="5" stroke="red" />
<line x1="558.1406189534737" y1="449.5545215275309" x2="558.2113934485993" y2="449.5892469140767" stroke-width="5" stroke="red" />
<line x1="558.3952580890816" y1="530.65100696378" x2="556.9442995432419" y2="531.0784498586419" stroke-width="5" stroke="red" />
<line x1="558.6518237030884" y1="504.83348592110536" x2="558.0080749121922" y2="503.17950571500484" stroke-width="5" stroke="red" />
<line x1="558.6518237030884" y1="504.83348592110536" x2="558.7729508797398" y2="505.1001742222241" stroke-width="5" stroke="red" />
<line x1="558.5432393291354" y1="449.75367639759213" x2="558.6137133856143" y2="449.7925609113346" stroke-width="5" stroke="red" />
<line x1="558.5432393291354" y1="449.75367639759213" x2="558.2113934485993" y2="449.5892469140767" stroke-width="5" stroke="red" />
<line x1="558.9351911875987" y1="449.971610112766" x2="558.6137133856143" y2="449.7925609113346" stroke-width="5" stroke="red" />
<line x1="558.9351911875987" y1="449.971610112766" x2="559.0050773373544" y2="450.0153764547983" stroke-width="5" stroke="red" />
<line x1="559.3149521810388" y1="450.21113260678027" x2="559.3840926351091" y2="450.26126934540326" stroke-width="5" stroke="red" />
<line x1="559.3149521810388" y1="450.21113260678027" x2="559.0050773373544" y2="450.0153764547983" stroke-width="5" stroke="red" />
<line x1="559.363940347134" y1="460.0903726839026" x2="558.8692900422872" y2="461.18146449950314" stroke-width="5" stroke="red" />
<line x1="559.363940347134" y1="460.0903726839026" x2="559.852247483319" y2="458.9261194930507" stroke-width="5" stroke="red" />
<line x1="559.681746547115" y1="450.4788996856639" x2="559.3840926351091" y2="450.26126934540326" stroke-width="5" stroke="red" />
<line x1="559.681746547115" y1="450.4788996856639" x2="559.7156161215213" y2="450.5065472611305" stroke-width="5" stroke="red" />
<line x1="559.8575362874628" y1="450.6232634956961" x2="559.7156161215213" y2="450.5065472611305" stroke-width="5" stroke="red" />
<line x1="559.8575362874628" y1="450.6232634956961" x2="559.8906493873426" y2="450.6527069606843" stroke-width="5" stroke="red" />
<line x1="560.0266361678952" y1="450.7750305991553" x2="560.0585216820203" y2="450.8063642518631" stroke-width="5" stroke="red" />
<line x1="560.0266361678952" y1="450.7750305991553" x2="559.8906493873426" y2="450.6527069606843" stroke-width="5" stroke="red" />
<line x1="560.0665785253232" y1="458.42059201374735" x2="560.5124002224451" y2="457.20023111978065" stroke-width="5" stroke="red" />
<line x1="560.0665785253232" y1="458.42059201374735" x2="559.852247483319" y2="458.9261194930507" stroke-width="5" stroke="red" />
<line x1="559.3584972163806" y1="530.3203678019815" x2="560.0758962514228" y2="530.0749416725354" stroke-width="5" stroke="red" />
<line x1="559.3584972163806" y1="530.3203678019815" x2="558.3952580890816" y2="530.65100696378" stroke-width="5" stroke="red" />
<line x1="560.1885945886941" y1="450.93443532282527" x2="560.0585216820203" y2="450.8063642518631" stroke-width="5" stroke="red" />
<line x1="560.1885945886941" y1="450.93443532282527" x2="560.2193721698127" y2="450.9677876936207" stroke-width="5" stroke="red" />
<line x1="560.3417435422385" y1="451.1017816778397" x2="560.3712296207314" y2="451.1372064873263" stroke-width="5" stroke="red" />
<line x1="560.3417435422385" y1="451.1017816778397" x2="560.2193721698127" y2="450.9677876936207" stroke-width="5" stroke="red" />
<line x1="560.4865404179254" y1="451.27717778929133" x2="560.3712296207314" y2="451.1372064873263" stroke-width="5" stroke="red" />
<line x1="560.4865404179254" y1="451.27717778929133" x2="560.5140702006031" y2="451.31470088615276" stroke-width="5" stroke="red" />
<line x1="560.6205541432022" y1="451.46036294317287" x2="560.6463899876173" y2="451.49997825237233" stroke-width="5" stroke="red" />
<line x1="560.6205541432022" y1="451.46036294317287" x2="560.5140702006031" y2="451.31470088615276" stroke-width="5" stroke="red" />
<line x1="560.6902395595582" y1="456.71977319827124" x2="560.5124002224451" y2="457.20023111978065" stroke-width="5" stroke="red" />
<line x1="560.6902395595582" y1="456.71977319827124" x2="560.8805210789294" y2="456.0808160191308" stroke-width="5" stroke="red" />
<line x1="560.7435051480479" y1="451.6510815022986" x2="560.6463899876173" y2="451.49997825237233" stroke-width="5" stroke="red" />
<line x1="560.7435051480479" y1="451.6510815022986" x2="560.7669516049398" y2="451.6927908012431" stroke-width="5" stroke="red" />
<line x1="560.8547542058742" y1="451.8490929682854" x2="560.8759038550126" y2="451.8928235653145" stroke-width="5" stroke="red" />
<line x1="560.8547542058742" y1="451.8490929682854" x2="560.7669516049398" y2="451.6927908012431" stroke-width="5" stroke="red" />
<line x1="560.9532713992533" y1="452.05374321842794" x2="560.8759038550126" y2="451.8928235653145" stroke-width="5" stroke="red" />
<line x1="560.9532713992533" y1="452.05374321842794" x2="560.9718900450755" y2="452.0993432726767" stroke-width="5" stroke="red" />
<line x1="560.9509812800686" y1="455.84610263276755" x2="560.8805210789294" y2="456.0808160191308" stroke-width="5" stroke="red" />
<line x1="560.9509812800686" y1="455.84610263276755" x2="561.0314492142836" y2="455.51952059214085" stroke-width="5" stroke="red" />
<line x1="561.0388975538215" y1="452.26419807679684" x2="561.0549100663039" y2="452.3115358373406" stroke-width="5" stroke="red" />
<line x1="561.0388975538215" y1="452.26419807679684" x2="560.9718900450755" y2="452.0993432726767" stroke-width="5" stroke="red" />
<line x1="561.0605711348154" y1="455.40381050441823" x2="561.1292882188712" y2="455.07198305179696" stroke-width="5" stroke="red" />
<line x1="561.0605711348154" y1="455.40381050441823" x2="561.0314492142836" y2="455.51952059214085" stroke-width="5" stroke="red" />
<line x1="561.1110476025644" y1="452.4795782652875" x2="561.0549100663039" y2="452.3115358373406" stroke-width="5" stroke="red" />
<line x1="561.1110476025644" y1="452.4795782652875" x2="561.1242066916302" y2="452.52848267638325" stroke-width="5" stroke="red" />
<line x1="561.1531142119836" y1="454.9576941287821" x2="561.1292882188712" y2="455.07198305179696" stroke-width="5" stroke="red" />
<line x1="561.1531142119836" y1="454.9576941287821" x2="561.2053858589877" y2="454.62062595884646" stroke-width="5" stroke="red" />
<line x1="561.1695584726788" y1="452.69904769896283" x2="561.1797814236229" y2="452.74935700014134" stroke-width="5" stroke="red" />
<line x1="561.1695584726788" y1="452.69904769896283" x2="561.1242066916302" y2="452.52848267638325" stroke-width="5" stroke="red" />
<line x1="561.2150149565365" y1="452.9217207095148" x2="561.1797814236229" y2="452.74935700014134" stroke-width="5" stroke="red" />
<line x1="561.2150149565365" y1="452.9217207095148" x2="561.2225687434519" y2="452.9732535192819" stroke-width="5" stroke="red" />
<line x1="561.2233380788346" y1="454.5079302637748" x2="561.2566309889547" y2="454.1659405772879" stroke-width="5" stroke="red" />
<line x1="561.2233380788346" y1="454.5079302637748" x2="561.2053858589877" y2="454.62062595884646" stroke-width="5" stroke="red" />
<line x1="561.2477662159306" y1="453.14670132094506" x2="561.2525774707599" y2="453.1992451955641" stroke-width="5" stroke="red" />
<line x1="561.2477662159306" y1="453.14670132094506" x2="561.2225687434519" y2="452.9732535192819" stroke-width="5" stroke="red" />
<line x1="561.2683986595391" y1="453.37311126235886" x2="561.2525774707599" y2="453.1992451955641" stroke-width="5" stroke="red" />
<line x1="561.2683986595391" y1="453.37311126235886" x2="561.2707541420186" y2="453.42652098048865" stroke-width="5" stroke="red" />
<line x1="561.2674448199101" y1="454.0550595284478" x2="561.2566309889547" y2="454.1659405772879" stroke-width="5" stroke="red" />
<line x1="561.2674448199101" y1="454.0550595284478" x2="561.274723882373" y2="453.88254619800915" stroke-width="5" stroke="red" />
<line x1="561.2771011069423" y1="453.82773475450534" x2="561.2780835561518" y2="453.6544501907034" stroke-width="5" stroke="red" />
<line x1="561.2771011069423" y1="453.82773475450534" x2="561.274723882373" y2="453.88254619800915" stroke-width="5" stroke="red" />
<line x1="561.2784296716738" y1="453.6002913748417" x2="561.2780835561518" y2="453.6544501907034" stroke-width="5" stroke="red" />
<line x1="561.2784296716738" y1="453.6002913748417" x2="561.2707541420186" y2="453.42652098048865" stroke-width="5" stroke="red" />
<line x1="561.6186019916805" y1="511.35434373870254" x2="558.7729508797398" y2="505.1001742222241" stroke-width="5" stroke="red" />
<line x1="561.6186019916805" y1="511.35434373870254" x2="562.2666308800873" y2="512.7266930976077" stroke-width="5" stroke="red" />
<line x1="561.0174057505735" y1="529.6999555777337" x2="561.7269132101954" y2="529.4184811189721" stroke-width="5" stroke="red" />
<line x1="561.0174057505735" y1="529.6999555777337" x2="560.0758962514228" y2="530.0749416725354" stroke-width="5" stroke="red" />
<line x1="562.5509429336445" y1="529.0389589298217" x2="562.9015257798995" y2="528.8563168143563" stroke-width="5" stroke="red" />
<line x1="562.1941875611226" y1="529.2028668229066" x2="562.5509429336445" y2="529.0389589298217" stroke-width="5" stroke="red" />
<line x1="562.1941875611226" y1="529.2028668229066" x2="561.7269132101954" y2="529.4184811189721" stroke-width="5" stroke="red" />
<line x1="563.3552358521428" y1="528.6185283463309" x2="562.9015257798995" y2="528.8563168143563" stroke-width="5" stroke="red" />
<line x1="563.3552358521428" y1="528.6185283463309" x2="563.5273573069711" y2="528.5183015355822" stroke-width="5" stroke="red" />
<line x1="563.7463254204625" y1="528.3895813869544" x2="563.9148933889422" y2="528.2821837680625" stroke-width="5" stroke="red" />
<line x1="563.7463254204625" y1="528.3895813869544" x2="563.5273573069711" y2="528.5183015355822" stroke-width="5" stroke="red" />
<line x1="564.1273922706555" y1="528.1457312726225" x2="563.9148933889422" y2="528.2821837680625" stroke-width="5" stroke="red" />
<line x1="564.1273922706555" y1="528.1457312726225" x2="564.2921831069541" y2="528.0300259328941" stroke-width="5" stroke="red" />
<line x1="564.4968584044977" y1="527.8848625772034" x2="564.6563067334287" y2="527.7595431445175" stroke-width="5" stroke="red" />
<line x1="564.4968584044977" y1="527.8848625772034" x2="564.2921831069541" y2="528.0300259328941" stroke-width="5" stroke="red" />
<line x1="564.661271109174" y1="517.7944559809916" x2="562.2666308800873" y2="512.7266930976077" stroke-width="5" stroke="red" />
<line x1="564.661271109174" y1="517.7944559809916" x2="564.9020247725897" y2="518.3529757549653" stroke-width="5" stroke="red" />
<line x1="564.8509773615635" y1="527.604724768718" x2="564.6563067334287" y2="527.7595431445175" stroke-width="5" stroke="red" />
<line x1="564.8509773615635" y1="527.604724768718" x2="565.0031444144216" y2="527.4683396544146" stroke-width="5" stroke="red" />
<line x1="565.1856685056803" y1="527.3028924358998" x2="565.0031444144216" y2="527.4683396544146" stroke-width="5" stroke="red" />
<line x1="565.1856685056803" y1="527.3028924358998" x2="565.2582977523009" y2="527.2300954188909" stroke-width="5" stroke="red" />
<line x1="565.3645096938626" y1="519.4259988691025" x2="564.9020247725897" y2="518.3529757549653" stroke-width="5" stroke="red" />
<line x1="565.3645096938626" y1="519.4259988691025" x2="565.6022625567163" y2="520.0642706292618" stroke-width="5" stroke="red" />
<line x1="565.3440370466337" y1="527.1432051023216" x2="565.4140014459963" y2="527.0671209292874" stroke-width="5" stroke="red" />
<line x1="565.3440370466337" y1="527.1432051023216" x2="565.2582977523009" y2="527.2300954188909" stroke-width="5" stroke="red" />
<line x1="565.495260288459" y1="526.9773869180833" x2="565.4140014459963" y2="527.0671209292874" stroke-width="5" stroke="red" />
<line x1="565.495260288459" y1="526.9773869180833" x2="565.5622080960349" y2="526.8979041200165" stroke-width="5" stroke="red" />
<line x1="565.6394093134504" y1="526.8052873520905" x2="565.7029766536295" y2="526.7222667704409" stroke-width="5" stroke="red" />
<line x1="565.6394093134504" y1="526.8052873520905" x2="565.5622080960349" y2="526.8979041200165" stroke-width="5" stroke="red" />
<line x1="565.7753179697502" y1="526.6268622506437" x2="565.7029766536295" y2="526.7222667704409" stroke-width="5" stroke="red" />
<line x1="565.7753179697502" y1="526.6268622506437" x2="565.8351300940094" y2="526.5403348477809" stroke-width="5" stroke="red" />
<line x1="565.9018273440819" y1="526.4422426807173" x2="565.9571427723774" y2="526.3521484933291" stroke-width="5" stroke="red" />
<line x1="565.9018273440819" y1="526.4422426807173" x2="565.8351300940094" y2="526.5403348477809" stroke-width="5" stroke="red" />
<line x1="565.9838078604104" y1="521.0884631659726" x2="566.0902065402304" y2="521.4417710290716" stroke-width="5" stroke="red" />
<line x1="565.9838078604104" y1="521.0884631659726" x2="565.6022625567163" y2="520.0642706292618" stroke-width="5" stroke="red" />
<line x1="566.0186359263012" y1="526.2515469412657" x2="565.9571427723774" y2="526.3521484933291" stroke-width="5" stroke="red" />
<line x1="566.0186359263012" y1="526.2515469412657" x2="566.069761326042" y2="526.1579119130938" stroke-width="5" stroke="red" />
<line x1="566.1248949941596" y1="526.055006969261" x2="566.170697999012" y2="525.9580145783351" stroke-width="5" stroke="red" />
<line x1="566.1248949941596" y1="526.055006969261" x2="566.069761326042" y2="526.1579119130938" stroke-width="5" stroke="red" />
<line x1="566.2397911827329" y1="521.9370384851334" x2="566.0902065402304" y2="521.4417710290716" stroke-width="5" stroke="red" />
<line x1="566.2397911827329" y1="521.9370384851334" x2="566.2865325660501" y2="522.1227837184705" stroke-width="5" stroke="red" />
<line x1="566.2199260685717" y1="525.8531624062381" x2="566.170697999012" y2="525.9580145783351" stroke-width="5" stroke="red" />
<line x1="566.2199260685717" y1="525.8531624062381" x2="566.2606906428416" y2="525.7530250411747" stroke-width="5" stroke="red" />
<line x1="566.3032911945405" y1="525.646625404161" x2="566.3385711455575" y2="525.5435858567614" stroke-width="5" stroke="red" />
<line x1="566.3032911945405" y1="525.646625404161" x2="566.2606906428416" y2="525.7530250411747" stroke-width="5" stroke="red" />
<line x1="566.3475269122966" y1="522.3667644968582" x2="566.2865325660501" y2="522.1227837184705" stroke-width="5" stroke="red" />
<line x1="566.3475269122966" y1="522.3667644968582" x2="566.3875806372021" y2="522.5587712209486" stroke-width="5" stroke="red" />
<line x1="566.3750151838975" y1="525.4360071840358" x2="566.3385711455575" y2="525.5435858567614" stroke-width="5" stroke="red" />
<line x1="566.3750151838975" y1="525.4360071840358" x2="566.4043447762127" y2="525.3302938621929" stroke-width="5" stroke="red" />
<line x1="566.4378126712733" y1="522.8005207934316" x2="566.4694311279335" y2="522.9988290535744" stroke-width="5" stroke="red" />
<line x1="566.4378126712733" y1="522.8005207934316" x2="566.3875806372021" y2="522.5587712209486" stroke-width="5" stroke="red" />
<line x1="566.4343259042756" y1="525.2219696639899" x2="566.458342026324" y2="525.1138930584459" stroke-width="5" stroke="red" />
<line x1="566.4343259042756" y1="525.2219696639899" x2="566.4043447762127" y2="525.3302938621929" stroke-width="5" stroke="red" />
<line x1="566.4823391459238" y1="525.0052210755706" x2="566.458342026324" y2="525.1138930584459" stroke-width="5" stroke="red" />
<line x1="566.4823391459238" y1="525.0052210755706" x2="566.5009399674251" y2="524.8951287306152" stroke-width="5" stroke="red" />
<line x1="566.507630236113" y1="523.2381515953883" x2="566.4694311279335" y2="522.9988290535744" stroke-width="5" stroke="red" />
<line x1="566.507630236113" y1="523.2381515953883" x2="566.5282616226574" y2="523.4426468570452" stroke-width="5" stroke="red" />
<line x1="566.51904777429" y1="524.7865184699081" x2="566.5325089775951" y2="524.6746768496719" stroke-width="5" stroke="red" />
<line x1="566.51904777429" y1="524.7865184699081" x2="566.5009399674251" y2="524.8951287306152" stroke-width="5" stroke="red" />
<line x1="566.5520501773533" y1="523.6792704660653" x2="566.5590114215049" y2="523.8894835051022" stroke-width="5" stroke="red" />
<line x1="566.5520501773533" y1="523.6792704660653" x2="566.5282616226574" y2="523.4426468570452" stroke-width="5" stroke="red" />
<line x1="566.5452027839511" y1="524.5665247821263" x2="566.5325089775951" y2="524.6746768496719" stroke-width="5" stroke="red" />
<line x1="566.5452027839511" y1="524.5665247821263" x2="566.5530390454599" y2="524.4527044503225" stroke-width="5" stroke="red" />
<line x1="566.5604176206936" y1="524.3448337863578" x2="566.5636773057607" y2="524.229705352911" stroke-width="5" stroke="red" />
<line x1="566.5604176206936" y1="524.3448337863578" x2="566.5530390454599" y2="524.4527044503225" stroke-width="5" stroke="red" />
<line x1="566.5665750632601" y1="524.1227757345116" x2="566.5590114215049" y2="523.8894835051022" stroke-width="5" stroke="red" />
<line x1="566.5665750632601" y1="524.1227757345116" x2="566.5636773057607" y2="524.229705352911" stroke-width="5" stroke="red" />
</svg>
