<svg width="1005.8216363586872" height="994.1783636413129" xmlns="http://www.w3.org/2000/svg">
<line x1="456.0327033797496" y1="507.47699484782316" x2="455.8879382669836" y2="508.0095903412587" stroke-width="5" stroke="red" />
<line x1="456.0327033797496" y1="507.47699484782316" x2="456.03638480763107" y2="507.464508470845" stroke-width="5" stroke="red" />
<line x1="456.2895356619575" y1="506.7231210443636" x2="456.03638480763107" y2="507.464508470845" stroke-width="5" stroke="red" />
<line x1="456.2895356619575" y1="506.7231210443636" x2="456.3000876705888" y2="506.69426627177427" stroke-width="5" stroke="red" />
<line x1="456.3000876705888" y1="506.69426627177427" x2="456.3128147954532" y2="506.66517639111834" stroke-width="5" stroke="red" />
<line x1="456.6105161669848" y1="505.9473523634528" x2="456.63242953810374" y2="505.90441356731833" stroke-width="5" stroke="red" />
<line x1="456.6105161669848" y1="505.9473523634528" x2="456.3128147954532" y2="506.66517639111834" stroke-width="5" stroke="red" />
<line x1="456.95858749849026" y1="505.2326015694573" x2="456.63242953810374" y2="505.90441356731833" stroke-width="5" stroke="red" />
<line x1="456.95858749849026" y1="505.2326015694573" x2="456.9906552421603" y2="505.17765557735754" stroke-width="5" stroke="red" />
<line x1="457.34549475021424" y1="504.54278334484917" x2="457.388251397561" y2="504.47767422507906" stroke-width="5" stroke="red" />
<line x1="457.34549475021424" y1="504.54278334484917" x2="456.9906552421603" y2="505.17765557735754" stroke-width="5" stroke="red" />
<line x1="457.7672318782062" y1="503.87818042125184" x2="457.388251397561" y2="504.47767422507906" stroke-width="5" stroke="red" />
<line x1="457.7672318782062" y1="503.87818042125184" x2="457.8209684990288" y2="503.8045963642785" stroke-width="5" stroke="red" />
<line x1="458.22049451759267" y1="503.23855918829446" x2="458.3551063416159" y2="503.07844405970064" stroke-width="5" stroke="red" />
<line x1="458.22049451759267" y1="503.23855918829446" x2="457.8209684990288" y2="503.8045963642785" stroke-width="5" stroke="red" />
<line x1="455.7063187787723" y1="513.7345825225854" x2="455.7207115751178" y2="513.8103411185479" stroke-width="5" stroke="red" />
<line x1="455.7063187787723" y1="513.7345825225854" x2="455.6465634560502" y2="513.3746839515377" stroke-width="5" stroke="red" />
<line x1="455.62778304871824" y1="513.2369286396492" x2="455.6465634560502" y2="513.3746839515377" stroke-width="5" stroke="red" />
<line x1="455.62778304871824" y1="513.2369286396492" x2="455.5418185531986" y2="512.5011459352581" stroke-width="5" stroke="red" />
<line x1="455.792740714142" y1="514.1628664442084" x2="455.8110458204961" y2="514.2444388745024" stroke-width="5" stroke="red" />
<line x1="455.792740714142" y1="514.1628664442084" x2="455.7207115751178" y2="513.8103411185479" stroke-width="5" stroke="red" />
<line x1="455.89357365606156" y1="514.589075014513" x2="455.91652002012444" y2="514.676329325092" stroke-width="5" stroke="red" />
<line x1="455.89357365606156" y1="514.589075014513" x2="455.8110458204961" y2="514.2444388745024" stroke-width="5" stroke="red" />
<line x1="455.53350989362366" y1="512.3880057872669" x2="455.5418185531986" y2="512.5011459352581" stroke-width="5" stroke="red" />
<line x1="455.53350989362366" y1="512.3880057872669" x2="455.4926655094711" y2="511.63523770506714" stroke-width="5" stroke="red" />
<line x1="456.0108240431186" y1="515.0124970392287" x2="456.0388534458202" y2="515.1052340446158" stroke-width="5" stroke="red" />
<line x1="456.0108240431186" y1="515.0124970392287" x2="455.91652002012444" y2="514.676329325092" stroke-width="5" stroke="red" />
<line x1="458.7784625406723" y1="502.53716911394685" x2="458.3551063416159" y2="503.07844405970064" stroke-width="5" stroke="red" />
<line x1="455.49144480959677" y1="511.54540031093836" x2="455.4926655094711" y2="511.63523770506714" stroke-width="5" stroke="red" />
<line x1="455.49144480959677" y1="511.54540031093836" x2="455.4964033561038" y2="510.7745334935897" stroke-width="5" stroke="red" />
<line x1="456.14374124526535" y1="515.4324191435251" x2="456.1774764635464" y2="515.5304064649752" stroke-width="5" stroke="red" />
<line x1="456.14374124526535" y1="515.4324191435251" x2="456.0388534458202" y2="515.1052340446158" stroke-width="5" stroke="red" />
<line x1="456.29238566441234" y1="515.8480792262046" x2="456.3320847247652" y2="515.9510448343235" stroke-width="5" stroke="red" />
<line x1="456.29238566441234" y1="515.8480792262046" x2="456.1774764635464" y2="515.5304064649752" stroke-width="5" stroke="red" />
<line x1="455.49948313979087" y1="510.70743190026883" x2="455.4964033561038" y2="510.7745334935897" stroke-width="5" stroke="red" />
<line x1="455.49948313979087" y1="510.70743190026883" x2="455.5528704121941" y2="509.9226385888703" stroke-width="5" stroke="red" />
<line x1="456.45645121332126" y1="516.2588292673643" x2="456.50233699193916" y2="516.3664874894266" stroke-width="5" stroke="red" />
<line x1="456.45645121332126" y1="516.2588292673643" x2="456.3320847247652" y2="515.9510448343235" stroke-width="5" stroke="red" />
<line x1="456.6350407376109" y1="516.6640984795613" x2="456.68728275457136" y2="516.7761381749385" stroke-width="5" stroke="red" />
<line x1="456.6350407376109" y1="516.6640984795613" x2="456.50233699193916" y2="516.3664874894266" stroke-width="5" stroke="red" />
<line x1="455.55778368032816" y1="509.87737615391967" x2="455.5528704121941" y2="509.9226385888703" stroke-width="5" stroke="red" />
<line x1="455.55778368032816" y1="509.87737615391967" x2="455.6612594678687" y2="509.08321204939926" stroke-width="5" stroke="red" />
<line x1="456.82726884686076" y1="517.0634241897402" x2="456.88646255057415" y2="517.1795642199769" stroke-width="5" stroke="red" />
<line x1="456.82726884686076" y1="517.0634241897402" x2="456.68728275457136" y2="516.7761381749385" stroke-width="5" stroke="red" />
<line x1="459.20989555824514" y1="502.0319007779976" x2="458.7784625406723" y2="502.53716911394685" stroke-width="5" stroke="red" />
<line x1="459.20989555824514" y1="502.0319007779976" x2="459.3877670412146" y2="501.85124951071026" stroke-width="5" stroke="red" />
<line x1="457.03273664983635" y1="517.4564366937213" x2="457.0987803500627" y2="517.5763461324278" stroke-width="5" stroke="red" />
<line x1="457.03273664983635" y1="517.4564366937213" x2="456.88646255057415" y2="517.1795642199769" stroke-width="5" stroke="red" />
<line x1="455.66550739745713" y1="509.05858064425973" x2="455.6612594678687" y2="509.08321204939926" stroke-width="5" stroke="red" />
<line x1="455.66550739745713" y1="509.05858064425973" x2="455.8220018047183" y2="508.2599781677799" stroke-width="5" stroke="red" />
<line x1="457.40644616489163" y1="518.0973937974494" x2="457.5601050802885" y2="518.3493348884407" stroke-width="5" stroke="red" />
<line x1="457.40644616489163" y1="518.0973937974494" x2="457.0987803500627" y2="517.5763461324278" stroke-width="5" stroke="red" />
<line x1="455.82332680777324" y1="508.25446244936074" x2="455.8220018047183" y2="508.2599781677799" stroke-width="5" stroke="red" />
<line x1="455.82332680777324" y1="508.25446244936074" x2="455.8879382669836" y2="508.0095903412587" stroke-width="5" stroke="red" />
<line x1="457.8813256347157" y1="518.8309625170042" x2="458.06215625955997" y2="519.0948372448191" stroke-width="5" stroke="red" />
<line x1="457.8813256347157" y1="518.8309625170042" x2="457.5601050802885" y2="518.3493348884407" stroke-width="5" stroke="red" />
<line x1="458.38916251250146" y1="519.5368992965133" x2="458.59545847887534" y2="519.8097616554853" stroke-width="5" stroke="red" />
<line x1="458.38916251250146" y1="519.5368992965133" x2="458.06215625955997" y2="519.0948372448191" stroke-width="5" stroke="red" />
<line x1="460.2890449331545" y1="500.9134389331636" x2="460.73657785469703" y2="500.52507300733976" stroke-width="5" stroke="red" />
<line x1="460.2890449331545" y1="500.9134389331636" x2="459.3877670412146" y2="501.85124951071026" stroke-width="5" stroke="red" />
<line x1="458.92481262761237" y1="520.2175897871368" x2="459.15655515378944" y2="520.499727110751" stroke-width="5" stroke="red" />
<line x1="458.92481262761237" y1="520.2175897871368" x2="458.59545847887534" y2="519.8097616554853" stroke-width="5" stroke="red" />
<line x1="459.80295512298164" y1="521.2231292856476" x2="460.3384713362531" y2="521.8147814931173" stroke-width="5" stroke="red" />
<line x1="459.80295512298164" y1="521.2231292856476" x2="459.15655515378944" y2="520.499727110751" stroke-width="5" stroke="red" />
<line x1="461.5192910689991" y1="522.9870149597513" x2="462.82562456098566" y2="524.2790125409149" stroke-width="5" stroke="red" />
<line x1="461.5192910689991" y1="522.9870149597513" x2="460.3384713362531" y2="521.8147814931173" stroke-width="5" stroke="red" />
<line x1="462.60727081126834" y1="498.8758197366239" x2="460.73657785469703" y2="500.52507300733976" stroke-width="5" stroke="red" />
<line x1="462.60727081126834" y1="498.8758197366239" x2="463.1813958001839" y2="498.4333684423443" stroke-width="5" stroke="red" />
<line x1="464.55855822972126" y1="525.9530905174813" x2="467.789424297505" y2="529.0890242904926" stroke-width="5" stroke="red" />
<line x1="464.55855822972126" y1="525.9530905174813" x2="462.82562456098566" y2="524.2790125409149" stroke-width="5" stroke="red" />
<line x1="465.0470931753878" y1="496.9819877266453" x2="466.4517268592552" y2="495.9529251434903" stroke-width="5" stroke="red" />
<line x1="465.0470931753878" y1="496.9819877266453" x2="463.1813958001839" y2="498.4333684423443" stroke-width="5" stroke="red" />
<line x1="468.2362370375705" y1="529.5574537148639" x2="470.14902261385964" y2="531.5759274536057" stroke-width="5" stroke="red" />
<line x1="468.2362370375705" y1="529.5574537148639" x2="467.789424297505" y2="529.0890242904926" stroke-width="5" stroke="red" />
<line x1="470.3509001069927" y1="531.8072368615896" x2="472.13616826106374" y2="533.8664348671346" stroke-width="5" stroke="red" />
<line x1="470.3509001069927" y1="531.8072368615896" x2="470.14902261385964" y2="531.5759274536057" stroke-width="5" stroke="red" />
<line x1="470.0325184578622" y1="493.31630343415657" x2="466.4517268592552" y2="495.9529251434903" stroke-width="5" stroke="red" />
<line x1="470.0325184578622" y1="493.31630343415657" x2="471.77669038157893" y2="491.9335841430263" stroke-width="5" stroke="red" />
<line x1="472.35767847712094" y1="534.1281467508873" x2="472.3808502571949" y2="534.1557336043884" stroke-width="5" stroke="red" />
<line x1="472.35767847712094" y1="534.1281467508873" x2="472.13616826106374" y2="533.8664348671346" stroke-width="5" stroke="red" />
<line x1="474.2367144456629" y1="536.5847580621985" x2="474.45950776601796" y2="536.8785934325857" stroke-width="5" stroke="red" />
<line x1="474.2367144456629" y1="536.5847580621985" x2="472.3808502571949" y2="534.1557336043884" stroke-width="5" stroke="red" />
<line x1="474.91789021433067" y1="489.4403645857033" x2="471.77669038157893" y2="491.9335841430263" stroke-width="5" stroke="red" />
<line x1="474.91789021433067" y1="489.4403645857033" x2="475.89503506182933" y2="488.5196351879384" stroke-width="5" stroke="red" />
<line x1="475.982704485493" y1="539.1100609439175" x2="476.37803470024517" y2="539.6933565316881" stroke-width="5" stroke="red" />
<line x1="475.982704485493" y1="539.1100609439175" x2="474.45950776601796" y2="536.8785934325857" stroke-width="5" stroke="red" />
<line x1="477.21707664651905" y1="487.2752939775732" x2="475.89503506182933" y2="488.5196351879384" stroke-width="5" stroke="red" />
<line x1="477.59244033556445" y1="541.6999590503461" x2="478.1305444092934" y2="542.5947585985124" stroke-width="5" stroke="red" />
<line x1="477.59244033556445" y1="541.6999590503461" x2="476.37803470024517" y2="539.6933565316881" stroke-width="5" stroke="red" />
<line x1="477.79727281446105" y1="486.65402817800606" x2="477.21707664651905" y2="487.2752939775732" stroke-width="5" stroke="red" />
<line x1="477.79727281446105" y1="486.65402817800606" x2="478.30359951692367" y2="486.11055272773893" stroke-width="5" stroke="red" />
<line x1="479.0640019217556" y1="544.3422912280807" x2="479.71268335306024" y2="545.5622848345494" stroke-width="5" stroke="red" />
<line x1="479.0640019217556" y1="544.3422912280807" x2="478.1305444092934" y2="542.5947585985124" stroke-width="5" stroke="red" />
<line x1="478.8303783012475" y1="485.4907034419089" x2="478.30359951692367" y2="486.11055272773893" stroke-width="5" stroke="red" />
<line x1="478.8303783012475" y1="485.4907034419089" x2="479.3420226009093" y2="484.88843699291175" stroke-width="5" stroke="red" />
<line x1="480.41266040890747" y1="547.0221022314835" x2="481.15445218208043" y2="548.5729006685502" stroke-width="5" stroke="red" />
<line x1="480.41266040890747" y1="547.0221022314835" x2="479.71268335306024" y2="545.5622848345494" stroke-width="5" stroke="red" />
<line x1="479.8170223952122" y1="484.2733642611183" x2="479.3420226009093" y2="484.88843699291175" stroke-width="5" stroke="red" />
<line x1="479.8170223952122" y1="484.2733642611183" x2="480.33333011335225" y2="483.60446780599756" stroke-width="5" stroke="red" />
<line x1="481.6594619371227" y1="549.7237008378636" x2="482.48295000896076" y2="551.6027316489058" stroke-width="5" stroke="red" />
<line x1="481.6594619371227" y1="549.7237008378636" x2="481.15445218208043" y2="548.5729006685502" stroke-width="5" stroke="red" />
<line x1="480.7540752520159" y1="483.0025970183939" x2="480.33333011335225" y2="483.60446780599756" stroke-width="5" stroke="red" />
<line x1="480.7540752520159" y1="483.0025970183939" x2="481.2703239323658" y2="482.26384651644446" stroke-width="5" stroke="red" />
<line x1="483.0809696692799" y1="553.113027690196" x2="484.8900252551507" y2="557.6751969365819" stroke-width="5" stroke="red" />
<line x1="483.0809696692799" y1="553.113027690196" x2="482.48295000896076" y2="551.6027316489058" stroke-width="5" stroke="red" />
<line x1="481.6375594819129" y1="481.68192942358604" x2="481.2703239323658" y2="482.26384651644446" stroke-width="5" stroke="red" />
<line x1="481.6375594819129" y1="481.68192942358604" x2="482.15088018569463" y2="480.868392356503" stroke-width="5" stroke="red" />
<line x1="482.4662611159851" y1="480.3134959746614" x2="482.15088018569463" y2="480.868392356503" stroke-width="5" stroke="red" />
<line x1="482.4662611159851" y1="480.3134959746614" x2="482.9736942680781" y2="479.420716757457" stroke-width="5" stroke="red" />
<line x1="485.00783009708056" y1="558.0038990978362" x2="485.4963685270372" y2="559.3633908604075" stroke-width="5" stroke="red" />
<line x1="485.00783009708056" y1="558.0038990978362" x2="484.8900252551507" y2="557.6751969365819" stroke-width="5" stroke="red" />
<line x1="483.2408290376342" y1="478.8978856032162" x2="482.9736942680781" y2="479.420716757457" stroke-width="5" stroke="red" />
<line x1="483.2408290376342" y1="478.8978856032162" x2="483.742107646654" y2="477.9178802582759" stroke-width="5" stroke="red" />
<line x1="483.96250567213144" y1="477.4365342448279" x2="483.742107646654" y2="477.9178802582759" stroke-width="5" stroke="red" />
<line x1="483.96250567213144" y1="477.4365342448279" x2="484.45234262257856" y2="476.3694511761993" stroke-width="5" stroke="red" />
<line x1="484.77950563619635" y1="475.5292586781101" x2="484.45234262257856" y2="476.3694511761993" stroke-width="5" stroke="red" />
<line x1="484.77950563619635" y1="475.5292586781101" x2="485.70843888330046" y2="473.1519938394901" stroke-width="5" stroke="red" />
<line x1="486.7490082489162" y1="562.991652925617" x2="487.03258781937956" y2="563.8113838061049" stroke-width="5" stroke="red" />
<line x1="486.7490082489162" y1="562.991652925617" x2="485.4963685270372" y2="559.3633908604075" stroke-width="5" stroke="red" />
<line x1="488.4880059602507" y1="463.1108703108873" x2="487.8676151040472" y2="465.52523955705226" stroke-width="5" stroke="red" />
<line x1="488.4880059602507" y1="463.1108703108873" x2="488.54714600328566" y2="462.8835972955243" stroke-width="5" stroke="red" />
<line x1="485.90229189297725" y1="472.53510565004643" x2="485.70843888330046" y2="473.1519938394901" stroke-width="5" stroke="red" />
<line x1="485.90229189297725" y1="472.53510565004643" x2="486.7693336417711" y2="469.7902341992963" stroke-width="5" stroke="red" />
<line x1="488.39622342826533" y1="567.9909630628518" x2="489.03421490519423" y2="569.9409144801896" stroke-width="5" stroke="red" />
<line x1="488.39622342826533" y1="567.9909630628518" x2="487.03258781937956" y2="563.8113838061049" stroke-width="5" stroke="red" />
<line x1="489.37629544823864" y1="459.98909489154005" x2="488.54714600328566" y2="462.8835972955243" stroke-width="5" stroke="red" />
<line x1="489.37629544823864" y1="459.98909489154005" x2="489.5257073406991" y2="459.4785845888018" stroke-width="5" stroke="red" />
<line x1="486.86116942636255" y1="469.43562513190244" x2="486.7693336417711" y2="469.7902341992963" stroke-width="5" stroke="red" />
<line x1="486.86116942636255" y1="469.43562513190244" x2="487.6732977190453" y2="466.3288426484292" stroke-width="5" stroke="red" />
<line x1="490.00376345815505" y1="458.1542062387508" x2="489.5257073406991" y2="459.4785845888018" stroke-width="5" stroke="red" />
<line x1="490.00376345815505" y1="458.1542062387508" x2="490.12366645747136" y2="457.83022103803796" stroke-width="5" stroke="red" />
<line x1="490.02467003622" y1="572.935669460396" x2="491.03808284494096" y2="575.989950906048" stroke-width="5" stroke="red" />
<line x1="490.02467003622" y1="572.935669460396" x2="489.03421490519423" y2="569.9409144801896" stroke-width="5" stroke="red" />
<line x1="490.39343114528424" y1="457.2074786045577" x2="490.12366645747136" y2="457.83022103803796" stroke-width="5" stroke="red" />
<line x1="490.39343114528424" y1="457.2074786045577" x2="490.4717100745419" y2="457.03232533916355" stroke-width="5" stroke="red" />
<line x1="487.68938292917403" y1="466.26120601301915" x2="487.6732977190453" y2="466.3288426484292" stroke-width="5" stroke="red" />
<line x1="487.68938292917403" y1="466.26120601301915" x2="487.8676151040472" y2="465.52523955705226" stroke-width="5" stroke="red" />
<line x1="490.770428327432" y1="456.4468610660588" x2="490.4717100745419" y2="457.03232533916355" stroke-width="5" stroke="red" />
<line x1="490.770428327432" y1="456.4468610660588" x2="490.86647476236595" y2="456.26470240367877" stroke-width="5" stroke="red" />
<line x1="491.0299946584314" y1="455.98793655589276" x2="490.86647476236595" y2="456.26470240367877" stroke-width="5" stroke="red" />
<line x1="491.0299946584314" y1="455.98793655589276" x2="491.08573034816214" y2="455.8970102692603" stroke-width="5" stroke="red" />
<line x1="491.2593813908951" y1="455.6337068427337" x2="491.08573034816214" y2="455.8970102692603" stroke-width="5" stroke="red" />
<line x1="491.2593813908951" y1="455.6337068427337" x2="491.3212655670591" y2="455.5437836312286" stroke-width="5" stroke="red" />
<line x1="491.4136732972624" y1="576.9869287677832" x2="492.1526608230778" y2="578.9430066899512" stroke-width="5" stroke="red" />
<line x1="491.4136732972624" y1="576.9869287677832" x2="491.03808284494096" y2="575.989950906048" stroke-width="5" stroke="red" />
<line x1="491.5079722179398" y1="455.29600194290117" x2="491.3212655670591" y2="455.5437836312286" stroke-width="5" stroke="red" />
<line x1="491.5079722179398" y1="455.29600194290117" x2="491.5769491209345" y2="455.2085081442742" stroke-width="5" stroke="red" />
<line x1="491.77688187370444" y1="454.9791598636184" x2="491.5769491209345" y2="455.2085081442742" stroke-width="5" stroke="red" />
<line x1="491.77688187370444" y1="454.9791598636184" x2="491.8533042345967" y2="454.895934398926" stroke-width="5" stroke="red" />
<line x1="491.95868650047333" y1="454.78907341635977" x2="491.8533042345967" y2="454.895934398926" stroke-width="5" stroke="red" />
<line x1="491.95868650047333" y1="454.78907341635977" x2="491.99967546772837" y2="454.7498284593869" stroke-width="5" stroke="red" />
<line x1="492.1090325681469" y1="454.64895769714866" x2="491.99967546772837" y2="454.7498284593869" stroke-width="5" stroke="red" />
<line x1="492.1090325681469" y1="454.64895769714866" x2="492.1522192777281" y2="454.6116165308183" stroke-width="5" stroke="red" />
<line x1="492.2338851738793" y1="579.1245837975347" x2="492.47435389251257" y2="579.6618808031436" stroke-width="5" stroke="red" />
<line x1="492.2338851738793" y1="579.1245837975347" x2="492.1526608230778" y2="578.9430066899512" stroke-width="5" stroke="red" />
<line x1="492.2656052291459" y1="454.51727381433693" x2="492.1522192777281" y2="454.6116165308183" stroke-width="5" stroke="red" />
<line x1="492.2656052291459" y1="454.51727381433693" x2="492.31057323481843" y2="454.4821912601929" stroke-width="5" stroke="red" />
<line x1="492.42804473997376" y1="454.3948337876179" x2="492.31057323481843" y2="454.4821912601929" stroke-width="5" stroke="red" />
<line x1="492.42804473997376" y1="454.3948337876179" x2="492.4751878639935" y2="454.36229660817725" stroke-width="5" stroke="red" />
<line x1="492.51406661746074" y1="579.7421303609809" x2="492.6492096630158" y2="580.01453987581" stroke-width="5" stroke="red" />
<line x1="492.51406661746074" y1="579.7421303609809" x2="492.47435389251257" y2="579.6618808031436" stroke-width="5" stroke="red" />
<line x1="492.6895338555273" y1="580.0882707057816" x2="492.83761768931737" y2="580.3600880874526" stroke-width="5" stroke="red" />
<line x1="492.6895338555273" y1="580.0882707057816" x2="492.6492096630158" y2="580.01453987581" stroke-width="5" stroke="red" />
<line x1="492.59680917450373" y1="454.2824412479937" x2="492.4751878639935" y2="454.36229660817725" stroke-width="5" stroke="red" />
<line x1="492.59680917450373" y1="454.2824412479937" x2="492.6458933816148" y2="454.25276699174685" stroke-width="5" stroke="red" />
<line x1="492.87855969652827" y1="580.4268721398873" x2="493.04344076996176" y2="580.6952225501649" stroke-width="5" stroke="red" />
<line x1="492.87855969652827" y1="580.4268721398873" x2="492.83761768931737" y2="580.3600880874526" stroke-width="5" stroke="red" />
<line x1="492.77118261467353" y1="454.1809129647777" x2="492.6458933816148" y2="454.25276699174685" stroke-width="5" stroke="red" />
<line x1="492.77118261467353" y1="454.1809129647777" x2="492.821954680819" y2="454.15433953817325" stroke-width="5" stroke="red" />
<line x1="493.0642089260239" y1="580.7254492995175" x2="493.15447625544704" y2="580.8572116733413" stroke-width="5" stroke="red" />
<line x1="493.0642089260239" y1="580.7254492995175" x2="493.04344076996176" y2="580.6952225501649" stroke-width="5" stroke="red" />
<line x1="492.95044071756996" y1="454.09089044163267" x2="492.821954680819" y2="454.15433953817325" stroke-width="5" stroke="red" />
<line x1="492.95044071756996" y1="454.09089044163267" x2="493.00284938689583" y2="454.0676941916699" stroke-width="5" stroke="red" />
<line x1="493.17561852102017" y1="580.8854322437454" x2="493.2720119142775" y2="581.0143078410987" stroke-width="5" stroke="red" />
<line x1="493.17561852102017" y1="580.8854322437454" x2="493.15447625544704" y2="580.8572116733413" stroke-width="5" stroke="red" />
<line x1="493.2936994765891" y1="581.0404471359573" x2="493.3968503178728" y2="581.1655546739288" stroke-width="5" stroke="red" />
<line x1="493.2936994765891" y1="581.0404471359573" x2="493.2720119142775" y2="581.0143078410987" stroke-width="5" stroke="red" />
<line x1="493.1894671561488" y1="453.99335087340927" x2="493.3245439777176" y2="453.9475871573155" stroke-width="5" stroke="red" />
<line x1="493.1357003919489" y1="454.0129966839382" x2="493.00284938689583" y2="454.0676941916699" stroke-width="5" stroke="red" />
<line x1="493.1357003919489" y1="454.0129966839382" x2="493.1894671561488" y2="453.99335087340927" stroke-width="5" stroke="red" />
<line x1="493.4188507610314" y1="581.1894849985957" x2="493.5293910295594" y2="581.3095953827096" stroke-width="5" stroke="red" />
<line x1="493.4188507610314" y1="581.1894849985957" x2="493.3968503178728" y2="581.1655546739288" stroke-width="5" stroke="red" />
<line x1="493.5518500985073" y1="581.3311693961829" x2="493.669712876755" y2="581.4447994110664" stroke-width="5" stroke="red" />
<line x1="493.5518500985073" y1="581.3311693961829" x2="493.5293910295594" y2="581.3095953827096" stroke-width="5" stroke="red" />
<line x1="493.3793758779814" y1="453.9315237725105" x2="493.3245439777176" y2="453.9475871573155" stroke-width="5" stroke="red" />
<line x1="493.3793758779814" y1="453.9315237725105" x2="493.51727941131116" y2="453.89455954464563" stroke-width="5" stroke="red" />
<line x1="493.6925439761499" y1="581.4639261442153" x2="493.8179926268514" y2="581.5694804111503" stroke-width="5" stroke="red" />
<line x1="493.6925439761499" y1="581.4639261442153" x2="493.669712876755" y2="581.4447994110664" stroke-width="5" stroke="red" />
<line x1="493.5728798448315" y1="453.88202512441904" x2="493.71311979449695" y2="453.85391092845117" stroke-width="5" stroke="red" />
<line x1="493.5728798448315" y1="453.88202512441904" x2="493.51727941131116" y2="453.89455954464563" stroke-width="5" stroke="red" />
<line x1="493.84048038044756" y1="581.5857684721876" x2="493.8179926268514" y2="581.5694804111503" stroke-width="5" stroke="red" />
<line x1="493.84048038044756" y1="581.5857684721876" x2="493.9702969166818" y2="581.6803371297076" stroke-width="5" stroke="red" />
<line x1="493.7694032158769" y1="453.8448813707759" x2="493.71311979449695" y2="453.85391092845117" stroke-width="5" stroke="red" />
<line x1="493.82637902215487" y1="453.83922058676535" x2="493.7694032158769" y2="453.8448813707759" stroke-width="5" stroke="red" />
<line x1="493.82637902215487" y1="453.83922058676535" x2="493.96889811655035" y2="453.81976791578165" stroke-width="5" stroke="red" />
<line x1="493.9928898227422" y1="581.6943427383953" x2="494.1288587609529" y2="581.7791949326123" stroke-width="5" stroke="red" />
<line x1="493.9928898227422" y1="581.6943427383953" x2="493.9702969166818" y2="581.6803371297076" stroke-width="5" stroke="red" />
<line x1="494.15140017125464" y1="581.7909714659245" x2="494.29315726325973" y2="581.8654989857775" stroke-width="5" stroke="red" />
<line x1="494.15140017125464" y1="581.7909714659245" x2="494.1288587609529" y2="581.7791949326123" stroke-width="5" stroke="red" />
<line x1="494.02578642489146" y1="453.817286723776" x2="493.96889811655035" y2="453.81976791578165" stroke-width="5" stroke="red" />
<line x1="494.02578642489146" y1="453.817286723776" x2="494.1695916551318" y2="453.80609465946964" stroke-width="5" stroke="red" />
<line x1="494.315550476554" y1="581.8751765458865" x2="494.4617342127359" y2="581.9390759643735" stroke-width="5" stroke="red" />
<line x1="494.315550476554" y1="581.8751765458865" x2="494.29315726325973" y2="581.8654989857775" stroke-width="5" stroke="red" />
<line x1="494.22651807227373" y1="453.8066087616175" x2="494.1695916551318" y2="453.80609465946964" stroke-width="5" stroke="red" />
<line x1="494.22651807227373" y1="453.8066087616175" x2="494.372189637333" y2="453.8034100097764" stroke-width="5" stroke="red" />
<line x1="494.4838100972705" y1="581.946803156074" x2="494.6343672550827" y2="581.9998743444509" stroke-width="5" stroke="red" />
<line x1="494.4838100972705" y1="581.946803156074" x2="494.4617342127359" y2="581.9390759643735" stroke-width="5" stroke="red" />
<line x1="494.428871137039" y1="453.80671450160804" x2="494.372189637333" y2="453.8034100097764" stroke-width="5" stroke="red" />
<line x1="494.428871137039" y1="453.80671450160804" x2="494.5753385515233" y2="453.81108917607554" stroke-width="5" stroke="red" />
<line x1="494.65608010652386" y1="582.0058229551757" x2="494.80965181064244" y2="582.0482197794951" stroke-width="5" stroke="red" />
<line x1="494.65608010652386" y1="582.0058229551757" x2="494.6343672550827" y2="581.9998743444509" stroke-width="5" stroke="red" />
<line x1="494.8309689468354" y1="582.0525851468221" x2="494.98686555635595" y2="582.0847918347416" stroke-width="5" stroke="red" />
<line x1="494.8309689468354" y1="582.0525851468221" x2="494.80965181064244" y2="582.0482197794951" stroke-width="5" stroke="red" />
<line x1="494.63170262197576" y1="453.8169404328995" x2="494.5753385515233" y2="453.81108917607554" stroke-width="5" stroke="red" />
<line x1="494.63170262197576" y1="453.8169404328995" x2="494.7784319573727" y2="453.8284635118119" stroke-width="5" stroke="red" />
<line x1="495.00767550660413" y1="582.0877390809675" x2="495.16386073799094" y2="582.1102291894765" stroke-width="5" stroke="red" />
<line x1="495.00767550660413" y1="582.0877390809675" x2="494.98686555635595" y2="582.0847918347416" stroke-width="5" stroke="red" />
<line x1="494.88957611581384" y1="453.84685526375057" x2="494.7784319573727" y2="453.8284635118119" stroke-width="5" stroke="red" />
<line x1="494.88957611581384" y1="453.84685526375057" x2="495.18529592294794" y2="453.88923991588825" stroke-width="5" stroke="red" />
<line x1="495.18423694409563" y1="582.1119249064863" x2="495.3420410145527" y2="582.1252841501952" stroke-width="5" stroke="red" />
<line x1="495.18423694409563" y1="582.1119249064863" x2="495.16386073799094" y2="582.1102291894765" stroke-width="5" stroke="red" />
<line x1="495.3618885074809" y1="582.1258826213792" x2="495.5186199892973" y2="582.1308291688927" stroke-width="5" stroke="red" />
<line x1="495.3618885074809" y1="582.1258826213792" x2="495.3420410145527" y2="582.1252841501952" stroke-width="5" stroke="red" />
<line x1="495.293310688506" y1="453.9149311399057" x2="495.18529592294794" y2="453.88923991588825" stroke-width="5" stroke="red" />
<line x1="495.293310688506" y1="453.9149311399057" x2="495.5890246875066" y2="453.97990211554435" stroke-width="5" stroke="red" />
<line x1="495.5380915287468" y1="582.1304720517974" x2="495.69578633480677" y2="582.1277502629606" stroke-width="5" stroke="red" />
<line x1="495.5380915287468" y1="582.1304720517974" x2="495.5186199892973" y2="582.1308291688927" stroke-width="5" stroke="red" />
<line x1="495.714785709875" y1="582.1265601559726" x2="495.8707417031702" y2="582.116907479067" stroke-width="5" stroke="red" />
<line x1="495.714785709875" y1="582.1265601559726" x2="495.69578633480677" y2="582.1277502629606" stroke-width="5" stroke="red" />
<line x1="495.69358171874893" y1="454.01128405012093" x2="495.5890246875066" y2="453.97990211554435" stroke-width="5" stroke="red" />
<line x1="495.69358171874893" y1="454.01128405012093" x2="495.9899037270912" y2="454.0957977721321" stroke-width="5" stroke="red" />
<line x1="495.90781678753365" y1="582.1123751789321" x2="496.21842965772703" y2="582.0745834877725" stroke-width="5" stroke="red" />
<line x1="495.90781678753365" y1="582.1123751789321" x2="495.8707417031702" y2="582.116907479067" stroke-width="5" stroke="red" />
<line x1="496.2542944575908" y1="582.0677166505604" x2="496.5608158712269" y2="582.0089786071092" stroke-width="5" stroke="red" />
<line x1="496.2542944575908" y1="582.0677166505604" x2="496.21842965772703" y2="582.0745834877725" stroke-width="5" stroke="red" />
<line x1="496.0907424933348" y1="454.1313961503864" x2="495.9899037270912" y2="454.0957977721321" stroke-width="5" stroke="red" />
<line x1="496.0907424933348" y1="454.1313961503864" x2="496.3865348288693" y2="454.23242139006345" stroke-width="5" stroke="red" />
<line x1="496.59567212231974" y1="582.0002252108928" x2="496.8974680253153" y2="581.9242709870073" stroke-width="5" stroke="red" />
<line x1="496.59567212231974" y1="582.0002252108928" x2="496.5608158712269" y2="582.0089786071092" stroke-width="5" stroke="red" />
<line x1="496.5779367446622" y1="454.3125198138142" x2="496.3865348288693" y2="454.23242139006345" stroke-width="5" stroke="red" />
<line x1="496.5779367446622" y1="454.3125198138142" x2="497.16798936559854" y2="454.5546437933286" stroke-width="5" stroke="red" />
<line x1="496.8974680253153" y1="581.9242709870073" x2="496.93160440353137" y2="581.9139462658308" stroke-width="5" stroke="red" />
<line x1="497.2294016060137" y1="581.8237403519134" x2="497.2964204147008" y2="581.7991911369269" stroke-width="5" stroke="red" />
<line x1="497.2294016060137" y1="581.8237403519134" x2="496.93160440353137" y2="581.9139462658308" stroke-width="5" stroke="red" />
<line x1="497.34322040252283" y1="454.6400637551051" x2="497.16798936559854" y2="454.5546437933286" stroke-width="5" stroke="red" />
<line x1="497.34322040252283" y1="454.6400637551051" x2="497.93409878944664" y2="454.9250116333111" stroke-width="5" stroke="red" />
<line x1="497.87958085461736" y1="581.5850390103004" x2="497.2964204147008" y2="581.7991911369269" stroke-width="5" stroke="red" />
<line x1="497.87958085461736" y1="581.5850390103004" x2="497.94601087995903" y2="581.5561182776688" stroke-width="5" stroke="red" />
<line x1="498.24504174603527" y1="455.0992401557164" x2="497.93409878944664" y2="454.9250116333111" stroke-width="5" stroke="red" />
<line x1="498.24504174603527" y1="455.0992401557164" x2="499.42876837196957" y2="455.76009251877207" stroke-width="5" stroke="red" />
<line x1="498.51304555608976" y1="581.3084183771341" x2="498.5801894836637" y2="581.2756013165672" stroke-width="5" stroke="red" />
<line x1="498.51304555608976" y1="581.3084183771341" x2="497.94601087995903" y2="581.5561182776688" stroke-width="5" stroke="red" />
<line x1="499.13388544491414" y1="581.0038866494993" x2="498.5801894836637" y2="581.2756013165672" stroke-width="5" stroke="red" />
<line x1="499.13388544491414" y1="581.0038866494993" x2="499.40811472985354" y2="580.8461082676578" stroke-width="5" stroke="red" />
<line x1="500.32450042012584" y1="456.346937485298" x2="499.42876837196957" y2="455.76009251877207" stroke-width="5" stroke="red" />
<line x1="500.32450042012584" y1="456.346937485298" x2="505.1891868061726" y2="459.5517232194092" stroke-width="5" stroke="red" />
<line x1="501.5281490713738" y1="579.6216779718441" x2="501.85303450780253" y2="579.4123452011289" stroke-width="5" stroke="red" />
<line x1="501.5281490713738" y1="579.6216779718441" x2="499.40811472985354" y2="580.8461082676578" stroke-width="5" stroke="red" />
<line x1="503.8550342205875" y1="578.1171315819907" x2="504.66789365694456" y2="577.5930099282749" stroke-width="5" stroke="red" />
<line x1="503.8550342205875" y1="578.1171315819907" x2="501.85303450780253" y2="579.4123452011289" stroke-width="5" stroke="red" />
<line x1="505.2720793828193" y1="459.6053765551294" x2="505.1891868061726" y2="459.5517232194092" stroke-width="5" stroke="red" />
<line x1="505.2720793828193" y1="459.6053765551294" x2="505.7764240484421" y2="459.9351578898172" stroke-width="5" stroke="red" />
<line x1="510.22396010593155" y1="462.9388171011886" x2="505.7764240484421" y2="459.9351578898172" stroke-width="5" stroke="red" />
<line x1="510.22396010593155" y1="462.9388171011886" x2="510.92351051166986" y2="463.41708934507704" stroke-width="5" stroke="red" />
<line x1="508.5214971847618" y1="575.1004115875047" x2="509.6429675218156" y2="574.4546910507389" stroke-width="5" stroke="red" />
<line x1="508.5214971847618" y1="575.1004115875047" x2="504.66789365694456" y2="577.5930099282749" stroke-width="5" stroke="red" />
<line x1="515.281967270468" y1="465.97374866079997" x2="510.92351051166986" y2="463.41708934507704" stroke-width="5" stroke="red" />
<line x1="515.281967270468" y1="465.97374866079997" x2="516.7567473300311" y2="466.8519332881166" stroke-width="5" stroke="red" />
<line x1="513.3407443726602" y1="572.3210140762448" x2="514.7318843002705" y2="571.6370337374985" stroke-width="5" stroke="red" />
<line x1="513.3407443726602" y1="572.3210140762448" x2="509.6429675218156" y2="574.4546910507389" stroke-width="5" stroke="red" />
<line x1="520.4312346453195" y1="468.6939090704314" x2="516.7567473300311" y2="466.8519332881166" stroke-width="5" stroke="red" />
<line x1="520.4312346453195" y1="468.6939090704314" x2="522.6698162841271" y2="469.8330193769768" stroke-width="5" stroke="red" />
<line x1="518.3359826927451" y1="569.8632338081736" x2="519.930211531997" y2="569.2128058136734" stroke-width="5" stroke="red" />
<line x1="518.3359826927451" y1="569.8632338081736" x2="514.7318843002705" y2="571.6370337374985" stroke-width="5" stroke="red" />
<line x1="525.6439023814285" y1="471.144774588053" x2="522.6698162841271" y2="469.8330193769768" stroke-width="5" stroke="red" />
<line x1="525.6439023814285" y1="471.144774588053" x2="528.6126599965306" y2="472.4740585269932" stroke-width="5" stroke="red" />
<line x1="523.4923892788707" y1="567.7601806638133" x2="525.210400184172" y2="567.1915220319966" stroke-width="5" stroke="red" />
<line x1="523.4923892788707" y1="567.7601806638133" x2="519.930211531997" y2="569.2128058136734" stroke-width="5" stroke="red" />
<line x1="528.6126599965306" y1="472.4740585269932" x2="532.5201280887653" y2="474.0295480056417" stroke-width="5" stroke="red" />
<line x1="528.7815303282586" y1="566.0120788330028" x2="532.4098683696221" y2="565.0261530832107" stroke-width="5" stroke="red" />
<line x1="528.7815303282586" y1="566.0120788330028" x2="525.210400184172" y2="567.1915220319966" stroke-width="5" stroke="red" />
<line x1="534.1582696420953" y1="564.5495312185703" x2="537.8669415150215" y2="563.6662131716855" stroke-width="5" stroke="red" />
<line x1="534.1582696420953" y1="564.5495312185703" x2="532.4098683696221" y2="565.0261530832107" stroke-width="5" stroke="red" />
<line x1="534.5638423449155" y1="474.83322160742716" x2="532.5201280887653" y2="474.0295480056417" stroke-width="5" stroke="red" />
<line x1="534.5638423449155" y1="474.83322160742716" x2="539.3136775440447" y2="476.51342975806006" stroke-width="5" stroke="red" />
<line x1="539.5764806284918" y1="563.2576715609302" x2="543.3729720761237" y2="562.4138756970377" stroke-width="5" stroke="red" />
<line x1="539.5764806284918" y1="563.2576715609302" x2="537.8669415150215" y2="563.6662131716855" stroke-width="5" stroke="red" />
<line x1="540.5144939050892" y1="476.9328266562293" x2="539.3136775440447" y2="476.51342975806006" stroke-width="5" stroke="red" />
<line x1="540.5144939050892" y1="476.9328266562293" x2="546.0478635577088" y2="478.6276127846606" stroke-width="5" stroke="red" />
<line x1="545.0118447935145" y1="562.0485716312386" x2="548.8830445897029" y2="561.18646366506" stroke-width="5" stroke="red" />
<line x1="545.0118447935145" y1="562.0485716312386" x2="543.3729720761237" y2="562.4138756970377" stroke-width="5" stroke="red" />
<line x1="546.4638287431924" y1="478.7532217043088" x2="546.0478635577088" y2="478.6276127846606" stroke-width="5" stroke="red" />
<line x1="546.4638287431924" y1="478.7532217043088" x2="549.7403684238454" y2="479.677820178959" stroke-width="5" stroke="red" />
<line x1="550.4386561797414" y1="560.8396456894454" x2="554.3407533596072" y2="559.8534027628313" stroke-width="5" stroke="red" />
<line x1="550.4386561797414" y1="560.8396456894454" x2="548.8830445897029" y2="561.18646366506" stroke-width="5" stroke="red" />
<line x1="552.3975274006602" y1="480.45233374308697" x2="549.7403684238454" y2="479.677820178959" stroke-width="5" stroke="red" />
<line x1="552.3975274006602" y1="480.45233374308697" x2="552.4700786642242" y2="480.4763916272132" stroke-width="5" stroke="red" />
<line x1="552.9922990570161" y1="508.5934317226172" x2="552.9991410573417" y2="508.54462770043403" stroke-width="5" stroke="red" />
<line x1="552.9922990570161" y1="508.5934317226172" x2="552.8660998168677" y2="509.4721994798741" stroke-width="5" stroke="red" />
<line x1="552.6209669104234" y1="514.9965302956084" x2="552.5912586545228" y2="513.6047741875008" stroke-width="5" stroke="red" />
<line x1="552.6209669104234" y1="514.9965302956084" x2="552.6266060968669" y2="515.2944024884425" stroke-width="5" stroke="red" />
<line x1="552.7094320887101" y1="516.5925042768088" x2="552.6266060968669" y2="515.2944024884425" stroke-width="5" stroke="red" />
<line x1="552.7094320887101" y1="516.5925042768088" x2="552.7329872619613" y2="516.9790715330591" stroke-width="5" stroke="red" />
<line x1="552.5972756890648" y1="513.3949080184206" x2="552.6359141275867" y2="511.91090348391674" stroke-width="5" stroke="red" />
<line x1="552.5972756890648" y1="513.3949080184206" x2="552.5912586545228" y2="513.6047741875008" stroke-width="5" stroke="red" />
<line x1="552.8565092825537" y1="518.17808785505" x2="552.7329872619613" y2="516.9790715330591" stroke-width="5" stroke="red" />
<line x1="552.8565092825537" y1="518.17808785505" x2="552.9036581982313" y2="518.6517608379418" stroke-width="5" stroke="red" />
<line x1="553.2230386554709" y1="520.7293299672525" x2="552.9036581982313" y2="518.6517608379418" stroke-width="5" stroke="red" />
<line x1="553.2230386554709" y1="520.7293299672525" x2="553.4074272339763" y2="521.9540745730235" stroke-width="5" stroke="red" />
<line x1="552.6458069566721" y1="511.7884856539909" x2="552.7679176171036" y2="510.21873625702193" stroke-width="5" stroke="red" />
<line x1="552.6458069566721" y1="511.7884856539909" x2="552.6359141275867" y2="511.91090348391674" stroke-width="5" stroke="red" />
<line x1="553.2913008263862" y1="507.02873448085114" x2="553.3165673974095" y2="506.89624631609576" stroke-width="5" stroke="red" />
<line x1="553.2913008263862" y1="507.02873448085114" x2="552.9991410573417" y2="508.54462770043403" stroke-width="5" stroke="red" />
<line x1="552.7728118531529" y1="510.18191933154196" x2="552.8660998168677" y2="509.4721994798741" stroke-width="5" stroke="red" />
<line x1="552.7728118531529" y1="510.18191933154196" x2="552.7679176171036" y2="510.21873625702193" stroke-width="5" stroke="red" />
<line x1="553.7687526051672" y1="523.6559665528187" x2="553.4074272339763" y2="521.9540745730235" stroke-width="5" stroke="red" />
<line x1="553.7687526051672" y1="523.6559665528187" x2="554.0897002094853" y2="525.1933223986072" stroke-width="5" stroke="red" />
<line x1="553.6550130783779" y1="505.47386840954965" x2="553.705232025769" y2="505.26119815017273" stroke-width="5" stroke="red" />
<line x1="553.6550130783779" y1="505.47386840954965" x2="553.3165673974095" y2="506.89624631609576" stroke-width="5" stroke="red" />
<line x1="553.8677067878175" y1="480.93598449400747" x2="552.4700786642242" y2="480.4763916272132" stroke-width="5" stroke="red" />
<line x1="553.8677067878175" y1="480.93598449400747" x2="553.9819292939586" y2="480.9794551080205" stroke-width="5" stroke="red" />
<line x1="554.4393251700994" y1="526.5288266419866" x2="554.0897002094853" y2="525.1933223986072" stroke-width="5" stroke="red" />
<line x1="554.4393251700994" y1="526.5288266419866" x2="554.9132700283371" y2="528.3658777790409" stroke-width="5" stroke="red" />
<line x1="554.4557300915543" y1="502.7309917143409" x2="554.6618490984993" y2="502.03481629167703" stroke-width="5" stroke="red" />
<line x1="554.4557300915543" y1="502.7309917143409" x2="553.705232025769" y2="505.26119815017273" stroke-width="5" stroke="red" />
<line x1="555.4805893551965" y1="530.133471717317" x2="554.9132700283371" y2="528.3658777790409" stroke-width="5" stroke="red" />
<line x1="555.4805893551965" y1="530.133471717317" x2="556.8700262788127" y2="534.5188845757754" stroke-width="5" stroke="red" />
<line x1="555.3178603952564" y1="481.4856175028539" x2="555.3951663157407" y2="481.5196620999494" stroke-width="5" stroke="red" />
<line x1="555.3178603952564" y1="481.4856175028539" x2="553.9819292939586" y2="480.9794551080205" stroke-width="5" stroke="red" />
<line x1="556.0299349562162" y1="481.7992401831534" x2="555.3951663157407" y2="481.5196620999494" stroke-width="5" stroke="red" />
<line x1="556.0299349562162" y1="481.7992401831534" x2="556.1175904218842" y2="481.84308439584316" stroke-width="5" stroke="red" />
<line x1="555.8280981685099" y1="559.4788455506996" x2="554.3407533596072" y2="559.8534027628313" stroke-width="5" stroke="red" />
<line x1="556.7289873288333" y1="482.1498149480366" x2="556.8262435293869" y2="482.2067787494448" stroke-width="5" stroke="red" />
<line x1="556.7289873288333" y1="482.1498149480366" x2="556.1175904218842" y2="481.84308439584316" stroke-width="5" stroke="red" />
<line x1="557.0849361382467" y1="535.0868094196942" x2="556.8700262788127" y2="534.5188845757754" stroke-width="5" stroke="red" />
<line x1="557.0849361382467" y1="535.0868094196942" x2="557.982617441054" y2="537.4849227599955" stroke-width="5" stroke="red" />
<line x1="556.1870699502404" y1="497.99298496759053" x2="557.0418423555883" y2="495.73505056517547" stroke-width="5" stroke="red" />
<line x1="556.1870699502404" y1="497.99298496759053" x2="554.6618490984993" y2="502.03481629167703" stroke-width="5" stroke="red" />
<line x1="557.4073601732284" y1="482.54918460025067" x2="556.8262435293869" y2="482.2067787494448" stroke-width="5" stroke="red" />
<line x1="557.4073601732284" y1="482.54918460025067" x2="557.4603437771706" y2="482.584810807683" stroke-width="5" stroke="red" />
<line x1="558.9356480712506" y1="539.9514773824529" x2="557.982617441054" y2="537.4849227599955" stroke-width="5" stroke="red" />
<line x1="558.9356480712506" y1="539.9514773824529" x2="559.1456748817224" y2="540.4997320984301" stroke-width="5" stroke="red" />
<line x1="557.7353725958179" y1="482.7719260941455" x2="557.4603437771706" y2="482.584810807683" stroke-width="5" stroke="red" />
<line x1="557.7353725958179" y1="482.7719260941455" x2="557.789936783761" y2="482.81289703311626" stroke-width="5" stroke="red" />
<line x1="558.0538504885088" y1="483.01309217898387" x2="558.1105145762298" y2="483.0610581330051" stroke-width="5" stroke="red" />
<line x1="558.0538504885088" y1="483.01309217898387" x2="557.789936783761" y2="482.81289703311626" stroke-width="5" stroke="red" />
<line x1="558.3627101676024" y1="483.2788305081203" x2="558.1105145762298" y2="483.0610581330051" stroke-width="5" stroke="red" />
<line x1="558.4823382869085" y1="483.3931232995252" x2="558.3627101676024" y2="483.2788305081203" stroke-width="5" stroke="red" />
<line x1="558.4823382869085" y1="483.3931232995252" x2="558.5403736523039" y2="483.4497113368319" stroke-width="5" stroke="red" />
<line x1="557.7078669160172" y1="494.0678953944458" x2="558.3060251368481" y2="492.58365829283264" stroke-width="5" stroke="red" />
<line x1="557.7078669160172" y1="494.0678953944458" x2="557.0418423555883" y2="495.73505056517547" stroke-width="5" stroke="red" />
<line x1="558.7653073200281" y1="483.69161958273133" x2="558.6553540701004" y2="483.5687355397785" stroke-width="5" stroke="red" />
<line x1="558.7653073200281" y1="483.69161958273133" x2="558.7943570301251" y2="483.72346079970697" stroke-width="5" stroke="red" />
<line x1="558.6553540701004" y1="483.5687355397785" x2="558.5403736523039" y2="483.4497113368319" stroke-width="5" stroke="red" />
<line x1="558.898055256739" y1="483.8507493513408" x2="558.7943570301251" y2="483.72346079970697" stroke-width="5" stroke="red" />
<line x1="558.898055256739" y1="483.8507493513408" x2="558.9267939470928" y2="483.88501604276235" stroke-width="5" stroke="red" />
<line x1="557.7473897622873" y1="558.8536424996911" x2="558.4766382748011" y2="558.6189363929703" stroke-width="5" stroke="red" />
<line x1="557.7473897622873" y1="558.8536424996911" x2="555.8280981685099" y2="559.4788455506996" stroke-width="5" stroke="red" />
<line x1="559.0243118277511" y1="484.0167716793476" x2="558.9267939470928" y2="483.88501604276235" stroke-width="5" stroke="red" />
<line x1="559.0243118277511" y1="484.0167716793476" x2="559.0525194642497" y2="484.0536030290545" stroke-width="5" stroke="red" />
<line x1="558.5805160244493" y1="491.8358195463739" x2="558.8989252971899" y2="490.9783241675512" stroke-width="5" stroke="red" />
<line x1="558.5805160244493" y1="491.8358195463739" x2="558.3060251368481" y2="492.58365829283264" stroke-width="5" stroke="red" />
<line x1="559.1439338669585" y1="484.18963784752503" x2="559.0525194642497" y2="484.0536030290545" stroke-width="5" stroke="red" />
<line x1="559.1439338669585" y1="484.18963784752503" x2="559.1713707278251" y2="484.2291398637821" stroke-width="5" stroke="red" />
<line x1="559.2556095880992" y1="484.369254855141" x2="559.1713707278251" y2="484.2291398637821" stroke-width="5" stroke="red" />
<line x1="559.2556095880992" y1="484.369254855141" x2="559.2820173045744" y2="484.41153769160917" stroke-width="5" stroke="red" />
<line x1="559.0150739353387" y1="490.6260360303026" x2="559.1710484341569" y2="490.16179925039523" stroke-width="5" stroke="red" />
<line x1="559.0150739353387" y1="490.6260360303026" x2="558.8989252971899" y2="490.9783241675512" stroke-width="5" stroke="red" />
<line x1="559.3586178901604" y1="484.5555121441907" x2="559.2820173045744" y2="484.41153769160917" stroke-width="5" stroke="red" />
<line x1="559.3586178901604" y1="484.5555121441907" x2="559.3837184198951" y2="484.60067482570474" stroke-width="5" stroke="red" />
<line x1="559.4522406527461" y1="484.74805588375887" x2="559.3837184198951" y2="484.60067482570474" stroke-width="5" stroke="red" />
<line x1="559.4522406527461" y1="484.74805588375887" x2="559.475735649647" y2="484.7961427196371" stroke-width="5" stroke="red" />
<line x1="559.536319411566" y1="484.9464206624479" x2="559.475735649647" y2="484.7961427196371" stroke-width="5" stroke="red" />
<line x1="559.536319411566" y1="484.9464206624479" x2="559.5580891487855" y2="484.9973642378281" stroke-width="5" stroke="red" />
<line x1="559.2701182771195" y1="489.82329863036574" x2="559.4169470522859" y2="489.3324523708234" stroke-width="5" stroke="red" />
<line x1="559.2701182771195" y1="489.82329863036574" x2="559.1710484341569" y2="490.16179925039523" stroke-width="5" stroke="red" />
<line x1="559.6103264461135" y1="485.1499059883898" x2="559.5580891487855" y2="484.9973642378281" stroke-width="5" stroke="red" />
<line x1="559.6103264461135" y1="485.1499059883898" x2="559.6298363464454" y2="485.2036853758788" stroke-width="5" stroke="red" />
<line x1="559.6738824093109" y1="485.3579945042877" x2="559.6298363464454" y2="485.2036853758788" stroke-width="5" stroke="red" />
<line x1="559.6738824093109" y1="485.3579945042877" x2="559.6911932207897" y2="485.4145051726097" stroke-width="5" stroke="red" />
<line x1="559.4955641523231" y1="489.0056750854888" x2="559.6257391482768" y2="488.48187516291404" stroke-width="5" stroke="red" />
<line x1="559.4955641523231" y1="489.0056750854888" x2="559.4169470522859" y2="489.3324523708234" stroke-width="5" stroke="red" />
<line x1="559.7266665443914" y1="485.5698991570315" x2="559.6911932207897" y2="485.4145051726097" stroke-width="5" stroke="red" />
<line x1="559.7266665443914" y1="485.5698991570315" x2="559.7416392237352" y2="485.6290230550635" stroke-width="5" stroke="red" />
<line x1="559.769254510433" y1="485.78490016205785" x2="559.7416392237352" y2="485.6290230550635" stroke-width="5" stroke="red" />
<line x1="559.769254510433" y1="485.78490016205785" x2="559.7815246872684" y2="485.8464579174893" stroke-width="5" stroke="red" />
<line x1="559.6553394960113" y1="488.3246375318606" x2="559.710086728649" y2="488.05007088525053" stroke-width="5" stroke="red" />
<line x1="559.6553394960113" y1="488.3246375318606" x2="559.6257391482768" y2="488.48187516291404" stroke-width="5" stroke="red" />
<line x1="559.801971275699" y1="486.0022061913132" x2="559.7815246872684" y2="485.8464579174893" stroke-width="5" stroke="red" />
<line x1="559.801971275699" y1="486.0022061913132" x2="559.811382336479" y2="486.06600090128234" stroke-width="5" stroke="red" />
<line x1="559.7327130003188" y1="487.8968140477115" x2="559.7775097741608" y2="487.6137011240674" stroke-width="5" stroke="red" />
<line x1="559.7327130003188" y1="487.8968140477115" x2="559.710086728649" y2="488.05007088525053" stroke-width="5" stroke="red" />
<line x1="559.8242767437268" y1="486.2210535227085" x2="559.811382336479" y2="486.06600090128234" stroke-width="5" stroke="red" />
<line x1="559.8242767437268" y1="486.2210535227085" x2="559.8309078103111" y2="486.28687677829146" stroke-width="5" stroke="red" />
<line x1="559.8374489706849" y1="486.44088311897167" x2="559.8309078103111" y2="486.28687677829146" stroke-width="5" stroke="red" />
<line x1="559.8374489706849" y1="486.44088311897167" x2="559.8416341305925" y2="486.50857157202506" stroke-width="5" stroke="red" />
<line x1="560.9013966193028" y1="544.7884623365466" x2="559.1456748817224" y2="540.4997320984301" stroke-width="5" stroke="red" />
<line x1="560.9013966193028" y1="544.7884623365466" x2="561.5570314977671" y2="546.3972518227163" stroke-width="5" stroke="red" />
<line x1="559.7917428898768" y1="487.46494631111034" x2="559.8236876441474" y2="487.17351633294595" stroke-width="5" stroke="red" />
<line x1="559.7917428898768" y1="487.46494631111034" x2="559.7775097741608" y2="487.6137011240674" stroke-width="5" stroke="red" />
<line x1="559.8419565554351" y1="486.6611726408133" x2="559.8416341305925" y2="486.50857157202506" stroke-width="5" stroke="red" />
<line x1="559.8419565554351" y1="486.6611726408133" x2="559.8430889724885" y2="486.7305642376354" stroke-width="5" stroke="red" />
<line x1="559.8275523955224" y1="487.10126441429503" x2="559.8372718034178" y2="486.95231950628164" stroke-width="5" stroke="red" />
<line x1="559.8275523955224" y1="487.10126441429503" x2="559.8236876441474" y2="487.17351633294595" stroke-width="5" stroke="red" />
<line x1="559.838336323612" y1="486.88142522258175" x2="559.8430889724885" y2="486.7305642376354" stroke-width="5" stroke="red" />
<line x1="559.838336323612" y1="486.88142522258175" x2="559.8372718034178" y2="486.95231950628164" stroke-width="5" stroke="red" />
<line x1="559.4080383474677" y1="558.2368260038957" x2="559.7695663590382" y2="558.0913106411948" stroke-width="5" stroke="red" />
<line x1="559.4080383474677" y1="558.2368260038957" x2="558.4766382748011" y2="558.6189363929703" stroke-width="5" stroke="red" />
<line x1="560.2219422729302" y1="557.8727840536874" x2="560.4013777361075" y2="557.7881890791379" stroke-width="5" stroke="red" />
<line x1="560.2219422729302" y1="557.8727840536874" x2="559.7695663590382" y2="558.0913106411948" stroke-width="5" stroke="red" />
<line x1="560.8390691780818" y1="557.545434618704" x2="561.0172768959898" y2="557.4494822694086" stroke-width="5" stroke="red" />
<line x1="560.8390691780818" y1="557.545434618704" x2="560.4013777361075" y2="557.7881890791379" stroke-width="5" stroke="red" />
<line x1="561.2332153828671" y1="557.3139105859556" x2="561.3229379889734" y2="557.2594480619555" stroke-width="5" stroke="red" />
<line x1="561.2332153828671" y1="557.3139105859556" x2="561.0172768959898" y2="557.4494822694086" stroke-width="5" stroke="red" />
<line x1="561.5331662379305" y1="557.1148823597426" x2="561.6221825123642" y2="557.0558562730972" stroke-width="5" stroke="red" />
<line x1="561.5331662379305" y1="557.1148823597426" x2="561.3229379889734" y2="557.2594480619555" stroke-width="5" stroke="red" />
<line x1="562.2233172862293" y1="548.1694946512704" x2="561.5570314977671" y2="546.3972518227163" stroke-width="5" stroke="red" />
<line x1="562.2233172862293" y1="548.1694946512704" x2="562.6749798776531" y2="549.361636244803" stroke-width="5" stroke="red" />
<line x1="561.8238517617021" y1="556.9009500349492" x2="561.9113833935843" y2="556.8364929855571" stroke-width="5" stroke="red" />
<line x1="561.8238517617021" y1="556.9009500349492" x2="561.6221825123642" y2="557.0558562730972" stroke-width="5" stroke="red" />
<line x1="562.1027488462787" y1="556.6698554591095" x2="562.1882163112053" y2="556.5989807141299" stroke-width="5" stroke="red" />
<line x1="562.1027488462787" y1="556.6698554591095" x2="561.9113833935843" y2="556.8364929855571" stroke-width="5" stroke="red" />
<line x1="562.3665207749045" y1="556.4195130607047" x2="562.4488530103822" y2="556.3411915531302" stroke-width="5" stroke="red" />
<line x1="562.3665207749045" y1="556.4195130607047" x2="562.1882163112053" y2="556.5989807141299" stroke-width="5" stroke="red" />
<line x1="562.5328662882276" y1="556.2463642254891" x2="562.572411184046" y2="556.2042099281726" stroke-width="5" stroke="red" />
<line x1="562.5328662882276" y1="556.2463642254891" x2="562.4488530103822" y2="556.3411915531302" stroke-width="5" stroke="red" />
<line x1="562.6517113804276" y1="556.106010635282" x2="562.6902397240492" y2="556.0616573485786" stroke-width="5" stroke="red" />
<line x1="562.6517113804276" y1="556.106010635282" x2="562.572411184046" y2="556.2042099281726" stroke-width="5" stroke="red" />
<line x1="562.8054705294243" y1="549.7648704451234" x2="562.6749798776531" y2="549.361636244803" stroke-width="5" stroke="red" />
<line x1="562.8054705294243" y1="549.7648704451234" x2="562.9211735076387" y2="550.1133514799606" stroke-width="5" stroke="red" />
<line x1="562.7648455946223" y1="555.9600798636365" x2="562.8016311531843" y2="555.9133830050661" stroke-width="5" stroke="red" />
<line x1="562.7648455946223" y1="555.9600798636365" x2="562.6902397240492" y2="556.0616573485786" stroke-width="5" stroke="red" />
<line x1="562.8715595001811" y1="555.8084280294412" x2="562.9070634400482" y2="555.7592963211532" stroke-width="5" stroke="red" />
<line x1="562.8715595001811" y1="555.8084280294412" x2="562.8016311531843" y2="555.9133830050661" stroke-width="5" stroke="red" />
<line x1="563.0318977210538" y1="550.499594104496" x2="562.9211735076387" y2="550.1133514799606" stroke-width="5" stroke="red" />
<line x1="563.0318977210538" y1="550.499594104496" x2="563.1427385839004" y2="550.8723978831158" stroke-width="5" stroke="red" />
<line x1="562.9713226787028" y1="555.6512539954175" x2="563.0047907303652" y2="555.5996385014325" stroke-width="5" stroke="red" />
<line x1="562.9713226787028" y1="555.6512539954175" x2="562.9070634400482" y2="555.7592963211532" stroke-width="5" stroke="red" />
<line x1="563.062920911645" y1="555.4887668352492" x2="563.0945646634133" y2="555.4346750132205" stroke-width="5" stroke="red" />
<line x1="563.062920911645" y1="555.4887668352492" x2="563.0047907303652" y2="555.5996385014325" stroke-width="5" stroke="red" />
<line x1="563.1471390299005" y1="555.3212804181364" x2="563.1764105685078" y2="555.2646801996368" stroke-width="5" stroke="red" />
<line x1="563.1471390299005" y1="555.3212804181364" x2="563.0945646634133" y2="555.4346750132205" stroke-width="5" stroke="red" />
<line x1="563.22975819172" y1="551.2418852850413" x2="563.1427385839004" y2="550.8723978831158" stroke-width="5" stroke="red" />
<line x1="563.22975819172" y1="551.2418852850413" x2="563.3301093056386" y2="551.6403384616125" stroke-width="5" stroke="red" />
<line x1="563.2229900231497" y1="555.1491377135063" x2="563.2498307134207" y2="555.0900664749237" stroke-width="5" stroke="red" />
<line x1="563.2229900231497" y1="555.1491377135063" x2="563.1764105685078" y2="555.2646801996368" stroke-width="5" stroke="red" />
<line x1="563.2904964043253" y1="554.9728015186885" x2="563.3151040612294" y2="554.911334484437" stroke-width="5" stroke="red" />
<line x1="563.2904964043253" y1="554.9728015186885" x2="563.2498307134207" y2="555.0900664749237" stroke-width="5" stroke="red" />
<line x1="563.3629402847452" y1="551.8184165199212" x2="563.3301093056386" y2="551.6403384616125" stroke-width="5" stroke="red" />
<line x1="563.3629402847452" y1="551.8184165199212" x2="563.4064772405121" y2="552.027863953621" stroke-width="5" stroke="red" />
<line x1="563.3494558784607" y1="554.7928110807967" x2="563.3712357383107" y2="554.7290136524279" stroke-width="5" stroke="red" />
<line x1="563.3494558784607" y1="554.7928110807967" x2="563.3151040612294" y2="554.911334484437" stroke-width="5" stroke="red" />
<line x1="563.3993774233049" y1="554.6096847028351" x2="563.4185150383648" y2="554.5436685368431" stroke-width="5" stroke="red" />
<line x1="563.3993774233049" y1="554.6096847028351" x2="563.3712357383107" y2="554.7290136524279" stroke-width="5" stroke="red" />
<line x1="563.4316679697971" y1="552.201329144466" x2="563.4064772405121" y2="552.027863953621" stroke-width="5" stroke="red" />
<line x1="563.4316679697971" y1="552.201329144466" x2="563.4682634945071" y2="552.4174740549554" stroke-width="5" stroke="red" />
<line x1="563.4415239021598" y1="554.4238835598064" x2="563.4582102655173" y2="554.3557227181907" stroke-width="5" stroke="red" />
<line x1="563.4415239021598" y1="554.4238835598064" x2="563.4185150383648" y2="554.5436685368431" stroke-width="5" stroke="red" />
<line x1="563.484285558887" y1="552.5853791390023" x2="563.4682634945071" y2="552.4174740549554" stroke-width="5" stroke="red" />
<line x1="563.484285558887" y1="552.5853791390023" x2="563.5126546605522" y2="552.8071107930394" stroke-width="5" stroke="red" />
<line x1="563.4757039979822" y1="554.2358752186949" x2="563.4893019330904" y2="554.1656794390659" stroke-width="5" stroke="red" />
<line x1="563.4757039979822" y1="554.2358752186949" x2="563.4582102655173" y2="554.3557227181907" stroke-width="5" stroke="red" />
<line x1="563.5018585729649" y1="554.0460825063009" x2="563.5128330537201" y2="553.9739494081322" stroke-width="5" stroke="red" />
<line x1="563.5018585729649" y1="554.0460825063009" x2="563.4893019330904" y2="554.1656794390659" stroke-width="5" stroke="red" />
<line x1="563.519447762445" y1="552.9696786398592" x2="563.5126546605522" y2="552.8071107930394" stroke-width="5" stroke="red" />
<line x1="563.519447762445" y1="552.9696786398592" x2="563.5369207619405" y2="553.1974158756367" stroke-width="5" stroke="red" />
<line x1="563.5210252833323" y1="553.8549437974835" x2="563.529286413444" y2="553.7809714842971" stroke-width="5" stroke="red" />
<line x1="563.5210252833323" y1="553.8549437974835" x2="563.5128330537201" y2="553.9739494081322" stroke-width="5" stroke="red" />
<line x1="563.5327388681441" y1="553.6627535640204" x2="563.5384924536065" y2="553.5870325156922" stroke-width="5" stroke="red" />
<line x1="563.5327388681441" y1="553.6627535640204" x2="563.529286413444" y2="553.7809714842971" stroke-width="5" stroke="red" />
<line x1="563.5367453922695" y1="553.276357145854" x2="563.5369207619405" y2="553.1974158756367" stroke-width="5" stroke="red" />
<line x1="563.5338364647699" y1="553.3540471853435" x2="563.5367453922695" y2="553.276357145854" stroke-width="5" stroke="red" />
<line x1="563.5338364647699" y1="553.3540471853435" x2="563.5384924536065" y2="553.5870325156922" stroke-width="5" stroke="red" />
</svg>
